<svg width="113" height="113" viewBox="0 0 113 113" fill="none" xmlns="http://www.w3.org/2000/svg">
<path d="M112.043 56.0213C112.043 86.961 86.961 112.043 56.0213 112.043C25.0816 112.043 0 86.961 0 56.0213C0 25.0816 25.0816 0 56.0213 0C86.961 0 112.043 25.0816 112.043 56.0213Z" fill="#F1EADF"/>
<path d="M77.3047 49.2725H26.1031H22.1094C20.9422 49.2725 20 50.2128 20 51.3776C20 57.0334 21.2797 62.4366 23.7969 67.4468C26.0469 71.9097 29.2531 75.9375 33.1344 79.1233V83.8809C33.1344 85.0458 34.0766 85.9861 35.2438 85.9861H76.7563C77.9234 85.9861 78.8656 85.0458 78.8656 83.8809V79.1233C82.7469 75.9375 85.9672 71.9237 88.2031 67.4468C90.7203 62.4366 92 57.0194 92 51.3776C92 50.2128 91.0578 49.2725 89.8906 49.2725H82.6625H77.3047ZM75.4484 76.4568C74.8859 76.8919 74.5906 77.5795 74.6469 78.2672V81.7898H37.3531V78.3234C37.4234 77.6217 37.1281 76.9199 36.5516 76.4708C29.2812 70.8431 24.8797 62.5629 24.2891 53.4968H87.7109C87.1203 62.5489 82.7328 70.8291 75.4484 76.4568Z" fill="#7BC0B3"/>
<path d="M30.4486 33.8347C30.4486 31.3787 30.1111 30.0735 29.8158 28.9227C29.6611 28.3192 29.5064 27.7578 29.4221 27H25.1752C25.2877 28.2912 25.5127 29.1613 25.7236 29.9753C25.9908 31.0138 26.2158 31.912 26.2158 33.8347C26.2158 35.7574 25.9908 36.6556 25.7236 37.6941C25.4283 38.8449 25.0908 40.1501 25.0908 42.6061C25.0908 45.0621 25.4283 46.3673 25.7236 47.5181C25.8643 48.0794 26.0049 48.6127 26.0893 49.2724H30.3361C30.2096 48.0654 29.9986 47.2374 29.8018 46.4655C29.5346 45.427 29.3096 44.5288 29.3096 42.6061C29.3096 40.6834 29.5346 39.7852 29.8018 38.7467C30.1111 37.5959 30.4486 36.2907 30.4486 33.8347Z" fill="#EA9F82"/>
<path d="M86.867 48.6549C86.417 47.0549 85.9107 45.2445 84.7154 43.6867C83.6326 42.2552 82.1982 41.343 80.8061 40.4448C80.2014 40.0659 79.6389 39.701 79.1186 39.308C78.6123 38.9291 78.1061 38.466 77.5717 37.9888C76.4467 36.9643 75.167 35.8135 73.5217 35.0978C71.9748 34.4241 70.3998 34.2697 68.867 34.1154C68.0936 34.0452 67.3482 33.961 66.6732 33.8347C66.0123 33.7084 65.3092 33.4838 64.5779 33.2593C63.1857 32.8242 61.6107 32.333 59.8951 32.333C58.1936 32.333 56.6045 32.8242 55.2123 33.2593C54.4811 33.4838 53.7779 33.7084 53.117 33.8347C52.4279 33.975 51.6967 34.0452 50.9232 34.1154C49.6998 34.2417 48.4342 34.368 47.1826 34.7469C47.1967 34.4522 47.1967 34.1575 47.1967 33.8347C47.1967 31.3787 46.8592 30.0735 46.5639 28.9227C46.4092 28.3192 46.2686 27.7438 46.1701 27H41.9232C42.0357 28.2912 42.2607 29.1613 42.4717 29.9753C42.7389 31.0138 42.9639 31.912 42.9639 33.8347C42.9639 35.7574 42.7389 36.6556 42.4717 37.6941C42.1764 38.8449 41.8389 40.1501 41.8389 42.6061C41.8389 45.0621 42.1764 46.3673 42.4717 47.5181C42.6123 48.0794 42.7529 48.6127 42.8373 49.2724H47.3232C47.7311 48.6689 48.1107 48.2759 48.5186 47.9952C49.2217 47.5321 50.3748 47.3637 51.5842 47.1813C52.442 47.0549 53.3139 46.9146 54.2139 46.676C55.0717 46.4374 55.8732 46.1006 56.6467 45.7638C57.7857 45.2726 58.8686 44.8095 59.8529 44.8095C60.8373 44.8095 61.9201 45.2726 63.0592 45.7638C63.8326 46.1006 64.6342 46.4374 65.492 46.676C66.392 46.9286 67.2639 47.0549 68.1217 47.1813C69.3451 47.3637 70.4842 47.5321 71.1873 47.9952C71.6514 48.304 72.0311 48.7391 72.3826 49.2724H77.2342C77.192 49.1741 77.1357 49.0899 77.0795 48.9917C76.2498 47.4339 75.3076 45.6796 73.4936 44.4867C72.017 43.5043 70.2732 43.2517 68.7264 43.0131C67.967 42.9008 67.2357 42.7885 66.5889 42.6061C66.0123 42.4517 65.3795 42.171 64.7045 41.8763C63.2842 41.2728 61.6951 40.5852 59.8248 40.5852C57.9686 40.5852 56.3654 41.2728 54.9451 41.8763C54.2701 42.171 53.6373 42.4377 53.0607 42.6061C52.3998 42.7885 51.6826 42.9008 50.9232 43.0131C49.3764 43.2517 47.6326 43.5043 46.1561 44.4867C46.142 44.5007 46.1279 44.5147 46.1139 44.5147C46.0576 43.9955 46.0154 43.378 46.0154 42.5921C46.0154 41.4553 46.0998 40.6834 46.2123 40.0238C46.7186 39.6168 47.2811 39.2098 47.8857 38.9431C48.8139 38.5362 50.0092 38.4239 51.2607 38.2976C52.1045 38.2134 52.9904 38.1292 53.8764 37.9467C54.7482 37.7643 55.592 37.5117 56.4076 37.259C57.617 36.8801 58.7561 36.5293 59.8248 36.5293C60.8936 36.5293 62.0326 36.8801 63.242 37.259C64.0576 37.5117 64.8873 37.7783 65.7732 37.9467C66.6592 38.1292 67.5451 38.2134 68.3889 38.2976C69.6545 38.4239 70.8357 38.5362 71.7779 38.9431C72.7764 39.3782 73.7045 40.2203 74.6748 41.0904C75.2514 41.6097 75.8561 42.157 76.517 42.6482C77.1639 43.1394 77.8248 43.5604 78.4717 43.9814C79.5967 44.7112 80.6654 45.3849 81.2982 46.2129C81.917 47.0269 82.2686 48.0935 82.592 49.2583H86.9795C86.9936 49.0759 86.9373 48.8654 86.867 48.6549Z" fill="#EA9F82"/>
<path d="M38.8154 33.8347C38.8154 31.3787 38.4779 30.0735 38.1826 28.9227C38.0279 28.3052 37.8873 27.7438 37.7889 27H33.5561C33.6686 28.2912 33.8936 29.1613 34.1045 29.9753C34.3717 31.0138 34.5967 31.912 34.5967 33.8347C34.5967 35.7574 34.3717 36.6556 34.1045 37.6941C33.8092 38.8449 33.4717 40.1501 33.4717 42.6061C33.4717 45.0621 33.8092 46.3673 34.1045 47.5181C34.2451 48.0794 34.3857 48.6127 34.4701 49.2724H38.717C38.5904 48.0654 38.3795 47.2374 38.1826 46.4655C37.9154 45.427 37.6904 44.5288 37.6904 42.6061C37.6904 40.6834 37.9154 39.7852 38.1826 38.7467C38.4779 37.5959 38.8154 36.2907 38.8154 33.8347Z" fill="#EA9F82"/>
</svg>