<svg width="90" height="90" viewBox="0 0 90 90" fill="none" xmlns="http://www.w3.org/2000/svg">
<path d="M76.8199 13.1801C68.3204 4.68091 57.02 0 45 0C32.98 0 21.6796 4.68091 13.1801 13.1801C4.68091 21.6796 0 32.98 0 45C0 57.02 4.68091 68.3204 13.1801 76.8199C21.6795 85.3193 32.98 90 45 90C57.02 90 68.3204 85.3191 76.8199 76.8199C85.3193 68.3205 90 57.02 90 45C90 32.98 85.3191 21.6796 76.8199 13.1801V13.1801ZM45 84.7283C23.0937 84.7283 5.27169 66.9063 5.27169 45C5.27169 23.0937 23.0937 5.27169 45 5.27169C66.9063 5.27169 84.7283 23.0937 84.7283 45C84.7283 66.9063 66.9063 84.7283 45 84.7283V84.7283Z" fill="#0A543B"/>
<path d="M44.9993 36.5775C49.3595 36.5775 52.9069 33.0302 52.9069 28.67C52.9069 24.3098 49.3595 20.7625 44.9993 20.7625C40.6391 20.7625 37.0918 24.3098 37.0918 28.67C37.0918 33.0302 40.6391 36.5775 44.9993 36.5775ZM44.9993 26.0341C46.4527 26.0341 47.6352 27.2166 47.6352 28.67C47.6352 30.1234 46.4527 31.3058 44.9993 31.3058C43.5459 31.3058 42.3635 30.1234 42.3635 28.67C42.3635 27.2166 43.5459 26.0341 44.9993 26.0341Z" fill="#0A543B"/>
<path d="M33.885 54.7526C37.8806 54.7526 41.6309 53.2001 44.4609 50.3701C44.5656 50.2654 44.6684 50.1596 44.77 50.0519C46.5228 48.1934 48.6146 46.8228 50.8192 46.0879C53.5356 45.1824 55.946 43.6905 57.9833 41.6534C61.4855 38.1514 63.3952 33.4949 63.3608 28.5418C63.3263 23.5896 61.3508 18.9595 57.7981 15.5041C54.2775 12.0799 49.6152 10.242 44.6682 10.3346C39.7167 10.4253 35.1182 12.4338 31.7201 15.9901C29.8356 17.9621 28.4444 20.2675 27.585 22.8422C26.8238 25.1221 25.5057 27.1671 23.7729 28.7562C23.4321 29.0686 23.1012 29.4014 22.7892 29.7452C17.5428 35.5268 17.6619 44.4787 23.0606 50.1252C25.8696 53.0631 29.6524 54.7061 33.7119 54.7516C33.7697 54.7523 33.827 54.7526 33.885 54.7526V54.7526ZM26.6932 33.2879C26.8974 33.063 27.1135 32.8454 27.3358 32.6416C29.7263 30.4493 31.5416 27.6381 32.5854 24.5116C33.1969 22.6797 34.1881 21.0379 35.5315 19.6321C37.9509 17.1003 41.2299 15.6703 44.7647 15.6054C44.8484 15.6039 44.9311 15.6032 45.0146 15.6032C48.4507 15.6032 51.677 16.9046 54.1227 19.2831C56.6561 21.7471 58.0647 25.0483 58.0893 28.5784C58.1139 32.1095 56.7524 35.4291 54.2559 37.9256C52.8026 39.3788 51.0855 40.4423 49.1525 41.0867C46.1248 42.0957 43.2832 43.9452 40.9357 46.4341C40.8695 46.5042 40.8022 46.5738 40.7335 46.6425C38.8738 48.502 36.4065 49.5043 33.7711 49.4804C31.142 49.4509 28.6915 48.386 26.871 46.4822C23.375 42.826 23.297 37.0305 26.6932 33.2879V33.2879Z" fill="#0A543B"/>
<path d="M78.8992 51.2215C78.595 49.7978 77.1941 48.89 75.7706 49.1949L74.1329 49.5449L74.0617 47.8719C73.9998 46.4174 72.7698 45.2886 71.316 45.3506C69.8617 45.4124 68.7327 46.6418 68.7947 48.0963L68.8304 48.9339C66.8889 48.7724 64.9327 49.3674 63.3997 50.6261C55.5148 57.1012 45.5538 60.7388 35.3519 60.8692C33.0318 60.8987 30.8548 61.9972 29.4514 63.8245L28.9266 63.3123C27.8849 62.2955 26.2159 62.3159 25.1993 63.3578C24.1826 64.3997 24.2029 66.0685 25.2448 67.085L26.4434 68.2547L25.0898 69.2406C23.9132 70.0978 23.6543 71.7466 24.5113 72.9233C25.0274 73.6314 25.83 74.0071 26.6439 74.0071C27.1822 74.0071 27.7255 73.8427 28.1938 73.5016L29.2562 72.7275C30.5441 74.5647 32.6134 75.7684 34.9194 75.928C36.0755 76.0079 37.2288 76.0474 38.3803 76.0474C51.4038 76.0474 64.02 70.9789 73.4345 61.8624C75.3752 59.9832 76.1502 57.2219 75.5156 54.6398L76.872 54.3499C78.2963 54.0457 79.2035 52.645 78.8992 51.2215V51.2215ZM69.7679 58.0754C60.5932 66.9596 48.0234 71.5498 35.2837 70.6689C34.3871 70.6069 33.6096 70.0238 33.3026 69.1832C33.048 68.4859 33.1434 67.7361 33.5642 67.1262C33.9898 66.5092 34.6662 66.1499 35.4195 66.1402C46.8139 65.9945 57.9391 61.9318 66.7456 54.6999C67.328 54.2216 68.0767 54.0606 68.7998 54.2583C69.5147 54.4536 70.0707 54.9653 70.3255 55.6627C70.6323 56.5034 70.4135 57.4503 69.7679 58.0754V58.0754Z" fill="#0A543B"/>
</svg>
