<svg width="139" height="139" viewBox="0 0 139 139" fill="none" xmlns="http://www.w3.org/2000/svg">
<circle cx="70.0662" cy="69.0262" r="56.0213" fill="#F1EADF"/>
<path d="M101.264 75.7604H78.0155C77.2726 75.7604 76.5602 75.4625 76.0349 74.9322C75.5096 74.4019 78.5757 73.5099 78.5757 72.6659C78.5757 71.8219 76.0349 70.9332 76.0349 70.9332L78.0155 70.105H102.478C102.793 68.2365 103.223 66.3448 103.225 64.4495C103.225 63.6996 102.93 62.9803 102.404 62.45C101.879 61.9197 101.167 61.6218 100.424 61.6218H38.801C38.0582 61.6218 37.3457 61.9197 36.8204 62.45C36.2951 62.9803 36 63.6996 36 64.4495C36.0058 71.2245 38.0204 77.8426 41.7844 83.4517C45.5484 89.0607 50.8895 93.4039 57.1198 95.9219C56.6715 96.1563 56.2942 96.5087 56.028 96.9417C55.7617 97.3748 55.6163 97.8724 55.6072 98.3821C55.6072 99.132 55.9023 99.8513 56.4276 100.382C56.9529 100.912 57.6654 101.21 58.4083 101.21H80.8165C81.5594 101.21 82.2719 100.912 82.7972 100.382C83.3225 99.8513 83.6176 99.132 83.6176 98.3821C83.6085 97.8724 83.4631 97.3748 83.1969 96.9417C82.9306 96.5087 82.5534 96.1563 82.105 95.9219C86.5332 94.1268 90.532 91.4005 93.8354 87.9242C97.1388 84.4479 99.6712 80.3013 101.264 75.7604Z" fill="#7BC0B3"/>
<path d="M68.0723 58.794C67.3295 58.794 66.617 58.4961 66.0917 57.9658C65.5664 57.4355 65.2713 56.7162 65.2713 55.9663C65.2139 53.1309 65.8184 50.3217 67.036 47.7659C67.9571 45.9278 68.4096 43.8868 68.3525 41.8277C68.3525 41.0778 68.6476 40.3585 69.1729 39.8282C69.6982 39.2979 70.4106 39 71.1535 39C71.8964 39 72.6088 39.2979 73.1341 39.8282C73.6594 40.3585 73.9545 41.0778 73.9545 41.8277C74.0119 44.6631 73.4074 47.4723 72.1899 50.0281C71.2687 51.8661 70.8162 53.9071 70.8734 55.9663C70.8734 56.3376 70.8009 56.7053 70.6602 57.0484C70.5194 57.3915 70.3131 57.7032 70.053 57.9658C69.7929 58.2283 69.4841 58.4366 69.1443 58.5787C68.8044 58.7208 68.4402 58.794 68.0723 58.794Z" fill="#EA9F82"/>
<path d="M56.8682 58.794C56.1254 58.794 55.4129 58.4961 54.8876 57.9658C54.3623 57.4355 54.0672 56.7162 54.0672 55.9663C54.0098 53.1309 54.6143 50.3217 55.8319 47.7659C56.753 45.9278 57.2055 43.8868 57.1484 41.8277C57.1484 41.0778 57.4435 40.3585 57.9688 39.8282C58.4941 39.2979 59.2065 39 59.9494 39C60.6923 39 61.4047 39.2979 61.93 39.8282C62.4553 40.3585 62.7504 41.0778 62.7504 41.8277C62.8078 44.6631 62.2033 47.4723 60.9858 50.0281C60.0646 51.8661 59.6121 53.9071 59.6693 55.9663C59.6693 56.7162 59.3742 57.4355 58.8489 57.9658C58.3236 58.4961 57.6111 58.794 56.8682 58.794Z" fill="#EA9F82"/>
<path d="M79.2764 58.794C78.5336 58.794 77.8211 58.4961 77.2958 57.9658C76.7705 57.4355 76.4754 56.7162 76.4754 55.9663C76.418 53.1309 77.0225 50.3217 78.2401 47.7659C79.1612 45.9278 79.6137 43.8868 79.5565 41.8277C79.5565 41.0778 79.8517 40.3585 80.377 39.8282C80.9023 39.2979 81.6147 39 82.3576 39C83.1005 39 83.8129 39.2979 84.3382 39.8282C84.8635 40.3585 85.1586 41.0778 85.1586 41.8277C85.216 44.6631 84.6115 47.4723 83.394 50.0281C82.4728 51.8661 82.0203 53.9071 82.0775 55.9663C82.0775 56.3376 82.005 56.7053 81.8643 57.0484C81.7235 57.3915 81.5172 57.7032 81.2571 57.9658C80.997 58.2283 80.6882 58.4366 80.3484 58.5787C80.0085 58.7208 79.6443 58.794 79.2764 58.794Z" fill="#EA9F82"/>
<path d="M102.478 70.1047L72.6001 63.2755L71.7465 62.4219L69.1855 72.2388L79.4293 82.4826L101.197 76.0803L102.478 70.1047Z" fill="#7BC0B3"/>
</svg>
