<svg width="87" height="77" viewBox="0 0 87 77" fill="none" xmlns="http://www.w3.org/2000/svg">
<path d="M83.8176 35.1176C83.6883 34.9596 83.541 34.8213 83.3817 34.701C85.9597 32.598 87.2717 29.795 86.7029 27.0477C86.3029 25.116 85.0113 23.4838 83.0931 22.3889C83.6727 20.7741 83.9679 19.1399 83.943 17.6154C83.8971 14.815 82.8039 12.5672 80.8647 11.2857C78.9253 10.0043 76.4494 9.8934 73.8923 10.9736C72.5269 11.5503 71.1902 12.4561 69.9772 13.6076C70.0071 13.3074 70.0241 13.0056 70.0241 12.7042C70.0241 7.78668 66.065 3.78607 61.1988 3.78607C56.9289 3.78607 53.3581 6.86666 52.547 10.9439C50.5224 8.31039 47.3569 6.67386 43.9685 6.67386C43.4553 6.67386 42.9477 6.71259 42.4477 6.78546C41.7977 4.58378 40.4016 2.71436 38.4612 1.47516C36.3353 0.11722 33.8132 -0.322574 31.3595 0.236468C29.1796 0.733168 27.2617 2.00227 25.9324 3.76891C24.6993 3.54078 23.4298 3.56694 22.177 3.85232C18.7834 4.62574 16.2002 7.14983 15.2387 10.3356C14.0974 10.1046 12.9648 10.1869 11.9029 10.5999C9.91004 11.375 8.49665 13.1755 7.92326 15.6692C7.63345 16.9292 7.57563 18.328 7.74339 19.764C5.93951 20.3958 4.5631 21.5793 3.8633 23.1713C2.56405 26.127 3.88818 29.7254 7.03888 32.384C6.83649 32.9648 6.72974 33.5719 6.71344 34.193H6.06306C5.31115 34.193 4.59857 34.532 4.11948 35.1177C1.54469 38.2659 0.501625 42.5261 1.10326 47.4375C1.70758 52.3706 3.90499 57.846 7.45762 63.2721C10.8235 68.4127 15.1933 73.1124 19.7622 76.5052C20.1951 76.8266 20.7182 77 21.2553 77H66.6823C67.2193 77 67.7426 76.8266 68.1755 76.5052C72.7443 73.1124 77.1142 68.4127 80.4799 63.2721C84.0327 57.8462 86.23 52.3706 86.8345 47.4375C87.4361 42.5263 86.393 38.2659 83.8176 35.1176ZM70.0374 19.9283C70.832 19.9235 71.5777 19.5407 72.05 18.895C74.2943 15.827 77.0892 14.8794 78.1048 15.5508C79.1207 16.2221 79.3822 19.1892 77.5005 22.4967C77.1046 23.1929 77.0562 24.0366 77.3706 24.7742C77.6846 25.5116 78.3244 26.0564 79.0968 26.2441C80.5603 26.5998 81.6084 27.3249 81.7673 28.0914C82.0298 29.3605 80.0827 31.466 76.8681 32.4584C76.0207 32.72 75.4107 33.3922 75.1826 34.1928H66.9033C67.35 33.027 67.5871 31.7764 67.5871 30.499C67.5871 27.0054 65.8451 23.9167 63.1938 22.0688C63.2043 19.3064 64.2329 17.4069 65.2679 17.1881C66.0263 17.0273 67.1039 17.7074 68.0129 18.9194C68.4898 19.5553 69.2335 19.9283 70.0224 19.9283C70.0271 19.9285 70.0325 19.9285 70.0374 19.9283ZM26.9473 34.1928C25.9651 33.2306 25.3938 31.8972 25.3938 30.499C25.3938 27.665 27.6752 25.3595 30.4796 25.3595C32.9574 25.3595 35.0526 27.134 35.4852 29.5871C34.6126 30.9367 34.0461 32.5051 33.8872 34.1928H26.9473ZM43.9689 30.0293C46.443 30.0293 48.5091 31.8241 48.9616 34.1928H38.9761C39.4286 31.8241 41.4948 30.0293 43.9689 30.0293ZM54.0505 34.1928C53.8917 32.5048 53.3248 30.936 52.452 29.5863C52.881 27.1612 54.9941 25.3595 57.4581 25.3595C60.2625 25.3595 62.544 27.665 62.544 30.499C62.544 31.8941 61.9813 33.2262 60.9934 34.1928H54.0505ZM61.1992 8.88217C63.0795 8.88217 64.6434 10.2763 64.9328 12.0953C64.6993 12.1167 64.4665 12.1511 64.2349 12.2001C63.5316 12.3487 62.8676 12.6208 62.2535 13.0002C60.9236 12.0305 59.3889 11.3765 57.7723 11.0891C58.3759 9.78673 59.6846 8.88217 61.1992 8.88217ZM49.3792 15.521C49.6451 16.2166 50.1992 16.7597 50.8954 17.007C51.5917 17.2542 52.3601 17.1808 52.9982 16.8064C53.878 16.2897 54.883 16.0167 55.9037 16.0167C57.0575 16.0167 58.1488 16.3505 59.0819 16.9724C58.6701 17.9867 58.392 19.1065 58.2532 20.2979C57.9905 20.2772 57.7259 20.2635 57.4581 20.2635C53.5326 20.2635 50.0551 22.5628 48.3828 25.9578C47.048 25.302 45.5504 24.9332 43.9689 24.9332C42.3902 24.9332 40.8951 25.3004 39.5619 25.9541C37.8969 22.5355 34.4329 20.2633 30.4796 20.2633C30.3228 20.2633 30.1671 20.268 30.012 20.2753C29.8565 19.013 29.4847 17.8812 28.9195 16.9357C29.8425 16.3423 30.9228 16.0167 32.0341 16.0167C33.0548 16.0167 34.0595 16.2897 34.9395 16.8064C35.5775 17.181 36.3462 17.2542 37.0423 17.007C37.7386 16.7597 38.2926 16.2166 38.5584 15.521C39.4159 13.2774 41.5901 11.77 43.9689 11.77C46.3476 11.77 48.5219 13.2774 49.3792 15.521ZM23.2866 8.82356C24.2223 8.61004 25.1776 8.70856 26.049 9.10758C26.667 9.39042 27.3713 9.40978 28.0034 9.1616C28.6354 8.91325 29.1419 8.41825 29.4085 7.78804C29.9602 6.48326 31.1043 5.51857 32.4693 5.20771C33.6085 4.94781 34.7802 5.15233 35.7676 5.78289C36.755 6.41362 37.4403 7.39513 37.6972 8.54684C37.708 8.59509 37.7164 8.64367 37.7256 8.69208C36.7059 9.41913 35.8074 10.3206 35.0824 11.3629C34.0965 11.0709 33.0694 10.9206 32.0342 10.9206C29.2132 10.9206 26.5 12.0424 24.485 14.0167C23.3772 13.8979 22.2136 14.0904 21.0701 14.5806C20.6997 14.0535 20.2995 13.565 19.8777 13.117C19.8799 11.0636 21.2748 9.28204 23.2866 8.82356ZM13.0217 31.4966C12.9523 30.6501 12.47 29.8942 11.7358 29.4809C9.18905 28.0476 8.11859 26.0446 8.47244 25.2396C8.69534 24.7327 9.63637 24.3726 10.8142 24.3436C11.6085 24.324 12.3472 23.9272 12.8076 23.273C13.268 22.6189 13.3964 21.7834 13.154 21.0189C12.2159 18.0599 12.8597 15.6883 13.7147 15.3557C14.5691 15.0225 16.6209 16.3464 17.8883 19.1775C18.2157 19.9089 18.8652 20.4416 19.6409 20.6151C20.4168 20.7887 21.2279 20.5823 21.83 20.0588C22.7232 19.2821 23.6603 18.9121 24.1621 19.1369C24.6565 19.3587 25.0907 20.3659 25.048 21.8662C22.2268 23.6851 20.3504 26.8738 20.3504 30.499C20.3504 31.7772 20.5921 33.0276 21.0396 34.1928H11.7697C11.7803 34.1316 11.7948 34.0734 11.8176 34.0217C11.8681 33.9071 11.9545 33.8014 12.0817 33.6986C12.7387 33.1688 13.0912 32.3431 13.0217 31.4966ZM81.8295 46.8116C80.8227 55.0307 74.1489 65.4614 65.8411 71.9039H22.0966C13.7888 65.4613 7.11503 55.0306 6.10811 46.8116C5.73627 43.7765 6.15467 41.2522 7.35172 39.2889H9.8976H80.5858C81.7831 41.2522 82.2013 43.7765 81.8295 46.8116Z" fill="#0A543B"/>
</svg>
