<svg width="113" height="113" viewBox="0 0 113 113" fill="none" xmlns="http://www.w3.org/2000/svg">
<path d="M112.283 56.0262C112.283 86.9659 87.2013 112.048 56.2615 112.048C25.3218 112.048 0.240234 86.9659 0.240234 56.0262C0.240234 25.0865 25.3218 0.00488281 56.2615 0.00488281C87.2013 0.00488281 112.283 25.0865 112.283 56.0262Z" fill="#F1EADF"/>
<path d="M79.6347 69.2744H32.9197C32.1453 69.2744 31.4027 69.5791 30.8552 70.1215C30.3076 70.6639 30 71.3995 30 72.1666V77.0543C30.0077 79.5909 31.0284 82.0214 32.8391 83.815C34.6498 85.6086 37.1034 86.6197 39.6642 86.6273H72.8902C75.451 86.6197 77.9046 85.6086 79.7153 83.815C81.526 82.0214 82.5467 79.5909 82.5544 77.0543V72.1666C82.5544 71.3995 82.2468 70.6639 81.6992 70.1215C81.1517 69.5791 80.4091 69.2744 79.6347 69.2744Z" fill="#7BC0B3"/>
<path d="M56.2772 23C41.6788 23 30 33.3828 30 46.1372C30 46.9042 30.3076 47.6398 30.8552 48.1822C31.4027 48.7246 32.1453 49.0293 32.9197 49.0293H79.6347C80.4091 49.0293 81.1517 48.7246 81.6992 48.1822C82.2468 47.6398 82.5544 46.9042 82.5544 46.1372C82.5544 33.3828 70.8756 23 56.2772 23Z" fill="#7BC0B3"/>
<path d="M79.6347 67.7704C77.4365 67.8018 75.2797 67.177 73.445 65.9773C72.5152 65.3366 71.4097 64.9932 70.2771 64.9932C69.1445 64.9932 68.039 65.3366 67.1092 65.9773C65.2662 67.1472 63.1231 67.769 60.9341 67.769C58.7451 67.769 56.602 67.1472 54.759 65.9773C53.8292 65.3366 52.7237 64.9932 51.5911 64.9932C50.4585 64.9932 49.353 65.3366 48.4232 65.9773C46.5802 67.1472 44.4371 67.769 42.2481 67.769C40.0591 67.769 37.916 67.1472 36.073 65.9773C35.1619 65.3104 34.0521 64.9643 32.9197 64.994C32.1453 64.994 31.4027 64.6892 30.8552 64.1469C30.3076 63.6045 30 62.8689 30 62.1018C30 61.3348 30.3076 60.5991 30.8552 60.0568C31.4027 59.5144 32.1453 59.2097 32.9197 59.2097C35.1097 59.1714 37.2592 59.797 39.0802 61.0028C40.0023 61.6698 41.1213 62.0156 42.2627 61.9861C43.3951 62.0157 44.5049 61.6696 45.416 61.0028C47.259 59.8329 49.4021 59.2111 51.5911 59.2111C53.7801 59.2111 55.9232 59.8329 57.7662 61.0028C58.696 61.6435 59.8015 61.9869 60.9341 61.9869C62.0667 61.9869 63.1722 61.6435 64.102 61.0028C65.945 59.8329 68.0881 59.2111 70.2771 59.2111C72.4661 59.2111 74.6092 59.8329 76.4523 61.0028C77.3743 61.6698 78.4934 62.0156 79.6347 61.9861C80.4091 61.9861 81.1517 62.2908 81.6992 62.8332C82.2468 63.3756 82.5544 64.1112 82.5544 64.8783C82.5544 65.6453 82.2468 66.3809 81.6992 66.9233C81.1517 67.4657 80.4091 67.7704 79.6347 67.7704Z" fill="#EA9F82"/>
<path d="M79.6347 59.0939C77.4365 59.1253 75.2797 58.5005 73.445 57.3008C72.5152 56.6601 71.4097 56.3167 70.2771 56.3167C69.1445 56.3167 68.039 56.6601 67.1092 57.3008C65.2662 58.4707 63.1231 59.0925 60.9341 59.0925C58.7451 59.0925 56.602 58.4707 54.759 57.3008C53.8292 56.6601 52.7237 56.3167 51.5911 56.3167C50.4585 56.3167 49.353 56.6601 48.4232 57.3008C46.5802 58.4707 44.4371 59.0925 42.2481 59.0925C40.0591 59.0925 37.916 58.4707 36.073 57.3008C35.1619 56.6339 34.0521 56.2878 32.9197 56.3174C32.1453 56.3174 31.4027 56.0127 30.8552 55.4703C30.3076 54.928 30 54.1923 30 53.4253C30 52.6583 30.3076 51.9226 30.8552 51.3802C31.4027 50.8379 32.1453 50.5332 32.9197 50.5332C35.1097 50.4949 37.2592 51.1205 39.0802 52.3263C40.0023 52.9933 41.1213 53.3391 42.2627 53.3096C43.3951 53.3392 44.5049 52.9931 45.416 52.3263C47.259 51.1564 49.4021 50.5345 51.5911 50.5345C53.7801 50.5345 55.9232 51.1564 57.7662 52.3263C58.696 52.967 59.8015 53.3104 60.9341 53.3104C62.0667 53.3104 63.1722 52.967 64.102 52.3263C65.945 51.1564 68.0881 50.5345 70.2771 50.5345C72.4661 50.5345 74.6092 51.1564 76.4523 52.3263C77.3743 52.9933 78.4934 53.3391 79.6347 53.3096C80.4091 53.3096 81.1517 53.6143 81.6992 54.1567C82.2468 54.6991 82.5544 55.4347 82.5544 56.2018C82.5544 56.9688 82.2468 57.7044 81.6992 58.2468C81.1517 58.7892 80.4091 59.0939 79.6347 59.0939Z" fill="#EA9F82"/>
</svg>
