<svg width="113" height="113" viewBox="0 0 113 113" fill="none" xmlns="http://www.w3.org/2000/svg">
<circle cx="56.6766" cy="56.0264" r="56.0213" fill="#F1EADF"/>
<path d="M89.6014 41.4326H21.6343C20.815 41.4326 20.0292 41.7612 19.4498 42.3461C18.8704 42.931 18.5449 43.7243 18.5449 44.5515C18.5449 54.4774 22.4508 63.9969 29.4033 71.0156C36.3559 78.0344 45.7855 81.9775 55.6178 81.9775C65.4502 81.9775 74.8798 78.0344 81.8324 71.0156C88.7849 63.9969 92.6908 54.4774 92.6908 44.5515C92.6908 43.7243 92.3653 42.931 91.7859 42.3461C91.2065 41.7612 90.4207 41.4326 89.6014 41.4326Z" fill="#7BC0B3"/>
<path d="M80.3335 41.4326H30.9029C30.0835 41.4326 29.2977 41.7612 28.7183 42.3461C28.139 42.931 27.8135 43.7243 27.8135 44.5515C27.8135 51.9959 30.7429 59.1355 35.9573 64.3996C41.1717 69.6636 48.2439 72.621 55.6182 72.621C62.9924 72.621 70.0647 69.6636 75.2791 64.3996C80.4934 59.1355 83.4229 51.9959 83.4229 44.5515C83.4229 43.7243 83.0974 42.931 82.518 42.3461C81.9386 41.7612 81.1528 41.4326 80.3335 41.4326Z" fill="#EA9F82"/>
<path d="M46.3492 60.1456C45.5298 60.1456 44.744 59.817 44.1646 59.2321C43.5853 58.6472 43.2598 57.8539 43.2598 57.0267V53.9079C43.2598 53.0807 43.5853 52.2874 44.1646 51.7025C44.744 51.1177 45.5298 50.7891 46.3492 50.7891C47.1685 50.7891 47.9543 51.1177 48.5337 51.7025C49.1131 52.2874 49.4386 53.0807 49.4386 53.9079V57.0267C49.4386 57.8539 49.1131 58.6472 48.5337 59.2321C47.9543 59.817 47.1685 60.1456 46.3492 60.1456Z" fill="#2D856F"/>
<path d="M64.8863 60.1456C64.0669 60.1456 63.2811 59.817 62.7017 59.2321C62.1224 58.6472 61.7969 57.8539 61.7969 57.0267V53.9079C61.7969 53.0807 62.1224 52.2874 62.7017 51.7025C63.2811 51.1177 64.0669 50.7891 64.8863 50.7891C65.7056 50.7891 66.4915 51.1177 67.0708 51.7025C67.6502 52.2874 67.9757 53.0807 67.9757 53.9079V57.0267C67.9757 57.8539 67.6502 58.6472 67.0708 59.2321C66.4915 59.817 65.7056 60.1456 64.8863 60.1456Z" fill="#2D856F"/>
<path d="M55.6177 60.1456C54.7984 60.1456 54.0126 59.817 53.4332 59.2321C52.8538 58.6472 52.5283 57.8539 52.5283 57.0267V53.9079C52.5283 53.0807 52.8538 52.2874 53.4332 51.7025C54.0126 51.1177 54.7984 50.7891 55.6177 50.7891C56.4371 50.7891 57.2229 51.1177 57.8023 51.7025C58.3817 52.2874 58.7071 53.0807 58.7071 53.9079V57.0267C58.7071 57.8539 58.3817 58.6472 57.8023 59.2321C57.2229 59.817 56.4371 60.1456 55.6177 60.1456Z" fill="#2D856F"/>
</svg>
