<svg width="113" height="113" viewBox="0 0 113 113" fill="none" xmlns="http://www.w3.org/2000/svg">
<path d="M112.043 56.0213C112.043 86.961 86.961 112.043 56.0213 112.043C25.0816 112.043 0 86.961 0 56.0213C0 25.0816 25.0816 0 56.0213 0C86.961 0 112.043 25.0816 112.043 56.0213Z" fill="#F1EADF"/>
<g clip-path="url(#clip0_316_889)">
<path d="M87.8499 23.7968C86.421 22.3483 84.4374 21.5468 82.3982 21.6171C80.3729 21.6874 78.4447 22.6015 77.0991 24.1483L69.1644 33.3171C68.2627 32.4733 67.2501 31.728 66.1542 31.1093C66.7507 27.664 66.4039 24.3733 65.1277 21.2796C64.8086 20.5202 64.0873 20.014 63.2689 19.9858C62.4504 19.9577 61.7013 20.4218 61.3407 21.153C59.787 24.3171 54.6544 29.1827 51.2697 29.1827H50.1322C42.4333 29.1827 36.0383 34.9202 34.9702 42.4999C30.2954 44.3983 26.9523 48.7296 26.2032 53.7499H24.0808C22.9294 53.7499 22 54.6921 22 55.8593C22 57.0265 22.9294 57.9686 24.0808 57.9686H24.6357L27.1187 83.239C27.6042 88.2171 31.6964 91.9718 36.6348 91.9718H72.2856C77.224 91.9718 81.3162 88.2171 81.8017 83.239L84.2848 57.9827H84.8396C85.991 57.9827 86.9204 57.0405 86.9204 55.8733C86.9204 54.7061 85.991 53.764 84.8396 53.764H82.7034C82.1346 49.8686 79.9845 46.3952 76.8772 44.1452L87.5031 34.6952C89.029 33.3452 89.9445 31.3765 90 29.3233C90.0694 27.2702 89.2787 25.2452 87.8499 23.7968ZM77.654 82.8452C77.3766 85.6577 75.0738 87.7811 72.2856 87.7811H36.6348C33.8466 87.7811 31.5439 85.6577 31.2664 82.8452L28.825 57.9827H80.0955L77.654 82.8452ZM45.7487 53.764V53.2718C45.7487 52.1046 44.8193 51.1624 43.6679 51.1624C42.5165 51.1624 41.5871 52.1046 41.5871 53.2718V53.764H30.448C31.2109 50.1499 33.9021 47.1405 37.4949 46.0999C38.355 45.8468 38.9653 45.0733 39.0069 44.1733C39.2982 38.1546 44.195 33.4296 50.1461 33.4296H51.2836C54.4741 33.4296 57.5675 31.3905 59.6067 29.6749C60.55 28.8874 61.4516 28.0015 62.2562 27.0874C62.3533 28.578 62.1869 30.139 61.7568 31.7702C61.4933 32.7968 62.0204 33.8655 62.9914 34.2593C66.9865 35.9186 69.7193 39.7999 69.9274 44.1733C69.969 45.0733 70.5793 45.8468 71.4394 46.0999C75.0461 47.1405 77.7234 50.1499 78.4863 53.764H45.7487ZM85.8384 29.1827C85.8107 30.0827 85.4223 30.9124 84.7564 31.5171L73.7283 41.3327C73.3537 39.6593 72.7156 38.0702 71.8417 36.6358L80.2342 26.9468C80.8307 26.2718 81.6352 25.878 82.5369 25.8499C83.4247 25.8218 84.2709 26.1593 84.909 26.7921C85.5332 27.4249 85.8662 28.2686 85.8384 29.1827Z" fill="#EA9F82"/>
<path d="M47.4961 39.0686C46.6776 38.2389 45.3598 38.2389 44.5552 39.0686C43.7368 39.8982 43.7368 41.2342 44.5552 42.0498L45.9008 43.4139C46.3031 43.8217 46.8441 44.0326 47.3712 44.0326C47.8984 44.0326 48.4394 43.8217 48.8417 43.4139C49.6601 42.5842 49.6601 41.2482 48.8417 40.4326L47.4961 39.0686Z" fill="#EA9F82"/>
<path d="M66.6402 46.3249C65.6553 45.7202 64.3791 46.0436 63.7826 47.0421L63.2138 47.9983C62.6173 48.9968 62.9364 50.2905 63.9213 50.8952C64.2542 51.1061 64.6287 51.2046 65.0033 51.2046C65.7108 51.2046 66.3905 50.8389 66.7928 50.1921L67.3615 49.2358C67.9441 48.2374 67.6251 46.9296 66.6402 46.3249Z" fill="#EA9F82"/>
<path d="M62.6168 39.5327L61.5348 37.9436C60.8828 36.9874 59.5927 36.7343 58.6356 37.3952C57.6923 38.0561 57.4426 39.364 58.0945 40.3343L59.1766 41.9233C59.5788 42.514 60.2308 42.8374 60.8967 42.8374C61.299 42.8374 61.7151 42.7108 62.0758 42.4718C63.0191 41.8108 63.2688 40.489 62.6168 39.5327Z" fill="#EA9F82"/>
<path d="M53.711 45.4389L52.2545 46.9154C51.436 47.7451 51.436 49.0811 52.2545 49.8967C52.6567 50.3045 53.1977 50.5154 53.7249 50.5154C54.252 50.5154 54.793 50.3045 55.1953 49.8967L56.6518 48.4201C57.4703 47.5904 57.4703 46.2545 56.6518 45.4389C55.8473 44.6232 54.5294 44.6232 53.711 45.4389Z" fill="#EA9F82"/>
<path d="M84.8396 53.7642H78.4725H45.7348H24.0808C22.9294 53.7642 22 54.7063 22 55.8735C22 57.0407 22.9294 57.9829 24.0808 57.9829H24.6357L27.1187 83.2532C27.6042 88.2313 31.6964 91.986 36.6348 91.986H72.2856C77.224 91.986 81.3162 88.2313 81.8017 83.2532L84.2848 57.9829H84.8396C85.991 57.9829 86.9204 57.0407 86.9204 55.8735C86.9204 54.7063 85.991 53.7642 84.8396 53.7642ZM77.654 82.8454C77.3766 85.6579 75.0738 87.7813 72.2856 87.7813H36.6348C33.8466 87.7813 31.5439 85.6579 31.2664 82.8454L28.825 57.9829H80.0955L77.654 82.8454Z" fill="#7BC0B3"/>
</g>
<defs>
<clipPath id="clip0_316_889">
<rect width="68" height="72" fill="white" transform="translate(22 20)"/>
</clipPath>
</defs>
</svg>
