<svg width="85" height="85" viewBox="0 0 85 85" fill="none" xmlns="http://www.w3.org/2000/svg">
<path d="M84.399 57.3743C79.2872 44.4574 71.7121 32.9249 61.884 23.0968C52.0559 13.2688 40.5235 5.69368 27.6067 0.582026C25.4775 -0.260443 23.0693 -0.185487 20.9999 0.788447C18.937 1.75939 17.35 3.55967 16.6458 5.72692L16.6092 5.83927C15.4453 9.42156 16.8594 13.2658 19.8674 15.2868L5.01659 65.2486C4.95709 65.395 4.91122 65.5486 4.87981 65.7089L0.103375 81.7777C-0.157227 82.6546 0.0832647 83.6037 0.730282 84.2508C1.37713 84.8978 2.32647 85.1388 3.20334 84.8775L17.9402 80.4971C19.0931 83.1444 21.7347 85 24.8014 85C28.9253 85 32.2804 81.6449 32.2804 77.521V76.2346L46.5736 71.9862V74.1971C46.5736 78.3211 49.9287 81.6761 54.0527 81.6761C58.1766 81.6761 61.5317 78.3211 61.5317 74.1971V67.54L69.6934 65.114C71.2366 67.4112 73.8426 68.779 76.5829 68.779C77.4311 68.779 78.2921 68.648 79.1379 68.3733L79.2533 68.3357C81.4214 67.6312 83.2216 66.0442 84.1926 63.9813C85.1664 61.9118 85.2416 59.5037 84.399 57.3743ZM73.5062 61.7152C68.9874 50.2864 62.2876 40.083 53.5928 31.3881C45.0419 22.8376 35.0312 16.2178 23.8318 11.7027C23.8095 11.6932 23.4324 11.5406 23.2656 11.4746C21.6531 10.8371 20.8123 9.03863 21.3508 7.38095L21.3873 7.26843C21.6722 6.39172 22.2886 5.69252 23.1229 5.29962C23.9639 4.90407 24.9046 4.87498 25.7717 5.21802C50.355 14.9467 70.0338 34.6255 79.7625 59.2089C80.1057 60.0759 80.0766 61.0166 79.6809 61.8576C79.2882 62.6921 78.589 63.3083 77.7159 63.5922L77.6006 63.6298C75.9422 64.1683 74.1438 63.3275 73.5062 61.7152ZM14.1265 52.1C15.1925 53.3628 15.8066 54.9767 15.8066 56.6846C15.8066 59.8948 13.6673 62.6133 10.74 63.493L14.1265 52.1ZM58.3283 63.2904C57.2708 63.6047 56.5457 64.5766 56.5457 65.68V74.197C56.5457 75.5716 55.4273 76.69 54.0527 76.69C52.678 76.69 51.5597 75.5716 51.5597 74.197V68.6442C51.5597 67.8573 51.188 67.1167 50.5573 66.646C49.9267 66.1756 49.1105 66.0304 48.3563 66.2548L29.0771 71.9853C28.0195 72.2996 27.2944 73.2717 27.2944 74.375V77.5211C27.2944 78.8958 26.1761 80.0141 24.8014 80.0141C23.4268 80.0141 22.3084 78.8958 22.3084 77.5211V77.339C22.3084 76.552 21.9368 75.8114 21.306 75.3408C20.6752 74.8704 19.8593 74.7252 19.1051 74.9495L6.19395 78.7874L9.17226 68.7677C15.622 68.5174 20.7927 63.195 20.7927 56.6849C20.7927 52.7342 18.8705 49.0733 15.6958 46.8208L24.4487 17.3736C43.6469 25.8493 59.1322 41.3345 67.6076 60.5325L58.3283 63.2904Z" fill="#0A543B"/>
<path d="M31.5503 44.9199C35.6742 44.9199 39.0293 41.5649 39.0293 37.4409C39.0293 33.317 35.6742 29.9619 31.5503 29.9619C27.4264 29.9619 24.0713 33.317 24.0713 37.4409C24.0713 41.5649 27.4264 44.9199 31.5503 44.9199ZM31.5503 34.9479C32.9249 34.9479 34.0433 36.0663 34.0433 37.4409C34.0433 38.8156 32.9249 39.9339 31.5503 39.9339C30.1757 39.9339 29.0573 38.8156 29.0573 37.4409C29.0573 36.0663 30.1757 34.9479 31.5503 34.9479Z" fill="#0A543B"/>
<path d="M42.5366 47.5503C38.4127 47.5503 35.0576 50.9054 35.0576 55.0293C35.0576 59.1532 38.4127 62.5083 42.5366 62.5083C46.6606 62.5083 50.0156 59.1532 50.0156 55.0293C50.0156 50.9054 46.6606 47.5503 42.5366 47.5503ZM42.5366 57.5223C41.162 57.5223 40.0436 56.404 40.0436 55.0293C40.0436 53.6547 41.162 52.5363 42.5366 52.5363C43.9113 52.5363 45.0296 53.6547 45.0296 55.0293C45.0296 56.404 43.9113 57.5223 42.5366 57.5223Z" fill="#0A543B"/>
<path d="M31.5991 60.9682C30.3413 61.2074 29.1224 60.3787 28.8831 59.1206C28.6258 57.7682 27.3211 56.8799 25.9679 57.1375C24.6154 57.3947 23.7275 58.6998 23.9848 60.0525C24.3498 61.9702 25.4397 63.6313 27.0539 64.7293C28.2804 65.5638 29.6979 65.9973 31.1495 65.9973C31.6082 65.9973 32.0706 65.9539 32.531 65.8663C33.8835 65.609 34.7714 64.3039 34.5141 62.9513C34.2566 61.5988 32.9525 60.7109 31.5991 60.9682Z" fill="#0A543B"/>
<path d="M47.8984 39.9418C47.2873 40.2506 46.5758 40.2757 45.9462 40.0103C44.6776 39.4757 43.2154 40.0707 42.6807 41.3394C42.146 42.6082 42.741 44.0703 44.01 44.6048C44.9207 44.9887 45.8854 45.1796 46.8488 45.1796C47.981 45.1796 49.1111 44.9157 50.1486 44.3912C51.3773 43.7701 51.8696 42.2703 51.2485 41.0416C50.6267 39.813 49.1271 39.3206 47.8984 39.9418Z" fill="#0A543B"/>
</svg>
