<svg width="113" height="113" viewBox="0 0 113 113" fill="none" xmlns="http://www.w3.org/2000/svg">
<circle cx="56.0213" cy="56.0213" r="56.0213" fill="#F1EADF"/>
<path d="M40.7119 42.9587C40.733 42.9587 43.4055 30.9024 63.1573 29.0045C63.5493 28.9731 63.9364 29.1072 64.2249 29.3743C64.5134 29.6414 64.6769 30.0172 64.6756 30.4103L64.6756 44.8201L40.7119 42.9587Z" fill="#2D856F"/>
<path d="M81.5866 60.4811C79.5989 62.5607 77.4962 64.5272 75.2885 66.3715C59.0934 79.8394 44.9227 78.6585 34.5195 73.7381C37.6614 69.2445 39.3538 63.8976 39.3696 58.4146C39.3561 52.9269 37.6636 47.5747 34.5195 43.077C35.6334 42.5352 36.7789 42.0611 37.9497 41.6571V41.6431C39.2244 41.1877 40.5247 40.8075 41.8439 40.5043C49.0942 38.8579 56.6872 39.6895 63.4093 42.8661C63.7467 43.0067 64.07 43.1613 64.4074 43.33C65.9246 44.0548 67.3985 44.8669 68.8217 45.7621C71.2581 47.2744 73.5751 48.9711 75.7524 50.8372C77.7915 52.5667 79.7388 54.4014 81.5866 56.3339C82.6553 57.5098 82.6553 59.3053 81.5866 60.4811V60.4811Z" fill="#7BC0B3"/>
<path d="M39.37 58.4145C39.3542 63.8975 37.6619 69.2445 34.5199 73.738C28.0086 70.5092 22.2618 65.9271 17.6641 60.2983C16.7786 59.1932 16.7786 57.6217 17.6641 56.5166C21.1136 52.3448 25.1701 48.7148 29.698 45.748C31.2461 44.7547 32.8568 43.8625 34.5199 43.0769C37.664 47.5747 39.3565 52.9268 39.37 58.4145Z" fill="#EA9F82"/>
<path d="M29.874 55.3511C30.8411 55.3511 31.625 54.5672 31.625 53.6001C31.625 52.6331 30.8411 51.8491 29.874 51.8491C28.907 51.8491 28.123 52.6331 28.123 53.6001C28.123 54.5672 28.907 55.3511 29.874 55.3511Z" fill="#0A543B"/>
<path d="M98.4159 71.531H84.3576C80.3088 71.531 77.1879 68.7334 75.29 66.3716C77.4977 64.5272 79.6004 62.5607 81.5881 60.4812C82.6569 59.3053 82.6569 57.5098 81.5881 56.334C79.7404 54.4015 77.793 52.5667 75.754 50.8372C77.6799 48.6019 80.6181 46.2261 84.3576 46.2261H98.4159C98.4159 46.2261 98.4159 56.0669 91.3868 58.8785C98.4159 61.6902 98.4159 71.531 98.4159 71.531Z" fill="#2D856F"/>
<path d="M49.2117 58.8787C48.4353 58.8787 47.8059 58.2493 47.8059 57.4729C47.8059 50.7516 44.0102 50.455 43.5701 50.4437C42.7995 50.4238 42.1868 49.7905 42.1924 49.0196C42.1978 48.2523 42.821 47.6328 43.5884 47.6321C43.6587 47.6321 50.6175 47.7445 50.6175 57.4729C50.6175 58.2493 49.9881 58.8787 49.2117 58.8787Z" fill="#2D856F"/>
<path d="M56.24 58.8783C55.4636 58.8783 54.8342 58.2489 54.8342 57.4725C54.8342 49.9935 50.0361 47.508 49.9883 47.4911C49.2934 47.144 49.0114 46.2994 49.3585 45.6045C49.7055 44.9096 50.5502 44.6276 51.2451 44.9747C51.5066 45.1012 57.6458 48.2742 57.6458 57.4725C57.6458 58.2489 57.0164 58.8783 56.24 58.8783Z" fill="#2D856F"/>
</svg>
