<svg width="90" height="90" viewBox="0 0 90 90" fill="none" xmlns="http://www.w3.org/2000/svg">
<g clip-path="url(#clip0_316_986)">
<path d="M76.8199 13.1803C68.3204 4.68091 57.02 0 45 0C32.98 0 21.6796 4.68091 13.1801 13.1803C4.68091 21.6796 0 32.9802 0 45C0 57.0198 4.68091 68.3204 13.1801 76.8197C21.6795 85.3191 32.98 90 45 90C57.02 90 68.3204 85.3191 76.8199 76.8197C85.3193 68.3204 90 57.0198 90 45C90 32.9802 85.3191 21.6796 76.8199 13.1803V13.1803ZM45 84.7283C23.0937 84.7283 5.27169 66.9063 5.27169 45C5.27169 23.0937 23.0937 5.27169 45 5.27169C66.9063 5.27169 84.7283 23.0937 84.7283 45C84.7283 66.9063 66.9063 84.7283 45 84.7283Z" fill="#0A543B"/>
<path d="M74.9928 45.6058C74.9176 46.3743 74.8048 47.1428 74.6921 47.9113C74.241 50.9853 73.151 53.8397 71.7227 56.5477C70.1441 59.5851 68.0768 62.2565 65.4081 64.4888C62.0629 67.2334 58.2291 68.9167 53.869 69.5023C48.9075 70.1976 44.1716 69.3925 39.586 67.5261C39.2477 67.3798 38.9846 67.3798 38.6463 67.5993C31.2041 72.1737 21.4315 69.2095 18.0111 61.3416C14.3652 53.1444 19.7401 43.6663 28.7986 42.3123C29.8886 42.1293 29.8886 42.1293 30.1893 41.0681C30.2269 40.9949 30.2269 40.8851 30.2644 40.7753C30.0765 40.7387 29.9262 40.6655 29.7758 40.6655C25.7916 40.08 23.3109 36.5669 24.1378 32.7244C24.2506 32.1389 24.6264 31.8096 25.2278 31.6998C28.8737 30.9679 32.1062 32.8708 33.1962 36.3473C33.2338 36.4571 33.2714 36.5669 33.309 36.6767C33.7976 36.4571 34.2487 36.2741 34.6997 36.0912C35.489 35.7984 36.128 36.0546 36.3535 36.6767C36.579 37.2988 36.2408 37.8477 35.5266 38.1405C33.6473 38.8358 32.67 40.2264 32.2941 42.0927C33.6848 42.4221 35.0004 42.7514 36.4287 43.0808C36.7294 42.6782 37.0301 42.2025 37.4059 41.7634C38.2704 40.8485 39.0974 39.9336 40.0746 39.1285C41.766 37.7745 42.5178 36.1277 42.7057 34.0418C42.8936 31.6266 43.6078 29.2845 44.9609 27.162C46.4268 24.8931 48.4941 23.5757 51.2755 23.3927C51.3883 23.3927 51.501 23.3927 51.6138 23.3561C51.6138 23.3561 51.6514 23.3561 51.5762 23.3561C52.0272 22.2949 52.3279 21.2336 52.8541 20.3188C53.6435 18.8916 54.9214 17.8669 56.5376 17.3546C57.2894 17.0984 57.9284 17.3546 58.1539 17.9767C58.3794 18.5988 58.0787 19.1477 57.327 19.4405C55.3725 20.1724 54.3952 21.6362 54.0569 23.5757C54.6959 23.8319 55.2597 24.0514 55.8611 24.3442C57.8156 25.2591 58.9432 26.8692 59.5822 28.8088C60.4091 31.3704 60.4091 33.9686 59.9205 36.5669C59.5446 38.4332 59.8453 40.08 60.9729 41.6536C61.5743 42.4953 62.1005 43.4467 62.7395 44.3982C62.965 43.959 63.2281 43.5565 63.416 43.1174C63.8671 42.0561 64.3181 40.9583 64.7316 39.897C64.9195 39.4213 65.1826 39.1285 65.6337 38.8724C65.8592 38.7626 66.1223 38.4332 66.1975 38.1771C66.3478 37.372 66.4982 36.5303 66.4982 35.7252C66.5357 34.9201 66.874 34.3712 67.5506 33.9686C68.4527 33.4197 69.4299 33.0904 70.4824 33.0904C71.3844 33.0904 71.7979 33.3831 71.9483 34.2614C72.2114 35.6154 72.5872 36.8962 73.5645 37.9941C73.6021 38.0307 73.6021 38.0673 73.6397 38.0673C74.88 38.909 74.9552 40.1532 75.0304 41.434C75.0304 41.617 75.1055 41.8365 75.1431 42.0195C74.9928 43.2271 74.9928 44.3982 74.9928 45.6058ZM69.7306 35.4324C68.7534 35.6154 68.603 35.7252 68.5278 36.5669C68.4903 37.0792 68.4527 37.5549 68.3775 38.0673C68.2272 39.1285 67.8889 40.1166 66.874 40.7387C66.7237 40.8485 66.6109 41.0681 66.4982 41.251C66.0095 42.3489 65.5961 43.4833 65.0323 44.5446C62.7019 49.0823 59.3191 52.7784 54.959 55.6328C51.6514 57.7919 48.0054 59.2557 44.0588 59.8778C40.6384 60.4267 37.218 60.3169 33.7976 59.5485C33.4593 59.4753 33.1586 59.5119 32.9331 59.8046C32.7076 60.0974 32.4821 60.3535 32.219 60.6463C33.0083 61.1952 33.6849 61.7807 34.4366 62.2199C35.7521 63.025 37.1053 63.8666 38.496 64.5254C43.0816 66.7576 47.8551 67.8921 53.0045 67.3432C56.0866 67.0138 58.9432 66.0257 61.5743 64.4156C64.5061 62.6224 66.7989 60.2438 68.5654 57.3894C71.5724 52.632 73.0383 47.4722 72.5872 41.8731C72.5121 40.8851 72.3241 40.0434 71.5348 39.2749C70.52 38.2502 70.0689 36.8596 69.7306 35.4324ZM45.1488 57.3894C45.224 57.3894 45.2992 57.3894 45.3368 57.3894C51.8769 55.7792 56.9887 52.1929 60.9353 46.9598C61.0481 46.8134 61.0481 46.4841 60.9729 46.3377C60.2212 45.0203 59.4694 43.7029 58.6425 42.4221C57.5901 40.7387 57.0639 38.9821 57.4773 37.006C57.8532 35.1397 57.966 33.2733 57.7404 31.407C57.5525 29.87 57.1015 28.4428 56.0114 27.3084C53.4555 24.6736 48.7948 25.2225 46.8402 28.4062C45.5623 30.3824 45.0361 32.6512 44.773 34.9933C44.6226 36.2741 44.4723 37.5549 43.6078 38.5796C42.7057 39.6043 41.7284 40.5191 40.7512 41.4706C39.8867 42.3123 39.0222 43.1174 38.4208 44.142C43.2319 47.3258 45.5247 51.7172 45.1488 57.3894ZM40.5632 58.0115C41.2398 57.9749 41.8036 57.9017 42.3298 57.9017C42.6681 57.9017 42.8185 57.7553 42.8185 57.4625C42.7809 56.1451 42.8936 54.8277 42.6305 53.5835C41.0143 46.4841 33.6849 42.6782 26.6937 45.2033C20.9053 47.2892 17.7104 53.9494 19.7401 59.6216C22.0329 65.9526 28.7234 69.0631 35.2259 66.8308C35.677 66.6844 36.128 66.4283 36.6542 66.2087C36.3911 66.0623 36.2408 65.9526 36.0904 65.8794C34.2111 64.6351 32.3317 63.3909 30.49 62.1467C29.6631 61.5612 29.5879 61.1586 30.0013 60.2438C30.4524 59.1825 31.2041 58.3408 32.1438 57.6455C32.6324 57.2796 33.0835 57.1698 33.6849 57.3162C34.399 57.4991 35.0756 57.6455 35.7897 57.7553C36.6166 57.9017 37.4059 57.9749 38.2329 58.0481L40.5632 58.0115ZM26.2802 33.7857C25.9044 36.7133 28.7234 38.8724 31.0914 38.4332C31.4296 35.7984 28.9489 33.3831 26.2802 33.7857Z" fill="#0A543B" stroke="#0A543B" stroke-width="2" stroke-miterlimit="10"/>
</g>
<defs>
<clipPath id="clip0_316_986">
<rect width="90" height="90" fill="white"/>
</clipPath>
</defs>
</svg>
