<svg width="113" height="113" viewBox="0 0 113 113" fill="none" xmlns="http://www.w3.org/2000/svg">
<circle cx="56.0662" cy="56.0262" r="56.0213" fill="#F1EADF"/>
<path d="M87.2641 62.7604H64.0155C63.2726 62.7604 62.5602 62.4625 62.0349 61.9322C61.5096 61.4019 64.5757 60.5099 64.5757 59.6659C64.5757 58.8219 62.0349 57.9332 62.0349 57.9332L64.0155 57.105H88.4779C88.7928 55.2365 89.2228 53.3448 89.2248 51.4495C89.2248 50.6996 88.9297 49.9803 88.4044 49.45C87.8791 48.9197 87.1667 48.6218 86.4238 48.6218H24.801C24.0582 48.6218 23.3457 48.9197 22.8204 49.45C22.2951 49.9803 22 50.6996 22 51.4495C22.0058 58.2245 24.0204 64.8426 27.7844 70.4517C31.5484 76.0607 36.8895 80.4039 43.1198 82.9219C42.6715 83.1563 42.2942 83.5087 42.028 83.9417C41.7617 84.3748 41.6163 84.8724 41.6072 85.3821C41.6072 86.132 41.9023 86.8513 42.4276 87.3816C42.9529 87.9119 43.6654 88.2098 44.4083 88.2098H66.8165C67.5594 88.2098 68.2719 87.9119 68.7972 87.3816C69.3225 86.8513 69.6176 86.132 69.6176 85.3821C69.6085 84.8724 69.4631 84.3748 69.1969 83.9417C68.9306 83.5087 68.5534 83.1563 68.105 82.9219C72.5332 81.1268 76.532 78.4005 79.8354 74.9242C83.1388 71.4479 85.6712 67.3013 87.2641 62.7604Z" fill="#7BC0B3"/>
<path d="M54.0723 45.794C53.3295 45.794 52.617 45.4961 52.0917 44.9658C51.5664 44.4355 51.2713 43.7162 51.2713 42.9663C51.2139 40.1309 51.8184 37.3217 53.036 34.7659C53.9571 32.9278 54.4096 30.8868 54.3525 28.8277C54.3525 28.0778 54.6476 27.3585 55.1729 26.8282C55.6982 26.2979 56.4106 26 57.1535 26C57.8964 26 58.6088 26.2979 59.1341 26.8282C59.6594 27.3585 59.9545 28.0778 59.9545 28.8277C60.0119 31.6631 59.4074 34.4723 58.1899 37.0281C57.2687 38.8661 56.8162 40.9071 56.8734 42.9663C56.8734 43.3376 56.8009 43.7053 56.6602 44.0484C56.5194 44.3915 56.3131 44.7032 56.053 44.9658C55.7929 45.2283 55.4841 45.4366 55.1443 45.5787C54.8044 45.7208 54.4402 45.794 54.0723 45.794V45.794Z" fill="#EA9F82"/>
<path d="M42.8682 45.794C42.1254 45.794 41.4129 45.4961 40.8876 44.9658C40.3623 44.4355 40.0672 43.7162 40.0672 42.9663C40.0098 40.1309 40.6143 37.3217 41.8319 34.7659C42.753 32.9278 43.2055 30.8868 43.1484 28.8277C43.1484 28.0778 43.4435 27.3585 43.9688 26.8282C44.4941 26.2979 45.2065 26 45.9494 26C46.6923 26 47.4047 26.2979 47.93 26.8282C48.4553 27.3585 48.7504 28.0778 48.7504 28.8277C48.8078 31.6631 48.2033 34.4723 46.9858 37.0281C46.0646 38.8661 45.6121 40.9071 45.6693 42.9663C45.6693 43.7162 45.3742 44.4355 44.8489 44.9658C44.3236 45.4961 43.6111 45.794 42.8682 45.794Z" fill="#EA9F82"/>
<path d="M65.2765 45.794C64.5336 45.794 63.8211 45.4961 63.2958 44.9658C62.7705 44.4355 62.4754 43.7162 62.4754 42.9663C62.418 40.1309 63.0225 37.3217 64.2401 34.7659C65.1612 32.9278 65.6137 30.8868 65.5565 28.8277C65.5565 28.0778 65.8517 27.3585 66.377 26.8282C66.9023 26.2979 67.6147 26 68.3576 26C69.1005 26 69.8129 26.2979 70.3382 26.8282C70.8635 27.3585 71.1586 28.0778 71.1586 28.8277C71.216 31.6631 70.6115 34.4723 69.394 37.0281C68.4728 38.8661 68.0203 40.9071 68.0775 42.9663C68.0775 43.3376 68.005 43.7053 67.8643 44.0484C67.7235 44.3915 67.5172 44.7032 67.2571 44.9658C66.997 45.2283 66.6882 45.4366 66.3484 45.5787C66.0085 45.7208 65.6443 45.794 65.2765 45.794V45.794Z" fill="#EA9F82"/>
<path d="M88.4778 57.1047L58.6001 50.2755L57.7465 49.4219L55.1855 59.2388L65.4293 69.4826L87.1974 63.0803L88.4778 57.1047Z" fill="#7BC0B3"/>
</svg>