<svg width="92" height="64" viewBox="0 0 92 64" fill="none" xmlns="http://www.w3.org/2000/svg">
<path d="M89.9201 37.3186C91.8394 34.0433 92.0285 29.8709 90.0496 26.3695C85.898 19.0239 78.8394 13.5095 70.672 11.2229C69.6596 9.07066 68.0386 7.18389 65.8772 5.86235C59.9136 2.21598 53.0415 0.287182 46.0039 0.284668H45.9899C38.9576 0.284668 32.0895 2.20807 26.1274 5.84726C23.9578 7.17168 22.3323 9.06599 21.3204 11.2274C13.1378 13.5211 6.1322 18.9779 1.95437 26.3696C-0.0239962 29.87 0.164411 34.0408 2.08189 37.3156C-0.757329 43.5217 -0.269698 52.4555 1.05274 58.3565C1.53768 60.5198 3.15971 62.2428 5.28589 62.8526C5.83441 63.0099 6.39335 63.0864 6.94815 63.0864C8.54036 63.0864 10.0952 62.4547 11.2483 61.2869C15.1924 57.293 20.6342 54.2627 25.805 53.1809C25.8431 53.173 25.8792 53.1612 25.9164 53.1517C27.3448 53.8006 28.8603 54.1307 30.3925 54.1307C31.519 54.1307 32.6547 53.9531 33.7708 53.5942C35.7901 52.9451 37.5486 51.7513 38.8741 50.1797C40.9186 51.5548 43.3574 52.3125 45.9564 52.3145H45.9662C48.5879 52.3145 51.048 51.5451 53.105 50.1478C54.5029 51.8149 56.3843 53.0595 58.5234 53.6833C59.5432 53.9806 60.5778 54.1277 61.6056 54.1277C63.1366 54.1277 64.6514 53.7997 66.0748 53.1567C71.2852 54.2108 76.754 57.235 80.7555 61.2868C81.9087 62.4546 83.4634 63.0862 85.0556 63.0862C85.6102 63.0862 86.1693 63.0097 86.7179 62.8524C88.8441 62.2426 90.4661 60.5198 90.951 58.3563C92.2657 52.4904 92.7597 43.5372 89.9201 37.3186ZM7.41459 57.5008C7.18792 57.7304 6.93935 57.7212 6.7716 57.6729C6.60097 57.6241 6.38239 57.4983 6.31055 57.1779C5.06803 51.6336 5.10575 45.5735 6.30552 41.4226C10.1432 43.6526 14.6481 46.373 19.6582 49.4282C15.1576 51.1988 10.8666 54.005 7.41459 57.5008ZM32.1216 48.4647C30.5535 48.9686 28.9047 48.766 27.4793 47.8935C20.2985 43.4989 13.9332 39.6171 8.76056 36.6173C6.09897 35.0737 5.14975 31.6659 6.64497 29.0206C9.66272 23.6811 14.4566 19.5545 20.1266 17.3078C20.2274 19.3151 20.8019 21.3259 21.8964 23.1646C25.5408 29.2866 29.9367 37.0571 34.8888 45.8428C34.9626 45.9737 35.0386 46.1028 35.1164 46.2305C34.4134 47.2726 33.3643 48.065 32.1216 48.4647ZM45.9659 46.9263H45.9601C43.282 46.9244 40.8979 45.5302 39.5828 43.1972C34.6135 34.3812 30.2011 26.5814 26.5263 20.4087C24.4819 16.9741 25.5622 12.5051 28.9347 10.4464C34.1163 7.28358 40.052 5.70268 45.9896 5.70268C51.9344 5.70268 57.8808 7.28878 63.0662 10.4594C66.4385 12.5213 67.5213 16.9883 65.4798 20.4166C62.177 25.9634 57.8802 33.4178 52.3441 43.2058C51.0263 45.5358 48.6422 46.9263 45.9659 46.9263ZM60.0318 48.5105C58.7111 48.1254 57.5835 47.289 56.8495 46.1732C56.9122 46.0692 56.9743 45.9647 57.0343 45.8584C62.5506 36.1056 66.8275 28.6851 70.1097 23.173C71.2051 21.3333 71.7791 19.3201 71.8775 17.3103C77.5425 19.5633 82.3621 23.719 85.3586 29.0205C86.8537 31.6659 85.9046 35.0737 83.2428 36.6171C78.0704 39.6169 71.7053 43.4985 64.5243 47.8933C63.1488 48.7351 61.553 48.9541 60.0318 48.5105ZM85.6932 57.1779C85.6214 57.4985 85.4028 57.6241 85.2322 57.6731C85.0642 57.7214 84.816 57.7306 84.5892 57.5008C81.1738 54.0423 76.8311 51.2135 72.3361 49.4344C77.35 46.3766 81.8581 43.6543 85.6982 41.4228C86.8948 45.5768 86.93 51.6597 85.6932 57.1779Z" fill="#0A543B"/>
</svg>
