<svg width="113" height="113" viewBox="0 0 113 113" fill="none" xmlns="http://www.w3.org/2000/svg">
<circle cx="56.8719" cy="56.0262" r="56.0213" fill="#F1EADF"/>
<path d="M87.7082 74.5051H79.9538L63.3637 57.9459C63.0867 57.6224 62.7459 57.3598 62.3626 57.1743C61.9793 56.9889 61.5619 56.8847 61.1364 56.8683C60.7109 56.8518 60.2866 56.9235 59.8902 57.0788C59.4937 57.2342 59.1337 57.4698 58.8326 57.7708C58.5315 58.0719 58.2959 58.432 58.1406 58.8284C57.9853 59.2249 57.9136 59.6492 57.93 60.0746C57.9465 60.5001 58.0507 60.9176 58.2361 61.3009C58.4215 61.6841 58.6842 62.025 59.0076 62.3019L75.3506 78.6449V86.8627C75.3506 87.6821 75.6761 88.4679 76.2555 89.0473C76.8348 89.6267 77.6206 89.9521 78.44 89.9521C79.2594 89.9521 80.0452 89.6267 80.6246 89.0473C81.2039 88.4679 81.5294 87.6821 81.5294 86.8627V80.6839H87.7082C88.5276 80.6839 89.3134 80.3584 89.8928 79.7791C90.4722 79.1997 90.7976 78.4139 90.7976 77.5945C90.7976 76.7751 90.4722 75.9893 89.8928 75.41C89.3134 74.8306 88.5276 74.5051 87.7082 74.5051Z" fill="#2D856F"/>
<path d="M64.2594 44.0127C62.1752 37.9459 58.8979 32.3576 54.6205 27.577C51.1066 24.3028 46.4589 22.5202 41.6567 22.6049C36.8545 22.6897 32.2727 24.6351 28.8765 28.0313C25.4803 31.4275 23.5349 36.0093 23.4502 40.8115C23.3654 45.6137 25.148 50.2613 28.4222 53.7752C33.2108 58.5947 45.6612 65.4532 55.053 65.4532C56.5644 65.5488 58.0797 65.3381 59.5077 64.8338C60.9358 64.3295 62.2473 63.5419 63.3635 62.5183C66.9781 59.0581 67.287 52.5086 64.2594 44.0127Z" fill="#EA9F82"/>
</svg>
