<svg width="113" height="113" viewBox="0 0 113 113" fill="none" xmlns="http://www.w3.org/2000/svg">
<path d="M112.043 56.0213C112.043 86.961 86.961 112.043 56.0213 112.043C25.0816 112.043 0 86.961 0 56.0213C0 25.0816 25.0816 0 56.0213 0C86.961 0 112.043 25.0816 112.043 56.0213Z" fill="#F1EADF"/>
<path d="M89.6769 53.6527C89.5622 53.5237 89.4475 53.409 89.3042 53.2942C91.4972 51.5162 92.6152 49.1502 92.1422 46.8273C91.7982 45.1926 90.6945 43.8161 89.0605 42.8984C89.5479 41.5361 89.8059 40.1596 89.7915 38.8691C89.7485 36.5031 88.8169 34.6103 87.1685 33.5205C85.5202 32.4451 83.3989 32.3447 81.2202 33.2624C80.0592 33.75 78.9126 34.5099 77.8806 35.485C77.9092 35.2269 77.9236 34.9831 77.9236 34.725C77.9236 30.5667 74.5409 27.197 70.3986 27.197C66.758 27.197 63.7193 29.7924 63.017 33.2338C61.297 31.0112 58.588 29.6346 55.707 29.6346C55.2627 29.6346 54.8327 29.6633 54.417 29.735C53.858 27.8709 52.6683 26.2936 51.02 25.2469C49.214 24.0997 47.0497 23.7269 44.9714 24.2001C43.108 24.6159 41.474 25.6914 40.3417 27.1826C39.2954 26.9962 38.2061 27.0106 37.1454 27.2543C34.2501 27.9139 32.0427 30.0361 31.2257 32.7319C30.2511 32.5311 29.2908 32.6028 28.3878 32.9613C26.6534 33.6209 25.4494 35.1409 24.9621 37.2344C24.7184 38.2955 24.6611 39.4856 24.8044 40.6901C23.2708 41.2207 22.0954 42.2244 21.4934 43.5723C20.3898 46.0673 21.5078 49.1072 24.2024 51.3441C24.0304 51.8316 23.9444 52.3479 23.9301 52.8641H23.3711C22.7261 52.8641 22.1241 53.1509 21.7084 53.6384C19.5155 56.3198 18.6268 59.9189 19.1428 64.0629C19.6588 68.2213 21.5364 72.8528 24.5608 77.427C27.4274 81.7718 31.1541 85.7294 35.0527 88.5972C35.4254 88.8697 35.8697 89.0131 36.3284 89.0131H75.0713C75.5299 89.0131 75.9743 88.8697 76.3469 88.5972C80.2456 85.7294 83.9722 81.7718 86.8389 77.427C89.8632 72.8528 91.7409 68.2213 92.2569 64.0629C92.7585 59.9189 91.8699 56.3198 89.6769 53.6527ZM77.9236 40.8335C78.5972 40.8335 79.2422 40.5037 79.6436 39.9588C81.5642 37.3634 83.9436 36.5748 84.8036 37.134C85.6636 37.7076 85.8929 40.2026 84.2876 42.9987C83.9436 43.5866 83.9149 44.3036 84.1729 44.9202C84.4452 45.5368 84.9899 45.9956 85.6492 46.1677C86.8962 46.4688 87.7849 47.0854 87.9282 47.7306C88.1575 48.8061 86.4949 50.5841 83.7572 51.4158C83.0406 51.6309 82.5102 52.2045 82.3239 52.8784H75.2576C75.6446 51.889 75.8453 50.8422 75.8453 49.7668C75.8453 46.8129 74.3546 44.2032 72.1043 42.6546C72.1186 40.3173 72.9929 38.7257 73.8673 38.5393C74.5123 38.4102 75.4296 38.9838 76.2036 40.0018C76.6049 40.5181 77.2356 40.8335 77.9236 40.8335C77.9236 40.8335 77.9092 40.8335 77.9236 40.8335ZM41.173 52.8784C40.3417 52.0611 39.8544 50.9426 39.8544 49.7668C39.8544 47.3722 41.8037 45.422 44.1974 45.422C46.3044 45.422 48.096 46.9133 48.4687 48.9925C47.7234 50.1253 47.236 51.4588 47.107 52.8784H41.173ZM55.6927 49.3653C57.7997 49.3653 59.5626 50.8853 59.9496 52.8784H51.4357C51.8227 50.8853 53.5857 49.3653 55.6927 49.3653ZM64.2926 52.8784C64.1636 51.4588 63.6763 50.1253 62.931 48.9925C63.3036 46.942 65.0953 45.422 67.2023 45.422C69.5959 45.422 71.5453 47.3722 71.5453 49.7668C71.5453 50.9426 71.0723 52.0754 70.2266 52.8784H64.2926ZM70.3843 31.5131C71.9896 31.5131 73.3226 32.6889 73.5663 34.2232C73.3656 34.2375 73.1649 34.2662 72.9643 34.3092C72.3623 34.4383 71.8033 34.6677 71.2729 34.9831C70.1406 34.1658 68.8363 33.6066 67.446 33.3628C67.9763 32.273 69.0943 31.5131 70.3843 31.5131ZM60.308 37.1197C60.5373 37.7076 61.0103 38.1664 61.598 38.3672C62.1856 38.5823 62.845 38.5106 63.3896 38.1951C64.135 37.7649 64.995 37.5355 65.8693 37.5355C66.8583 37.5355 67.79 37.8223 68.5783 38.3385C68.2199 39.1989 67.9906 40.1452 67.876 41.149C67.6466 41.1346 67.4316 41.1203 67.2023 41.1203C63.8483 41.1203 60.8956 43.0561 59.4623 45.9239C58.33 45.3647 57.04 45.0636 55.6927 45.0636C54.3453 45.0636 53.0697 45.379 51.9373 45.9239C50.5183 43.0417 47.5657 41.1203 44.1974 41.1203C44.0684 41.1203 43.925 41.1203 43.796 41.1346C43.667 40.0735 43.3517 39.1128 42.8644 38.3098C43.6527 37.808 44.57 37.5355 45.516 37.5355C46.3904 37.5355 47.236 37.7649 47.9957 38.1951C48.5404 38.5106 49.1997 38.5679 49.7873 38.3672C50.375 38.1521 50.848 37.6932 51.0773 37.1197C51.8083 35.2269 53.6573 33.9507 55.6927 33.9507C57.728 33.9507 59.577 35.2269 60.308 37.1197ZM38.0627 31.4557C38.8654 31.2693 39.668 31.3553 40.4134 31.6995C40.9437 31.9432 41.5457 31.9576 42.076 31.7425C42.6207 31.5274 43.0507 31.1116 43.28 30.581C43.753 29.4769 44.7277 28.6596 45.8887 28.4015C46.8634 28.1864 47.8524 28.3585 48.698 28.889C49.5437 29.4195 50.1313 30.2512 50.3463 31.2263C50.3607 31.2693 50.3607 31.3123 50.375 31.3553C49.5007 31.9719 48.741 32.7319 48.1247 33.6066C47.279 33.3628 46.4047 33.2338 45.5304 33.2338C43.1224 33.2338 40.8147 34.1801 39.0947 35.8435C38.1487 35.7431 37.1597 35.9008 36.1851 36.3167C35.8697 35.8722 35.5257 35.4563 35.1674 35.0835C35.1531 33.3485 36.3427 31.8429 38.0627 31.4557ZM29.3051 50.5985C29.2478 49.8815 28.8321 49.2506 28.2014 48.8921C26.0228 47.6876 25.1198 45.9956 25.4208 45.3073C25.6071 44.8772 26.4098 44.576 27.4131 44.5474C28.0868 44.533 28.7174 44.1889 29.1188 43.644C29.5058 43.0848 29.6204 42.3821 29.4198 41.7369C28.6171 39.2419 29.1618 37.2344 29.8928 36.9619C30.6237 36.6752 32.3724 37.7936 33.4474 40.1883C33.7197 40.8048 34.2787 41.2494 34.9381 41.4071C35.5974 41.5505 36.2854 41.3784 36.8014 40.9339C37.5611 40.2743 38.3637 39.9588 38.7937 40.1596C39.2094 40.346 39.5821 41.192 39.5534 42.4682C37.1454 44.0025 35.5544 46.6982 35.5544 49.7525C35.5544 50.8279 35.7551 51.889 36.1421 52.8641H28.2301C28.2444 52.8067 28.2444 52.7637 28.2731 52.7207C28.3161 52.6203 28.3878 52.5343 28.5024 52.4482C29.0614 52.0181 29.3624 51.3154 29.3051 50.5985ZM87.9712 63.5324C87.1112 70.4726 81.4209 79.2768 74.3403 84.7113H37.0451C29.9644 79.2768 24.2741 70.4726 23.4141 63.5324C23.0988 60.9657 23.4571 58.8435 24.4748 57.1802H26.6391H86.9105C87.9425 58.8435 88.3009 60.9657 87.9712 63.5324Z" fill="#EA9F82"/>
<path d="M89.3042 53.3083C89.4762 53.165 89.6482 53.0216 89.8059 52.8782H82.3239H75.2576H70.2123H64.2926H59.9496H51.4357H47.0927H41.173H36.1421H28.2301H23.9301H23.3711C22.7261 52.8782 22.1241 53.165 21.7084 53.6525C19.5155 56.3196 18.6268 59.9187 19.1428 64.0627C19.6588 68.2211 21.5364 72.8526 24.5608 77.4268C27.4274 81.7716 31.1541 85.7292 35.0527 88.597C35.4254 88.8695 35.8697 89.0128 36.3284 89.0128H75.0713C75.5299 89.0128 75.9743 88.8695 76.3469 88.597C80.2456 85.7292 83.9722 81.7716 86.8389 77.4268C89.8632 72.8526 91.7409 68.2211 92.2569 64.0627C92.7729 59.9187 91.8842 56.3196 89.6912 53.6668C89.5622 53.5234 89.4332 53.4087 89.3042 53.3083ZM87.9712 63.5322C87.1112 70.4723 81.4209 79.2766 74.3403 84.7111H37.0451C29.9644 79.2766 24.2741 70.4723 23.4141 63.5322C23.0988 60.9655 23.4571 58.8433 24.4748 57.1799H26.6391H86.9105C87.9425 58.8433 88.3009 60.9655 87.9712 63.5322Z" fill="#7BC0B3"/>
</svg>
