<svg width="90" height="90" viewBox="0 0 90 90" fill="none" xmlns="http://www.w3.org/2000/svg">
<g clip-path="url(#clip0_316_927)">
<path d="M76.8197 13.1801C68.3204 4.68091 57.0198 0 45 0C32.98 0 21.6796 4.68091 13.1801 13.1801C4.68091 21.6796 0 32.98 0 45C0 57.02 4.68091 68.3204 13.1801 76.8199C21.6795 85.3193 32.98 90 45 90C57.0198 90 68.3204 85.3191 76.8197 76.8199C85.3191 68.3205 90 57.02 90 45C90 32.98 85.3191 21.6796 76.8197 13.1801V13.1801ZM45 84.7283C23.0937 84.7283 5.27169 66.9063 5.27169 45C5.27169 23.0937 23.0937 5.27169 45 5.27169C66.9063 5.27169 84.7283 23.0937 84.7283 45C84.7283 66.9063 66.9063 84.7283 45 84.7283V84.7283Z" fill="#0A543B"/>
<path d="M57.0717 38.0362L68.3485 45.9697C68.805 46.2909 69.3356 46.4498 69.8648 46.4498C70.4705 46.4498 71.0747 46.2416 71.5634 45.8299C72.4789 45.0588 72.7599 43.7674 72.2475 42.6856L71.4824 41.0706C69.4243 36.7249 69.4243 31.7402 71.4824 27.3948L72.2475 25.7797C72.7599 24.6979 72.4789 23.4066 71.5634 22.6355C70.6479 21.8644 69.3278 21.8068 68.3485 22.4956L57.0717 30.4291C52.334 23.283 44.3746 18.9509 35.6528 18.9509C25.9139 18.9509 17.1225 24.3493 12.7096 33.0392C12.3286 33.7893 12.3286 34.676 12.7096 35.4262C17.1225 44.116 25.9141 49.5142 35.6528 49.5142C44.3746 49.5142 52.3338 45.1823 57.0717 38.0362V38.0362ZM64.8564 31.3981C64.6014 33.2795 64.6014 35.186 64.8564 37.0674L60.8271 34.2328L64.8564 31.3981ZM53.24 34.2327C49.5602 40.4406 42.9399 44.2425 35.6528 44.2425C33.4942 44.2425 31.3952 43.9066 29.4127 43.2755C31.0065 40.5513 31.8644 37.4393 31.8644 34.2327C31.8644 31.0259 31.0065 27.9138 29.4127 25.1896C31.3952 24.5588 33.4942 24.2226 35.6528 24.2226C42.9399 24.2226 49.5602 28.0247 53.24 34.2327V34.2327ZM18.0656 34.2327C19.7214 31.439 21.9742 29.1348 24.6141 27.4427C25.8984 29.4592 26.5929 31.8075 26.5929 34.2327C26.5929 36.6578 25.8984 39.006 24.6141 41.0226C21.9742 39.3306 19.7214 37.0263 18.0656 34.2327Z" fill="#0A543B"/>
<path d="M66.1005 51.3257C63.9449 51.3257 61.9127 52.1307 60.363 53.5456C59.5206 53.3275 58.6515 53.2175 57.7628 53.2175C55.9379 53.2175 54.192 53.6823 52.6532 54.5569C50.6443 52.5644 47.9021 51.4 45.0008 51.4C41.2603 51.4 37.8921 53.2954 35.9279 56.2804C34.6136 55.6625 33.1679 55.3376 31.6662 55.3376C26.1327 55.3376 21.6309 59.8395 21.6309 65.3731C21.6309 70.9067 26.1327 75.4085 31.6662 75.4085C32.1721 75.4085 32.6729 75.3713 33.1662 75.2973C34.7547 77.6871 37.4751 79.2148 40.4438 79.2148C42.1927 79.2148 43.8688 78.6975 45.2854 77.7511C46.5735 78.4777 48.0327 78.8634 49.558 78.8634C52.9417 78.8634 55.9597 76.8802 57.3961 73.9644C57.5182 73.9688 57.6407 73.9711 57.7628 73.9711C61.6987 73.9711 65.2511 71.728 66.9992 68.3216C71.2771 67.8712 74.6219 64.2425 74.6219 59.8472C74.6219 55.1484 70.7992 51.3257 66.1005 51.3257V51.3257ZM66.1005 63.0968C65.9378 63.0968 65.7735 63.0845 65.6118 63.0603C64.2958 62.8628 63.0368 63.6788 62.6808 64.9625C62.0705 67.1627 60.0483 68.6994 57.7628 68.6994C57.2812 68.6994 56.7976 68.6293 56.3259 68.491C55.593 68.2763 54.8031 68.39 54.1607 68.8022C53.5182 69.2146 53.086 69.8855 52.9761 70.6411C52.7314 72.3233 51.262 73.5919 49.558 73.5919C48.6077 73.5919 47.7211 73.2123 47.062 72.5233C46.5405 71.9779 45.8087 71.6828 45.0561 71.7115C44.3021 71.7405 43.5967 72.0912 43.1184 72.6748C42.4581 73.4808 41.4832 73.9432 40.4438 73.9432C38.9114 73.9432 37.5461 72.9155 37.1236 71.444C36.9147 70.7162 36.4027 70.1133 35.7182 69.7892C35.3615 69.6204 34.976 69.5357 34.5901 69.5357C34.2355 69.5357 33.8805 69.6072 33.5475 69.7506C32.9523 70.0068 32.3194 70.1368 31.6662 70.1368C29.0395 70.1368 26.9025 67.9999 26.9025 65.3731C26.9025 62.7464 29.0395 60.6093 31.6662 60.6093C32.9794 60.6093 34.2033 61.1342 35.1125 62.0871C35.776 62.7826 36.7659 63.0619 37.6944 62.8157C38.6236 62.5697 39.3451 61.8374 39.5773 60.9047C40.1981 58.4122 42.4284 56.6717 45.0008 56.6717C47.0182 56.6717 48.8869 57.7672 49.8776 59.5307C50.2865 60.2586 51.0159 60.7495 51.844 60.8546C52.6711 60.9597 53.5008 60.6662 54.0784 60.0639C55.0518 59.0485 56.3602 58.4894 57.7628 58.4894C58.5495 58.4894 59.3041 58.6639 60.0054 59.0078C61.2022 59.5947 62.6479 59.1961 63.3749 58.0794C63.979 57.1514 64.998 56.5975 66.1007 56.5975C67.8925 56.5975 69.3503 58.0553 69.3503 59.8472C69.3503 61.639 67.8924 63.0968 66.1005 63.0968V63.0968Z" fill="#0A543B"/>
</g>
<defs>
<clipPath id="clip0_316_927">
<rect width="90" height="90" fill="white"/>
</clipPath>
</defs>
</svg>
