<svg width="113" height="113" viewBox="0 0 113 113" fill="none" xmlns="http://www.w3.org/2000/svg">
<path d="M112.043 56.0213C112.043 86.961 86.961 112.043 56.0213 112.043C25.0816 112.043 0 86.961 0 56.0213C0 25.0816 25.0816 0 56.0213 0C86.961 0 112.043 25.0816 112.043 56.0213Z" fill="#F1EADF"/>
<g clip-path="url(#clip0_316_892)">
<path d="M96.6044 61.3407C96.1614 60.6829 95.4179 60.2757 94.611 60.2757H93.3454C93.5194 59.3986 93.6144 58.5059 93.6144 57.5975C93.6144 50.8158 88.6468 45.3028 82.5401 45.3028C81.6384 45.3028 80.7366 45.4281 79.8823 45.663C79.8981 43.3763 81.4644 41.5282 83.3944 41.5282C84.7075 41.5282 85.7833 40.4788 85.7833 39.1632C85.7833 37.8476 84.7233 36.7982 83.3944 36.7982C78.8856 36.7982 75.2312 40.6824 75.1204 45.4907C74.4718 45.3654 73.8073 45.3028 73.1429 45.3028C71.814 45.3028 70.5483 45.569 69.3776 46.0389C68.8081 44.7702 68.0646 43.5956 67.1944 42.5462C67.3526 41.7475 67.4317 40.933 67.4317 40.1029C67.4317 34.8718 64.1728 30.4238 59.6956 28.9672C60.1386 28.3251 60.7239 27.8239 61.4042 27.5263C62.6065 26.9938 63.1444 25.5999 62.6224 24.4095C62.0845 23.2192 60.6765 22.6867 59.4741 23.2036C57.5915 24.0337 56.0253 25.5372 55.0761 27.4323C54.8862 27.8239 54.728 28.2154 54.5856 28.607C49.4599 29.5624 45.5522 34.3393 45.5522 40.0873C45.5522 40.9174 45.6313 41.7318 45.7896 42.5306C44.9827 43.486 44.3024 44.5666 43.7646 45.6943C42.8628 45.4281 41.9136 45.2871 40.9485 45.2871C40.2841 45.2871 39.6196 45.3497 38.971 45.475C38.8761 40.6668 35.2058 36.7826 30.697 36.7826C29.3839 36.7826 28.3081 37.8319 28.3081 39.1476C28.3081 40.4632 29.3681 41.5125 30.697 41.5125C32.6271 41.5125 34.1933 43.3607 34.2091 45.6473C33.339 45.4124 32.453 45.2871 31.5513 45.2871C25.4446 45.2871 20.4771 50.8001 20.4771 57.5818C20.4771 58.4902 20.572 59.383 20.746 60.26H18.3888C17.5819 60.26 16.8384 60.6673 16.3954 61.3251C15.9524 61.9829 15.8892 62.8286 16.2056 63.5647L19.9233 71.9909C22.597 82.0147 31.7411 89 42.23 89H70.8015C81.2903 89 90.4345 82.0147 93.1081 71.9909L96.8259 63.5647C97.1265 62.8443 97.0474 61.9985 96.6044 61.3407ZM76.4335 51.1291C77.272 51.7555 78.4269 51.7555 79.2653 51.1291C80.262 50.4086 81.3853 50.017 82.5401 50.017C86.0206 50.017 88.8524 53.4157 88.8524 57.5818C88.8524 58.5059 88.7101 59.4143 88.4411 60.26H67.2419C66.973 59.4143 66.8306 58.5059 66.8306 57.5818C66.8306 55.0132 67.9063 52.7422 69.5358 51.3796C69.5833 51.3483 69.6149 51.317 69.6624 51.27C70.6591 50.4712 71.8614 50.0014 73.1429 50.0014C74.2978 50.017 75.4368 50.4086 76.4335 51.1291ZM50.1243 44.8329C50.7571 44.2064 50.9786 43.298 50.6938 42.4523C50.4407 41.6848 50.33 40.9017 50.33 40.0873C50.33 36.344 52.9878 33.2899 56.2784 33.149C56.2942 33.149 56.3101 33.149 56.3259 33.149C56.405 33.149 56.4841 33.1646 56.5632 33.1646C56.6423 33.1646 56.7372 33.1646 56.8163 33.149C60.0753 33.3369 62.6698 36.3754 62.6698 40.0873C62.6698 40.9017 62.5433 41.7005 62.306 42.4523C62.037 43.2823 62.2585 44.2064 62.8755 44.8329C63.9829 45.9449 64.8372 47.3075 65.3751 48.8267C63.3343 51.0507 62.0687 54.1518 62.0687 57.5818C62.0687 58.4902 62.1636 59.383 62.3376 60.26H51.7696C51.9437 59.383 52.0386 58.4902 52.0386 57.5818C52.0386 53.7446 50.4407 50.299 47.9411 48.0436C48.4632 46.8533 49.2067 45.757 50.1243 44.8329ZM25.239 57.5975C25.239 53.4157 28.0708 50.0327 31.5513 50.0327C32.7062 50.0327 33.8452 50.4243 34.8261 51.1447C35.6646 51.7712 36.8194 51.7712 37.6579 51.1447C38.6546 50.4243 39.7778 50.0327 40.9327 50.0327C41.9452 50.0327 42.9103 50.3303 43.7646 50.8471C43.7962 50.8628 43.812 50.8785 43.8437 50.8941C45.8687 52.1628 47.245 54.7 47.245 57.6132C47.245 58.5372 47.1026 59.4456 46.8337 60.2914H25.6503C25.3813 59.4143 25.239 58.5216 25.239 57.5975ZM88.6468 70.2838C88.5993 70.3934 88.5519 70.5187 88.5202 70.644C86.4478 78.6786 79.1546 84.2857 70.7856 84.2857H42.2142C33.8452 84.2857 26.5521 78.6786 24.4796 70.644C24.4479 70.5187 24.4005 70.3934 24.353 70.2838L22.0116 64.99H90.9882L88.6468 70.2838Z" fill="#7BC0B3"/>
<path d="M25.65 60.2758C25.3811 59.43 25.2387 58.5216 25.2387 57.5976C25.2387 53.4158 28.0705 50.0328 31.551 50.0328C32.7059 50.0328 33.8449 50.4243 34.8258 51.1448C35.6643 51.7713 36.8191 51.7713 37.6576 51.1448C38.6543 50.4243 39.7775 50.0328 40.9324 50.0328C41.9449 50.0328 42.91 50.3304 43.7643 50.8472C43.7959 50.8629 43.8117 50.8785 43.8434 50.8942C45.8684 52.1628 47.2447 54.7001 47.2447 57.6132C47.2447 58.5373 47.1023 59.4457 46.8334 60.2914H51.7377C51.9117 59.4144 52.0066 58.5216 52.0066 57.6132C52.0066 53.776 50.4088 50.3304 47.9092 48.075C48.4471 46.869 49.1906 45.7727 50.1082 44.8643C50.741 44.2378 50.9625 43.3294 50.6777 42.4837C50.4246 41.7162 50.3139 40.9331 50.3139 40.1187C50.3139 36.3754 52.9717 33.3213 56.2623 33.1804C56.2781 33.1804 56.2939 33.1804 56.3098 33.1804C56.3889 33.1804 56.468 33.196 56.5471 33.196C56.6262 33.196 56.7211 33.196 56.8002 33.1804C60.075 33.337 62.6695 36.3754 62.6695 40.0874C62.6695 40.9018 62.543 41.7006 62.3057 42.4523C62.0367 43.2824 62.2582 44.2065 62.8752 44.833C63.9826 45.945 64.8369 47.3076 65.3748 48.8268C63.334 51.0508 62.0684 54.1519 62.0684 57.5819C62.0684 58.4903 62.1633 59.383 62.3373 60.2601H67.2416C66.9727 59.4144 66.8303 58.506 66.8303 57.5819C66.8303 55.0133 67.9061 52.7423 69.5355 51.3797C69.583 51.3484 69.6147 51.3171 69.6621 51.2701C70.6588 50.4713 71.8611 50.0015 73.1426 50.0015C74.2975 50.0015 75.4365 50.393 76.4174 51.1135C77.2559 51.7399 78.4107 51.7399 79.2492 51.1135C80.2459 50.393 81.3691 50.0015 82.524 50.0015C86.0045 50.0015 88.8363 53.4001 88.8363 57.5662C88.8363 58.4903 88.6939 59.3987 88.425 60.2445H93.3293C93.5033 59.3674 93.5982 58.4746 93.5982 57.5662C93.5982 50.7846 88.6307 45.2715 82.524 45.2715C81.6223 45.2715 80.7205 45.3968 79.8662 45.6317C79.882 43.3451 81.4482 41.4969 83.3783 41.4969C84.6914 41.4969 85.7672 40.4476 85.7672 39.132C85.7672 37.8164 84.7072 36.767 83.3783 36.767C78.8695 36.767 75.215 40.6512 75.1043 45.4595C74.4557 45.3342 73.7912 45.2715 73.1268 45.2715C71.7979 45.2715 70.5322 45.5378 69.3615 46.0076C68.792 44.739 68.0484 43.5643 67.1783 42.515C67.3365 41.7162 67.4156 40.9018 67.4156 40.0717C67.4156 34.8406 64.1566 30.3925 59.6795 28.936C60.1225 28.2938 60.7078 27.7926 61.3881 27.495C62.5904 26.9625 63.1283 25.5686 62.6063 24.3783C62.0684 23.188 60.6604 22.6555 59.458 23.1723C57.5754 24.0024 56.0092 25.506 55.06 27.4011C54.8701 27.7926 54.7119 28.1842 54.5695 28.5757C49.4438 29.5311 45.5361 34.3081 45.5361 40.056C45.5361 40.8861 45.6152 41.7006 45.7734 42.4993C44.9666 43.4547 44.2863 44.5354 43.7484 45.6631C42.8467 45.3968 41.8975 45.2558 40.9324 45.2558C40.268 45.2558 39.6035 45.3185 38.9549 45.4438C38.86 40.6355 35.1897 36.7513 30.6809 36.7513C29.3678 36.7513 28.292 37.8007 28.292 39.1163C28.292 40.4163 29.352 41.4813 30.6809 41.4813C32.6109 41.4813 34.1772 43.3294 34.193 45.6161C33.3229 45.3811 32.4369 45.2558 31.5352 45.2558C25.4285 45.2558 20.4609 50.7689 20.4609 57.5506C20.4609 58.459 20.5559 59.3517 20.7299 60.2288H25.65V60.2758Z" fill="#EA9F82"/>
</g>
<defs>
<clipPath id="clip0_316_892">
<rect width="81" height="66" fill="white" transform="translate(16 23)"/>
</clipPath>
</defs>
</svg>
