<svg width="113" height="113" viewBox="0 0 113 113" fill="none" xmlns="http://www.w3.org/2000/svg">
<path d="M112.043 56.0213C112.043 86.961 86.961 112.043 56.0213 112.043C25.0816 112.043 0 86.961 0 56.0213C0 25.0816 25.0816 0 56.0213 0C86.961 0 112.043 25.0816 112.043 56.0213Z" fill="#F1EADF"/>
<path d="M81.9471 23.0026C80.0691 23.0675 78.2811 23.9118 77.0463 25.3406L69.7658 33.7186C65.5981 32.2378 60.9031 31.4065 55.9765 31.4065C43.1649 31.4065 31.8711 36.9658 27.4333 45.3438H26.0312H31.9997C33.8134 42.8758 36.4761 40.6807 39.769 38.9921C44.4641 36.5761 50.0724 35.3032 55.9894 35.3032C61.9064 35.3032 67.5147 36.5761 72.2098 38.9921C75.4899 40.6807 78.1654 42.8758 79.9791 45.3438H85.9475H84.5455C83.5807 43.5253 82.3073 41.8497 80.7509 40.33L86.6807 35.0694C88.0957 33.8225 88.9318 32.017 88.9961 30.1206C89.0604 28.2242 88.3272 26.3668 87.0023 25.0289C85.6646 23.678 83.8251 22.9506 81.9471 23.0026ZM85.1372 29.9907C85.1114 30.822 84.7513 31.5884 84.1339 32.1469L77.728 37.8231C76.4417 36.9009 75.0268 36.0566 73.5218 35.3032L79.9533 27.9125C80.4936 27.289 81.2525 26.9253 82.0886 26.8993C82.9119 26.8733 83.6965 27.1851 84.2753 27.7696C84.8542 28.3671 85.1629 29.1594 85.1372 29.9907Z" fill="#EA9F82"/>
<path d="M86.0923 45.3438H80.0937H31.8975H25.8859C25.0973 45.3438 24.3863 45.8255 24.0889 46.5677C20.1458 56.4115 27.3339 70.4479 36.5646 79.3932V86.0469C36.5646 87.1276 37.4308 88 38.5038 88H73.4874C74.5604 88 75.4266 87.1276 75.4266 86.0469V79.3932C84.6573 70.4479 91.8454 56.4115 87.8894 46.5677C87.592 45.8255 86.881 45.3438 86.0923 45.3438ZM71.5482 84.1068H40.443V80.2526H71.5482V84.1068ZM73.0349 76.2943H38.9563C35.7113 73.0781 32.8283 69.263 30.7081 65.4089H81.2831C79.1628 69.263 76.2799 73.0781 73.0349 76.2943ZM83.1576 61.5026H28.8335C28.2906 60.1745 27.8639 58.8854 27.5537 57.6354H84.4375C84.1143 58.8854 83.6877 60.1745 83.1576 61.5026ZM85.071 53.7292H26.9202C26.8167 52.1146 26.9331 50.6042 27.2951 49.263H84.709C85.0581 50.6042 85.1744 52.1016 85.071 53.7292Z" fill="#7BC0B3"/>
</svg>
