<svg width="848" height="519" viewBox="0 0 848 519" fill="none" xmlns="http://www.w3.org/2000/svg">
<path d="M93.4987 492.065C90.2258 492.065 86.771 491.883 83.4981 491.519C80.407 491.156 77.1341 490.792 74.043 490.247C72.4065 489.883 70.7701 489.701 69.3154 489.337C67.679 488.974 66.0425 488.61 64.4061 488.065C61.315 487.155 58.042 486.246 55.1328 484.974C52.0417 483.883 48.9506 482.428 46.2231 480.61C43.4957 478.973 41.1319 476.791 38.7681 474.609C34.0406 470.245 30.0403 465.154 26.0401 459.881C24.9491 458.426 24.04 457.154 23.1308 455.699C22.2217 454.244 21.4944 452.972 20.7671 451.517C19.3124 448.79 18.0396 445.88 16.9486 442.971C16.4032 441.335 15.6758 439.698 15.1304 438.062C14.5849 436.607 14.2212 434.97 13.8575 433.334C13.1302 430.243 12.5847 427.152 12.2211 424.061C12.0392 422.424 11.8574 420.606 11.8574 418.97C11.8574 417.333 11.8574 415.697 11.8574 414.06C11.8574 410.969 12.2211 407.696 12.7666 404.605C13.3121 401.332 13.8575 398.059 14.5849 394.968C15.494 391.695 16.4031 388.422 17.4941 385.331C18.4033 382.422 19.6761 379.513 20.9489 376.603C21.4944 375.149 22.2217 373.876 22.949 372.603C23.6763 371.148 24.4036 369.876 25.131 368.421C26.7674 365.512 28.4039 362.784 30.2222 360.057C32.0405 357.511 33.8588 354.966 36.0407 352.602C40.4046 347.692 44.7685 342.783 49.6779 338.237C52.0417 336.055 54.4054 334.055 56.7692 332.055C59.133 330.055 61.6786 328.055 64.2242 326.055C69.3154 322.055 74.9521 318.6 80.407 315.327C85.8619 312.054 91.4986 308.963 97.3171 305.872C102.954 302.963 108.772 300.053 114.591 297.689C120.591 295.144 126.773 292.78 132.956 290.416C138.956 288.053 144.956 285.689 150.957 283.689C156.957 281.688 162.957 279.688 169.14 277.87C175.504 276.052 182.05 274.052 188.595 272.597C194.959 271.142 201.323 270.233 207.687 269.688C214.051 268.96 220.415 268.779 226.78 269.142C233.144 269.506 239.508 270.415 245.872 271.506C249.145 272.052 252.417 272.779 255.69 273.506C258.781 274.233 261.873 274.961 264.964 275.87C268.055 276.779 271.328 277.87 274.419 278.961C275.873 279.507 277.328 280.052 278.783 280.779C280.237 281.507 281.692 282.234 283.147 282.961C286.056 284.416 288.965 286.234 291.693 288.053C294.238 289.871 296.784 291.871 298.966 294.053C300.057 295.144 301.148 296.235 302.057 297.508C303.148 298.78 304.057 300.053 304.966 301.326C305.148 301.508 305.33 301.69 305.33 301.872C305.693 302.235 305.875 302.599 306.239 302.781C307.33 303.872 308.239 305.144 309.148 306.235C310.966 308.599 312.967 310.963 314.603 313.509C316.239 316.054 317.694 318.963 318.967 321.691C319.512 323.146 320.24 324.782 320.603 326.237C321.149 327.873 321.513 329.328 321.876 330.964C322.24 332.419 322.422 333.873 322.603 335.328C322.785 336.965 322.967 338.783 322.967 340.419C323.149 343.51 322.967 346.783 322.785 349.874C322.603 352.966 322.24 355.875 321.876 358.966C321.331 362.057 320.785 365.33 320.058 368.421C319.331 371.512 318.24 374.785 317.149 377.694C316.058 380.785 314.967 383.695 313.512 386.604C312.239 389.331 310.785 392.059 309.148 394.604C307.512 397.332 305.693 400.059 303.875 402.787C302.966 404.06 302.057 405.332 301.148 406.605C300.057 408.06 299.148 409.333 298.057 410.605C296.056 412.969 294.056 415.333 291.874 417.515C289.692 419.879 287.692 422.242 285.328 424.424C282.965 426.606 280.601 428.788 278.055 430.788C275.328 432.97 272.6 435.152 269.691 437.152C266.964 438.971 264.236 440.425 261.327 442.062C258.418 443.698 255.509 445.335 252.599 446.789C249.69 448.244 246.781 449.517 243.69 450.79C240.599 452.062 237.507 453.335 234.598 454.608C231.507 455.881 228.234 457.335 225.143 458.426C219.143 460.79 213.142 462.972 207.142 465.154C200.96 467.336 194.959 469.7 188.777 471.882C182.595 474.064 176.413 476.064 170.231 478.064C164.23 480.064 158.23 481.882 152.23 483.519C145.866 485.337 139.32 486.61 132.774 487.701C126.41 488.61 119.864 489.337 113.318 490.065C107.136 490.792 100.954 491.338 94.5897 491.338C94.226 492.065 93.8624 492.065 93.4987 492.065ZM187.323 278.597C188.05 278.416 188.959 278.234 189.686 278.052C188.959 278.234 188.232 278.416 187.504 278.597H187.323Z" fill="#0A543B"/>
<path d="M320.604 344.056C319.513 342.965 319.331 340.965 320.24 339.692C320.786 339.147 321.15 338.601 321.695 338.056L321.877 337.874C323.15 336.783 324.241 335.692 325.332 334.419C325.695 333.874 326.241 333.51 326.605 332.964C326.786 332.783 326.786 332.601 326.968 332.419C327.15 332.055 327.332 331.692 327.514 331.146C327.695 330.782 327.695 330.419 327.877 330.055C327.877 329.692 328.059 329.146 328.059 328.782C328.059 328.601 328.059 328.419 328.059 328.055C328.059 327.873 328.059 327.691 327.877 327.51C327.877 327.328 327.877 327.328 327.877 327.146C327.877 326.964 327.695 326.782 327.695 326.782C327.695 326.6 327.514 326.6 327.514 326.419C327.514 326.237 327.332 326.237 327.332 326.055C327.15 325.873 327.15 325.873 326.968 325.691C326.786 325.509 326.605 325.509 326.423 325.328C326.059 325.146 325.877 324.964 325.514 324.782C324.968 324.6 324.604 324.418 324.059 324.237C323.695 324.055 323.332 324.055 322.786 323.873C321.877 323.691 320.968 323.691 320.24 323.509C319.877 323.509 319.331 323.509 318.968 323.509C318.604 323.509 318.24 323.509 317.877 323.691C317.695 323.691 317.331 323.873 317.149 323.873C317.149 323.873 316.968 323.873 316.968 324.055C316.968 324.055 316.786 324.055 316.786 324.237C316.786 324.237 316.786 324.237 316.604 324.237C316.604 324.237 316.604 324.418 316.422 324.418V324.6C316.422 324.782 316.422 324.782 316.24 324.964V325.146V325.328C316.24 324.964 316.24 324.6 316.24 324.237C316.24 323.873 316.422 323.691 316.604 323.509C317.149 323.146 317.513 322.782 318.059 322.6C318.968 322.237 319.877 321.873 320.786 321.691C321.877 321.509 322.786 321.327 323.877 321.327C324.968 321.327 326.059 321.327 327.15 321.509C328.059 321.691 328.786 322.055 329.514 322.418C330.423 322.964 331.15 323.873 331.878 324.782C332.605 325.873 332.969 327.51 333.15 328.964C333.15 330.055 333.15 331.146 332.969 332.055C332.787 333.146 332.605 334.419 332.059 335.328C331.514 336.601 330.787 337.692 329.877 338.783C329.15 339.692 328.423 340.601 327.695 341.51C326.786 342.42 326.059 343.329 325.15 344.056C324.604 344.42 323.877 344.783 323.15 344.783C322.059 344.965 321.15 344.602 320.604 344.056Z" fill="#7BC0B3"/>
<path d="M14.0407 451.517C12.9498 451.517 11.8588 451.335 10.7678 451.153C9.85867 450.971 8.76769 450.608 7.85855 450.062C6.9494 449.517 6.04026 448.789 5.13111 447.88C4.22196 446.971 3.13099 445.88 2.5855 444.607C2.04001 443.516 1.49451 442.425 1.31269 441.152C1.13086 440.062 1.13086 438.971 1.13086 437.698C1.13086 436.607 1.49452 435.516 1.67635 434.607C2.40367 432.425 3.67647 430.425 5.49476 428.97C6.40391 428.243 7.13123 427.697 8.2222 427.152C9.13135 426.606 10.2223 426.242 11.1315 425.697C11.3133 425.515 11.4951 425.515 11.677 425.333C11.677 425.333 11.677 425.333 11.677 425.152H11.4951C11.677 424.97 11.8588 424.97 11.677 425.152C11.677 425.333 11.4951 425.333 11.3133 425.515C11.1315 425.697 10.9496 425.879 10.7678 426.061C10.2223 426.424 9.67683 426.97 9.31317 427.333C8.76769 427.879 8.22221 428.424 7.85855 428.97C7.49489 429.515 6.94939 430.061 6.58574 430.788C6.40391 431.152 6.22208 431.516 6.04026 431.879C5.85843 432.243 5.67659 432.607 5.49476 432.97C5.31293 433.334 5.31294 433.879 5.13111 434.243C5.13111 434.788 4.94927 435.152 4.94927 435.698C4.94927 436.243 4.94927 436.789 4.94927 437.334C4.94927 437.88 5.13111 438.425 5.13111 438.971C5.13111 439.152 5.31294 439.516 5.31294 439.698C5.49477 439.88 5.49476 440.243 5.67659 440.425C5.85842 440.971 6.22208 441.334 6.58574 441.698C6.76756 441.88 6.76757 441.88 6.9494 442.062C7.13123 442.243 7.49489 442.607 7.85855 442.789C8.40404 443.334 8.94951 443.698 9.495 444.062C9.67683 444.244 10.0405 444.425 10.2223 444.425C10.4041 444.607 10.586 444.607 10.9496 444.607C11.1315 444.607 11.4951 444.789 11.677 444.789C11.8588 444.789 12.0406 444.789 12.4043 444.789C12.7679 444.789 12.9498 444.789 13.3134 444.789C13.8589 444.789 14.2226 444.607 14.768 444.607C14.9499 444.607 14.9499 444.607 15.1317 444.607C15.4954 444.425 16.0409 444.425 16.4045 444.425C17.8591 444.244 19.1319 445.335 19.4956 446.789C19.8593 448.244 19.1319 450.062 17.6773 450.608C17.3137 450.789 16.7682 450.971 16.4045 450.971C16.0409 450.971 15.6772 450.971 15.4954 451.153C15.1317 451.153 14.5862 451.153 14.2226 451.153C14.2226 451.699 14.0407 451.699 14.0407 451.517Z" fill="#7BC0B3"/>
<path d="M18.2209 390.241C17.4936 390.059 16.9481 389.695 16.7663 388.968C16.5844 388.604 16.5844 388.24 16.7663 387.877C16.9481 387.513 17.3117 387.15 17.6754 386.968C18.7664 386.059 20.0392 385.331 21.312 384.604C22.5848 383.877 23.8576 383.149 25.3122 382.422C26.585 381.695 27.8578 381.149 29.1306 380.422C30.5853 379.695 32.2217 378.967 33.6764 378.24C35.131 377.513 36.5856 376.967 37.8584 376.24C40.5859 374.967 43.4952 373.876 46.4044 372.603C49.1319 371.512 51.8593 370.421 54.5867 369.33C57.3142 368.239 60.0416 367.148 62.769 366.239C68.5876 364.239 74.2243 362.239 80.0428 360.239C85.8614 358.239 91.8617 356.239 97.6802 354.42C103.681 352.602 109.499 350.784 115.5 348.965C121.318 347.329 127.318 345.692 133.137 344.056C139.137 342.42 145.319 340.783 151.32 339.147C157.32 337.51 163.321 335.874 169.139 334.237C175.139 332.601 180.958 330.782 186.958 329.146C192.777 327.328 198.777 325.691 204.596 324.055C210.414 322.418 216.233 320.6 222.051 318.782C233.688 315.327 245.326 312.6 257.326 310.236C260.236 309.69 263.145 309.145 266.236 308.599C269.145 308.054 272.236 307.69 275.327 307.327C280.964 306.599 286.419 305.872 292.056 305.145C294.601 304.781 297.147 304.599 299.692 304.417C300.238 304.417 300.602 304.417 300.965 304.781C301.329 305.145 301.511 305.508 301.693 305.872C301.874 306.781 301.147 307.872 300.238 307.872C298.056 308.054 295.874 308.236 293.692 308.599C290.965 308.963 288.419 309.327 285.692 309.508C279.873 310.236 274.055 310.963 268.418 311.872C260.781 313.145 253.144 314.6 245.689 316.236C245.689 316.236 245.689 316.236 245.507 316.236C245.507 316.236 245.507 316.236 245.326 316.236C245.326 316.236 245.326 316.236 245.507 316.236C239.689 317.509 233.688 318.964 227.87 320.6C221.87 322.236 216.051 324.055 210.051 325.873C204.232 327.691 198.232 329.328 192.231 331.146C186.413 332.783 180.594 334.601 174.776 336.237C162.957 339.692 151.138 342.783 139.137 345.874C133.319 347.329 127.682 348.965 121.864 350.602C115.863 352.238 110.045 354.057 104.044 355.875C98.0439 357.693 92.0435 359.511 86.225 361.512C80.4065 363.512 74.5879 365.512 68.7694 367.512C66.9511 368.239 65.1328 368.785 63.3145 369.512C57.6778 371.512 52.0411 373.694 46.4044 376.058C43.4952 377.149 40.7677 378.422 38.0403 379.695C36.5856 380.422 35.131 380.967 33.6764 381.695C32.2217 382.422 30.7671 383.149 29.3125 383.877C29.3125 383.877 29.3125 383.877 29.1306 383.877C26.0395 385.513 22.7666 387.15 19.8574 389.15C19.6755 389.331 19.4937 389.331 19.3119 389.513C18.9482 389.877 18.5846 390.241 18.0391 390.241C18.4027 390.241 18.4027 390.241 18.2209 390.241Z" fill="#7BC0B3"/>
<path d="M14.5841 415.878C14.7659 415.878 14.7659 416.06 14.7659 416.06L14.5841 415.878C14.2205 415.878 13.8568 415.515 13.675 415.333C13.1295 414.606 13.1295 413.515 13.8568 412.787C14.0386 412.606 14.2205 412.424 14.4023 412.424C14.7659 412.242 14.9478 412.06 15.3114 411.878C15.6751 411.696 16.2206 411.515 16.5842 411.333C17.3115 410.969 18.0389 410.787 18.7662 410.605C21.6755 409.696 24.7665 408.969 27.6758 408.242C34.2217 406.787 40.5857 405.332 47.1315 403.696C53.4956 402.241 59.6778 400.787 66.0418 399.332C72.4058 397.877 78.7698 396.241 84.952 394.786C91.1342 393.332 97.4982 391.877 103.68 390.422C109.863 388.968 116.045 387.513 122.227 386.058C134.773 382.967 147.319 379.876 159.866 376.785C165.866 375.331 171.866 373.694 177.685 372.058C184.049 370.239 190.231 368.421 196.595 366.603C202.596 364.784 208.596 362.966 214.596 360.966C220.597 358.966 226.415 357.148 232.415 355.147C244.234 351.511 256.053 348.056 267.872 344.42C270.963 343.51 274.236 342.419 277.327 341.51C280.418 340.601 283.328 339.51 286.419 338.419C293.51 335.692 300.601 332.964 307.511 329.328C307.511 329.328 307.329 329.328 307.329 329.51C308.056 329.146 308.784 328.782 309.511 328.237C310.42 327.691 311.329 328.055 311.875 328.782C312.42 329.51 312.057 330.782 311.329 331.146C308.966 332.419 306.602 333.692 304.056 334.783C301.692 335.874 299.329 336.965 296.783 337.874C294.056 338.965 291.328 340.056 288.601 341.147C285.691 342.238 282.964 343.147 280.055 344.056C274.418 345.874 268.6 347.692 262.781 349.511C256.962 351.329 251.144 352.966 245.325 354.784C239.325 356.602 233.325 358.42 227.506 360.239C221.688 362.239 215.687 364.057 209.869 366.057C197.686 369.876 185.322 373.512 172.957 376.785C160.593 380.058 148.229 383.149 135.864 386.24C123.318 389.331 110.772 392.241 98.2255 395.15C91.8615 396.605 85.6793 398.059 79.4971 399.514C73.3149 400.968 67.1327 402.423 60.9506 403.878C54.4047 405.332 48.0407 406.787 41.4948 408.423C38.2219 409.151 35.1308 409.878 31.8579 410.605C30.4032 410.969 29.1304 411.151 27.6758 411.515C26.0393 411.878 24.5847 412.242 22.9483 412.787C21.3118 413.333 19.6753 413.696 18.2207 414.242C18.0389 414.242 17.857 414.424 17.6752 414.424C17.6752 414.606 17.4934 414.787 17.4934 414.969C17.1297 415.515 16.5842 415.697 16.0387 415.697C15.3114 416.242 14.9478 416.06 14.5841 415.878Z" fill="#7BC0B3"/>
<path d="M20.2222 435.88C19.3131 435.698 18.7676 434.789 18.7676 434.061C18.7676 433.334 19.1312 432.607 19.8586 432.243C20.404 431.879 20.9495 431.698 21.495 431.698C21.8587 431.516 22.4042 431.516 22.7678 431.334C24.4043 430.97 25.8589 430.607 27.4954 430.425C29.1318 430.061 30.5865 429.879 32.2229 429.516C38.4051 428.425 44.7691 427.334 50.9513 426.243C64.043 423.879 76.9529 421.515 90.0446 418.97C96.045 417.879 102.045 416.606 108.046 415.333C114.592 413.878 121.319 412.424 127.865 410.969C128.229 410.969 128.592 410.787 128.956 410.787C135.502 409.333 141.866 407.878 148.23 406.242C154.594 404.605 160.776 402.969 167.14 401.332C173.322 399.696 179.505 397.696 185.687 395.877C191.869 394.059 197.869 392.241 203.87 390.241C209.87 388.422 215.87 386.422 222.053 384.604C228.053 382.786 234.053 380.785 240.054 378.785C246.236 376.785 252.236 374.603 258.418 372.603C264.055 370.785 269.692 368.967 275.329 366.966C276.965 366.421 278.42 365.875 280.056 365.33H279.874C286.42 362.966 292.784 360.239 298.966 357.148C298.966 357.148 298.785 357.148 298.785 357.33C301.33 356.057 303.694 354.602 306.058 353.147C308.24 351.693 310.603 350.238 312.785 348.784C312.785 348.784 312.785 348.784 312.967 348.784C313.876 348.056 314.785 347.511 315.695 346.783C316.422 346.238 317.513 346.238 318.24 347.147C318.786 347.874 318.786 348.965 317.877 349.693C313.149 353.147 308.24 356.239 303.148 359.148C300.421 360.602 297.875 362.057 295.148 363.33C292.239 364.603 289.329 365.875 286.42 367.148C280.783 369.33 275.147 371.33 269.328 373.33C263.328 375.331 257.509 377.331 251.509 379.331C245.509 381.331 239.508 383.331 233.508 385.331C227.326 387.331 221.143 389.331 214.961 391.15C208.961 392.968 202.779 394.968 196.778 396.786C190.778 398.605 184.778 400.423 178.777 402.241C172.413 404.06 166.231 405.878 159.867 407.514C153.503 409.151 147.139 410.787 140.593 412.424C134.411 413.878 128.047 415.333 121.865 416.606C115.683 418.06 109.318 419.333 103.136 420.606C96.7723 421.879 90.4083 423.152 83.8624 424.243C77.6802 425.334 71.498 426.606 65.3158 427.697C58.77 428.97 52.406 430.061 45.8601 431.334C42.5872 431.879 39.3143 432.425 36.2232 432.97C33.1321 433.516 30.041 434.061 26.9499 434.607C26.0407 434.789 25.3134 434.971 24.4043 435.152C23.8588 435.334 23.3133 435.334 22.9496 435.516C22.586 436.062 22.0405 436.425 21.3132 436.425C20.5859 435.88 20.404 435.88 20.2222 435.88Z" fill="#7BC0B3"/>
<path d="M21.3131 369.512C20.9495 368.603 21.495 367.694 22.4041 367.33C22.9496 366.966 23.4951 366.603 24.0406 366.239C24.0406 366.239 24.0406 366.239 24.2224 366.239C26.4044 364.603 28.5863 363.148 30.9501 361.693C33.3139 360.239 35.4958 358.784 37.8596 357.329C42.5872 354.42 47.3147 351.693 52.0423 348.965C61.4974 343.51 71.1343 338.237 80.7713 333.146C85.6807 330.601 90.5901 328.055 95.4994 325.691C100.227 323.327 105.136 321.145 109.864 318.964C114.955 316.6 120.046 314.6 125.319 312.418C130.229 310.418 135.138 308.417 140.229 306.781C145.321 304.963 150.412 303.326 155.685 301.69C160.776 300.053 166.049 298.599 171.14 297.144C181.505 294.235 191.869 291.871 202.415 289.507C212.779 287.143 223.144 285.325 233.69 283.87C238.781 283.143 243.872 282.598 248.963 282.052C251.509 281.87 254.236 281.507 256.782 281.325C259.328 281.143 261.691 280.961 264.237 280.779C268.237 280.416 272.237 280.234 276.238 280.234C277.147 280.234 278.056 280.961 278.056 281.87C278.056 282.779 277.329 283.689 276.42 283.689C268.601 283.87 260.782 284.598 252.964 285.143H253.145C248.054 285.689 242.781 286.234 237.69 286.78C232.599 287.507 227.507 288.234 222.416 288.962C215.143 290.234 207.688 291.689 200.415 293.326C195.142 294.598 189.869 295.689 184.596 296.962C179.505 298.235 174.595 299.508 169.504 300.962C159.321 303.872 149.139 306.963 138.957 310.599C128.774 314.418 118.774 318.6 108.773 322.964C100.954 326.6 93.3175 330.237 85.8625 334.237C76.0437 339.328 66.5886 344.601 56.9517 350.056C52.2241 352.784 47.6784 355.329 43.1326 358.057C38.7687 360.602 34.4048 363.33 30.2228 366.239C28.7681 367.148 27.4953 368.239 26.0407 369.148C25.4952 369.512 24.7679 370.058 24.0406 370.239C23.8587 370.239 23.6769 370.421 23.4951 370.421C22.2223 370.785 21.495 370.239 21.3131 369.512Z" fill="#7BC0B3"/>
<path d="M32.9499 453.153C30.4043 452.972 27.6768 452.608 25.1312 452.244C23.8584 452.062 22.5856 451.881 21.4947 451.517C20.9492 451.335 20.5855 451.335 20.04 451.153C19.6764 450.971 19.4945 450.79 19.3127 450.608C18.7672 449.881 18.7672 448.79 19.6764 448.062C20.2219 447.699 20.7673 447.517 21.3128 447.88C22.222 448.244 23.3129 448.426 24.4039 448.608C26.2222 448.971 27.8587 449.153 29.677 449.335C30.5861 449.517 31.6771 449.517 32.5862 449.699C33.4954 449.699 34.4045 449.881 35.1318 449.881C36.2228 449.881 37.4956 449.881 38.5866 449.881C40.0412 449.881 41.314 449.881 42.7687 449.881C45.1324 449.881 47.6781 449.517 50.0418 449.335C62.588 448.244 74.9524 446.608 87.4986 444.607C93.8627 443.698 100.409 442.607 106.773 441.698C112.955 440.789 118.955 439.88 125.137 439.153C131.501 438.243 138.047 437.334 144.411 436.243C150.412 435.152 156.412 434.061 162.412 432.607C163.321 432.425 164.412 432.243 165.322 431.879C168.231 431.152 171.322 430.607 174.231 429.697C177.504 428.97 180.595 428.061 183.868 427.152C189.868 425.515 195.687 423.697 201.506 421.697C206.779 419.879 212.052 418.06 217.143 416.242C228.598 411.878 240.053 407.151 251.145 401.878C254.781 400.059 258.6 398.241 262.236 396.423C264.964 394.968 267.873 393.513 270.601 392.059C273.328 390.604 276.237 388.968 278.965 387.331C281.692 385.695 284.42 384.24 287.147 382.604C289.875 380.967 292.42 379.513 295.148 377.876C297.33 376.422 299.511 374.967 301.693 373.512C301.693 373.512 301.512 373.512 301.512 373.694C303.694 372.239 305.694 370.785 307.876 369.148C309.876 367.512 312.058 365.875 314.058 364.239C314.785 363.693 315.876 363.693 316.603 364.603C317.149 365.33 317.149 366.421 316.24 367.148C314.058 368.967 311.876 370.785 309.512 372.421C307.148 374.24 304.785 375.876 302.421 377.512C299.875 379.149 297.33 380.967 294.784 382.422C292.056 384.058 289.329 385.695 286.602 387.149C283.874 388.786 281.147 390.241 278.237 391.877C275.51 393.513 272.601 394.968 269.873 396.605C266.964 398.059 264.237 399.696 261.327 401.15C258.418 402.605 255.691 404.06 252.781 405.332C250.054 406.605 247.326 407.878 244.599 409.151C241.69 410.424 238.962 411.696 236.053 412.969C230.416 415.333 224.598 417.697 218.779 419.697C213.143 421.879 207.506 423.697 201.687 425.697C198.596 426.788 195.505 427.697 192.414 428.607C189.323 429.516 186.232 430.425 183.141 431.334C177.14 432.97 171.14 434.425 164.958 435.698C161.867 436.425 158.776 436.971 155.866 437.698C152.593 438.425 149.321 438.971 145.866 439.516C139.865 440.607 133.865 441.335 127.865 442.244C121.319 443.153 114.955 444.062 108.409 444.971C102.227 445.88 96.0446 446.789 89.8624 447.88C83.4984 448.79 77.1344 449.699 70.7704 450.608C64.5882 451.335 58.2241 452.244 51.8601 452.79C48.769 453.153 45.6779 453.335 42.5868 453.335C40.9504 453.335 39.1321 453.335 37.4956 453.517H37.3138C36.041 453.335 34.5864 453.335 32.9499 453.153ZM21.8583 448.062L21.6765 447.88H21.4947C21.4947 447.88 21.6765 448.062 21.8583 448.062Z" fill="#7BC0B3"/>
<path d="M64.4057 480.246C64.042 480.246 63.6784 480.246 63.3147 480.246C63.1329 480.246 62.9511 480.246 62.7692 480.246C62.7692 480.246 62.7692 480.246 62.5874 480.246H62.4056C62.0419 480.246 61.6782 480.246 61.3146 480.246C60.0418 480.246 58.769 480.064 57.4962 480.064C55.1324 479.882 52.7686 479.7 50.5867 479.337C48.2229 479.155 45.6773 478.61 43.3135 478.246C42.4044 478.064 41.8589 476.973 42.0407 476.064C42.2225 475.7 42.4044 475.155 42.768 474.973C43.1317 474.791 43.6772 474.609 44.0408 474.791C44.2226 474.791 44.2227 474.791 44.4045 474.791H44.2227C45.6773 475.155 47.3138 475.337 48.7684 475.518C50.223 475.7 51.6776 475.882 53.1323 476.064C56.2234 476.428 59.4963 476.609 62.5874 476.791C62.9511 476.791 63.1329 476.791 63.4965 476.791C63.6784 476.791 63.6784 476.791 63.8602 476.791C64.2239 476.791 64.4057 476.791 64.7693 476.791C65.4967 476.791 66.224 476.791 66.9513 476.791C68.2241 476.791 69.4969 476.791 70.9515 476.791C76.7701 476.791 82.4068 476.791 88.2253 476.428C92.0437 476.246 95.6803 475.882 99.4987 475.7C105.135 475.155 110.772 474.427 116.409 473.7C122.046 472.973 127.682 472.245 133.319 471.336C138.774 470.427 144.047 469.518 149.32 468.245C154.775 466.972 160.411 465.518 165.866 464.063C168.594 463.336 171.139 462.427 173.867 461.699C176.594 460.79 179.322 459.881 182.049 458.972C186.959 457.335 192.05 455.517 196.959 453.699C202.414 451.699 207.687 449.699 213.142 447.335C215.688 446.244 218.415 444.971 220.961 443.88C223.87 442.607 226.597 441.153 229.325 439.88C230.779 439.153 232.416 438.425 233.87 437.516C233.87 437.516 233.689 437.516 233.689 437.698C238.78 434.971 243.689 432.425 248.599 429.516C251.144 428.061 253.69 426.425 256.235 424.97C258.599 423.515 260.963 421.879 263.327 420.242C268.054 416.969 272.6 413.696 276.964 410.06C281.51 406.605 285.874 402.969 290.419 399.332C293.51 396.786 296.602 394.423 299.511 391.877C302.602 389.331 305.511 386.968 308.602 384.24C309.511 383.331 310.421 382.422 311.33 381.513C311.693 381.149 312.057 380.785 312.421 380.422C312.966 379.876 313.875 379.694 314.603 380.058C315.148 380.422 315.512 380.967 315.512 381.876C315.512 382.422 315.33 382.786 314.966 382.967C314.603 383.331 314.421 383.695 314.057 383.876C313.693 384.24 313.148 384.786 312.603 385.149C311.512 386.058 310.602 386.968 309.511 387.877C307.329 389.695 305.148 391.513 302.966 393.332C298.42 396.968 294.056 400.423 289.51 404.06C284.964 407.696 280.419 411.333 275.691 414.969C273.509 416.606 271.327 418.242 268.964 419.879C266.6 421.515 264.236 423.333 261.69 424.97C256.599 428.243 251.508 431.334 246.235 434.243C243.871 435.698 241.325 436.971 238.962 438.243C236.416 439.516 233.87 440.971 231.143 442.244C225.688 444.971 220.233 447.517 214.597 449.88C211.869 450.971 209.324 452.062 206.596 453.153C203.869 454.244 201.141 455.154 198.414 456.245C193.141 458.245 187.686 460.063 182.413 461.881C176.776 463.7 171.139 465.518 165.503 467.154C162.775 467.882 160.23 468.609 157.502 469.336C154.775 470.064 152.047 470.609 149.32 471.336C143.683 472.609 138.047 473.518 132.228 474.609C126.773 475.518 121.136 476.246 115.5 476.973C109.681 477.7 103.863 478.428 98.0441 478.973C92.4074 479.519 86.7707 479.7 81.134 479.882C78.7702 479.882 76.4064 479.882 74.0426 479.882C70.9515 480.428 67.6786 480.246 64.4057 480.246Z" fill="#7BC0B3"/>
<path d="M16.7676 448.971C15.8585 448.971 15.1312 448.062 15.1312 447.335C15.1312 447.153 14.9493 446.789 14.9493 446.607V446.789C14.7675 446.244 14.5857 445.516 14.4039 444.971C14.0402 445.153 13.6766 445.335 13.4947 445.335C13.1311 445.698 12.5856 445.88 12.0401 445.88C11.6764 445.88 11.3128 445.88 10.9491 445.698C10.7673 445.698 10.4036 445.698 10.2218 445.698C9.49448 445.698 8.94899 445.335 8.4035 444.789C8.03984 444.425 7.67618 443.88 7.49435 443.516C7.49435 443.698 7.49436 443.698 7.31253 443.88C6.76704 444.789 5.85789 445.153 4.94874 444.789C3.67594 444.244 3.31229 442.789 2.7668 441.698C2.40314 440.789 2.22131 440.062 2.03948 439.152C1.67582 437.334 1.494 435.698 1.67583 433.879C1.67583 432.97 1.85765 432.061 2.2213 431.152C2.58496 430.425 2.94863 429.697 3.49412 428.97C4.40326 427.697 5.49423 426.606 6.76704 425.879C7.85801 425.152 9.31265 424.606 10.5855 424.97C11.3128 425.152 11.8583 425.515 12.4038 426.061C12.9492 426.606 13.1311 427.334 13.3129 428.061C13.6766 429.152 13.8584 430.243 14.222 431.334C14.4039 432.243 14.7675 433.334 14.9493 434.243C15.4948 436.425 16.2222 438.789 16.7676 440.971C17.1313 442.062 17.495 443.153 17.8586 444.244C18.0405 444.971 18.2223 445.516 18.4041 446.244C18.5859 446.607 18.5859 447.153 18.5859 447.517C18.5859 448.062 18.4041 448.426 18.0405 448.789C17.8586 448.789 17.3131 448.971 16.7676 448.971C16.9495 448.971 16.9495 448.971 16.7676 448.971ZM10.2218 429.515C10.2218 429.515 10.4036 429.515 10.2218 429.515C10.2218 429.152 10.2218 428.788 10.04 428.424C10.04 428.424 10.04 428.243 9.85814 428.243H9.67631C9.49448 428.243 9.49448 428.243 9.31265 428.243C9.13082 428.243 9.13082 428.424 8.94899 428.424C8.76716 428.606 8.58533 428.606 8.4035 428.788C8.58533 428.788 8.76717 428.788 8.76717 428.97C8.949 429.152 9.31264 429.334 9.49447 429.515H9.67631C10.04 429.515 10.04 429.515 10.2218 429.515Z" fill="#7BC0B3"/>
<path d="M13.3119 447.516C12.9482 447.153 12.5846 446.789 12.5846 446.244C12.4027 445.698 12.4027 445.153 12.2209 444.425C12.0391 443.698 11.8573 442.971 11.6754 442.243V442.425C11.3118 441.152 10.9481 439.88 10.7663 438.607C10.7663 438.243 10.5845 438.061 10.5845 437.698C10.039 437.698 9.31164 437.334 9.12982 436.789C8.58433 435.516 8.03883 434.243 7.67518 432.97C7.31152 431.516 7.31152 430.061 7.31152 428.606C7.31152 427.697 7.67519 426.606 8.76616 426.242C9.31165 426.061 10.039 426.242 10.5845 426.606C10.9481 426.97 11.1299 427.333 11.1299 427.697C11.3118 428.061 11.3118 428.243 11.3118 428.606C11.3118 428.788 11.3118 429.152 11.3118 429.334C12.0391 429.879 12.4027 430.788 12.5846 431.697C12.9482 433.152 13.3119 434.607 13.6755 436.061C13.6755 436.243 13.6755 436.243 13.6755 436.425V436.607C13.8574 437.152 14.0392 437.88 14.221 438.425C14.5847 439.698 14.9484 440.971 15.1302 442.062C15.312 442.607 15.4938 443.153 15.4938 443.88C15.4938 444.244 15.6757 444.607 15.6757 445.153C15.8575 445.335 15.8575 445.516 15.8575 445.88C15.8575 446.607 15.4938 447.153 14.9483 447.516C14.5847 447.698 14.4029 447.88 14.0392 447.88C14.0392 447.698 13.6756 447.698 13.3119 447.516Z" fill="#7BC0B3"/>
<path d="M14.9493 445.88C14.7675 445.517 14.7675 445.335 14.7675 444.971C14.7675 444.607 14.5856 444.244 14.5856 443.88C14.0401 442.062 13.6765 440.244 13.131 438.607C12.5855 436.789 12.4037 435.152 11.8582 433.334C11.4945 432.061 11.1309 430.788 10.7672 429.516C10.5854 429.334 10.5854 428.97 10.4035 428.788L10.2217 428.607L10.0399 428.425L9.85807 428.243C9.85807 428.243 9.85807 428.243 9.67624 428.243H9.4944C9.31257 428.243 9.31258 428.243 9.13075 428.425C8.94892 428.425 8.76709 428.607 8.58526 428.607C8.2216 428.788 7.85794 428.97 7.49428 429.334C7.31246 429.516 6.94879 429.697 6.76696 430.061C6.58514 430.243 6.22149 430.607 6.03966 430.788C5.85783 430.97 5.676 431.152 5.49417 431.516C5.31234 431.698 5.31234 432.061 5.13051 432.243C4.94868 432.607 4.94868 432.789 4.76685 433.152C4.58502 433.516 4.58502 433.88 4.58502 434.243C4.58502 434.607 4.40319 435.152 4.40319 435.516C4.40319 436.062 4.40319 436.789 4.58502 437.334C4.58502 437.88 4.76684 438.607 4.94867 439.153C5.1305 439.88 5.31234 440.425 5.49417 440.971C5.676 441.335 5.67599 441.516 5.85782 441.88C5.85782 442.062 6.03966 442.062 6.03966 442.244C6.22149 442.426 6.40331 442.607 6.58514 442.789C6.76697 442.971 6.9488 443.153 7.13063 443.335C7.31246 443.516 7.31246 443.517 7.49428 443.698C8.40343 444.244 8.76709 445.153 8.2216 446.062C7.85795 446.971 6.58514 447.335 5.85782 446.789C5.1305 446.244 4.40319 445.698 3.8577 445.153C3.31221 444.607 2.94856 444.062 2.5849 443.516C2.03941 442.426 1.67575 441.153 1.31209 439.88C0.584772 437.334 0.584772 434.425 1.31209 431.879C2.03941 429.697 3.49405 427.879 5.31234 426.425C5.676 426.061 6.03965 425.879 6.58514 425.697C7.13063 425.334 7.67612 425.152 8.2216 424.97C8.94892 424.788 9.49441 424.788 10.2217 424.788C10.7672 424.97 11.3127 425.152 11.8582 425.515C13.3128 426.606 14.0401 428.606 14.5856 430.243C15.3129 432.607 15.6766 434.971 16.4039 437.334V437.152C16.9494 439.516 17.6767 441.88 18.2222 444.244C18.404 444.426 18.404 444.607 18.404 444.971C18.404 444.971 18.404 444.971 18.404 445.153V444.971C18.404 445.153 18.404 445.335 18.404 445.517C18.404 446.244 17.6767 446.971 16.9494 447.153C16.7676 447.153 16.7676 447.153 16.5857 447.153C15.8584 446.789 15.1311 446.426 14.9493 445.88Z" fill="#7BC0B3"/>
<path d="M320.787 346.056C320.06 345.874 319.514 345.147 319.151 344.42C318.787 343.692 318.423 342.965 318.241 342.238C317.696 340.601 317.332 338.965 316.969 337.328C316.605 335.874 316.241 334.419 315.878 332.783C315.514 331.51 315.15 330.055 314.968 328.782C314.787 327.691 314.605 326.6 314.605 325.509C314.423 324.418 314.423 323.327 315.332 322.418C315.878 321.873 316.423 321.509 317.15 321.327C317.696 321.146 318.423 320.964 318.969 320.782C320.423 320.6 321.878 320.6 323.333 320.782C324.06 320.964 324.787 321.146 325.515 321.327C326.06 321.509 326.787 321.873 327.333 322.237C328.787 323.146 329.878 324.237 330.424 325.691C330.606 326.055 330.788 326.419 330.788 326.964C330.969 327.328 330.969 327.691 331.151 328.237C331.333 329.328 331.151 330.237 330.969 331.146C330.606 332.964 329.515 334.601 328.606 336.056C328.424 336.237 328.424 336.419 328.242 336.601C328.606 336.601 328.969 336.783 329.151 336.965C329.515 337.328 329.697 337.692 329.697 338.237C329.697 338.783 329.515 339.328 329.151 339.692C328.787 340.419 328.242 340.965 327.696 341.692C327.151 342.42 326.424 342.965 325.878 343.511C325.515 343.874 324.969 344.42 324.605 344.783C323.878 345.329 322.969 345.874 322.06 345.874C321.332 346.056 321.151 346.056 320.787 346.056ZM321.878 342.238C322.242 342.056 322.423 341.692 322.787 341.51C322.242 341.51 321.878 341.147 321.514 340.783C321.332 340.783 321.332 340.601 321.332 340.601C321.514 340.965 321.514 341.329 321.696 341.692C321.696 341.874 321.878 342.056 321.878 342.238Z" fill="#7BC0B3"/>
<path d="M320.24 346.056C320.058 346.056 319.877 345.875 319.695 345.875C319.149 345.693 318.786 345.147 318.422 344.784C317.513 343.874 316.785 342.602 316.058 341.511C315.513 340.42 314.967 339.329 314.422 338.056C313.876 336.601 313.512 334.965 313.149 333.328C312.785 331.692 312.603 330.055 312.422 328.419C312.24 326.601 312.24 324.782 312.422 322.964C312.603 322.237 312.785 321.691 313.149 320.964C313.512 320.418 314.058 320.055 314.785 319.873C315.694 319.509 316.785 319.509 317.695 319.509C319.149 319.509 320.604 319.509 322.058 319.691C323.877 319.873 325.695 320.418 327.332 321.328C328.786 322.055 330.059 322.964 331.15 324.237C332.059 325.328 332.605 326.601 332.786 327.873C333.15 329.328 332.968 330.783 332.605 332.237C332.423 332.965 332.059 333.874 331.695 334.601C331.514 335.147 331.15 335.51 330.786 335.874C330.423 336.419 329.877 336.965 329.332 336.965C328.786 336.965 328.422 336.783 328.059 336.419C327.695 336.056 327.513 335.692 327.513 335.147C327.513 334.965 327.513 334.601 327.695 334.419C327.877 334.056 328.241 333.51 328.423 333.146C328.604 332.965 328.604 332.601 328.786 332.419C328.968 332.237 328.968 331.874 329.15 331.692C329.332 331.328 329.332 330.965 329.513 330.419C329.513 330.055 329.513 329.692 329.513 329.51C329.513 329.328 329.513 328.964 329.513 328.783C329.513 328.601 329.513 328.419 329.332 328.237C329.332 328.055 329.15 327.692 329.15 327.51C329.15 327.328 328.968 327.146 328.786 326.964C328.604 326.782 328.604 326.601 328.423 326.601C328.241 326.419 328.241 326.237 328.059 326.237C327.695 325.873 327.513 325.691 327.15 325.51C326.968 325.328 326.604 325.146 326.241 324.964C325.877 324.782 325.513 324.6 324.968 324.419C324.604 324.237 324.059 324.055 323.513 323.873C322.968 323.691 322.422 323.51 321.877 323.51C320.786 323.328 319.695 323.328 318.604 323.328C317.876 323.328 317.149 323.328 316.422 323.328C316.24 323.328 315.876 323.328 315.694 323.51C315.694 323.691 315.694 323.873 315.513 324.055C315.513 324.6 315.331 324.964 315.331 325.51C315.331 326.419 315.331 327.328 315.513 328.419C315.694 330.419 316.058 332.419 316.604 334.237C316.967 335.51 317.331 336.601 317.695 337.874C318.058 338.783 318.422 339.51 318.786 340.238C318.967 340.783 319.331 341.147 319.695 341.511C319.877 341.874 320.24 342.238 320.604 342.602L320.786 342.783C320.967 342.783 321.149 342.783 321.331 342.965C321.695 343.147 322.058 343.511 322.24 343.874C322.604 344.784 322.24 345.875 321.331 346.238C320.967 346.42 320.786 346.42 320.422 346.42C320.604 346.238 320.422 346.238 320.24 346.056Z" fill="#7BC0B3"/>
<path d="M580.076 493.701L579.666 493.811C578.848 494.03 578.029 494.249 577.174 494.331L576.765 494.441C575.773 494.56 574.818 494.815 573.963 494.898C572.972 495.017 571.98 495.136 570.816 495.155C569.961 495.237 568.933 495.22 568.041 495.166L567.596 495.139C566.568 495.122 565.676 495.068 564.612 494.914C562.655 494.706 560.663 494.362 558.325 493.818C556.296 493.338 554.194 492.584 552.364 491.758C550.535 490.931 548.806 489.932 547.077 488.933L545.866 488.233C544.483 487.434 543.1 486.634 541.716 485.835C539.95 484.699 538.221 483.7 536.456 482.564C533.27 480.492 530.084 478.42 526.344 475.913C521.702 472.769 517.924 470.124 514.629 467.643C510.915 464.69 507.93 462.272 505.18 459.645C502.221 456.782 499.499 453.709 496.95 450.736C494.364 447.627 491.778 444.518 489.292 441.236C488.836 440.627 488.381 440.018 487.962 439.545C485.968 437.008 483.937 434.335 482.043 431.626C479.866 428.407 477.789 425.016 475.703 421.042C474.783 419.241 473.863 417.441 473.042 415.467C472.259 413.63 471.338 411.83 470.591 410.129C469.525 407.783 468.705 405.81 467.957 404.109C467.247 402.545 466.563 400.535 465.779 398.698C464.63 395.497 463.19 391.204 462.295 386.765C461.811 384.409 461.573 382.426 461.371 380.58C461.233 378.424 461.131 376.405 460.957 374.112C460.819 371.956 460.817 369.764 460.888 367.844C460.886 365.652 460.994 363.869 461.238 362.049L461.265 361.603C461.292 361.158 461.356 360.848 461.383 360.403L461.419 360.539C461.763 358.546 461.935 356.454 462.452 354.561L462.552 354.388C462.742 353.46 463.069 352.496 463.395 351.531C463.622 350.74 464.049 349.602 464.512 348.601C465.402 346.463 466.228 344.634 467.091 342.941C467.591 342.076 467.918 341.112 468.417 340.247L468.717 339.728C469.117 339.037 469.617 338.172 470.016 337.48L470.652 336.579L470.989 336.197C471.189 335.851 471.425 335.642 471.625 335.296C471.725 335.123 471.861 335.086 471.961 334.913C472.497 334.185 473.17 333.421 473.706 332.692L473.906 332.346C475.151 330.99 476.533 329.597 478.287 327.958C479.233 327.121 480.315 326.246 481.669 325.299C482.615 324.462 483.597 323.76 484.306 323.132C485.76 322.012 487.215 320.892 488.979 319.835C491.689 317.941 495.317 315.655 499.29 313.569C503.537 311.409 507.075 309.878 510.449 308.83C512.049 308.255 513.823 307.781 515.46 307.343L516.006 307.197C516.552 307.051 517.234 306.868 517.779 306.722C519.007 306.394 520.372 306.029 521.599 305.701C522.009 305.591 522.282 305.518 522.691 305.409C523.919 305.08 525.147 304.752 526.374 304.423L527.329 304.168C529.239 303.657 531.013 303.182 532.823 302.844C536.58 302.132 540.336 301.419 544.575 300.87C548.095 300.367 551.961 300.064 556.546 299.715C560.585 299.512 564.697 299.581 568.609 299.997C572.967 300.439 577.261 301.191 580.8 301.852C583.102 302.26 585.131 302.74 587.06 303.394C588.816 303.947 590.646 304.774 592.721 305.973C594.623 307.072 596.462 308.481 597.954 309.69C599.484 311.035 601.013 312.38 602.652 314.134C603.872 315.416 605.128 316.834 606.458 318.525C607.751 320.08 608.944 321.808 610.137 323.535C612.277 326.617 614.118 330.218 616.068 334.229C617.526 337.493 618.82 341.24 620.061 345.879C621.083 349.699 621.732 353.765 622.145 358.04C622.411 361.77 622.715 365.636 622.708 369.438L622.754 370.157C622.712 373.823 622.842 377.589 622.836 381.392C622.976 385.74 622.843 390.161 622.8 393.828C622.73 397.939 622.661 402.051 622.555 406.027C622.412 409.866 622.17 413.878 621.754 417.79C621.221 422.903 620.706 426.988 620.254 430.764C619.666 434.576 618.841 438.597 617.78 442.828C616.682 446.923 615.448 451.054 614.141 454.912C613.488 456.841 612.662 458.67 611.672 460.982C610.845 462.811 609.982 464.504 609.02 466.369C608.057 468.235 607.057 469.964 606.095 471.83C605.032 473.868 603.859 475.498 602.824 477.09C601.851 478.374 600.443 480.213 598.961 481.778C598.152 482.58 597.479 483.344 596.534 484.182C595.961 484.774 595.252 485.402 594.543 486.03L594.07 486.449C592.516 487.742 590.961 489.035 588.961 490.301C588.079 490.829 587.197 491.358 586.315 491.886L586.178 491.923C585.26 492.314 584.478 492.67 583.559 493.062L583.15 493.171C582.877 493.244 582.468 493.354 582.195 493.427C582.059 493.463 581.922 493.5 581.786 493.536C581.376 493.646 580.967 493.755 580.558 493.865C580.485 493.592 580.348 493.628 580.076 493.701Z" fill="#EA424E"/>
<path d="M557.988 329.152C556.178 329.49 554.231 329.864 552.385 330.066C550.538 330.267 548.692 330.469 546.909 330.361C545.026 330.426 543.106 330.355 541.186 330.284C537.62 330.068 534.081 329.407 530.505 328.609C528.203 328.201 526.001 327.621 523.7 327.213C521.807 326.696 519.814 326.352 517.822 326.008C517.349 326.427 516.876 326.845 516.54 327.228C515.967 327.82 515.358 328.275 514.649 328.903C514.786 328.867 514.749 328.73 514.886 328.694C514.649 328.903 514.413 329.113 514.176 329.322C514.176 329.322 514.176 329.322 514.04 329.358C514.04 329.358 514.04 329.358 513.904 329.395C512.585 330.479 511.131 331.599 509.776 332.546C508.185 333.702 506.694 334.686 505.066 335.706C501.911 337.573 498.583 339.341 495.218 340.972C491.853 342.603 488.589 344.061 485.151 345.419C484.369 345.774 483.55 345.993 482.768 346.349C482.123 346.668 481.441 346.85 480.858 346.86C479.694 346.879 478.583 346.006 478.291 344.915C477.854 343.278 479.135 342.058 480.008 340.947C480.544 340.219 481.08 339.491 481.616 338.763C482.689 337.306 483.897 335.813 484.97 334.357C486.178 332.864 487.387 331.371 488.423 329.779C489.732 328.113 490.867 326.347 492.003 324.581C492.24 324.372 492.303 324.063 492.539 323.853C489.138 325.348 485.664 326.569 482.017 327.691C478.506 328.776 475.059 329.552 471.476 330.365C467.892 331.177 464.272 331.853 460.825 332.629C458.196 333.186 455.531 333.607 452.866 334.027C451.329 334.292 449.791 334.557 448.254 334.822C446.853 335.051 445.316 335.316 443.879 335.408C443.606 335.481 443.333 335.554 443.024 335.49C442.751 335.563 442.442 335.5 442.169 335.573C441.723 335.546 441.414 335.482 441.168 335.11C440.649 334.81 440.33 334.164 440.321 333.582C440.347 333.136 440.374 332.69 440.711 332.308C440.911 331.962 441.283 331.716 441.656 331.47C442.302 331.152 442.811 330.869 443.457 330.55C444.239 330.195 445.057 329.976 445.839 329.621C447.576 329.01 449.413 328.226 451.151 327.615C454.452 326.293 457.889 324.935 461.227 323.75C462.964 323.139 464.528 322.428 466.265 321.818C467.966 321.07 469.803 320.287 471.504 319.539C473.068 318.828 474.768 318.081 476.505 317.47C478.242 316.86 479.943 316.112 481.68 315.501C482.735 315.073 483.654 314.681 484.708 314.253C485.491 313.897 486.136 313.578 486.918 313.223C485.954 312.896 485.126 312.533 484.161 312.206C482.541 311.616 480.885 310.89 479.229 310.163C477.573 309.437 475.88 308.574 474.151 307.575C472.594 306.675 471.002 305.639 469.509 304.431C468.052 303.358 466.732 302.249 465.412 301.141C464.684 300.604 464.093 300.032 463.364 299.496C462.809 299.059 462.254 298.623 461.971 298.114C461.689 297.605 461.58 297.195 461.57 296.613C461.56 296.031 461.824 295.376 462.296 294.957C462.633 294.575 463.178 294.429 463.724 294.283C464.27 294.137 464.752 294.3 465.334 294.291C465.78 294.317 466.399 294.444 466.881 294.608C467.809 294.798 468.91 295.088 469.875 295.415C471.594 295.832 473.351 296.386 475.07 296.803C475.38 296.866 475.689 296.93 475.998 296.993C477.718 297.41 479.401 297.691 481.121 298.108C482.977 298.489 484.796 298.733 486.753 298.941C490.255 299.466 493.722 299.854 497.224 300.379C498.289 300.533 499.18 300.587 500.245 300.741C501.892 300.885 503.538 301.029 505.148 301.037C505.312 300.555 505.339 300.109 505.539 299.763C506.11 296.979 506.853 294.295 507.561 291.474C508.305 288.79 509.049 286.106 509.656 283.458C510.073 281.738 510.49 280.019 510.735 278.199C511.115 276.343 511.359 274.523 511.74 272.667C511.984 270.848 512.401 269.128 512.918 267.235C513.145 266.444 513.336 265.516 513.562 264.724C513.689 264.105 513.953 263.45 514.289 263.068C514.489 262.722 514.862 262.476 515.234 262.23C515.507 262.157 515.78 262.084 516.053 262.011C516.326 261.938 516.635 262.002 516.944 262.065C518.664 262.482 519.348 264.492 519.886 265.956C520.241 266.738 520.497 267.693 520.716 268.512C521.19 270.286 521.665 272.059 521.966 273.733C522.778 277.316 523.454 280.936 523.858 284.63C524.059 286.476 524.161 288.496 524.362 290.342C524.554 291.606 524.646 293.044 524.838 294.308C526.566 293.115 528.257 291.786 529.948 290.456C529.812 290.493 529.812 290.493 529.712 290.666C531.639 289.127 533.53 287.451 535.457 285.912C535.557 285.739 535.694 285.703 535.794 285.53C535.794 285.53 535.93 285.494 535.894 285.357C536.03 285.321 535.994 285.184 536.13 285.148C536.13 285.148 535.994 285.184 536.03 285.321C536.13 285.148 536.266 285.111 536.366 284.938C537.685 283.855 539.139 282.735 540.457 281.651C540.457 281.651 540.321 281.688 540.358 281.824C540.967 281.369 541.576 280.913 542.012 280.358C542.012 280.358 542.148 280.322 542.112 280.185C544.985 277.809 547.858 275.432 550.903 273.155C553.676 270.952 556.449 268.748 559.359 266.508C560.813 265.388 562.304 264.404 563.895 263.248C564.268 263.002 564.641 262.756 565.05 262.646C565.46 262.537 565.969 262.254 566.415 262.281C566.86 262.308 567.306 262.335 567.689 262.672C567.861 262.772 568.034 262.871 568.244 263.108C568.453 263.344 568.663 263.581 568.736 263.853C569.127 264.772 569.11 265.8 568.92 266.728C568.793 267.347 568.666 267.965 568.366 268.484C568.039 269.449 567.676 270.277 567.177 271.141C566.677 272.006 566.314 272.834 565.814 273.699C564.778 275.292 563.706 276.748 562.633 278.204C561.561 279.661 560.316 281.017 559.207 282.337C557.962 283.693 556.617 285.223 555.371 286.579C553.217 288.91 551.026 291.104 548.836 293.298L548.972 293.261C550.882 292.751 552.756 292.103 554.666 291.592C554.802 291.556 554.939 291.519 555.075 291.483C555.075 291.483 555.075 291.483 555.211 291.446C555.348 291.41 555.348 291.41 555.484 291.373L555.621 291.337C555.757 291.3 555.757 291.3 555.894 291.264C556.03 291.227 556.303 291.154 556.439 291.118L556.576 291.081L556.439 291.118C559.95 290.033 563.461 288.947 566.935 287.726C570.309 286.677 573.783 285.455 577.157 284.406C580.395 283.394 583.733 282.209 586.934 281.06C590.135 279.911 593.337 278.763 596.574 277.75C596.711 277.714 596.711 277.714 596.847 277.677C597.666 277.458 598.621 277.203 599.403 276.848C600.221 276.629 601.003 276.273 601.859 276.191C601.995 276.154 602.131 276.118 602.404 276.045C602.677 275.972 602.986 276.035 603.259 275.962C603.532 275.889 603.705 275.989 604.014 276.053C604.324 276.116 604.497 276.216 604.706 276.452C605.088 276.789 605.371 277.298 605.48 277.707C605.626 278.253 605.499 278.872 605.336 279.354C605.109 280.145 604.673 280.701 604.273 281.392C604.073 281.738 603.737 282.121 603.437 282.639C602.901 283.368 602.229 284.132 601.556 284.897C601.02 285.625 600.311 286.253 599.638 287.018C599.065 287.61 598.356 288.238 597.784 288.83C597.075 289.458 596.502 290.05 595.793 290.678C594.375 291.935 592.784 293.091 591.329 294.211C589.838 295.195 588.247 296.351 586.756 297.335C583.637 299.339 580.482 301.206 577.253 302.801C570.97 306.089 564.404 308.869 557.556 311.14C555.955 311.714 554.318 312.152 552.681 312.59C551.043 313.028 549.406 313.466 547.869 313.731C546.332 313.996 544.831 314.397 543.158 314.699C542.612 314.845 542.166 314.818 541.62 314.964C542.276 315.227 542.931 315.49 543.686 315.581C545.133 316.071 546.543 316.424 547.953 316.778C549.673 317.195 551.356 317.476 553.039 317.757C554.859 318.001 556.715 318.382 558.635 318.453C562.101 318.841 565.704 319.193 569.243 319.855C569.862 319.982 570.48 320.108 571.136 320.372C572.037 321.008 572.465 322.063 572.175 323.164C571.848 324.128 570.966 324.657 570.184 325.012C569.811 325.258 569.265 325.404 568.856 325.513C567.119 326.124 565.209 326.635 563.436 327.11C563.026 327.219 562.617 327.329 562.208 327.438C560.617 328.595 559.216 328.823 557.988 329.152Z" fill="#7BC0B3"/>
<path d="M515.821 314.701C515.412 314.811 514.966 314.784 514.52 314.757C513.901 314.63 513.419 314.467 512.9 314.167C512.209 313.767 511.79 313.294 511.335 312.685C511.198 312.722 511.162 312.585 510.989 312.485C510.643 312.286 510.57 312.013 510.324 311.64C510.251 311.367 510.042 311.131 509.932 310.721C509.431 309.394 508.793 308.102 508.155 306.811C506.88 304.229 505.777 301.746 504.638 299.127C503.362 296.544 502.123 294.098 500.847 291.515C499.572 288.933 498.469 286.45 497.194 283.868C496.592 282.713 496.127 281.521 495.663 280.33C495.38 279.821 495.234 279.275 495.088 278.729C495.052 278.593 494.979 278.32 494.942 278.184C494.796 277.638 495.096 277.119 495.396 276.6C495.596 276.255 495.968 276.009 496.205 275.799C496.441 275.59 496.814 275.344 497.05 275.135C497.523 274.716 498.169 274.397 498.678 274.114C499.324 273.796 499.969 273.477 500.615 273.158C501.261 272.839 501.77 272.556 502.415 272.237C503.47 271.809 504.525 271.381 505.58 270.952C506.635 270.524 507.79 269.923 508.808 269.358C509.318 269.075 509.827 268.793 510.472 268.474C511.118 268.155 511.627 267.873 512.309 267.69C512.855 267.544 513.574 267.498 514.056 267.662C514.402 267.862 514.748 268.061 514.957 268.298C515.34 268.634 515.549 268.87 515.658 269.28C516.014 270.062 516.369 270.844 516.588 271.662C516.953 273.027 517.218 274.564 517.447 275.965C517.675 277.366 517.904 278.766 518.132 280.167C518.589 282.969 518.873 285.67 519.194 288.508C519.614 291.173 519.899 293.875 520.456 296.504C520.674 297.322 520.757 298.177 520.976 298.996C521.231 299.951 521.35 300.942 521.642 302.034C522.053 304.117 522.601 306.163 523.148 308.21C523.258 308.619 523.331 308.892 523.304 309.337C523.277 309.783 523.113 310.265 522.914 310.611C522.614 311.13 522.241 311.376 521.905 311.758C521.568 312.141 521.196 312.387 520.686 312.669C519.941 313.161 519.159 313.516 518.377 313.872C517.967 313.981 517.595 314.227 517.185 314.336C516.64 314.482 516.23 314.592 515.821 314.701Z" fill="#0A543B"/>
<path d="M509.303 381.061C508.485 381.28 507.693 381.053 507.002 380.653C506.483 380.353 506.1 380.017 505.718 379.681C505.163 379.245 504.844 378.599 504.389 377.99C504.07 377.344 503.751 376.698 503.432 376.053C503.113 375.407 502.931 374.725 502.785 374.179C502.283 372.852 502.055 371.451 501.69 370.086C501.06 367.185 500.566 364.247 500.209 361.273C500.117 359.835 499.889 358.434 499.933 356.961C499.977 355.487 499.985 353.877 500.785 352.493C500.948 352.011 501.494 351.865 502.076 351.856L502.212 351.819C502.858 351.5 503.65 351.727 504.105 352.336C505.444 354.609 506.51 356.956 507.576 359.302C508.852 361.884 509.991 364.504 510.857 367.196C511.359 368.523 511.724 369.888 511.952 371.288C512.135 371.971 512.181 372.689 512.363 373.371C512.409 374.09 512.492 374.945 512.538 375.664C512.584 376.382 512.53 377.274 512.267 377.929C512.14 378.548 511.74 379.239 511.267 379.658C510.731 380.386 510.158 380.978 509.303 381.061C509.34 381.197 509.34 381.197 509.303 381.061ZM508.61 378.469C508.61 378.469 508.474 378.505 508.61 378.469C508.474 378.505 508.61 378.469 508.61 378.469C508.746 378.432 508.883 378.396 508.883 378.396L509.019 378.359C509.156 378.323 509.256 378.15 509.356 377.977C509.356 377.977 509.356 377.977 509.492 377.94C509.492 377.94 509.492 377.94 509.592 377.767L509.692 377.594C509.655 377.458 509.792 377.422 509.755 377.285C509.719 377.149 509.819 376.976 509.782 376.839C509.809 376.394 509.8 375.811 509.827 375.366C509.781 374.647 509.735 373.928 509.552 373.246C509.36 371.982 508.995 370.618 508.667 369.39C507.764 366.561 506.552 363.669 505.24 360.95C504.492 359.25 503.609 357.586 502.725 355.921C502.671 356.813 502.617 357.705 502.7 358.56C502.874 360.852 503.185 363.108 503.496 365.364C503.88 367.892 504.437 370.521 505.231 372.94C505.486 373.895 505.878 374.814 506.27 375.732C506.516 376.105 506.662 376.651 506.908 377.023C507.117 377.26 507.154 377.396 507.363 377.633C507.536 377.733 507.573 377.869 507.745 377.969C507.918 378.069 507.955 378.205 508.091 378.169L508.264 378.269L508.437 378.369C508.474 378.505 508.474 378.505 508.61 378.469Z" fill="#0A543B"/>
<path d="M551.571 407.91C551.162 408.02 550.716 407.993 550.271 407.966C549.961 407.902 549.652 407.839 549.342 407.775C549.033 407.712 548.687 407.512 548.378 407.449C547.723 407.185 547.031 406.786 546.612 406.313C546.057 405.877 545.638 405.404 545.356 404.895C545.11 404.522 544.9 404.286 544.654 403.913C543.88 402.658 543.379 401.33 542.877 400.002C542.376 398.675 541.838 397.21 541.337 395.883C540.434 393.054 539.804 390.153 539.174 387.251C538.544 384.35 537.951 381.585 537.457 378.647C537.229 377.246 537 375.845 536.635 374.481C536.407 373.08 536.142 371.543 535.913 370.142C535.804 369.733 535.794 369.151 535.958 368.668C536.021 368.359 536.121 368.186 536.357 367.977C536.457 367.804 536.557 367.631 536.794 367.421C537.03 367.212 537.439 367.103 537.749 367.166C538.058 367.229 538.404 367.429 538.613 367.666C539.278 368.511 539.979 369.493 540.644 370.339C541.345 371.321 542.046 372.302 542.748 373.284C544.223 375.521 545.699 377.758 547.038 380.031C548.413 382.441 549.825 384.987 551.101 387.569C551.739 388.861 552.24 390.189 552.914 391.616C553.416 392.944 553.917 394.272 554.282 395.636C554.464 396.318 554.647 397 554.693 397.719C554.875 398.401 554.921 399.12 554.967 399.838C555.132 401.549 555.061 403.468 554.335 405.124C554.035 405.643 553.699 406.025 553.399 406.544C553.162 406.754 552.926 406.963 552.69 407.172C552.353 407.555 551.981 407.801 551.571 407.91ZM550.705 405.218L550.569 405.255C550.569 405.255 550.569 405.255 550.705 405.218C550.841 405.182 550.841 405.182 550.841 405.182C550.978 405.145 551.078 404.972 551.214 404.936C551.351 404.899 551.314 404.763 551.451 404.726C551.551 404.553 551.687 404.517 551.787 404.344L551.887 404.171C551.987 403.998 551.987 403.998 552.087 403.825C552.187 403.652 552.15 403.516 552.25 403.343C552.314 403.034 552.377 402.724 552.44 402.415C552.467 401.969 552.458 401.387 552.485 400.941C552.402 400.086 552.356 399.367 552.137 398.549C551.882 397.594 551.763 396.602 551.334 395.547C550.578 393.265 549.684 391.018 548.691 388.945L548.728 389.081C547.024 385.444 544.91 381.916 542.834 378.524L542.87 378.661C541.813 376.897 540.657 375.306 539.5 373.715C539.291 373.478 539.218 373.205 539.008 372.969C539.008 372.969 539.008 372.969 539.045 373.105C539.045 373.105 539.045 373.105 539.008 372.969C539.996 378.845 541.082 384.548 542.479 390.314C542.88 391.815 543.282 393.316 543.647 394.68C544.367 396.826 545.087 398.973 546.044 400.91C546.363 401.555 546.682 402.201 547.137 402.81C547.347 403.047 547.42 403.319 547.592 403.419C547.629 403.556 547.802 403.656 547.975 403.756C548.148 403.856 548.357 404.092 548.53 404.192C548.703 404.292 549.049 404.492 549.222 404.592C549.395 404.692 549.704 404.755 549.877 404.855C550.05 404.955 550.186 404.918 550.359 405.018C550.432 405.291 550.569 405.255 550.705 405.218Z" fill="#0A543B"/>
<path d="M510.082 434.797C509.464 434.67 508.808 434.407 508.253 433.971C507.907 433.771 507.525 433.434 507.315 433.198C506.897 432.725 506.441 432.116 505.986 431.507C505.531 430.898 505.212 430.252 504.893 429.607C504.255 428.315 503.754 426.987 503.252 425.66C502.25 423.004 501.383 420.312 500.653 417.583C499.924 414.855 499.157 411.99 498.427 409.261C498.026 407.761 497.624 406.26 497.223 404.759C497.04 404.077 496.858 403.395 496.676 402.713C496.566 402.304 496.457 401.894 496.52 401.585C496.447 401.312 496.411 401.176 496.474 400.866C496.537 400.557 496.601 400.248 496.837 400.038C497.174 399.656 497.856 399.473 498.374 399.773C498.684 399.837 498.757 400.109 498.93 400.209C498.966 400.346 499.103 400.309 499.139 400.446C500.951 402.3 502.526 404.364 503.929 406.328C505.504 408.392 506.98 410.628 508.455 412.865C509.193 413.983 509.967 415.238 510.705 416.357C511.442 417.475 512.08 418.766 512.718 420.058C513.037 420.703 513.356 421.349 513.711 422.131C514.03 422.777 514.176 423.322 514.495 423.968C514.996 425.296 515.261 426.833 515.49 428.234C515.609 429.225 515.592 430.253 515.401 431.181C515.238 431.664 515.038 432.009 514.875 432.492C514.575 433.01 514.238 433.393 513.902 433.775C513.429 434.194 512.82 434.649 512.138 434.832C511.32 435.051 510.737 435.06 510.082 434.797ZM511.272 432.14C511.408 432.103 511.408 432.103 511.272 432.14C511.408 432.103 511.545 432.067 511.645 431.894L511.781 431.857C511.918 431.821 511.881 431.684 512.017 431.648L512.117 431.475C512.217 431.302 512.317 431.129 512.417 430.956C512.517 430.783 512.481 430.647 512.581 430.474C512.581 430.474 512.544 430.337 512.68 430.301C512.68 430.301 512.644 430.164 512.78 430.128C512.844 429.819 512.807 429.682 512.734 429.409C512.688 428.691 512.679 428.109 512.496 427.426C512.314 426.744 512.231 425.889 512.049 425.207C511.793 424.252 511.438 423.47 511.083 422.688C510.481 421.533 509.844 420.242 509.242 419.087C508.641 417.932 507.867 416.677 507.129 415.559C505.826 413.422 504.424 411.458 502.985 409.358C502.111 408.276 501.337 407.021 500.462 405.939C500.791 407.167 501.083 408.259 501.411 409.486C502.141 412.215 502.908 415.08 503.637 417.809C503.966 419.036 504.294 420.264 504.723 421.319C505.443 423.466 506.163 425.612 507.157 427.685C507.512 428.467 507.867 429.249 508.359 429.995C508.605 430.368 508.851 430.741 509.233 431.077C509.406 431.177 509.443 431.313 509.616 431.413C509.789 431.513 509.825 431.65 509.998 431.749C510.171 431.849 510.171 431.849 510.344 431.949C510.48 431.913 510.517 432.049 510.653 432.013C510.653 432.013 510.79 431.976 510.826 432.113L510.963 432.076C511.099 432.04 511.099 432.04 511.235 432.003L511.372 431.967C511.135 432.176 511.272 432.14 511.272 432.14Z" fill="#0A543B"/>
<path d="M571.945 369.859C571.672 369.932 571.226 369.905 570.917 369.842C570.162 369.751 569.37 369.525 568.679 369.125C567.987 368.725 567.395 368.153 566.94 367.543C566.94 367.543 566.94 367.543 566.903 367.407C566.903 367.407 566.867 367.271 566.73 367.307C566.312 366.834 566.029 366.325 565.61 365.852C565.155 365.243 564.836 364.598 564.517 363.952C564.198 363.306 563.843 362.524 563.524 361.879C563.023 360.551 562.348 359.123 561.811 357.659C560.808 355.003 560.178 352.102 559.412 349.237C558.974 347.6 558.536 345.963 558.234 344.289C558.015 343.47 557.833 342.788 557.614 341.97C557.504 341.56 557.395 341.151 557.322 340.878C557.176 340.332 557.03 339.787 557.193 339.305C557.357 338.822 557.693 338.44 558.239 338.294C558.511 338.221 558.821 338.284 558.994 338.384C559.303 338.448 559.749 338.475 559.995 338.847C561.251 340.266 562.508 341.684 563.628 343.139C565.203 345.202 566.915 347.23 568.454 349.157C569.292 350.102 570.029 351.221 570.767 352.339C571.541 353.594 572.316 354.849 573.09 356.104C573.864 357.358 574.502 358.65 575.003 359.977C575.541 361.442 576.042 362.769 576.035 364.38C575.971 364.689 576.081 365.098 576.017 365.408C575.99 365.853 575.927 366.163 575.763 366.645C575.7 366.954 575.6 367.127 575.5 367.3C575.3 367.646 575.1 367.992 574.9 368.338C574.801 368.511 574.564 368.72 574.464 368.893C574.364 369.066 574.091 369.139 573.992 369.312C573.619 369.558 573.11 369.84 572.7 369.95L572.564 369.986C572.391 369.886 572.118 369.959 571.945 369.859ZM571.934 367.085C572.07 367.048 572.207 367.012 572.17 366.875C572.307 366.839 572.407 366.666 572.543 366.629C572.679 366.593 572.643 366.456 572.779 366.42C572.779 366.42 572.916 366.383 572.879 366.247L572.979 366.074L573.079 365.901C573.043 365.765 573.179 365.728 573.143 365.592C573.206 365.282 573.233 364.837 573.296 364.527C573.26 364.391 573.36 364.218 573.287 363.945C573.214 363.672 573.277 363.363 573.204 363.09C573.095 362.681 573.022 362.408 572.912 361.999C572.693 361.18 572.375 360.534 572.019 359.752C571.135 358.088 570.252 356.424 569.232 354.797C568.494 353.678 567.756 352.56 567.055 351.578C566.317 350.46 565.48 349.514 564.642 348.569C563.522 347.114 562.229 345.559 561.109 344.105C561.364 345.06 561.62 346.015 561.839 346.833C562.532 349.425 563.089 352.054 563.919 354.61C564.749 357.165 565.678 359.548 566.781 362.031C567.063 362.54 567.382 363.186 567.665 363.695C567.947 364.204 568.193 364.577 568.612 365.05C568.785 365.149 568.821 365.286 569.031 365.522L569.067 365.659C569.067 365.659 569.067 365.659 569.104 365.795C569.313 366.031 569.486 366.131 569.695 366.368C569.732 366.504 569.868 366.468 569.905 366.604C570.078 366.704 570.114 366.84 570.251 366.804C570.424 366.904 570.424 366.904 570.597 367.004C570.769 367.104 570.906 367.067 571.215 367.131C571.215 367.131 571.352 367.094 571.388 367.231L571.252 367.267C571.388 367.231 571.425 367.367 571.561 367.331C571.525 367.194 571.661 367.158 571.934 367.085C571.797 367.121 571.797 367.121 571.934 367.085Z" fill="#0A543B"/>
<path d="M549.146 458.41C548.7 458.383 548.391 458.32 547.945 458.293C547.017 458.102 546.152 457.603 545.561 457.03C545.005 456.594 544.55 455.985 544.095 455.375C543.639 454.766 543.221 454.294 542.902 453.648C542.164 452.53 541.526 451.238 540.888 449.947C540.251 448.656 539.613 447.364 539.111 446.037C537.972 443.418 536.97 440.762 536.067 437.934C535.565 436.606 535.164 435.105 534.663 433.777L534.626 433.641C534.553 433.368 534.517 433.231 534.444 432.959C534.298 432.413 534.188 432.004 534.042 431.458C533.896 430.912 533.75 430.367 533.604 429.821C533.495 429.412 533.349 428.866 533.376 428.42C533.403 427.974 533.293 427.565 533.493 427.219C533.693 426.873 534.066 426.627 534.475 426.518C534.921 426.545 535.403 426.708 535.612 426.945C535.995 427.281 536.104 427.69 535.941 428.172C537.935 430.709 539.756 433.146 541.851 435.509C543.317 437.164 544.782 438.818 546.285 440.609C546.321 440.746 546.494 440.846 546.531 440.982C546.531 440.982 546.494 440.846 546.358 440.882C547.232 441.964 548.279 443.146 549.153 444.228C550.027 445.31 550.938 446.528 551.539 447.683C551.858 448.328 552.177 448.974 552.533 449.756C552.851 450.402 553.07 451.22 553.253 451.902C553.372 452.894 553.491 453.885 553.301 454.813C553.174 455.432 552.874 455.951 552.438 456.506C552.001 457.061 551.392 457.517 550.883 457.799C550.61 457.872 550.474 457.909 550.201 457.982C549.728 458.4 549.455 458.473 549.146 458.41ZM549.544 455.526C549.681 455.489 549.681 455.489 549.817 455.453C549.953 455.416 549.953 455.416 550.053 455.244C550.19 455.207 550.153 455.071 550.29 455.034L550.39 454.861C550.39 454.861 550.39 454.861 550.526 454.825L550.626 454.652C550.589 454.515 550.726 454.479 550.689 454.342C550.653 454.206 550.789 454.17 550.753 454.033C550.716 453.897 550.78 453.587 550.743 453.451C550.707 453.314 550.67 453.178 550.634 453.042C550.524 452.632 550.415 452.223 550.269 451.677C550.123 451.132 549.804 450.486 549.522 449.977C549.203 449.331 548.92 448.822 548.638 448.313C547.408 446.449 545.869 444.521 544.404 442.867C544.404 442.867 544.367 442.73 544.231 442.767L544.194 442.63C542.482 440.603 540.634 438.612 538.886 436.448C538.503 436.112 538.221 435.603 537.839 435.267C537.948 435.676 538.058 436.085 538.34 436.594C538.841 437.922 539.206 439.287 539.744 440.751C540.209 441.942 540.637 442.997 541.102 444.188C541.531 445.243 541.996 446.435 542.56 447.453C543.308 449.154 544.155 450.681 545.175 452.309C545.457 452.818 545.876 453.291 546.295 453.764C546.332 453.9 546.504 454 546.504 454C546.504 454 546.504 454 546.541 454.136L546.577 454.273C546.787 454.509 546.996 454.746 547.206 454.982C547.379 455.082 547.552 455.182 547.588 455.318C547.761 455.418 547.97 455.654 548.28 455.718C548.28 455.718 548.28 455.718 548.416 455.681C548.416 455.681 548.553 455.645 548.589 455.781C548.726 455.745 548.898 455.845 549.035 455.808L549.171 455.772C549.171 455.772 549.171 455.772 549.035 455.808L549.171 455.772C549.271 455.599 549.408 455.562 549.544 455.526Z" fill="#0A543B"/>
<path d="M584.673 439.842C583.982 439.443 583.426 439.006 582.835 438.434C582.416 437.961 581.961 437.352 581.505 436.743C580.767 435.624 580.13 434.333 579.492 433.042C577.041 427.704 574.999 422.256 573.23 416.736C572.755 414.962 572.108 413.088 571.633 411.315C571.524 410.906 571.414 410.496 571.268 409.951C571.232 409.814 571.159 409.541 571.122 409.405C571.049 409.132 570.94 408.723 571.003 408.413C571.067 408.104 571.23 407.622 571.603 407.376C571.976 407.13 572.385 407.021 572.867 407.184C573.177 407.247 573.523 407.447 573.768 407.82C573.805 407.956 573.978 408.056 574.014 408.193C574.606 408.765 575.234 409.475 575.826 410.047C576.627 410.856 577.465 411.802 578.166 412.784C579.004 413.729 579.841 414.674 580.679 415.62C581.553 416.702 582.427 417.784 583.438 418.829C584.312 419.911 585.223 421.129 585.961 422.248C586.698 423.366 587.609 424.584 588.347 425.703C588.802 426.312 589.121 426.957 589.613 427.703C589.932 428.349 590.251 428.994 590.569 429.64C590.888 430.286 591.071 430.968 591.426 431.75C591.609 432.432 591.964 433.214 592.01 433.933C592.129 434.924 592.248 435.916 591.921 436.88C591.568 438.291 590.732 439.537 589.44 440.175C589.304 440.212 589.031 440.285 588.895 440.321C587.531 440.686 585.884 440.542 584.673 439.842ZM588.338 437.693C588.474 437.656 588.611 437.62 588.611 437.62L588.747 437.583C588.747 437.583 588.884 437.547 588.847 437.41C588.983 437.374 588.947 437.237 589.083 437.201L589.183 437.028C589.283 436.855 589.283 436.855 589.383 436.682C589.347 436.546 589.447 436.373 589.447 436.373C589.41 436.236 589.51 436.063 589.474 435.927C589.437 435.79 589.501 435.481 589.464 435.345C589.391 435.072 589.454 434.762 589.382 434.49C589.236 433.944 589.126 433.535 588.98 432.989C588.588 432.07 588.333 431.115 587.841 430.37C587.449 429.451 586.957 428.706 586.429 427.824C585.236 426.096 584.079 424.505 582.886 422.778C581.73 421.187 580.437 419.632 579.144 418.077C578.515 417.368 577.851 416.523 577.222 415.814C576.594 415.105 576.002 414.532 575.511 413.786C575.876 415.151 576.413 416.615 576.778 417.979C578.292 422.545 579.942 427.074 581.965 431.357C582.603 432.648 583.241 433.939 583.978 435.058C584.224 435.431 584.507 435.94 584.889 436.276C585.062 436.376 585.271 436.612 585.308 436.749C585.481 436.849 585.654 436.949 585.827 437.049C585.999 437.149 585.999 437.149 586.172 437.249C586.345 437.348 586.345 437.348 586.518 437.448C586.691 437.548 586.828 437.512 586.828 437.512C586.964 437.475 587.137 437.575 587.273 437.539C587.41 437.502 587.583 437.602 587.719 437.566C587.856 437.529 587.856 437.529 587.992 437.493C588.065 437.766 588.201 437.729 588.338 437.693Z" fill="#0A543B"/>
<path d="M604.619 388.165C604.31 388.101 603.964 387.901 603.618 387.701C603.273 387.502 603.063 387.265 602.717 387.065C602.162 386.629 601.843 385.984 601.424 385.511C600.687 384.392 600.222 383.201 599.62 382.046C599.156 380.855 598.654 379.527 598.189 378.336C597.223 375.817 596.357 373.124 595.663 370.532C594.834 367.977 594.14 365.385 593.274 362.693C592.909 361.328 592.544 359.964 592.179 358.6C592.106 358.327 591.997 357.918 591.924 357.645C591.851 357.372 591.741 356.963 591.805 356.653C591.795 356.071 591.958 355.589 592.468 355.306C592.468 355.306 592.567 355.133 592.704 355.097C593.313 354.642 594.105 354.868 594.66 355.305C595.571 356.523 596.481 357.741 597.392 358.96C598.093 359.941 598.794 360.923 599.359 361.942C600.097 363.06 600.835 364.179 601.536 365.161C602.975 367.261 604.414 369.361 605.753 371.634C606.354 372.789 607.092 373.908 607.693 375.062C608.294 376.217 609.032 377.336 609.534 378.663C609.816 379.173 609.998 379.855 610.144 380.401C610.327 381.083 610.473 381.628 610.519 382.347C610.565 383.066 610.438 383.684 610.348 384.44C610.321 384.885 610.121 385.231 609.958 385.713C609.758 386.059 609.558 386.405 609.221 386.787C608.985 386.997 608.749 387.206 608.649 387.379C608.14 387.662 607.767 387.908 607.221 388.053L607.085 388.09C606.166 388.482 605.275 388.428 604.619 388.165ZM606.528 385.461C606.664 385.425 606.664 385.425 606.801 385.388L606.937 385.352C607.073 385.315 607.037 385.179 607.173 385.142L607.273 384.97L607.373 384.797C607.473 384.624 607.537 384.314 607.5 384.178C607.6 384.005 607.564 383.869 607.527 383.732C607.591 383.423 607.554 383.286 607.481 383.014C607.408 382.741 607.508 382.568 607.435 382.295C607.325 381.886 607.253 381.613 607.143 381.203C606.961 380.521 606.642 379.876 606.323 379.23C605.685 377.939 604.911 376.684 604.273 375.393C603.499 374.138 602.824 372.71 601.914 371.492C600.475 369.392 599.036 367.291 597.597 365.191C596.896 364.209 596.367 363.327 595.666 362.345C595.812 362.891 595.958 363.436 596.141 364.119C596.797 366.574 597.591 368.993 598.384 371.413C599.031 373.286 599.579 375.333 600.363 377.17C600.973 378.907 601.757 380.744 602.504 382.444C602.823 383.09 603.142 383.736 603.598 384.345C603.807 384.581 603.88 384.854 604.053 384.954C604.226 385.054 604.262 385.19 604.472 385.427L604.645 385.527L604.818 385.626C604.954 385.59 604.991 385.726 605.127 385.69C605.263 385.653 605.3 385.79 605.436 385.753C605.436 385.753 605.573 385.717 605.609 385.853L605.746 385.817C605.882 385.78 605.882 385.78 606.019 385.744C606.391 385.498 606.391 385.498 606.528 385.461Z" fill="#0A543B"/>
<path d="M592.987 343.034C592.168 343.253 591.24 343.063 590.548 342.663C589.72 342.3 589.092 341.591 588.6 340.845C587.726 339.763 587.088 338.472 586.314 337.217C584.939 334.807 583.936 332.152 582.933 329.496C582.432 328.169 581.93 326.841 581.429 325.513C580.928 324.185 580.426 322.857 580.198 321.457C580.052 320.911 579.869 320.229 579.996 319.61C580.123 318.991 580.732 318.536 581.351 318.663C582.106 318.753 582.698 319.326 582.744 320.045C583.29 319.899 583.808 320.198 584.191 320.535C585.73 322.462 587.232 324.253 588.771 326.18C590.519 328.344 592.267 330.508 593.607 332.781C593.925 333.427 594.381 334.036 594.663 334.545C594.982 335.191 595.301 335.836 595.52 336.655C595.702 337.337 595.885 338.019 595.794 338.774C595.777 339.802 595.587 340.73 595.087 341.595C594.451 342.496 593.805 342.815 592.987 343.034ZM592.43 340.405C592.566 340.369 592.566 340.369 592.43 340.405C592.566 340.369 592.566 340.369 592.43 340.405C592.566 340.369 592.566 340.369 592.53 340.233C592.566 340.369 592.566 340.369 592.43 340.405C592.566 340.369 592.566 340.369 592.566 340.369C592.666 340.196 592.666 340.196 592.766 340.023L592.666 340.196C592.666 340.196 592.63 340.06 592.766 340.023L592.866 339.85C592.83 339.714 592.966 339.677 592.929 339.541C593.029 339.368 592.956 339.095 592.92 338.959C592.847 338.686 592.947 338.513 592.874 338.24C592.837 338.104 592.764 337.831 592.728 337.694C592.618 337.285 592.545 337.012 592.3 336.639C591.871 335.584 591.343 334.702 590.642 333.72C589.339 331.584 587.664 329.693 586.125 327.765C585.46 326.92 584.759 325.938 583.958 325.129C584.35 326.047 584.642 327.139 585.033 328.057C585.681 329.931 586.428 331.631 587.212 333.468C587.959 335.169 588.806 336.697 589.79 338.188C590.072 338.697 590.528 339.306 590.946 339.779C591.119 339.879 591.156 340.015 591.329 340.115C591.365 340.252 591.502 340.215 591.538 340.352C591.538 340.352 591.538 340.352 591.711 340.451C591.711 340.451 591.848 340.415 591.884 340.551C591.884 340.551 591.748 340.588 591.711 340.451C591.848 340.415 591.884 340.551 592.021 340.515L592.157 340.478L592.293 340.442C592.293 340.442 592.293 340.442 592.43 340.405Z" fill="#0A543B"/>
<path d="M482.063 389.078C481.654 389.188 481.344 389.124 481.035 389.061C480.416 388.934 479.725 388.534 479.033 388.135C478.478 387.698 478.059 387.226 477.64 386.753C477.431 386.517 477.221 386.28 477.185 386.144C477.148 386.007 477.148 386.007 476.975 385.907C476.766 385.671 476.656 385.262 476.447 385.025C476.165 384.516 475.982 383.834 475.7 383.325C474.697 380.669 473.831 377.977 472.964 375.285C472.135 372.73 471.405 370.001 470.984 367.336C470.756 365.935 470.527 364.534 470.435 363.097C470.462 362.651 470.489 362.205 470.516 361.76C470.679 361.277 470.879 360.932 471.388 360.649C471.997 360.194 472.962 360.521 473.281 361.166C473.563 361.675 473.536 362.121 473.237 362.64C473.237 362.64 473.237 362.64 473.273 362.776C473.819 362.63 474.474 362.894 474.756 363.403C475.923 365.576 477.262 367.85 478.428 370.023C479.803 372.433 481.042 374.879 482.281 377.325C482.919 378.616 483.557 379.907 483.922 381.272C484.104 381.954 484.287 382.636 484.469 383.318C484.652 384 484.734 384.855 484.644 385.61C484.554 386.366 484.327 387.157 483.791 387.885C483.454 388.268 483.118 388.65 482.745 388.896C482.472 388.969 482.372 389.142 482.1 389.215C482.199 389.042 482.199 389.042 482.063 389.078ZM481.606 386.277C481.742 386.24 481.706 386.104 481.842 386.067L481.942 385.895C481.906 385.758 482.042 385.722 482.006 385.585C481.969 385.449 482.069 385.276 482.033 385.139C481.996 385.003 481.96 384.867 482.096 384.83C482.06 384.694 481.987 384.421 482.087 384.248C481.904 383.566 481.895 382.984 481.576 382.338C481.32 381.383 480.928 380.464 480.4 379.582C479.297 377.1 477.922 374.69 476.583 372.417C475.699 370.753 474.642 368.989 473.759 367.325C474.389 370.226 475.155 373.091 476.058 375.92L476.021 375.783C476.924 378.612 477.654 381.34 478.966 384.059C479.039 384.332 479.249 384.568 479.494 384.941L479.458 384.805L479.494 384.941C479.531 385.078 479.704 385.178 479.74 385.314C479.95 385.55 480.159 385.787 480.332 385.887C480.369 386.023 480.505 385.987 480.542 386.123C480.714 386.223 480.714 386.223 480.887 386.323C481.06 386.423 481.06 386.423 481.233 386.523C481.47 386.313 481.47 386.313 481.606 386.277ZM471.736 363.041C471.563 362.942 471.354 362.705 471.181 362.605C471.181 362.605 471.217 362.742 471.354 362.705C471.354 362.705 471.39 362.842 471.526 362.805C471.526 362.805 471.526 362.805 471.736 363.041C471.563 362.942 471.699 362.905 471.736 363.041Z" fill="#0A543B"/>
<path d="M580.902 481.492C579.256 481.348 577.763 480.139 576.816 478.785C576.042 477.53 575.404 476.238 574.729 474.811C574.228 473.483 573.763 472.292 573.262 470.964C572.223 468.172 571.493 465.443 570.59 462.615C569.86 459.886 569.13 457.158 568.673 454.356C568.491 453.674 568.408 452.819 568.499 452.064C568.489 451.482 568.889 450.79 569.434 450.644C569.707 450.571 569.98 450.498 570.153 450.598C570.799 450.279 571.417 450.406 571.873 451.015C573.166 452.57 574.359 454.297 575.515 455.888C577.127 458.088 578.603 460.325 579.942 462.598C581.317 465.008 582.693 467.418 583.795 469.9C584.114 470.546 584.26 471.092 584.579 471.737C584.898 472.383 585.081 473.065 585.3 473.884C585.482 474.566 585.664 475.248 585.711 475.967C585.757 476.685 585.666 477.44 585.576 478.196C585.449 478.814 585.322 479.433 584.986 479.815C584.55 480.371 583.94 480.826 583.295 481.145C583.022 481.218 582.749 481.291 582.476 481.364C582.067 481.473 581.521 481.619 580.902 481.492ZM582.192 478.662C582.328 478.626 582.465 478.589 582.601 478.553L582.738 478.516L582.874 478.48C582.874 478.48 582.838 478.343 582.974 478.307C582.938 478.17 583.074 478.134 583.038 477.997C583.001 477.861 583.101 477.688 583.065 477.552C583.091 477.106 583.155 476.796 583.182 476.351C583.109 476.078 583.172 475.769 583.063 475.359C582.99 475.086 582.953 474.95 582.88 474.677C582.306 473.076 581.768 471.612 581.057 470.048L581.094 470.184C580.383 468.62 579.572 467.229 578.725 465.701C577.914 464.31 577.067 462.783 576.12 461.428C574.681 459.328 573.206 457.091 571.63 455.027C572.306 458.647 573.391 462.158 574.477 465.668C575.416 468.633 576.392 471.735 577.74 474.59C578.096 475.372 578.488 476.291 578.98 477.036C579.189 477.273 579.225 477.409 579.435 477.645C579.608 477.745 579.817 477.982 579.854 478.118C580.027 478.218 580.2 478.318 580.236 478.454L580.409 478.554L580.582 478.654L580.755 478.754C580.755 478.754 580.891 478.718 581.064 478.818L581.201 478.781C581.337 478.745 581.473 478.708 581.473 478.708C581.919 478.735 582.056 478.699 582.192 478.662Z" fill="#0A543B"/>
<path d="M668.164 129.382C668.242 129.273 668.242 129.273 668.21 129.088C668.242 129.273 668.242 129.273 668.164 129.382Z" fill="#7BC0B3"/>
<path d="M776.267 84.2775C775.507 83.7359 774.778 83.3803 773.941 82.9473C773.103 82.5143 772.266 82.0812 771.537 81.7256C770.699 81.2926 769.676 80.8908 768.761 80.5664C767.117 79.8863 765.505 79.3921 763.861 78.7121C760.419 77.5691 757.085 76.5035 753.597 75.655C751.907 75.2695 750.217 74.884 748.45 74.607C746.791 74.4075 745.024 74.1305 743.365 73.9309C742.482 73.7924 741.489 73.5766 740.575 73.2521C740.063 73.0512 739.66 72.9277 739.148 72.7268C739.04 72.6495 738.931 72.5721 738.822 72.4947C738.822 72.4947 738.822 72.4947 738.714 72.4173C738.683 72.2314 738.651 72.0454 738.62 71.8594C738.479 70.4492 738.555 69.1936 738.414 67.7833C738.428 66.1559 738.255 64.5596 738.083 62.9634C737.879 61.1812 737.645 59.213 736.697 57.5557C736.138 56.5023 735.424 55.6662 734.369 55.0784C733.609 54.5368 732.694 54.2124 731.811 54.0739C731.036 54.0128 730.137 54.3548 729.425 54.6656C728.402 55.4108 727.815 56.4655 727.335 57.5975C726.902 58.4349 726.578 59.3498 726.331 60.156C725.759 61.8772 725.374 63.5671 724.88 65.1796C724.494 66.8695 723.923 68.5906 723.537 70.2805C723.29 71.0867 723.152 71.9704 723.013 72.854C721.929 73.2272 720.844 73.6004 719.76 73.9737C718.303 74.4093 716.878 75.031 715.422 75.4667C714.074 75.9797 712.54 76.524 711.115 77.1456C709.767 77.6586 708.45 78.3576 707.211 78.948C705.631 79.7868 704.051 80.6256 702.58 81.5418C701.108 82.458 699.637 83.3741 698.274 84.3677C695.285 86.4946 692.544 88.9621 689.99 91.3985C688.767 92.6554 687.621 93.8037 686.507 95.1379C685.315 96.5808 684.123 98.0236 682.931 99.4664C681.926 100.878 680.842 102.398 679.945 103.887C678.97 105.485 677.996 107.082 677.021 108.68C676.124 110.169 675.258 111.844 674.361 113.333C673.495 115.008 672.629 116.683 671.949 118.327C670.511 121.723 669.368 125.165 668.334 128.684C667.793 130.591 667.253 132.498 666.899 134.374C666.544 136.25 666.113 138.235 665.758 140.11C665.543 141.103 665.435 142.172 665.405 143.133C665.221 144.311 665.114 145.381 665.115 146.528C664.855 150.109 664.813 153.844 664.848 157.471C664.915 161.284 665.167 165.065 665.606 168.816C665.935 172.489 666.528 176.022 667.23 179.632C667.932 183.243 669.005 186.791 670.156 190.231C671.307 193.67 672.349 197.032 673.872 200.41C674.634 202.098 675.426 203.973 676.451 205.521C677.399 207.179 678.532 208.805 679.665 210.431C681.761 213.234 684.043 216.006 686.402 218.669C687.581 220.001 688.761 221.332 690.126 222.633C690.809 223.283 691.491 223.933 692.174 224.583C692.857 225.233 693.508 225.698 694.191 226.348C695.417 227.385 696.72 228.313 698.1 229.133C699.403 230.062 700.784 230.881 702.164 231.701C704.925 233.341 707.686 234.981 710.555 236.698C711.827 237.441 712.913 238.214 714.107 239.065C714.324 239.22 714.542 239.375 714.681 239.638C714.79 239.715 714.899 239.793 714.821 239.901C714.93 239.979 714.93 239.979 714.961 240.165L714.992 240.351C715.163 240.8 715.257 241.358 715.428 241.807C715.786 243.372 716.067 245.046 716.239 246.642C716.443 248.424 716.755 250.284 717.145 252.035C717.378 252.856 717.72 253.755 717.953 254.576C718.233 255.102 718.435 255.738 718.715 256.264C718.886 256.714 719.243 257.132 719.6 257.55C719.848 257.891 720.283 258.2 720.608 258.432C721.151 258.819 721.958 259.066 722.547 259.158C722.841 259.205 723.136 259.251 723.322 259.219C723.616 259.266 723.88 259.126 724.143 258.986C724.592 258.815 724.964 258.753 725.305 258.504C725.568 258.364 725.645 258.256 725.909 258.116C726.668 257.511 727.287 256.642 727.828 255.882C728.37 255.122 728.694 254.207 728.941 253.401C729.188 252.594 729.404 251.602 729.651 250.796C729.959 249.215 730.345 247.525 730.762 246.021C730.885 245.618 731.086 245.106 731.21 244.703C731.364 244.486 731.411 244.191 731.565 243.974C731.643 243.865 731.797 243.648 731.875 243.54C731.952 243.431 731.952 243.431 732.03 243.322C732.37 243.074 732.788 242.717 733.129 242.469C733.47 242.22 733.81 241.972 734.26 241.801C735.05 241.382 735.948 241.039 736.847 240.697C738.009 240.216 739.202 239.92 740.472 239.515C741.743 239.111 742.936 238.815 744.206 238.411C745.477 238.006 746.825 237.493 748.173 236.98C749.149 236.529 750.233 236.156 751.209 235.706C752.789 234.867 754.292 234.137 755.763 233.22C757.157 232.413 758.628 231.497 759.991 230.503C761.277 229.618 762.64 228.625 763.816 227.662C765.071 226.591 766.247 225.629 767.502 224.558C768.833 223.379 769.979 222.23 771.202 220.973C772.316 219.639 773.508 218.196 774.514 216.785C774.823 216.35 775.133 215.916 775.442 215.482C777.145 213.093 778.661 210.735 780.146 208.191C782.018 205.105 783.998 202.096 785.761 198.932C787.525 195.768 789.148 192.341 790.694 189.022C793.709 182.493 796.398 175.732 798.607 168.956C799.75 165.514 800.676 161.917 801.416 158.352C802.187 154.972 802.74 151.437 803 147.857C803.337 144.167 803.487 140.509 803.638 136.851C803.711 133.302 803.382 129.629 802.789 126.096C802.273 122.454 801.571 118.843 800.389 115.218C799.814 113.498 799.13 111.701 798.368 110.012C797.607 108.324 796.659 106.666 795.821 105.086C794.174 102.112 792.342 99.1695 790.169 96.4751C789.067 95.0349 787.887 93.7033 786.63 92.4803C785.373 91.2573 784.225 90.1117 782.891 88.9972C781.448 87.8054 780.005 86.6136 778.485 85.5304C777.865 85.2521 777.105 84.7106 776.267 84.2775ZM735.091 236.499C734.827 236.639 734.455 236.701 734.192 236.841C734.564 236.779 734.827 236.639 735.091 236.499ZM672.055 130.354C672.256 129.842 672.349 129.253 672.472 128.85C672.38 129.439 672.179 129.951 672.055 130.354ZM788.023 184.499C787.822 185.011 787.621 185.523 787.312 185.957C787.621 185.523 787.822 185.011 788.023 184.499Z" fill="#FFB93E"/>
<path d="M723.224 26.8362C722.169 26.2485 720.928 25.6919 719.796 25.2128C718.664 24.7336 717.346 24.2856 716.137 23.915C713.61 23.0964 711.051 22.0919 708.678 21.0562C706.12 20.0517 703.639 18.9386 701.08 17.9341C698.599 16.821 696.04 15.8165 693.482 14.812C690.923 13.8075 688.365 12.803 685.883 11.6899C685.154 11.3342 684.426 10.9786 683.805 10.7003C683.076 10.3447 682.347 9.98904 681.51 9.55602C681.293 9.40127 681.107 9.4325 680.89 9.27775C680.595 9.23159 680.301 9.18542 680.006 9.13926C679.448 9.2329 678.875 9.80704 678.783 10.3961C678.645 11.2798 679.359 12.1159 679.855 12.7973C680.6 13.8194 681.454 14.9189 682.277 15.8324C683.13 16.9319 684.062 17.9228 684.993 18.9137C685.924 19.9046 686.855 20.8955 687.863 21.7778C688.329 22.2732 688.872 22.6601 689.415 23.0469C689.958 23.4338 690.423 23.9292 691.075 24.3935C692.269 25.2445 693.355 26.0183 694.704 26.6522C697.108 27.8739 699.698 29.0643 702.303 29.7743C703.621 30.2223 705.125 30.639 706.52 30.9784C707.807 31.2404 709.202 31.5798 710.489 31.8418C713.171 32.4432 715.853 33.0445 718.458 33.7545C720.365 34.2948 722.194 34.9436 723.947 35.7011C724.784 36.1341 725.73 36.6445 726.568 37.0775C727.111 37.4644 727.545 37.7739 728.088 38.1607C727.716 38.2231 727.422 38.177 727.158 38.3168C726.786 38.3792 726.228 38.4729 725.857 38.5353C724.214 39.0022 722.572 39.4691 720.929 39.9359C719.814 40.1232 718.698 40.3105 717.582 40.4978C715.691 40.624 713.8 40.7502 711.956 40.5818C711.181 40.5207 710.514 40.537 709.817 40.3673C709.042 40.3062 708.453 40.2138 707.755 40.0442C706.577 39.8595 705.29 39.5975 704.189 39.3043C702.98 38.9337 701.879 38.6405 700.67 38.2699C698.545 37.5749 696.421 36.8799 694.188 36.1075C691.955 35.3351 689.8 34.4541 687.676 33.7591C685.226 32.832 682.667 31.8275 680.217 30.9003C679.597 30.622 679.008 30.5297 678.388 30.2515C677.581 30.0044 676.635 29.494 675.845 29.9134C675.133 30.2242 674.854 30.8445 674.979 31.5883C674.995 32.2548 675.275 32.7815 675.663 33.3855C676.051 33.9895 676.331 34.5162 676.797 35.0116C680.289 39.301 684.818 42.3646 689.425 45.3197C690.511 46.0934 691.674 46.7585 692.76 47.5322C693.923 48.1974 695.009 48.9711 696.218 49.3417C696.839 49.62 697.459 49.8982 698.157 50.0679C698.854 50.2376 699.552 50.4073 700.141 50.4996C701.537 50.839 702.978 50.8838 704.311 50.8513C706.977 50.7862 709.766 50.318 712.338 49.6951C713.531 49.3992 714.802 48.9947 716.072 48.5903C717.343 48.1858 718.582 47.5954 719.744 47.1136C723.199 45.4821 726.622 43.6648 729.937 41.77L729.968 41.9559C730.002 44.4358 730.036 46.9157 730.178 49.4729C730.211 50.8059 730.32 52.0302 730.353 53.3631C730.307 53.6577 730.447 53.921 730.4 54.2155C730.168 54.5413 730.045 54.9444 729.999 55.239C729.953 55.5335 729.906 55.8281 729.752 56.0452L729.674 56.1538L729.597 56.2624C729.442 56.4796 729.256 56.5108 729.179 56.6194C728.993 56.6506 728.838 56.8677 728.652 56.899C728.389 57.0388 728.157 57.3645 727.925 57.6903C727.801 58.0934 727.895 58.6513 728.143 58.992C728.748 59.7508 729.895 59.7494 730.825 59.5934C731.492 59.5771 732.127 59.3749 732.762 59.1726C733.211 59.0016 733.769 58.908 734.187 58.551C734.373 58.5198 734.451 58.4112 734.605 58.1941C734.915 57.7597 734.93 57.2792 734.65 56.7525C734.402 56.4118 734.076 56.1797 733.704 56.2421C733.782 56.1336 733.828 55.839 733.797 55.6531C733.966 54.9554 734.059 54.3663 734.12 53.5913C734.15 52.6303 734.257 51.5607 734.287 50.5997C734.394 49.5301 734.393 48.3831 734.314 47.3448C734.281 46.0118 734.249 44.6789 734.03 43.3772C733.92 42.1528 733.702 40.8511 733.406 39.658C733.312 39.1002 733.141 38.6509 733.048 38.093C732.877 37.6437 732.706 37.1944 732.535 36.7451C732.333 36.1099 731.867 35.6145 731.479 35.0104C731.308 34.5611 731.059 34.2204 730.888 33.7711C730.298 32.5319 729.553 31.5097 728.699 30.4103C727.133 29.6216 725.333 28.0118 723.224 26.8362Z" fill="#0A543B"/>
<path d="M731.956 219.531C731.909 219.825 731.972 220.197 732.22 220.538C732.329 220.615 732.437 220.693 732.655 220.847C732.872 221.002 733.089 221.157 733.383 221.203C733.678 221.249 734.05 221.187 734.391 220.938C734.468 220.83 734.545 220.721 734.545 220.721C734.777 220.396 734.792 219.915 734.73 219.543C734.59 219.28 734.559 219.094 734.342 218.939C734.093 218.598 733.799 218.552 733.396 218.429C732.621 218.368 732.048 218.942 731.956 219.531Z" fill="#0A543B"/>
<path d="M745.376 218.617C745.004 218.679 744.772 219.005 744.617 219.222C744.54 219.331 744.494 219.625 744.416 219.734C744.324 220.323 744.681 220.741 745.115 221.05C745.333 221.205 745.518 221.174 745.813 221.22L745.999 221.189C746.48 221.204 746.82 220.955 747.052 220.63C747.207 220.412 747.253 220.118 747.299 219.823C747.206 219.265 746.926 218.739 746.337 218.646C746.12 218.492 745.748 218.554 745.376 218.617Z" fill="#0A543B"/>
<path d="M740.243 202.844C739.639 203.233 739.392 204.039 739.78 204.643C739.889 204.72 739.92 204.906 740.029 204.984C740.06 205.17 740.169 205.247 740.2 205.433C740.2 205.433 740.2 205.433 740.308 205.51C740.448 205.774 740.665 205.928 740.991 206.16C741.286 206.207 741.689 206.33 741.952 206.19C742.138 206.159 742.293 205.942 742.448 205.725C742.68 205.399 742.772 204.81 742.524 204.469C742.524 204.469 742.415 204.392 742.492 204.283C742.492 204.283 742.492 204.283 742.384 204.206C742.244 203.943 742.104 203.679 741.856 203.339C741.654 202.703 740.847 202.456 740.243 202.844Z" fill="#0A543B"/>
<path d="M742.538 203.989C742.461 204.097 742.57 204.175 742.538 203.989C742.57 204.175 742.57 204.175 742.538 203.989C742.57 204.175 742.57 204.175 742.538 203.989Z" fill="#0A543B"/>
<path d="M757 205.289C756.582 205.646 756.35 205.972 756.444 206.53C756.398 206.825 756.352 207.119 756.491 207.382C756.802 208.095 757.608 208.342 758.135 208.063C758.398 207.923 758.476 207.814 758.63 207.597C758.863 207.271 758.986 206.868 758.924 206.496C758.892 206.31 758.892 206.31 758.861 206.124L758.892 206.31C758.861 206.124 758.83 205.938 758.721 205.861C758.411 205.148 757.604 204.901 757 205.289Z" fill="#0A543B"/>
<path d="M753.403 190.12C752.908 190.585 752.738 191.283 753.126 191.887C753.266 192.15 753.483 192.305 753.778 192.351C754.29 192.552 754.925 192.35 755.234 191.916C755.312 191.807 755.389 191.698 755.389 191.698C755.513 191.295 755.419 190.737 755.171 190.397C754.922 190.056 754.628 190.01 754.333 189.964C754.116 189.809 753.744 189.871 753.403 190.12Z" fill="#0A543B"/>
<path d="M738.551 187.068C738.164 187.611 738.212 188.464 738.863 188.928C739.406 189.315 740.259 189.267 740.723 188.616C741.11 188.073 741.062 187.22 740.411 186.756C739.682 186.4 738.938 186.525 738.551 187.068Z" fill="#0A543B"/>
<path d="M724.811 207.729C724.734 207.838 724.548 207.869 724.47 207.978C724.393 208.086 724.284 208.009 724.207 208.117C723.603 208.506 723.356 209.312 723.744 209.916C724.132 210.52 724.938 210.767 725.543 210.379C725.806 210.239 725.992 210.208 726.147 209.991C726.333 209.959 726.41 209.851 726.565 209.634C726.874 209.199 726.889 208.719 726.609 208.192C726.221 207.588 725.415 207.341 724.811 207.729Z" fill="#0A543B"/>
<path d="M768.502 192.364C768.115 192.907 768.163 193.76 768.814 194.224C769.357 194.611 770.21 194.563 770.674 193.912C771.061 193.369 771.013 192.516 770.362 192.052C769.633 191.697 768.889 191.821 768.502 192.364Z" fill="#0A543B"/>
<path d="M676.774 123.73C676.542 124.056 676.496 124.351 676.373 124.754C676.249 125.157 676.048 125.669 675.925 126.072C675.523 127.095 675.307 128.087 675.091 129.08C674.875 130.072 674.659 131.064 674.444 132.056C674.228 133.049 674.121 134.118 673.982 135.002C673.812 135.699 674.495 136.35 675.084 136.442C675.565 136.457 676.014 136.286 676.246 135.96C676.401 135.743 676.478 135.634 676.524 135.34C676.617 134.751 676.632 134.27 676.724 133.681C676.724 133.681 676.647 133.79 676.755 133.867C677.078 131.805 677.401 129.743 678.019 127.728C678.343 126.813 678.668 125.898 679.101 125.061C679.101 125.061 679.101 125.061 679.178 124.952C679.457 124.332 679.223 123.511 678.603 123.232C677.951 122.768 677.13 123.002 676.774 123.73Z" fill="#0A543B"/>
<path d="M680.188 126.981C680.142 127.276 680.065 127.385 680.019 127.679C680.05 127.865 679.972 127.974 679.926 128.268C679.696 129.741 679.387 131.322 678.971 132.826C678.801 133.524 679.298 134.205 679.995 134.375C680.507 134.576 681.034 134.296 681.343 133.862C681.421 133.753 681.498 133.645 681.544 133.35C681.898 131.474 682.284 129.784 682.638 127.909C682.793 127.691 682.762 127.505 682.731 127.32C682.714 126.653 682.14 126.08 681.365 126.019C680.993 126.082 680.467 126.361 680.188 126.981ZM682.484 128.126L682.406 128.234L682.329 128.343C682.329 128.343 682.251 128.452 682.143 128.374C682.143 128.374 682.065 128.483 681.957 128.405C682.065 128.483 682.329 128.343 682.484 128.126C682.406 128.234 682.484 128.126 682.484 128.126Z" fill="#0A543B"/>
<path d="M767.652 86.4886C767.109 86.1018 766.489 85.8235 765.946 85.4366L766.054 85.514L766.163 85.5914C765.697 85.0959 765 84.9263 764.473 85.2059C763.869 85.594 763.622 86.4003 764.01 87.0043C764.15 87.2676 764.476 87.4998 764.693 87.6545C765.019 87.8866 765.344 88.1187 765.67 88.3509C766.322 88.8151 766.973 89.2793 767.733 89.8209C769.145 90.8268 770.448 91.7552 771.86 92.761C772.402 93.1479 773.332 92.9918 773.719 92.4489C774.106 91.906 774.058 91.0536 773.407 90.5893C772.104 89.6609 770.878 88.6238 769.606 87.8813C768.955 87.4171 768.303 86.9529 767.652 86.4886Z" fill="#0A543B"/>
<path d="M762.419 91.7646C761.985 91.4551 761.318 91.4713 760.9 91.8283C760.637 91.9681 760.513 92.3713 760.467 92.6658C760.421 92.9603 760.483 93.3323 760.732 93.673C760.98 94.0137 761.383 94.1372 761.786 94.2607C762.515 94.6164 763.244 94.972 764.004 95.5136C764.547 95.9005 764.981 96.21 765.524 96.5969C766.067 96.9837 766.92 96.9362 767.384 96.2847C767.771 95.7418 767.723 94.8894 767.072 94.4251C766.203 93.8062 765.443 93.2645 764.497 92.7541C763.877 92.4759 763.148 92.1202 762.419 91.7646Z" fill="#0A543B"/>
<path d="M790.146 170.951C789.48 172.114 788.707 173.2 788.119 174.254C787.732 174.797 787.531 175.309 787.144 175.852C786.835 176.286 786.525 176.721 786.293 177.046C785.798 177.512 785.845 178.364 786.311 178.86C786.776 179.355 787.629 179.308 788.124 178.842C788.279 178.625 788.434 178.408 788.588 178.191C788.743 177.973 788.898 177.756 789.053 177.539C789.44 176.996 789.826 176.453 790.105 175.833C790.847 174.561 791.621 173.475 792.363 172.203C792.75 171.661 792.408 170.762 791.788 170.484C791.571 170.329 791.09 170.314 790.827 170.454C790.641 170.485 790.378 170.625 790.146 170.951Z" fill="#0A543B"/>
<path d="M785.284 175.017C785.361 174.908 785.439 174.799 785.485 174.505L785.408 174.613L785.33 174.722L785.408 174.613C785.608 174.102 785.841 173.776 786.15 173.342C786.428 172.721 786.815 172.178 787.202 171.636C787.589 171.093 787.247 170.194 786.627 169.916C786.006 169.637 785.185 169.871 784.907 170.491C784.551 171.22 784.164 171.763 783.809 172.492C783.654 172.709 783.53 173.112 783.376 173.329C783.221 173.547 783.175 173.841 783.097 173.95C782.928 174.647 783.425 175.329 784.122 175.498C784.417 175.545 784.975 175.451 785.284 175.017Z" fill="#0A543B"/>
<path d="M694.488 214.444C693.884 214.833 693.636 215.639 694.025 216.243C694.304 216.769 694.77 217.265 695.235 217.76C695.701 218.256 696.166 218.751 696.601 219.061C697.609 219.943 698.618 220.825 699.518 221.63C700.061 222.017 700.99 221.861 701.377 221.318C701.532 221.101 701.656 220.698 701.593 220.326C701.531 219.954 701.391 219.691 701.065 219.459C700.957 219.381 700.848 219.304 700.739 219.226C699.405 218.112 698.179 217.075 697.109 215.821C696.969 215.557 696.643 215.325 696.503 215.062C696.395 214.985 696.472 214.876 696.363 214.799C695.898 214.303 695.092 214.056 694.488 214.444Z" fill="#0A543B"/>
<path d="M700.142 212.252C699.538 212.64 699.291 213.447 699.679 214.051C699.927 214.391 700.176 214.732 700.61 215.042C700.936 215.274 701.184 215.614 701.618 215.924C702.084 216.419 702.936 216.372 703.432 215.906L703.509 215.798C703.896 215.255 703.771 214.511 703.414 214.093C703.057 213.675 702.623 213.365 702.157 212.87C702.049 212.792 702.049 212.792 702.049 212.792C701.552 212.111 700.746 211.864 700.142 212.252Z" fill="#0A543B"/>
<path d="M402.455 282.498C401.801 282.759 401.317 282.876 400.689 282.824C399.892 282.915 398.95 282.836 398.009 282.758C395.354 282.377 392.896 281.54 390.464 280.388C388.033 279.236 385.601 278.085 383.339 276.789C381.077 275.494 378.672 274.028 376.58 272.589C374.344 270.98 372.253 269.541 370.187 267.788C366.2 264.452 362.383 260.972 358.736 257.348C356.984 255.622 355.259 253.581 353.677 251.71C351.952 249.67 350.226 247.629 348.527 245.275C345.417 240.906 342.646 236.25 340.53 231.332C338.413 226.415 336.78 221.379 336.115 216.109C335.554 213.376 335.306 210.669 335.059 207.962C335.111 207.334 334.85 206.681 334.903 206.053C334.903 206.053 334.903 206.053 334.759 205.883C334.341 203.32 333.95 200.443 333.847 197.906C333.599 195.199 333.352 192.492 333.248 189.955C333.17 187.104 333.237 184.424 333.303 181.743C333.54 178.918 333.606 176.238 333.842 173.413C334.053 170.903 334.433 168.248 334.813 165.594C335.088 164.195 335.193 162.939 335.468 161.54C335.887 160.311 335.992 159.056 336.725 157.853C337.091 157.252 337.458 156.65 337.824 156.049C338.387 154.99 339.263 153.957 340.715 153.605C341.369 153.343 341.853 153.226 342.65 153.135C343.278 153.187 343.906 153.24 344.533 153.292C345.619 153.541 346.534 153.934 347.593 154.496C350.025 155.648 352.43 157.113 354.522 158.553C359.163 161.627 363.438 165.303 367.399 168.953C369.464 170.706 371.36 172.603 373.425 174.356C375.321 176.253 377.386 178.006 379.111 180.047C382.732 183.984 386.497 188.091 389.607 192.46C393.032 196.855 395.802 201.511 398.573 206.168C399.958 208.496 401.173 210.968 402.075 213.413C402.976 215.859 404.021 218.475 404.753 221.064C405.484 223.654 406.215 226.243 406.633 228.806C407.05 231.37 407.468 233.933 407.715 236.64C408.054 240.144 408.249 243.479 408.274 246.957C408.155 250.266 408.206 253.43 407.773 256.712C407.59 258.909 407.236 261.25 406.882 263.59C406.528 265.931 406.318 268.442 405.964 270.782C405.859 272.038 405.78 272.979 405.675 274.234C405.57 275.49 405.635 276.601 405.53 277.857C405.647 278.34 405.451 278.798 405.255 279.256C405.176 280.197 404.613 281.256 403.933 281.831C403.763 281.975 403.109 282.236 402.455 282.498ZM382.116 189.463C381.828 189.123 381.54 188.783 381.253 188.443C381.54 188.783 381.828 189.123 382.116 189.463ZM370.364 176.944C370.077 176.604 369.475 176.238 369.188 175.898C369.475 176.238 370.077 176.604 370.364 176.944Z" fill="#7BC0B3"/>
<path d="M403.477 277.843C402.994 277.96 402.366 277.908 401.908 277.711C401.451 277.515 401.019 277.005 400.758 276.351C400.118 274.559 399.308 272.911 398.498 271.263C397.688 269.615 396.877 267.967 396.093 266.006C394.356 262.226 392.278 258.734 390.226 254.928L390.37 255.098C385.953 247.459 381.366 239.965 376.635 232.3C372.596 225.799 368.872 219.325 365.174 212.537C360.469 204.558 356.418 196.319 352.367 188.079C348.173 179.669 344.149 171.115 340.294 162.418C339.915 161.28 339.366 160.286 339.131 159.319C339.014 158.835 338.896 158.351 338.635 157.697C338.518 157.213 338.4 156.729 338.283 156.245C338.191 155.448 338.584 154.532 339.408 154.127C340.232 153.722 341.173 153.801 341.748 154.481C342.036 154.821 342.467 155.331 342.585 155.815C342.729 155.985 342.702 156.299 342.702 156.299C343.055 157.751 343.578 159.059 344.1 160.366C347.641 169.038 351.835 177.447 355.886 185.687C357.911 189.807 359.937 193.927 362.132 197.903C364.328 201.879 366.497 206.169 368.862 210.001C369.294 210.512 369.411 210.995 369.842 211.506C372.038 215.482 374.547 219.484 376.743 223.46C378.964 227.122 381.33 230.955 383.551 234.617C388.282 242.282 392.843 250.09 397.09 257.872C398.449 260.514 399.952 263.326 401.311 265.968C402.67 268.61 403.859 271.396 405.048 274.182C405.453 275.006 405.06 275.921 404.38 276.496C403.818 277.555 403.647 277.699 403.477 277.843Z" fill="#0A543B"/>
<path d="M691.357 465.433C690.965 465.063 690.573 464.693 690.377 464.138C690.181 463.768 690.181 463.583 690.181 463.213C690.181 462.658 690.181 462.288 690.377 461.733C690.573 460.808 690.769 459.883 690.965 459.143C691.161 458.217 691.358 457.107 691.554 456.182C692.142 453.962 692.534 451.927 693.123 449.706C693.711 447.671 694.3 445.451 695.084 443.416C695.869 441.196 696.653 438.975 697.634 436.94C698.615 434.905 699.791 432.87 700.968 430.834C702.145 428.799 703.518 426.949 704.891 425.099C705.872 423.804 707.049 422.508 708.225 421.213C708.618 420.658 709.01 420.103 709.402 419.733C710.775 417.883 712.344 416.218 714.11 414.552C715.679 412.887 717.444 411.407 719.405 409.927C721.171 408.447 722.936 407.152 724.897 405.857C726.859 404.376 728.624 403.081 730.781 401.786C732.547 400.491 734.508 399.381 736.469 398.271C738.431 397.161 740.588 396.05 742.746 394.94C744.707 394.015 746.472 393.09 748.434 392.35C750.591 391.425 752.749 390.5 754.906 389.76C757.064 389.02 759.221 388.465 761.575 388.095C763.929 387.724 766.086 387.354 768.44 387.169C770.597 386.984 772.755 386.984 774.913 386.984C776.089 386.984 777.07 386.984 778.247 387.169C779.031 387.169 779.62 387.354 780.208 387.724C780.797 388.094 781.581 388.65 781.777 389.205C782.366 390.5 782.17 391.98 782.17 393.275C781.973 395.125 781.581 396.975 781.385 398.826C780.993 400.676 780.601 402.526 780.208 404.376C779.816 406.412 779.228 408.447 778.639 410.297C777.266 414.367 775.501 418.438 773.54 422.508C772.951 423.619 772.363 424.729 771.774 425.654C770.99 426.764 770.401 428.059 769.617 429.169C768.244 431.389 766.675 433.61 765.106 435.645C765.106 435.645 765.106 435.83 764.909 435.83C764.125 436.755 763.34 437.865 762.36 438.79C761.575 439.715 760.594 440.455 759.81 441.381C758.241 442.861 756.475 444.341 754.906 445.636C751.376 448.596 747.649 451.372 743.53 453.592C741.569 454.702 739.411 455.627 737.45 456.552C735.293 457.477 733.135 458.402 730.977 459.328C728.624 460.253 726.466 460.993 724.113 461.733C721.759 462.473 719.601 462.843 717.248 463.398C712.737 464.323 708.225 465.433 703.518 465.988C701.164 466.173 699.007 466.358 696.653 466.543C696.065 466.543 695.673 466.728 695.084 466.728C694.888 466.728 694.692 466.728 694.496 466.728C692.73 466.173 691.946 465.988 691.357 465.433Z" fill="#7BC0B3"/>
<path d="M689.591 467.099C689.003 466.544 688.807 465.803 689.199 465.063C689.395 464.508 689.788 464.138 690.18 463.768C691.553 462.473 692.926 460.993 694.495 459.698C697.241 457.107 700.183 454.517 703.125 451.927C706.263 449.337 709.205 446.561 712.344 443.786C713.717 442.491 715.286 441.196 716.659 439.901C717.051 439.53 717.443 439.345 717.639 438.975C717.835 438.79 718.228 438.42 718.62 438.235C718.62 438.235 718.816 438.235 718.816 438.05C719.208 437.865 719.405 437.495 719.797 437.31C723.523 434.165 727.446 430.834 731.173 427.689C731.369 427.504 731.369 427.504 731.565 427.319C731.761 427.134 732.154 426.949 732.35 426.579C735.292 423.989 738.234 421.583 740.98 418.993C743.922 416.403 746.864 413.813 749.806 411.037C752.552 408.447 755.494 406.042 758.24 403.451C760.986 400.861 763.928 398.271 766.674 395.681C768.635 393.83 770.793 391.98 772.95 390.13C772.95 390.13 772.95 390.13 773.146 389.945C774.519 388.65 776.089 387.54 777.462 386.244C778.246 385.504 779.423 385.874 780.207 386.615C780.6 386.985 780.6 387.54 780.6 387.91C780.6 388.465 780.207 388.835 779.815 389.02C778.442 390.315 776.873 391.425 775.5 392.72L775.696 392.535C775.5 392.72 775.5 392.72 775.304 392.905C772.558 395.311 770.008 397.716 767.262 400.121C764.516 402.711 761.77 405.302 758.828 407.892C752.944 413.073 747.06 418.438 741.372 423.619C739.411 425.284 737.449 426.949 735.684 428.614C735.488 428.799 735.292 428.984 734.899 429.169C734.703 429.354 734.703 429.354 734.507 429.539C734.311 429.724 733.919 430.094 733.723 430.279C729.996 433.61 726.073 436.755 722.15 440.086L722.347 439.901L722.15 440.086L721.954 440.271C721.758 440.456 721.366 440.641 721.17 441.011C721.17 441.011 720.974 441.011 720.974 441.196C718.032 443.786 715.286 446.191 712.344 448.782C709.205 451.557 706.263 454.147 703.125 456.922C701.164 458.588 699.398 460.253 697.633 461.918C696.849 462.658 695.868 463.583 695.083 464.323C694.495 464.878 693.71 465.618 693.122 466.174C692.926 466.729 692.534 467.284 691.749 467.469C691.553 467.469 691.161 467.654 690.964 467.654C690.376 467.654 689.984 467.469 689.591 467.099Z" fill="#0A543B"/>
</svg>
