<svg width="206" height="75" viewBox="0 0 206 75" fill="none" xmlns="http://www.w3.org/2000/svg">
<path fill-rule="evenodd" clip-rule="evenodd" d="M31.9005 23.8999C31.9005 26.9892 33.9549 28.7347 36.2563 29.1054C36.2563 32.9979 36.1636 37.0294 36.0555 41.0918L33.6768 38.6204C28.0236 32.5499 30.8811 29.2289 23.0655 23.8999C17.8756 20.3627 14.2458 17.9685 12.3306 19.8839C19.4511 27.0047 27.6992 35.6238 35.6076 43.7795C31.5762 47.5793 27.5602 51.3637 24.4865 54.4529C22.8029 56.1366 25.3515 58.6853 27.0351 57.0016C30.7884 53.2481 34.4028 49.3711 38.048 45.5095L35.8238 49.3556C35.7157 53.4335 35.623 57.5268 35.623 61.5737C35.623 63.7208 38.8512 63.7208 38.8512 61.5737C38.8512 56.6927 38.7276 51.7498 38.5732 46.8379C41.9249 50.2979 45.184 53.6189 48.2269 56.6618C49.6633 58.0983 51.8412 55.9204 50.4048 54.4838C49.7097 53.7887 44.3191 49.0467 39.2682 44.212C42.5891 40.6902 45.8636 37.2147 48.613 34.4035C51.3624 31.6077 50.9145 36.3652 55.9962 32.5808C60.3365 29.3525 64.2288 21.9228 61.8965 19.5749C59.317 16.9954 51.8876 21.0423 48.7675 25.4755C45.2149 30.5419 49.8023 30.1866 47.1457 32.7816C43.7939 36.0717 40.3649 39.2846 36.9359 42.5129L38.3724 40.026C38.2797 36.3188 38.2025 32.6581 38.2025 29.0899C40.5039 28.7192 42.5582 26.9738 42.5582 23.8845V16.9027V11.2339C42.5582 9.95182 40.6275 9.95182 40.6275 11.2339V21.2123C40.6275 21.8456 39.6544 21.8456 39.6544 21.2123V11.2339C39.6544 9.95182 37.7237 9.95182 37.7237 11.2339V21.2123C37.7237 21.8456 36.7506 21.8456 36.7506 21.2123V11.2339C36.7506 9.95182 34.8198 9.95182 34.8198 11.2339V21.2123C34.8198 21.8456 33.8467 21.8456 33.8467 21.2123V11.2339C33.8467 9.95182 31.916 9.95182 31.916 11.2339V16.9027V23.8999H31.9005ZM52.181 0.00433968C88.1546 0.359607 78.2847 60.508 43.9947 72.4944C17.474 82.4728 -3.42429 44.2737 0.468078 24.317C4.12876 5.53414 32.4257 -0.181017 52.181 0.00433968Z" fill="#2D856F"/>
<path d="M169.949 22.3008C170.319 18.9828 171.35 14.9079 175.425 12.3469C176.697 11.5416 178.034 11.0583 179.629 11.1872C181.432 11.3322 183.252 11.1067 185.008 11.7671C187.408 12.669 189.115 14.2153 189.888 16.6957C191.692 22.5746 190.79 27.8253 186.264 32.2063C184.718 33.7043 182.753 34.2519 180.595 33.9942C178.179 33.7043 175.86 33.0922 173.846 31.6426C171.012 29.6132 169.836 26.7784 169.949 22.3008ZM183.301 22.7034C183.301 22.1397 183.333 21.8337 183.301 21.5438C183.188 20.7223 182.367 19.917 181.674 19.9492C180.257 20.0136 179.161 20.7062 178.711 22.0109C178.034 23.9598 178.533 24.9906 180.176 25.5704C181.416 26.0053 182.834 25.0389 183.22 23.4927C183.269 23.1544 183.285 22.784 183.301 22.7034Z" fill="#2D856F"/>
<path d="M157.771 10.9617C159.366 11.2999 161.008 11.4932 162.555 12.0247C164.616 12.7334 166.017 14.2152 166.79 16.293C168.933 22.0591 167.564 28.4696 163.279 32.2707C161.701 33.672 159.8 34.268 157.69 34.0103C154.55 33.6398 151.57 32.77 149.428 30.2574C148.591 29.291 147.817 28.1152 147.495 26.8911C146.207 21.9303 147.27 17.4043 150.829 13.6515C152.649 11.7348 154.952 10.704 157.755 11.2838C157.755 11.1872 157.771 11.0744 157.771 10.9617ZM160.38 22.5101C160.396 20.98 159.623 19.917 158.705 19.9492C157.32 19.9975 156.338 20.7062 155.758 21.9142C154.969 23.5732 155.548 24.9905 157.207 25.5704C158.48 26.0052 159.833 25.0872 160.235 23.4926C160.332 23.09 160.364 22.6551 160.38 22.5101Z" fill="#2D856F"/>
<path d="M137.251 26.859C135.785 26.859 134.4 26.859 132.902 26.859C132.902 28.5502 132.87 30.177 132.919 31.8199C132.951 33.0923 132.902 33.1406 131.646 33.2211C130.1 33.3178 128.554 33.495 127.008 33.5594C125.751 33.6238 125.719 33.5433 125.703 32.3192C125.574 25.9249 125.445 19.5466 125.268 13.1523C125.252 12.4436 125.59 12.3792 126.09 12.3953C127.974 12.4275 129.858 12.4919 131.743 12.4919C132.419 12.4919 132.677 12.7657 132.693 13.4261C132.774 15.4233 132.902 17.4367 133.031 19.4661C134.449 19.4661 135.818 19.4661 137.267 19.4661C137.299 19.0312 137.332 18.6769 137.348 18.3225C137.38 16.8729 137.412 15.4233 137.444 13.9737C137.46 13.104 137.766 12.5886 138.797 12.5886C140.15 12.5886 141.503 12.4436 142.856 12.3147C143.838 12.2181 144.209 12.6208 144.209 13.6033C144.225 17.8876 144.273 22.1559 144.338 26.4403C144.37 28.1476 144.499 29.8549 144.531 31.5783C144.563 32.9956 144.161 33.35 142.743 33.3983C141.455 33.4466 140.166 33.511 138.878 33.5755C137.46 33.6399 137.477 33.656 137.46 32.1903C137.444 30.7729 137.412 29.3555 137.38 27.9382C137.332 27.5838 137.283 27.2295 137.251 26.859Z" fill="#2D856F"/>
<path d="M117.135 21.8497C116.877 21.8497 116.603 21.8497 116.346 21.8497C115.846 21.8497 115.234 22.0268 114.896 21.8013C114.606 21.608 114.622 20.9477 114.494 20.4967C114.252 19.5947 113.028 19.2082 112.223 19.7558C110.612 20.851 110.628 24.7166 112.239 25.7797C113.447 26.585 114.22 26.2467 114.365 24.8133C114.413 24.2817 114.622 24.0562 115.154 24.0401C117.232 23.9435 119.309 23.8307 121.387 23.718C121.983 23.6858 122.305 23.9274 122.402 24.5233C122.82 27.3581 122.16 29.758 119.889 31.7069C114.783 36.0879 108.502 34.3 105.394 31.4492C102.978 29.2426 102.398 26.4561 102.672 23.3475C103.01 19.2887 104.701 16.0029 108.228 13.8286C110.982 12.1213 113.978 11.5736 117.167 12.2662C120.002 12.8944 122.096 15.4553 122.45 18.7089C122.708 21.0604 122.708 21.0765 120.372 21.5114C119.309 21.7047 118.214 21.7691 117.135 21.8979C117.135 21.8818 117.135 21.8658 117.135 21.8497Z" fill="#2D856F"/>
<path d="M83.7148 31.401C83.8759 30.0641 84.0531 28.7273 84.1819 27.3743C84.2785 26.4401 84.6973 26.0214 85.6798 26.2146C86.6139 26.4079 87.5642 26.5368 88.5145 26.6656C89.3681 26.7784 90.2217 26.8589 91.0753 26.875C91.333 26.875 91.6068 26.6012 91.8645 26.4562C91.6229 26.2307 91.4297 25.9086 91.1559 25.8281C89.8352 25.4254 88.4823 25.1355 87.1777 24.6845C85.6154 24.153 84.5846 23.0739 84.4879 21.3666C84.2625 17.3238 85.0194 14.0058 88.4017 12.5079C90.0284 11.7992 91.8967 11.3482 93.6523 11.316C95.5206 11.2838 97.4211 11.8476 99.2894 12.2663C100.143 12.4596 100.691 12.9911 100.32 14.0703C99.8048 15.5521 99.4183 17.0822 98.9995 18.5962C98.8224 19.2405 98.4036 19.2888 97.8399 19.1599C97.0024 18.9667 96.1648 18.7895 95.3273 18.6445C94.9408 18.5801 94.5382 18.5801 94.1516 18.6445C93.9261 18.6767 93.7489 18.9184 93.5556 19.0633C93.7167 19.2405 93.8295 19.4982 94.0388 19.5948C94.8441 19.9814 95.6334 20.3841 96.4709 20.674C99.982 21.8981 100.658 25.4415 100.417 28.1636C99.9981 32.7217 96.9541 34.2035 93.4107 34.7351C91.4619 35.025 89.6097 34.7995 87.7414 34.2841C86.92 34.0586 86.0663 33.9297 85.2127 33.7687C83.8276 33.4949 83.8115 33.4949 83.7793 32.0775C83.7793 31.852 83.7793 31.6104 83.7793 31.3849C83.747 31.401 83.7309 31.401 83.7148 31.401Z" fill="#2D856F"/>
<path d="M193.204 23.4765C193.204 20.5129 193.204 17.5493 193.204 14.5857C193.204 14.1669 193.187 13.6998 193.349 13.3293C193.445 13.0877 193.816 12.7817 194.057 12.7817C195.7 12.814 197.359 12.9589 199.002 12.9911C199.807 13.0072 200.033 13.3616 200.049 14.0703C200.113 16.8728 200.21 19.6592 200.274 22.4618C200.306 23.6537 200.29 24.8295 200.226 26.0214C200.177 26.7623 200.5 27.0361 201.192 27.02C202.191 27.0039 203.173 27.02 204.172 26.9716C204.864 26.9394 205.219 27.165 205.251 27.8898C205.299 29.4682 205.364 31.0466 205.46 32.6251C205.509 33.3499 205.17 33.672 204.51 33.7042C203.028 33.8009 201.547 33.8975 200.065 33.9297C198.245 33.9619 196.425 33.9458 194.605 33.9136C193.477 33.8975 193.3 33.6881 193.3 32.5607C193.3 29.5326 193.3 26.5046 193.3 23.4604C193.268 23.4765 193.236 23.4765 193.204 23.4765Z" fill="#2D856F"/>
<path d="M102.107 52.7745C101.27 54.4335 100.352 56.0441 99.6271 57.7514C99.2727 58.5729 98.8056 58.8628 98.0164 58.8628C97.3561 58.8628 96.6796 58.895 96.0354 58.7822C95.6005 58.7017 95.1173 58.4762 94.8435 58.1541C93.8449 56.9461 92.9269 55.6575 91.8156 54.1918C91.7834 54.7556 91.7512 55.0616 91.7351 55.3838C91.6867 57.8159 91.6384 60.264 91.5901 62.6961C91.5579 63.8558 91.2519 64.1779 90.1083 64.1779C88.6266 64.1779 87.1448 64.1135 85.647 64.0813C84.8416 64.0652 84.4551 63.6787 84.4712 62.8411C84.4873 57.3004 84.439 51.7759 84.5034 46.2352C84.5356 43.2716 84.6162 43.2555 87.5797 43.2877C88.8037 43.3038 90.0278 43.2716 91.2358 43.4004C91.6545 43.4487 92.1216 43.8675 92.3793 44.2541C93.8289 46.4446 95.2301 48.6673 96.7924 51.0833C97.2111 50.4229 97.4688 50.0202 97.7265 49.6176C98.9506 47.7331 100.159 45.8486 101.415 43.9964C101.608 43.7065 102.011 43.4004 102.333 43.3843C104.411 43.2394 106.472 43.1427 108.55 43.0622C109.323 43.03 109.661 43.2877 109.645 44.2219C109.581 49.988 109.613 55.7542 109.613 61.5203C109.613 62.3096 109.581 63.0988 109.5 63.8881C109.468 64.1135 109.21 64.5001 109.049 64.5001C107.342 64.5645 105.635 64.6128 103.927 64.5806C102.639 64.5645 102.349 64.178 102.365 62.9055C102.381 59.6842 102.365 56.4468 102.349 53.2254C102.349 53.0805 102.317 52.9356 102.301 52.7745C102.22 52.8067 102.172 52.7906 102.107 52.7745Z" fill="#2D856F"/>
<path d="M140.15 50.5517C140.15 48.2968 140.166 46.2512 140.15 44.2218C140.134 42.7561 140.376 42.4662 141.825 42.4339C143.146 42.4017 144.467 42.4501 145.787 42.4339C146.448 42.4178 146.754 42.6917 146.77 43.3681C146.818 45.2043 146.915 47.0566 146.931 48.8927C146.963 53.3381 146.947 57.7836 146.995 62.229C147.011 63.7269 146.915 63.8235 145.385 63.8235C143.935 63.8235 142.469 63.8719 141.036 63.9846C140.279 64.049 139.828 63.8397 139.458 63.1471C138.314 61.0532 137.09 58.9755 135.657 56.9138C135.657 58.2829 135.657 59.6519 135.657 61.021C135.657 61.3754 135.657 61.7458 135.657 62.1163C135.624 64.2746 135.463 64.4195 133.321 64.3067C132.129 64.2423 130.937 64.1618 129.762 64.2262C128.876 64.2745 128.715 63.9524 128.715 63.1471C128.795 58.2346 128.86 53.3382 128.892 48.4256C128.908 47.0405 128.795 45.6714 128.731 44.2862C128.699 43.4487 128.989 43.0621 129.939 43.0621C131.388 43.0621 132.838 42.8527 134.288 42.7561C135.963 42.6272 136.253 42.8205 136.993 44.3185C137.992 46.3318 139.023 48.3451 140.15 50.5517Z" fill="#2D856F"/>
<path d="M149.767 50.1651C149.767 48.2806 149.783 46.4122 149.767 44.5277C149.75 43.6258 150.137 43.3036 151.023 43.3359C152.44 43.4003 153.858 43.4164 155.291 43.4003C156.193 43.3842 156.547 43.658 156.531 44.6566C156.515 47.7491 156.563 50.8577 156.692 53.934C156.741 55.1259 156.934 56.3822 157.997 57.2359C158.544 57.6708 159.06 57.6869 159.382 57.0426C159.785 56.2212 160.252 55.3836 160.413 54.5138C161.041 51.1798 160.96 47.8135 160.542 44.4633C160.445 43.6258 160.606 43.352 161.492 43.352C163.57 43.352 165.647 43.2875 167.709 43.207C168.45 43.1748 168.756 43.4325 168.723 44.1573C168.595 47.7491 168.659 51.3569 168.305 54.9165C168.111 56.8654 167.274 58.7821 166.581 60.6505C166.324 61.3431 165.712 62.0034 165.083 62.4383C161.766 64.7094 158.077 64.9509 154.502 63.453C151.248 62.1001 149.895 59.1526 149.783 55.7057C149.702 53.8696 149.767 52.0173 149.767 50.1651Z" fill="#2D856F"/>
<path d="M119.663 49.0056C119.663 49.8109 119.663 50.5196 119.663 51.2122C120.742 51.2122 121.789 51.2283 122.836 51.2122C125.316 51.1799 125.332 51.18 125.316 53.5799C125.284 56.4307 125.799 55.9153 122.965 56.4146C122.352 56.5273 121.724 56.5757 121.096 56.6562C119.502 56.8656 119.502 56.8817 119.663 58.3957C121.241 58.3957 122.82 58.4602 124.366 58.3635C125.107 58.3152 125.316 58.5407 125.3 59.2172C125.252 60.6023 125.219 61.9875 125.252 63.3726C125.268 64.0974 124.994 64.3713 124.269 64.3713C122.385 64.3552 120.5 64.3713 118.616 64.4196C117.134 64.4518 115.652 64.5645 114.171 64.6612C113.349 64.7095 112.85 64.7095 112.866 63.5176C112.898 59.4427 112.705 55.3677 112.64 51.2766C112.608 48.6834 112.689 46.0741 112.673 43.481C112.673 42.7079 112.93 42.4341 113.687 42.418C117.424 42.3696 121.145 42.3213 124.881 42.2247C125.767 42.2086 126.025 42.5307 125.944 43.3844C125.815 44.7212 125.767 46.0741 125.751 47.4271C125.735 48.1036 125.429 48.3452 124.801 48.4096C123.077 48.5707 121.386 48.7962 119.663 49.0056Z" fill="#2D856F"/>
</svg>
