<svg width="829" height="652" viewBox="0 0 829 652" fill="none" xmlns="http://www.w3.org/2000/svg">
<path d="M1151.79 651.426C1081.11 651.426 51.2419 651.653 50.6522 650.065L50.5614 649.884C50.5614 649.884 50.4707 649.702 50.4707 649.612C50.0624 648.841 -108.208 430.192 137.885 278C154.851 267.521 165.647 257.678 172.315 248.151C203.661 203.741 145.324 167.451 208.424 112.834C296.428 36.6249 392.461 120.909 490.263 86.3878C507.546 80.3092 524.875 70.4655 542.248 55.4051C552.001 46.9222 562.752 39.5281 574.184 33.132C575.953 32.134 577.722 31.1813 579.491 30.2741C586.341 26.6904 593.463 23.4697 600.812 20.5665C605.756 18.6159 610.746 16.8014 615.872 15.1683C623.992 12.5373 632.339 10.2691 640.822 8.36389C652.888 5.64212 665.363 3.6008 678.019 2.23992C683.553 1.6502 689.133 1.15122 694.758 0.788314C745.973 -2.43244 800.181 4.37197 849.899 18.3437C906.284 34.1753 956.864 59.3063 990.614 89.4271C1003.41 100.859 1061.52 159.966 1015.7 241.166C986.758 292.471 1107.97 341.463 1151.02 400.026C1260.57 548.861 1152.79 649.476 1151.79 651.426Z" fill="#EDB2C4"/>
<path d="M1151.79 651.426C1081.11 651.426 51.2419 651.653 50.6522 650.065L50.5614 649.884C50.5614 649.884 50.4707 649.702 50.4707 649.612C50.0624 648.841 -108.208 430.192 137.885 278C154.851 267.521 165.647 257.678 172.315 248.151C203.661 203.741 145.324 167.451 208.424 112.834C296.428 36.6249 392.461 120.909 490.263 86.3878C507.546 80.3092 524.875 70.4655 542.248 55.4051C552.001 46.9222 562.752 39.5281 574.184 33.132C575.953 32.134 577.722 31.1813 579.491 30.2741C586.341 26.6904 593.463 23.4697 600.812 20.5665C605.756 18.6159 610.746 16.8014 615.872 15.1683C623.992 12.5373 632.339 10.2691 640.822 8.36389C652.888 5.64212 665.363 3.6008 678.019 2.23992C683.553 1.6502 689.133 1.15122 694.758 0.788314C745.973 -2.43244 800.181 4.37197 849.899 18.3437C906.284 34.1753 956.864 59.3063 990.614 89.4271C1003.41 100.859 1061.52 159.966 1015.7 241.166C986.758 292.471 1107.97 341.463 1151.02 400.026C1260.57 548.861 1152.79 649.476 1151.79 651.426Z" fill="#2D856F"/>
<path d="M676.387 15.4399L609.432 148.942L608.842 150.122L607.889 152.072L604.079 159.648L595.505 176.795L579.175 209.411L575.727 216.306L572.234 223.337L560.939 245.837L550.687 266.251L541.161 285.212L537.259 292.969C535.581 293.105 533.903 293.241 532.27 293.377L536.171 285.62L557.038 244.023L567.698 222.748L571.236 215.716L577.859 202.471L591.604 175.026L601.402 155.52L605.893 146.584L607.889 142.637L672.667 13.4893L676.387 15.4399Z" fill="#FFDA9F"/>
<path d="M681.967 21.5182C680.153 24.24 649.896 83.5291 615.466 151.346C613.152 155.928 610.793 160.555 608.434 165.182C599.679 182.42 590.743 200.021 582.079 217.213C580.899 219.572 579.72 221.886 578.54 224.199C578.268 224.743 577.996 225.242 577.724 225.787C572.189 236.674 566.791 247.379 561.62 257.631C556.857 267.021 552.321 276.049 548.011 284.532C546.65 287.208 545.335 289.794 544.065 292.334C542.386 292.47 540.708 292.651 539.029 292.788C539.982 290.882 541.343 288.251 542.976 284.985C545.425 280.177 548.51 274.007 552.184 266.795C552.865 265.434 553.591 264.028 554.317 262.576C559.896 251.553 566.565 238.398 573.823 224.063C573.913 223.882 574.004 223.745 574.095 223.564C575.274 221.25 576.454 218.937 577.633 216.578C581.58 208.821 585.662 200.792 589.79 192.536C594.916 182.375 600.224 171.987 605.486 161.553C605.985 160.555 606.484 159.602 606.983 158.605C608.525 155.565 610.022 152.662 611.474 149.759C677.295 20.0666 678.248 19.2048 678.792 18.6604L681.741 21.7904C681.877 21.6543 681.967 21.5182 681.967 21.5182Z" fill="#FFDA9F"/>
<path d="M616.555 93.9626L614.514 96.5483L524.832 211.18L519.343 218.211L463.683 289.34L457.786 296.87C455.971 296.916 454.111 296.916 452.297 296.961L458.149 289.476L514.172 217.894L519.706 210.862L613.199 91.377L615.784 93.4183L616.555 93.9626Z" fill="#FFDA9F"/>
<path d="M595.097 106.483L494.754 209.411L487.814 216.533L416.64 289.522L409.518 296.825C407.567 296.78 405.617 296.734 403.666 296.689L410.743 289.431L482.053 216.306L488.993 209.184L592.012 103.489L595.097 106.483Z" fill="#FFDA9F"/>
<path d="M709.41 181.104L707.369 183.69L617.687 298.322L612.198 305.353L556.583 376.482L550.686 384.012C548.872 384.057 547.012 384.057 545.197 384.103L551.049 376.618L607.027 304.99L612.561 297.959L706.054 178.473L708.639 180.515L709.41 181.104Z" fill="#FFDA9F"/>
<path d="M678.973 211.452L580.627 316.286L573.822 323.544L504.054 397.893L497.069 405.333C495.118 405.333 493.167 405.333 491.217 405.333L498.157 397.939L568.061 323.408L574.866 316.15L675.843 208.504L678.973 211.452Z" fill="#FFDA9F"/>
<path d="M635.175 43.774L548.576 265.422L552.59 266.99L639.188 45.3422L635.175 43.774Z" fill="#FFDA9F"/>
<path d="M567.199 293.332L559.352 299.91C601.72 211.044 690.314 24.5124 692.083 19.0688L696.211 20.2029C694.805 25.465 579.855 266.795 567.199 293.332Z" fill="#FFDA9F"/>
<path d="M578.811 307.622L568.287 320.686L700.429 25.3291L704.33 27.0982L578.811 307.622Z" fill="#FFDA9F"/>
<path d="M555.315 287.525L551.277 286.074C582.079 201.427 640.597 39.754 641.685 33.7661L645.904 34.5373C644.498 42.249 558.989 277.5 555.315 287.525Z" fill="#FFDA9F"/>
<path d="M555.452 302.133L549.373 304.99L673.44 42.0679L677.296 43.8824L555.452 302.133Z" fill="#FFDA9F"/>
<path d="M235.325 392.87H172.134C165.285 392.87 159.705 387.29 159.705 380.44C159.705 373.59 165.285 368.011 172.134 368.011H235.325C242.175 368.011 247.754 373.59 247.754 380.44C247.754 387.29 242.175 392.87 235.325 392.87Z" fill="#0A543B"/>
<path d="M676.977 392.87H613.787C606.937 392.87 601.357 387.29 601.357 380.44C601.357 373.59 606.937 368.011 613.787 368.011H676.977C683.827 368.011 689.407 373.59 689.407 380.44C689.407 387.29 683.782 392.87 676.977 392.87Z" fill="#0A543B"/>
<path d="M635.243 288.853V598.363C635.243 627.214 611.835 650.621 582.985 650.621H274.291C245.44 650.621 222.033 627.214 222.033 598.363V288.853H635.243Z" fill="#0A543B"/>
<path d="M636.921 302.053H220.355C216.181 302.053 212.779 298.651 212.779 294.478C212.779 290.305 216.181 286.902 220.355 286.902H636.921C641.094 286.902 644.497 290.305 644.497 294.478C644.497 298.651 641.094 302.053 636.921 302.053Z" fill="#0A543B"/>
<path d="M535.172 444.391C535.172 443.846 534.128 387.869 532.586 346.089C530.908 300.636 520.928 273.146 505.142 270.651C498.337 269.563 492.349 271.967 487.269 277.819C483.277 282.446 482.188 286.029 482.188 286.075H475.111C478.151 277.637 488.811 261.851 506.049 264.573C532.042 268.701 537.667 317.284 538.71 345.908C540.252 387.732 541.25 443.755 541.296 444.3L535.172 444.391Z" fill="#FFD6A1"/>
<path d="M457.375 646.084C457.421 648.353 457.693 650.53 458.555 651.392H491.851C491.443 650.167 490.218 648.398 486.816 647.808C482.915 647.173 477.516 642.773 473.978 639.053C472.708 637.738 471.166 638.69 470.757 636.83C469.17 629.845 457.829 638.963 457.829 638.963C457.829 638.963 457.285 642.682 457.375 646.084Z" fill="#2D856F"/>
<path d="M406.567 646.085C406.612 648.353 406.884 650.53 407.746 651.392H441.043C440.634 650.167 439.409 648.398 436.007 647.809C432.106 647.174 426.073 645.314 422.535 641.594C421.264 640.278 420.357 638.691 419.949 636.876C418.361 629.89 407.02 639.008 407.02 639.008C407.02 639.008 406.476 642.683 406.567 646.085Z" fill="#2D856F"/>
<path d="M470.666 642.002C466.947 643.182 462.047 643.045 457.511 641.367C454.608 640.278 437.098 597.547 436.054 576.907C435.964 575.41 435.692 573.323 435.238 570.737C434.285 565.43 432.562 558.081 430.656 550.006C425.44 528.368 418.363 501.287 418.544 492.622C418.771 479.195 458.554 489.81 458.554 489.81C458.554 489.81 461.276 500.833 461.821 516.801C462.909 548.464 465.858 601.947 473.932 639.099C474.295 640.641 472.209 641.503 470.666 642.002Z" fill="#F1E8DF"/>
<path d="M451.343 498.52L424.624 642.818C424.624 642.818 413.148 646.221 405.164 642.818C405.164 642.818 400.537 564.477 401.036 544.88C401.535 525.284 396.636 492.441 402.17 488.812C407.659 485.183 451.343 498.52 451.343 498.52Z" fill="#F1E8DF"/>
<path d="M436.779 395.909C436.779 395.909 455.06 399.039 459.234 405.48C465.222 414.689 479.692 445.354 479.965 460.778C480.282 481.508 457.737 488.494 454.97 480.284C452.656 473.479 447.077 430.929 442.994 417.728L436.779 395.909Z" fill="#F1E8DF"/>
<path d="M467.311 541.388C467.311 541.388 458.828 548.237 441.771 549.78C439.866 550.279 407.069 550.279 393.188 545.516C392.916 545.425 393.914 516.03 395.093 485.728C395.093 485.682 395.093 485.637 395.093 485.592C395.229 482.507 395.32 479.422 395.456 476.338C395.501 475.022 395.547 473.706 395.592 472.391C395.955 463.364 396.318 454.609 396.635 446.942C397.27 431.882 397.769 420.95 397.951 420.088C398.45 417.139 398.949 414.644 399.448 412.467C400.945 406.116 402.85 402.623 406.933 399.629C407.341 399.312 410.607 397.678 413.51 396.227C415.915 395.047 418.047 394.004 418.047 394.004C418.047 394.004 449.574 394.911 452.613 402.804C455.652 410.788 467.311 541.388 467.311 541.388Z" fill="#F1E8DF"/>
<path d="M434.014 397.951C432.381 398.268 430.249 399.811 428.208 399.675C424.261 399.402 420.178 396.726 416.686 394.458C419.044 388.788 420.042 384.297 420.36 381.439C420.36 381.303 420.405 381.121 420.405 380.985C420.541 379.488 420.541 378.445 420.451 377.991H433.061C433.061 377.991 436.509 379.579 436.509 380.668C436.509 381.257 436.509 381.802 436.509 382.346C436.554 383.798 436.6 385.068 436.691 386.157C436.917 389.695 437.326 391.373 437.326 391.373C437.326 391.373 438.959 396.998 434.014 397.951Z" fill="#FFB27D"/>
<path d="M436.781 386.111C427.209 387.971 421.675 382.709 420.405 381.393C420.224 381.212 420.133 381.076 420.133 381.076C420.224 381.031 420.36 380.985 420.45 380.94C424.034 379.488 432.109 380.622 436.6 382.301C436.645 383.752 436.69 385.022 436.781 386.111Z" fill="#E2915A"/>
<path d="M417.276 375.905C419 385.113 430.839 384.796 436.011 384.206C437.462 384.025 438.37 383.843 438.37 383.843C440.003 383.39 440.91 380.849 441.318 377.492C442.135 370.824 441.091 361.071 439.957 358.576C438.279 354.811 435.104 350.774 423.128 353.677C411.152 356.671 415.053 364.11 417.276 375.905Z" fill="#FFB27D"/>
<path d="M440.41 353.495C438.777 351.227 435.33 348.46 432.154 346.782C425.395 343.107 416.731 346.918 416.685 346.918C406.933 351.227 412.875 372.593 415.824 371.64C418.137 370.869 416.595 369.735 417.638 368.828C418.863 367.739 420.587 369.055 421.131 370.098C421.63 370.824 422.492 371.096 423.263 370.552C426.302 368.646 424.306 364.791 427.255 362.432C430.158 360.073 436.055 362.069 440.41 360.164C446.126 357.986 441.635 355.174 440.41 353.495Z" fill="#233862"/>
<path d="M420.133 419.225C420.133 418.318 420.859 417.592 421.766 417.592C422.673 417.592 423.399 418.318 423.399 419.225C423.399 420.133 422.673 420.858 421.766 420.858C420.859 420.904 420.133 420.133 420.133 419.225Z" fill="#233862"/>
<path d="M439.547 417.592C439.547 416.685 440.273 415.959 441.18 415.959C442.087 415.959 442.813 416.685 442.813 417.592C442.813 418.5 442.087 419.225 441.18 419.225C440.273 419.225 439.547 418.5 439.547 417.592Z" fill="#233862"/>
<path d="M422.219 438.731C422.219 437.824 422.945 437.098 423.852 437.098C424.759 437.098 425.485 437.824 425.485 438.731C425.485 439.638 424.759 440.364 423.852 440.364C422.945 440.41 422.219 439.638 422.219 438.731Z" fill="#233862"/>
<path d="M441.635 437.098C441.635 436.191 442.361 435.465 443.268 435.465C444.175 435.465 444.901 436.191 444.901 437.098C444.901 438.006 444.175 438.731 443.268 438.731C442.406 438.731 441.635 438.006 441.635 437.098Z" fill="#233862"/>
<path d="M423.398 457.829C423.398 456.922 424.124 456.196 425.032 456.196C425.939 456.196 426.665 456.922 426.665 457.829C426.665 458.737 425.939 459.462 425.032 459.462C424.124 459.462 423.398 458.737 423.398 457.829Z" fill="#233862"/>
<path d="M442.859 456.151C442.859 455.243 443.585 454.518 444.492 454.518C445.4 454.518 446.126 455.243 446.126 456.151C446.126 457.058 445.4 457.784 444.492 457.784C443.585 457.784 442.859 457.058 442.859 456.151Z" fill="#233862"/>
<path d="M431.199 345.148C431.199 345.148 432.878 336.438 426.799 330.995C420.721 325.506 412.555 326.685 408.019 331.721C406.613 333.263 398.538 331.721 393.957 336.575C389.375 341.428 390.192 349.185 391.734 352.724C393.186 355.99 388.332 362.93 394.864 368.147C402.53 374.271 414.188 369.054 414.188 369.054C414.188 369.054 422.308 345.239 431.199 345.148Z" fill="#F1E8DF"/>
<path d="M441.045 354.221C441.045 354.221 415.914 356.443 417.274 375.904L407.113 361.433C407.113 361.433 407.839 342.834 431.382 342.608L441.045 354.221Z" fill="#F1E8DF"/>
<path d="M869.542 651.029H496.932C485.591 651.029 475.249 644.633 470.168 634.517L448.258 591.014H914.36L894.4 634.971C889.955 644.769 880.247 651.029 869.542 651.029Z" fill="#FFB93E"/>
<path d="M681.285 612.652C867.43 612.652 1018.33 600.812 1018.33 586.206C1018.33 571.6 867.43 559.759 681.285 559.759C495.141 559.759 344.24 571.6 344.24 586.206C344.24 600.812 495.141 612.652 681.285 612.652Z" fill="#FFB93E"/>
<path d="M915.085 585.208C914.994 585.253 914.904 585.253 914.813 585.299C907.192 587.476 898.029 589.472 887.595 591.377C885.282 591.786 882.923 592.194 880.473 592.602C872.127 593.963 863.054 595.278 853.301 596.458C850.897 596.73 848.493 597.048 845.998 597.32C837.197 598.318 827.898 599.225 818.19 600.042C814.607 600.359 810.932 600.631 807.213 600.903C807.213 600.903 807.212 600.903 807.167 600.903C793.468 601.947 778.997 602.809 763.936 603.444C762.303 603.534 760.67 603.58 759.037 603.625C755.091 603.807 751.144 603.943 747.107 604.079C746.744 604.079 746.336 604.124 745.973 604.124C738.306 604.396 730.459 604.578 722.566 604.714C717.621 604.805 712.631 604.895 707.596 604.941C706.598 604.941 705.645 604.941 704.647 604.986C699.34 605.031 693.987 605.077 688.589 605.077C686.865 605.077 685.096 605.077 683.372 605.077C682.601 605.077 681.784 605.077 681.013 605.077C633.7 604.895 589.607 602.854 552.274 599.452C551.729 599.406 551.185 599.361 550.686 599.316C544.97 598.771 539.391 598.227 533.993 597.637L533.766 597.592L532.36 597.456C528.05 596.957 523.831 596.458 519.749 595.959C519.068 595.868 518.388 595.777 517.707 595.687C467.491 589.155 436.009 579.81 436.009 569.422C436.009 569.422 435.374 565.158 439.411 560.576C451.841 546.287 488.312 517.935 558.08 514.896C610.882 512.582 649.486 523.832 672.893 533.857C690.403 541.388 699.385 548.237 699.385 548.237C699.431 548.192 699.748 547.965 700.292 547.602C703.014 545.697 711.951 539.845 726.195 534.175C750.146 524.603 789.067 515.44 838.921 526.01C868.724 532.315 888.14 541.115 900.342 549.961C922.933 566.382 920.937 583.167 915.085 585.208Z" fill="#F8D5CF"/>
<path d="M795.781 531.861C795.781 531.861 835.519 527.551 865.005 541.523C894.491 555.495 902.747 567.471 901.204 576.135C899.662 584.799 856.703 582.259 856.703 582.259C856.703 582.259 829.395 576.906 827.444 576.135C825.494 575.364 795.781 531.861 795.781 531.861Z" fill="#FFE6C2"/>
<path d="M772.011 595.006C771.194 599.315 767.066 601.992 763.982 603.443C762.349 603.534 760.716 603.579 759.083 603.625C761.668 602.899 769.652 598.816 770.469 594.371C770.786 592.602 770.106 590.606 768.427 588.428C760.262 577.813 735.585 588.564 735.358 588.7L734.904 586.432C734.95 586.387 741.391 583.62 748.74 582.214C758.81 580.308 765.796 581.805 769.516 586.704C771.648 589.472 772.51 592.284 772.011 595.006Z" fill="#EA9678"/>
<path d="M869.043 580.626C868.498 585.253 865.005 589.608 858.564 593.554C856.659 594.734 854.799 595.686 853.256 596.412C850.852 596.684 848.448 597.002 845.953 597.274C852.44 594.552 866.684 587.113 867.455 580.263C867.818 577.133 866.14 573.821 862.465 570.419C853.483 562.072 831.301 556.357 805.988 555.858C776.185 555.268 746.881 561.619 723.519 573.821L722.975 571.599C746.518 559.351 776.049 552.909 806.034 553.499C831.618 553.998 854.118 559.85 863.327 568.423C867.591 572.37 869.542 576.498 869.043 580.626Z" fill="#EA9678"/>
<path d="M479.83 458.873C479.83 458.873 482.733 482.825 463.137 494.165L457.33 487.815L466.675 464.045L479.83 458.873Z" fill="#F1E8DF"/>
<path d="M352.768 443.223L356.76 438.279C358.303 436.374 361.433 435.92 363.746 437.235L510.313 521.202C511.085 521.656 512.173 521.519 512.672 520.884L513.579 519.75C516.347 516.257 520.928 513.944 526.009 513.354C531.135 512.764 536.442 513.944 540.57 516.666L595.913 552.411C596.593 552.865 596.775 553.636 596.321 554.226L595.369 555.451C594.87 556.086 593.781 556.222 593.01 555.768L535.807 521.565C533.358 519.977 530.364 519.297 527.37 519.66C526.236 519.796 525.147 520.068 524.149 520.476C523.015 520.93 522.97 522.2 524.013 522.835L589.653 560.032C590.424 560.486 590.651 561.303 590.152 561.938L589.063 563.253C588.564 563.888 587.566 564.024 586.75 563.616L518.887 527.417C518.116 527.008 517.072 527.144 516.573 527.78L515.439 529.186C514.94 529.821 515.167 530.637 515.938 531.091L582.803 568.515C583.574 568.969 583.801 569.785 583.302 570.421L582.304 571.691C581.805 572.28 580.807 572.462 580.036 572.054L512.808 536.761C511.72 536.172 510.313 536.761 510.268 537.759C510.223 538.667 510.313 539.619 510.631 540.572C511.447 543.021 513.398 545.017 516.12 546.242L576.362 576.454C577.178 576.862 577.45 577.724 576.951 578.404L576.362 579.176C575.908 579.765 574.955 579.947 574.184 579.584L512.581 551.822C507.954 549.735 504.507 546.151 503.146 542.023C501.785 537.895 502.602 533.495 505.414 530.002C505.913 529.367 505.686 528.505 504.87 528.097L354.356 449.03C351.952 447.669 351.226 445.083 352.768 443.223Z" fill="#384B59"/>
<path d="M414.371 478.152C414.371 478.152 418.136 477.517 419.951 478.515C421.765 479.513 426.211 480.148 426.029 481.192C425.848 482.235 420.223 482.689 418.771 482.144C417.274 481.691 414.371 478.152 414.371 478.152Z" fill="#FFB27D"/>
<path d="M413.599 478.697C411.875 479.831 411.648 482.28 413.19 483.687C415.64 485.909 418.815 488.767 419.587 489.312C420.902 490.264 427.933 491.035 429.748 488.586C429.748 488.586 423.851 486.045 423.034 482.099C422.127 477.925 414.37 478.152 414.37 478.152L413.599 478.697Z" fill="#FFB27D"/>
<path d="M413.328 486.182C413.328 486.182 379.079 478.153 375.768 456.152C372.864 436.782 389.83 407.659 394.321 402.76C399.538 397.044 409.064 395.048 414.281 394.368C414.507 394.322 414.689 394.322 414.916 394.277C416.776 394.05 417.955 394.005 418 394.005C418 394.005 417.592 395.32 416.912 397.588C416.639 398.45 416.322 399.448 416.004 400.582C412.784 411.152 402.713 436.827 399.447 450.98C397.36 459.962 416.912 477.926 417.411 477.971C417.456 477.971 413.328 486.182 413.328 486.182Z" fill="#F1E8DF"/>
<path d="M414.463 394.413C414.463 394.413 416.595 390.965 418.772 389.06C418.772 389.06 427.482 394.775 427.89 396.227C428.299 397.679 427.482 400.673 427.482 400.673C427.482 400.673 422.084 401.126 414.463 394.413Z" fill="#F1E8DF"/>
<path d="M454.654 488.586C454.654 488.586 455.38 497.477 457.467 498.384C459.554 499.291 463.455 496.298 463.863 494.438C464.271 492.578 459.1 487.089 457.013 486.953C454.927 486.817 454.654 488.586 454.654 488.586Z" fill="#FFB27D"/>
<path d="M437.324 391.102C437.324 391.102 440.59 393.687 439.819 396.409C439.819 396.409 431.699 405.844 418.045 407.75C418.045 407.75 418.952 405.255 420.903 403.758C422.899 402.215 435.6 395.184 437.324 391.102Z" fill="#F1E8DF"/>
<path d="M722.611 604.714C717.667 604.805 712.677 604.895 707.642 604.941C706.644 604.941 705.691 604.941 704.693 604.986C699.386 605.031 694.033 605.077 688.635 605.077C686.911 605.077 685.142 605.077 683.418 605.077C682.647 605.077 681.83 605.077 681.059 605.077C633.746 604.895 589.653 602.854 552.319 599.452C551.775 599.406 551.231 599.361 550.732 599.316C545.016 598.771 539.436 598.227 534.038 597.637V597.683C533.948 597.683 533.902 597.637 533.811 597.637C533.358 597.501 532.904 597.365 532.496 597.274C527.642 595.868 523.832 594.371 521.155 592.829C520.52 592.466 519.93 592.058 519.431 591.695C517.708 590.379 516.8 589.064 516.8 587.658C516.8 587.658 516.347 584.89 519.159 581.851C523.605 577.043 532.496 569.785 546.694 563.615C560.031 557.809 578.086 552.955 601.538 552.002C606.8 551.776 611.835 551.73 616.689 551.866H616.735C645.676 552.592 667.314 558.761 681.24 564.386C693.398 569.286 699.612 573.777 699.612 573.777C699.612 573.777 733.362 594.19 722.611 604.714Z" fill="#F8D5CF"/>
<path d="M683.372 605.032C682.601 605.032 681.784 605.032 681.013 605.032C675.978 599.361 668.493 591.604 659.239 584.165C643.044 571.1 617.914 556.221 590.152 559.488C574.864 561.257 554.043 566.927 541.341 583.666C537.349 588.928 535.172 594.009 533.992 597.638V597.683C533.902 597.683 533.856 597.638 533.766 597.638L532.359 597.502C532.405 597.411 532.405 597.365 532.45 597.275C533.63 593.464 535.898 588.021 540.162 582.396C547.329 572.87 561.8 560.803 590.015 557.492C618.186 554.18 643.68 569.286 660.101 582.487C670.262 590.652 678.337 599.18 683.372 605.032Z" fill="#EA9F82"/>
<path d="M707.64 604.941C706.643 604.941 705.69 604.941 704.692 604.986C698.386 598.545 688.996 589.79 677.338 581.352C656.925 566.518 625.216 549.598 590.242 553.273C571.008 555.314 544.697 561.71 528.73 580.762C525.146 585.026 522.697 589.2 521.109 592.738C520.564 593.872 520.156 594.961 519.793 595.914C519.113 595.823 518.432 595.732 517.752 595.641C518.206 594.417 518.75 593.056 519.43 591.559C521.109 587.884 523.604 583.62 527.324 579.22C531.542 574.185 537.712 568.514 546.739 563.524C557.081 557.763 571.144 552.955 590.151 550.914C599.269 549.961 608.205 550.369 616.734 551.776H616.779C641.456 555.858 663.14 568.151 678.472 579.356C691.174 588.655 701.29 598.318 707.64 604.941Z" fill="#EA9F82"/>
<path d="M631.976 591.694C629.345 596.185 620.635 598.635 612.197 599.542C610.791 599.678 609.385 599.814 607.979 599.905C598.362 600.449 585.252 599.27 577.404 594.461L577.994 592.602C584.39 596.503 595.821 598.499 607.843 597.818C619.455 597.183 628.437 594.235 630.751 590.333C632.066 588.111 631.976 585.071 630.524 582.077C626.078 572.869 610.882 566.11 586.976 571.689C576.769 574.094 563.16 579.22 556.038 590.243C553.725 593.826 552.727 597.138 552.273 599.361C551.729 599.315 551.185 599.27 550.686 599.225C551.094 596.775 552.137 593.055 554.723 589.018C560.62 579.764 571.326 573.232 586.613 569.648C612.923 563.479 627.394 571.916 631.794 581.034C633.609 584.845 633.699 588.791 631.976 591.694Z" fill="#EA9F82"/>
<path d="M846.452 582.032C845.318 591.014 828.171 597.138 818.191 599.996C814.607 600.313 810.933 600.586 807.213 600.858C816.24 598.862 843.73 590.379 844.864 581.624C845.136 579.401 843.775 576.997 840.736 574.457C821.684 558.489 728.191 578.358 727.239 578.539L727.012 576.18C727.239 576.135 750.963 571.054 776.775 568.06C811.522 564.023 833.342 565.475 841.553 572.37C845.227 575.455 846.86 578.721 846.452 582.032Z" fill="#EA9678"/>
<path d="M748.196 604.033L747.152 604.079C746.789 604.079 746.381 604.124 746.018 604.124C741.981 598.363 716.85 563.025 698.932 549.281L699.295 548.237L699.657 547.194C699.839 547.33 700.02 547.466 700.202 547.602C719.844 562.935 747.923 603.625 748.196 604.033Z" fill="#EA9678"/>
<path d="M900.343 573.822C899.3 582.078 891.588 588.519 887.551 591.377C885.237 591.785 882.878 592.194 880.429 592.602C883.559 590.787 897.621 582.078 898.756 573.413C899.164 570.238 898.211 567.017 895.898 563.978C885.691 550.233 836.291 517.98 775.46 541.07C733.363 557.083 718.348 567.38 718.212 567.471L717.531 565.339C717.667 565.248 732.773 554.815 775.051 538.756C807.667 526.372 835.973 530.455 854.028 536.08C875.258 542.703 890.908 553.953 897.032 562.209C899.708 565.838 900.842 569.784 900.343 573.822Z" fill="#EA9678"/>
<path d="M575.318 513.217C575.318 513.217 564.749 518.706 575.046 530.999C585.343 543.293 615.192 531.362 628.075 538.121C640.913 544.88 630.525 554.86 645.222 563.615C659.965 572.37 674.164 543.02 688.635 551.367C703.105 559.714 752.415 571.463 753.231 554.633C754.048 537.804 777.546 531.362 786.437 526.327C795.328 521.292 763.211 513.262 747.198 511.176C736.084 509.724 682.737 481.236 650.666 489.583C618.549 497.884 590.197 504.825 575.318 513.217Z" fill="#EA424E"/>
<path d="M671.171 492.714C672.078 485.501 670.263 464.181 668.857 462.865C667.451 461.549 654.613 474.296 652.799 480.919C650.984 487.588 653.479 496.66 658.424 501.242C663.368 505.823 670.218 500.017 671.171 492.714Z" fill="#7BC0B3"/>
<path d="M718.938 539.12C718.076 537.623 712.995 534.356 712.541 534.583C712.088 534.81 712.088 540.48 712.95 541.977C713.812 543.474 715.853 544.064 717.531 543.293C719.21 542.522 719.8 540.662 718.938 539.12Z" fill="#7BC0B3"/>
<path d="M612.425 518.026C613.786 516.846 615.828 511.539 615.465 511.176C615.102 510.813 609.114 512.401 607.753 513.535C606.392 514.669 606.347 516.665 607.617 517.89C608.933 519.16 611.065 519.205 612.425 518.026Z" fill="#7BC0B3"/>
<path d="M661.417 534.13C659.558 533.903 653.751 535.854 653.66 536.353C653.615 536.852 658.741 540.027 660.556 540.254C662.415 540.481 664.094 539.256 664.321 537.577C664.548 535.899 663.277 534.311 661.417 534.13Z" fill="#7BC0B3"/>
<path d="M649.396 480.148C642.274 476.02 618.822 476.02 618.323 477.608C617.869 479.196 636.105 503.555 643.227 507.683C650.349 511.811 657.698 507.048 659.331 501.423C661.009 495.844 656.518 484.276 649.396 480.148Z" fill="#7BC0B3"/>
<path d="M720.026 517.981C721.841 517.527 726.422 513.717 726.286 513.218C726.15 512.764 720.071 511.585 718.257 512.038C716.442 512.492 715.399 514.17 715.898 515.803C716.352 517.436 718.211 518.434 720.026 517.981Z" fill="#7BC0B3"/>
<path d="M694.123 523.379C692.626 522.335 686.502 521.383 686.184 521.746C685.867 522.154 688.543 527.235 689.995 528.278C691.492 529.321 693.624 529.049 694.758 527.688C695.892 526.327 695.62 524.377 694.123 523.379Z" fill="#7BC0B3"/>
<path d="M269.616 649.702C269.39 649.702 269.163 649.657 268.981 649.611C267.938 649.249 267.394 648.115 267.711 647.071L353.81 394.265C354.173 393.221 355.307 392.631 356.35 392.994C357.393 393.357 357.938 394.491 357.62 395.535L271.522 648.341C271.25 649.203 270.478 649.702 269.616 649.702Z" fill="#F8D5CF"/>
<path d="M150.585 649.702C150.358 649.702 150.132 649.657 149.95 649.612C148.907 649.249 148.362 648.115 148.68 647.071L234.779 394.265C235.141 393.221 236.275 392.632 237.319 392.995C238.362 393.358 238.907 394.492 238.589 395.535L152.49 648.342C152.218 649.203 151.402 649.702 150.585 649.702Z" fill="#F8D5CF"/>
<path d="M319.516 501.185H202.48C201.392 501.185 200.484 500.278 200.484 499.189C200.484 498.1 201.346 497.193 202.48 497.193H319.516C320.605 497.193 321.512 498.1 321.512 499.189C321.512 500.278 320.605 501.185 319.516 501.185Z" fill="#F8D5CF"/>
<path d="M297.606 564.102H179.754C178.665 564.102 177.758 563.195 177.758 562.107C177.758 561.018 178.665 560.111 179.754 560.111H297.652C298.74 560.111 299.648 561.018 299.648 562.107C299.648 563.195 298.74 564.102 297.606 564.102Z" fill="#F8D5CF"/>
<path d="M423.17 192.628C413.553 189.226 401.305 188.908 398.311 194.488C395.68 199.342 363.518 272.92 357.802 286.075H352.631L395.907 186.141C395.907 186.141 404.571 174.392 425.347 182.104C446.123 189.815 432.787 196.03 423.17 192.628Z" fill="#2D856F"/>
<path d="M286.72 236.811C282.093 245.657 253.469 272.965 255.012 276.186C256.418 279.135 254.739 307.713 254.014 318.691V318.736C253.832 321.367 253.741 322.955 253.741 322.955C252.789 325.178 250.249 326.176 248.343 326.584C247.073 326.856 246.121 326.902 246.121 326.902C246.121 326.902 245.712 325.45 245.077 322.955C243.898 318.328 241.902 310.208 240.042 301.362C237.184 287.572 234.78 272.149 236.685 265.934C260.455 188.545 284.815 213.722 284.815 213.722C284.815 213.722 291.347 227.92 286.72 236.811Z" fill="#F1E8DF"/>
<path d="M242.128 482.995C242.128 482.995 240.495 497.012 243.171 497.193C243.534 497.239 259.139 497.193 259.139 497.193H276.649C276.649 497.193 276.196 492.929 271.251 492.067C266.306 491.206 258.005 487.713 254.966 481.18C251.836 474.285 242.128 482.995 242.128 482.995Z" fill="#2D856F"/>
<path d="M241.174 483.948C241.174 483.948 246.346 485.671 250.383 485.671C254.874 485.671 258.956 484.447 258.956 484.447C258.956 484.447 259.909 475.057 265.262 454.371C268.074 443.529 272.066 429.558 277.737 412.229C293.477 364.326 298.286 336.292 298.694 333.661C298.74 333.525 298.74 333.434 298.74 333.434L298.694 333.389L250.292 312.159C250.292 312.159 256.28 378.162 248.659 403.52C247.57 407.058 246.663 411.186 245.892 415.677C241.038 443.212 241.174 483.948 241.174 483.948Z" fill="#F1E8DF"/>
<path d="M245.893 415.677L265.262 454.371C268.075 443.529 272.067 429.558 277.737 412.229C293.478 364.326 298.287 336.292 298.695 333.661C298.695 333.57 298.695 333.525 298.695 333.434L250.293 312.204C250.293 312.204 256.281 378.207 248.66 403.565C247.571 407.103 246.664 411.231 245.893 415.677Z" fill="#F1E8DF"/>
<path d="M279.961 482.995C279.961 482.995 280.596 497.012 283.318 497.193C283.681 497.239 297.199 497.148 297.199 497.148L314.437 497.193C314.437 497.193 314.074 492.929 309.129 492.067C304.185 491.206 295.883 487.713 292.844 481.18C289.623 474.285 279.961 482.995 279.961 482.995Z" fill="#2D856F"/>
<path d="M307.406 313.747C307.406 313.747 308.041 356.524 300.647 409.054C293.253 461.584 295.748 483.857 295.748 483.857C295.748 483.857 290.667 485.49 288.626 485.671C283.409 486.08 278.057 484.447 278.057 484.447C278.057 484.447 267.442 431.917 270.481 405.606C273.52 379.296 255.965 315.38 255.965 315.38L307.406 313.747Z" fill="#F1E8DF"/>
<path d="M272.158 211.952L280.641 219.392L294.522 218.802C294.477 217.668 294.25 213.041 294.023 208.822C294.023 208.596 293.978 208.323 293.978 208.097C293.796 204.513 293.615 201.428 293.615 201.428L281.775 194.079L277.375 191.358C277.375 191.448 277.193 195.259 277.148 195.849C276.558 205.783 272.158 211.952 272.158 211.952Z" fill="#FFB27D"/>
<path d="M310.218 315.606C310.037 338.197 308.54 390.999 307.406 392.088C295.657 403.429 243.898 388.958 241.176 376.483C238.454 363.963 251.61 216.126 271.705 210.229C275.879 209.004 294.523 220.843 294.523 220.843C294.523 220.843 301.645 225.334 303.958 236.993C304.82 241.302 307.587 272.103 309.22 292.698C309.628 298.187 309.991 302.95 310.218 306.261C310.218 307.622 310.264 310.979 310.218 315.606Z" fill="#F1E8DF"/>
<path d="M278.01 196.121C280.097 201.201 289.895 206.735 293.978 208.822C293.978 208.595 293.933 208.323 293.933 208.096C293.751 204.513 293.57 201.428 293.57 201.428L281.73 194.079C278.918 193.626 277.148 194.034 278.01 196.121Z" fill="#FCA56B"/>
<path d="M297.925 201.927C297.925 201.927 276.514 203.923 275.47 190.541C274.427 177.204 270.979 168.449 284.588 166.59C298.242 164.775 301.282 169.629 302.688 174.029C304.14 178.429 303.459 201.065 297.925 201.927Z" fill="#FFB27D"/>
<path d="M300.329 173.802L293.661 184.145C290.758 182.875 289.397 183.419 288.898 187.955C288.399 192.446 281.005 197.255 277.557 192.628C277.557 192.628 264.266 169.175 267.804 165.138C273.384 158.787 286.856 160.465 296.337 161.327C306.226 162.189 307.587 172.986 300.329 173.802Z" fill="#163560"/>
<path d="M367.695 245.521C367.695 245.521 369.554 243.298 370.19 242.391C371.097 241.075 375.134 239.669 380.169 239.034C380.169 239.034 383.98 239.533 381.666 242.98C380.124 245.294 380.305 243.933 378.037 247.154C375.815 250.374 372.276 252.325 369.418 251.69L366.198 252.28L363.748 247.244L367.695 245.521Z" fill="#FFB27D"/>
<path d="M269.755 223.157C269.755 223.157 243.808 247.109 321.469 281.222C333.308 286.438 370.188 253.369 370.188 253.369C370.188 253.369 369.689 247.245 366.695 244.569C366.695 244.569 329.77 258.177 325.733 258.586C322.149 258.994 301.282 226.151 294.478 218.848C287.673 211.454 269.755 223.157 269.755 223.157Z" fill="#F1E8DF"/>
<path d="M302.823 162.734C302.823 162.734 298.968 196.574 276.967 197.346L266.941 183.419C266.941 183.419 289.351 175.39 287.173 156.973L302.823 162.734Z" fill="#F1E8DF"/>
<path d="M272.385 146.449C272.385 146.449 281.866 143.818 288.489 149.17C295.157 154.523 295.293 163.187 290.848 168.722C289.487 170.445 292.435 178.52 288.126 184.054C283.862 189.589 275.697 190.042 271.795 188.999C268.212 188.046 261.816 194.17 255.329 188.318C247.753 181.423 251.201 168.495 251.201 168.495C251.201 168.495 254.603 147.855 272.385 146.449Z" fill="#F1E8DF"/>
<path d="M292.708 211.816C292.436 211.725 277.376 203.696 275.607 204.241C273.838 204.83 271.66 210.183 271.66 210.183L295.884 220.435C295.929 220.435 296.111 213.222 292.708 211.816Z" fill="#F1E8DF"/>
</svg>
