<svg width="878" height="761" viewBox="0 0 878 761" fill="none" xmlns="http://www.w3.org/2000/svg">
<path d="M1352.24 760.987C1269.27 760.987 60.1599 761.252 59.4676 759.397L59.3611 759.185C59.3611 759.185 59.2546 758.973 59.2546 758.867C58.7752 757.966 -127.04 502.544 161.882 324.756C181.801 312.515 194.476 301.015 202.305 289.887C239.106 238.008 170.617 195.614 244.698 131.811C348.018 42.7847 460.764 141.244 575.588 100.917C595.879 93.8161 616.223 82.3168 636.621 64.7234C648.071 54.8139 660.693 46.1762 674.114 38.7043C676.191 37.5385 678.268 36.4256 680.345 35.3658C688.387 31.1794 696.748 27.417 705.376 24.0255C711.181 21.7468 717.04 19.6271 723.058 17.7194C732.591 14.6459 742.39 11.9962 752.349 9.77057C766.516 6.59105 781.162 4.2064 796.021 2.61664C802.518 1.92774 809.069 1.34483 815.673 0.920897C875.801 -2.84154 939.443 5.10728 997.814 21.4289C1064.01 39.9231 1123.4 69.2808 1163.02 104.468C1178.04 117.822 1246.26 186.87 1192.47 281.726C1158.49 341.66 1300.8 398.892 1351.34 467.305C1479.96 641.172 1353.41 758.708 1352.24 760.987Z" fill="#2D856F"/>
</svg>
