<svg width="985" height="623" viewBox="0 0 985 623" fill="none" xmlns="http://www.w3.org/2000/svg">
<g clip-path="url(#clip0_136_1809)">
<path d="M60.3922 622.427C60.3922 622.427 -60.6225 492.494 39.9417 351.777C129.149 226.948 233.166 235.467 309.481 286.12C341.98 307.686 435.714 288.768 515.444 161.751C624.219 -11.4684 1001.27 93.5989 932.512 360.105C899.246 489.079 1033.77 493.76 965.202 622.696L60.3922 622.427Z" fill="#2D856F"/>
<path d="M554.733 225.07C554.695 225.761 554.656 226.106 554.656 226.106C554.656 226.106 554.541 225.761 554.349 225.108C552.584 219.659 543.951 192.798 536.124 162.904C525.266 121.537 515.904 74.3378 528.22 69.9631C551.548 61.6744 555.884 127.792 555.922 176.565C555.999 200.626 555.001 220.427 554.733 225.07Z" fill="#F8D5CF"/>
<path d="M577.601 171.385C569.16 190.111 561.831 205.845 557.649 215.285C555.807 219.391 554.58 222.307 554.119 223.727C554.541 221.386 555.616 215.131 557.189 206.267C559.529 192.951 562.982 173.687 566.742 152.774C575.874 101.967 586.963 41.4131 589.572 32.779C594.138 17.5063 615.202 -14.9963 629.398 13.2852C638.569 31.6278 603.001 114.976 577.601 171.385Z" fill="#F8D5CF"/>
<path d="M579.288 198.055C570.579 207.264 563.25 214.709 559.145 218.853C556.92 221.117 555.653 222.384 555.653 222.384C555.653 222.384 557.879 217.625 561.677 210.027C565.284 202.851 570.272 193.143 576.104 182.513C595.211 147.67 623.374 103.003 640.832 105.574C660.745 108.529 610.904 164.708 579.288 198.055Z" fill="#F8D5CF"/>
<path d="M554.733 225.07C554.618 225.07 554.464 225.07 554.349 225.108C552.584 219.659 543.951 192.797 536.124 162.904C539.769 168.392 546.407 175.721 555.961 176.565C555.999 200.626 555.001 220.427 554.733 225.07Z" fill="#F8D5CF"/>
<path d="M577.601 171.385C569.16 190.111 561.831 205.845 557.649 215.284C557.342 212.637 557.188 209.605 557.188 206.267C559.529 192.951 562.982 173.687 566.742 152.774C568.2 160.026 571.231 168.123 577.601 171.385Z" fill="#F8D5CF"/>
<path d="M579.289 198.055C570.579 207.264 563.251 214.709 559.146 218.853C559.529 216.474 560.45 213.404 561.678 210.027C565.284 202.852 570.272 193.143 576.104 182.513C576.22 186.965 576.872 193.603 579.289 198.055Z" fill="#F8D5CF"/>
<path d="M554.081 223.727C553.966 224.379 553.889 224.725 553.889 224.725C553.812 224.686 553.889 224.341 554.081 223.727Z" fill="#F8D5CF"/>
<path d="M565.783 290.919C551.165 332.363 532.94 377.529 532.94 377.529L491.809 365.211C491.809 365.211 496.643 334.512 503.703 300.359C511.952 260.527 516.671 220.35 533.592 209.912C538.235 207.034 543.261 205.691 548.211 205.346C550.704 205.154 553.16 205.231 555.577 205.576C556.153 205.653 556.728 205.729 557.304 205.845C558.724 206.113 560.143 206.42 561.486 206.842C562.023 206.996 562.56 207.149 563.059 207.341C564.901 207.955 566.627 208.723 568.316 209.567C575.452 213.174 581.169 218.623 583.433 224.533C590.147 242.185 576.833 259.606 565.783 290.919Z" fill="#EA9F82"/>
<path d="M545.678 341.688C534.858 374.459 531.674 410.453 536.086 448.866C536.815 455.274 540.383 460.838 545.563 464.253C547.865 465.788 550.513 466.863 553.314 467.438C559.683 467.4 572.191 455.85 579.366 441.114C581.323 437.046 582.896 432.787 583.817 428.412C590.992 394.336 604.306 353.315 620.804 332.324C637.686 310.874 660.401 285.24 691.633 267.626C694.664 265.9 765.531 214.248 765.531 214.248C772.591 206.804 764.226 198.438 764.226 198.438C764.226 198.438 757.512 204.348 736.946 216.167C716.419 227.986 680.352 214.133 680.314 214.133C670.223 209.567 658.214 210.027 648.276 216.052C632.967 225.338 612.555 240.036 593.179 261.141C571.5 284.895 555.501 311.986 545.678 341.688Z" fill="#FFB93E"/>
<path d="M506.901 300.626C503.703 305.653 499.757 310.555 495.106 315.124C477.496 332.448 449.918 345.326 414.365 344.994C414.365 344.994 399.455 330.786 392.228 312.673C387.203 300.127 383.548 281.641 392.228 267.89C397.835 259.041 405.02 254.845 412.289 252.644C424.665 248.863 437.333 250.816 442.857 245.291C448.298 239.849 456.065 235.154 464.62 232.454C466.033 231.997 467.445 231.623 468.857 231.291C469.438 231.166 470.02 231 470.643 230.917H470.684C483.809 228.341 497.847 230.875 507.607 242.59C509.85 245.291 511.927 248.573 513.671 252.519C519.901 266.561 517.243 284.383 506.901 300.626Z" fill="#7BC0B3"/>
<path d="M436.711 224.341C429.996 220.35 423.205 225.952 415.34 229.022C407.474 232.092 392.318 232.054 392.318 232.054C392.318 232.054 398.534 223.074 408.779 214.172C418.985 205.23 436.711 224.341 436.711 224.341Z" fill="#2D856F"/>
<path d="M436.711 224.341C430.418 219.16 418.754 216.206 413.076 218.546C407.397 220.887 392.318 232.092 392.318 232.092C392.318 232.092 398.534 223.113 408.779 214.21C418.985 205.231 436.711 224.341 436.711 224.341Z" fill="#2D856F"/>
<path d="M440.239 245.857C445.266 240.831 452.441 236.494 460.345 234C446.954 239.027 439.549 255.988 434.484 254.031C429.036 251.921 412.652 252.611 412 252.65C423.434 249.158 435.136 250.923 440.239 245.857Z" fill="#7BC0B3"/>
<path d="M464.491 230.672C464.069 230.787 463.531 230.903 462.841 231.018C463.416 230.903 463.953 230.787 464.491 230.672Z" fill="#95C38B"/>
<path d="M434.026 251.816C429.728 242.338 432.069 230.557 434.755 222.345C436.903 215.822 441.047 206.996 443.042 202.813C443.464 201.93 444.769 202.007 445.076 202.966L445.882 205.422C446.687 207.917 446.419 210.603 445.038 212.829C440.894 219.697 432.568 235.738 436.289 248.938C436.75 250.435 434.793 253.505 434.026 251.816Z" fill="#2D856F"/>
<path d="M522.428 294.565L521.085 294.027C526.994 285.24 536.164 279.177 543.416 276.414C549.746 273.958 554.811 273.152 556.614 272.922C557.036 272.883 557.497 273.037 557.765 273.382L558.878 274.687C559.415 275.339 559.032 276.375 558.187 276.491C551.742 277.411 531.368 281.287 522.428 294.565Z" fill="#2D856F"/>
<path d="M497.258 297.097C504.049 280.136 513.603 283.973 525.382 288.693C537.161 293.413 546.715 297.212 539.924 314.174C535.051 326.3 521.583 332.324 509.804 327.643C498.025 322.923 492.385 309.223 497.258 297.097Z" fill="#2D856F"/>
<path d="M660.746 302.357L697.12 561.495C701.647 593.614 676.669 622.317 644.247 622.317H589.457C561.793 622.317 540.23 598.295 543.261 570.781L574.033 329.756L660.746 302.357Z" fill="#F8D5CF"/>
<path d="M469.747 301.357C469.747 301.357 557.918 331.404 660.746 301.357L630.435 622.123H438.515L469.747 301.357Z" fill="#F8D5CF"/>
<path d="M469.747 301.357L506.12 561.147C510.648 593.381 485.67 622.123 453.249 622.123H398.458C370.794 622.123 349.231 598.024 352.262 570.433L378.315 301.318C378.315 301.318 391.168 303.813 422.362 303.813C453.249 303.851 469.747 301.357 469.747 301.357Z" fill="#EA9F82"/>
<path d="M748.918 398.171C753.522 399.706 758.548 400.743 763.805 401.241C783.833 403.122 807.929 397.02 830.221 378.524C830.221 378.524 832.331 361.832 827.573 346.674C824.274 336.159 817.06 322.575 804.514 318.392C796.418 315.668 789.742 316.742 783.987 319.083C774.241 323.074 767.219 330.826 760.889 330.173C754.635 329.559 747.306 330.595 740.553 333.243C739.441 333.665 738.366 334.164 737.292 334.701C736.831 334.932 736.409 335.123 735.949 335.392H735.911C726.28 340.534 718.722 349.36 718.568 361.793C718.53 364.671 718.913 367.818 719.834 371.195C723.134 383.321 734.031 393.221 748.918 398.171Z" fill="#0A543B"/>
<path d="M718.568 361.832C718.53 364.71 718.913 367.856 719.873 371.233C723.172 383.321 736.947 411.334 751.834 416.284C751.834 416.284 781.377 429.868 798.26 423.537C817.099 416.476 828.724 401.587 830.259 378.524C830.259 378.524 832.369 361.832 827.612 346.674C827.612 346.674 808.773 380.328 763.92 378.678C743.508 377.949 728.697 370.12 718.568 361.832Z" fill="#0A543B"/>
<path d="M751.411 315.553C753.79 309.068 761.54 309.144 768.639 306.842C775.737 304.578 786.096 296.059 786.096 296.059C786.096 296.059 776.811 293.411 764.879 292.989C752.908 292.605 751.411 315.553 751.411 315.553Z" fill="#7BC0B3"/>
<path d="M751.411 315.553C752.831 308.492 759.162 299.973 764.341 298.4C769.521 296.826 786.096 296.097 786.096 296.097C786.096 296.097 776.811 293.45 764.879 293.027C752.908 292.605 751.411 315.553 751.411 315.553Z" fill="#7BC0B3"/>
<path d="M760.889 330.212C754.635 329.598 747.307 330.634 740.554 333.282C752.525 329.252 767.028 336.735 769.407 332.552C771.939 328.063 783.565 319.39 783.987 319.083C774.241 323.074 767.258 330.826 760.889 330.212Z" fill="#0A543B"/>
<path d="M735.949 335.392C736.295 335.239 736.755 335.008 737.292 334.701C736.832 334.932 736.371 335.162 735.949 335.392Z" fill="#95C38B"/>
<path d="M768.562 332.86C766.222 323.957 758.049 317.203 751.642 313.097C746.539 309.835 738.788 306.113 735.066 304.348C734.299 303.964 733.455 304.77 733.762 305.576L734.568 307.725C735.373 309.874 737.1 311.562 739.287 312.33C745.963 314.709 760.582 321.04 765.378 332.169C765.953 333.435 768.984 334.433 768.562 332.86Z" fill="#7BC0B3"/>
<path d="M717.724 597.868C717.724 597.868 708.784 604.545 695.087 601.015C695.087 601.015 684.036 598.482 681.619 604.008C681.619 604.008 698.54 612.604 702.837 614.945C706.06 616.71 709.436 619.511 711.815 621.66C713.695 623.387 716.65 623.157 718.261 621.161C718.99 620.24 719.873 619.166 720.794 617.9C723.403 614.369 729.503 602.934 729.503 602.934L717.724 597.868Z" fill="#0A543B"/>
<path d="M712.468 594.453C712.468 594.453 717.916 607.001 730.463 604.699C730.463 604.699 756.093 583.517 773.666 561.567C779.383 554.429 784.217 547.215 787.095 540.576C798.759 513.6 830.221 473.346 850.211 452.931L800.178 434.818C800.178 434.818 784.14 467.052 762.807 506.692C747.46 535.204 729.35 567.553 712.468 594.453Z" fill="#0A543B"/>
<path d="M763 506.874L773.858 561.748C779.575 554.611 784.41 547.397 787.287 540.758C798.951 513.781 830.414 473.527 850.404 453.112L800.371 435C800.371 435.038 784.333 467.272 763 506.874Z" fill="#0A543B"/>
<path d="M803.708 605.121C803.708 605.121 804.245 615.137 792.12 616.48C792.12 616.48 785.176 616.518 785.176 622.888L820.437 623.003C820.437 623.003 821.473 620.432 821.703 614.945C821.895 610.724 817.597 599.672 817.597 599.672L803.708 605.121Z" fill="#0A543B"/>
<path d="M816.6 434.818C816.6 434.818 794.308 459.301 780.15 503.469C772.438 527.491 794.27 587.853 798.529 608.843C798.529 608.843 813.147 610.071 823.161 606.234C823.161 606.234 823.929 562.91 818.058 529.525C814.797 510.837 847.41 489.539 861.684 455.77C871.391 432.785 859.573 433.168 845.07 432.631L816.6 434.818Z" fill="#0A543B"/>
<path d="M842.346 325.492C854.739 332.514 880.139 326.029 880.139 326.029C880.139 326.029 869.818 314.248 874.499 295.253L864.753 300.203L854.278 305.499C854.278 305.499 853.588 308.837 853.127 314.862C853.012 316.397 852.897 318.162 852.82 320.043C846.49 322 842.346 325.492 842.346 325.492Z" fill="#FFB07B"/>
<path d="M796.84 433.552C796.84 435.74 799.334 436.776 799.871 436.891C804.859 437.812 818.825 443.222 831.41 444.489C842 445.602 851.86 444.527 862.642 442.378C864.062 442.071 867.438 441.189 867.668 439.807C867.975 438.311 909.337 355.423 877.184 319.812C876.416 318.968 870.086 320.465 864.254 321.846C858.882 323.113 853.971 322.422 849.558 320.657L844.11 323.535C837.434 327.257 824.772 340.496 823.276 350.895C822.508 356.191 819.516 360.105 818.633 364.748C818.326 366.475 817.981 368.163 817.636 369.775C816.983 372.998 816.293 376.03 815.602 378.946C813.722 386.813 811.727 393.567 809.77 399.4C807.698 405.616 805.626 410.758 803.823 415.094C801.444 420.697 799.449 424.88 798.183 428.065C797.339 430.329 796.84 432.094 796.84 433.552Z" fill="#7BC0B3"/>
<path d="M798.222 428.065C856.657 400.551 876.877 347.672 876.877 347.672C876.877 347.672 829.415 365.17 817.713 369.737C817.061 372.96 816.37 375.991 815.679 378.908C813.799 386.774 811.804 393.528 809.847 399.361C807.775 405.578 805.704 410.72 803.9 415.056C801.483 420.697 799.488 424.88 798.222 428.065Z" fill="#7BC0B3"/>
<path d="M758.625 413.521C758.625 413.521 750.491 410.183 748.649 410.451C746.769 410.72 741.627 409.415 741.896 411.103C742.088 412.255 748.764 413.483 748.764 413.483C748.764 413.483 741.32 411.794 741.896 413.559C742.28 414.749 743.891 419.507 746.347 421.081C749.301 422.961 754.634 422.04 760.888 421.157C772.322 419.546 758.625 413.521 758.625 413.521Z" fill="#FFB07B"/>
<path d="M759.891 419.277C758.011 414.404 757.167 412.216 757.167 412.216C757.167 412.216 795.305 381.134 799.219 378.447C801.866 376.644 828.226 356.92 841.079 341.57C847.448 333.934 857.501 330.48 867.247 332.514L875.266 334.203C884.935 336.236 888.081 348.478 880.561 354.886C859.419 372.998 823.813 394.027 817.176 398.363C800.677 409.223 764.188 424.419 764.188 424.419C764.188 424.419 761.349 423.076 759.891 419.277Z" fill="#7BC0B3"/>
<path d="M853.165 314.901C865.366 315.591 873.309 305.499 873.309 305.499C873.309 305.499 867.783 302.429 864.791 300.203L854.316 305.499C854.278 305.537 853.625 308.876 853.165 314.901Z" fill="#EA8E50"/>
<path d="M847.948 302.391C847.948 302.391 866.441 315.668 874.499 304.002C882.556 292.337 890.422 286.235 878.95 277.294C867.477 268.315 862.106 271.155 858.461 274.378C854.816 277.601 843.343 298.63 847.948 302.391Z" fill="#FFB07B"/>
<path d="M856.503 263.863C857.156 259.374 858.652 256.227 858.652 256.227C858.652 256.227 859.803 261.024 868.59 260.371C877.376 259.719 891.304 261.254 895.908 271.231C896.215 271.884 896.484 272.536 896.714 273.188C897.558 270.963 897.75 267.662 897.75 267.662C899.4 271.96 897.75 277.371 897.75 277.371C897.788 277.524 897.788 277.678 897.827 277.831C899.745 279.482 901.395 284.547 901.395 284.547C900.819 283.127 899.4 282.206 898.095 281.63C898.133 289.42 894.987 297.018 889.424 299.282C881.328 302.583 881.366 300.05 873.232 305.461C873.232 305.461 871.045 302.736 872.542 300.932C874.038 299.129 879.678 296.443 876.532 293.795C873.386 291.147 872.235 294.14 871.084 292.298C869.933 290.495 875.726 285.161 868.283 280.211C860.839 275.299 855.851 268.353 856.503 263.863Z" fill="#0A543B"/>
<path d="M909.528 621.238H868.014C865.788 619.358 869.548 615.06 873.5 614.791C875.227 614.676 877.376 615.021 879.831 615.559C880.407 607.961 883.668 573.846 895.946 575.228C909.759 576.763 895.946 590.27 892.032 598.252C889.155 604.162 886.085 612.642 884.704 616.671C885.817 616.902 887.006 617.17 888.157 617.362C889.999 611.721 896.828 592.803 905.5 593.916C915.667 595.221 911.6 602.78 904.387 607.308C899.092 610.608 892.608 615.328 889.5 617.592C892.109 618.015 894.833 618.322 897.634 618.245C904.694 618.015 908.186 620.125 909.528 621.238Z" fill="#7BC0B3"/>
<path d="M109.734 621.238H151.249C153.475 619.358 149.715 615.06 145.763 614.791C144.036 614.676 141.887 615.021 139.432 615.559C138.856 607.961 135.595 573.846 123.317 575.228C109.504 576.763 123.317 590.27 127.23 598.252C130.108 604.162 133.178 612.642 134.559 616.671C133.446 616.902 132.257 617.17 131.106 617.362C129.264 611.721 122.434 592.803 113.763 593.916C103.595 595.221 107.662 602.78 114.876 607.308C120.171 610.608 126.655 615.328 129.763 617.592C127.154 618.015 124.43 618.322 121.629 618.245C114.53 618.015 111.077 620.125 109.734 621.238Z" fill="#7BC0B3"/>
<path d="M492.73 558.075C494.495 567.016 496.682 574.729 499.215 581.406C518.859 633.211 559.875 622.044 599.856 622.044C645.015 622.044 644.939 591.805 644.939 550.899C644.939 509.993 619.922 477.49 574.762 477.49C529.641 477.528 484.75 517.974 492.73 558.075Z" fill="#FFB93E"/>
<path d="M668.842 563.217C669.111 523.845 640.488 492.226 602.273 481.711C563.29 471.005 530.869 497.214 530.945 535.396C531.022 573.77 564.058 611.76 603.616 616.863C641.908 621.775 668.612 601.514 668.842 563.217Z" fill="#FFDA9F"/>
<path d="M599.241 540.154L610.445 498.058C611.289 494.912 608.833 491.228 605.457 490.499C601.313 489.616 595.596 488.618 589.534 488.426C582.513 488.196 576.642 488.772 572.537 489.424C569.39 489.923 568.124 493.453 569.966 496.6L595.788 540.116C596.709 541.651 598.858 541.689 599.241 540.154Z" fill="#FFB93E"/>
<path d="M608.949 553.086L650.886 579.296C653.994 581.253 657.562 580.025 658.176 576.801C658.943 572.887 659.672 567.361 659.672 561.221C659.672 554.122 658.905 547.867 658.138 543.493C657.562 540.078 653.994 537.545 650.963 538.351L608.872 549.556C607.376 549.978 607.414 552.127 608.949 553.086Z" fill="#FFB93E"/>
<path d="M606.339 545.296L647.816 534.245C650.885 533.439 651.883 529.678 649.811 526.608C647.279 522.848 643.595 517.782 639.029 512.794C633.734 506.999 628.708 502.548 625.025 499.555C622.186 497.253 618.464 497.905 617.466 500.898L603.73 542.495C603.231 543.953 604.843 545.68 606.339 545.296Z" fill="#FFB93E"/>
<path d="M602.349 556.962L615.164 603.279C616.123 606.733 619.845 608.997 622.838 607.922C626.445 606.618 631.279 604.545 636.037 601.552C641.523 598.099 645.706 594.415 648.507 591.652C650.655 589.503 649.849 585.474 646.818 583.401L605.035 555.197C603.539 554.199 601.889 555.273 602.349 556.962Z" fill="#FFB93E"/>
<path d="M592.182 541.421L564.173 499.9C562.101 496.83 558.034 495.986 555.885 498.173C553.276 500.86 549.861 504.812 546.907 509.609C543.492 515.173 541.228 520.43 539.847 524.268C538.773 527.222 540.998 530.983 544.336 531.866L590.57 544.184C592.182 544.606 593.179 542.917 592.182 541.421Z" fill="#FFB93E"/>
<path d="M590.532 547.983L544.873 540.039C541.458 539.464 539.003 542.188 539.847 545.642C540.844 549.863 542.494 555.657 545.027 561.72C547.981 568.743 551.204 574.614 553.66 578.643C555.54 581.751 559.53 582.749 561.717 580.639L591.99 551.436C593.103 550.4 592.182 548.251 590.532 547.983Z" fill="#FFB93E"/>
<path d="M594.599 555.043L569.967 588.735C568.125 591.23 569.429 595.336 572.614 597.101C576.528 599.25 581.976 601.974 588.038 604.162C595.06 606.694 601.199 608.076 605.496 608.882C608.834 609.496 611.251 606.771 610.33 603.356L598.014 556.271C597.63 554.583 595.52 553.854 594.599 555.043Z" fill="#FFB93E"/>
<path d="M494.034 344.256C494.226 343.489 477.689 351.739 476.884 352.66C469.133 361.256 471.359 372.461 475.771 372.576C478.61 372.653 478.073 377.373 478.073 377.373L509.727 363.98C509.689 363.942 505.89 341.723 494.034 344.256Z" fill="#0A543B"/>
<path d="M497.91 345.983C497.91 345.983 499.022 333.665 485.248 333.665C485.248 333.665 489.43 334.816 491.579 337.08C491.579 337.08 482.792 331.938 473.239 339.843C463.685 347.787 469.632 367.664 466.716 371.425C463.8 375.185 452.481 375.953 453.862 388.156C455.244 400.359 489.814 415.67 487.588 425.762C487.588 425.762 501.133 405.846 491.464 396.751C491.464 396.751 496.183 401.203 496.682 406.498C496.682 406.498 497.948 396.176 491.387 392.876C485.593 389.959 480.797 379.253 481.334 377.373C481.795 375.454 497.91 345.983 497.91 345.983Z" fill="#0A543B"/>
<path d="M485.402 404.004C483.291 393.758 470.016 390.612 463.723 398.939C462.611 400.435 461.805 402.201 461.536 404.311C460.117 415.938 478.687 463.253 481.335 467.551C486.169 475.341 514.677 502.087 514.677 502.087L519.933 498.902C519.933 498.902 499.713 464.673 496.567 461.45C492.999 457.766 489.43 423.46 485.402 404.004Z" fill="#ED985F"/>
<path d="M512.721 498.941C512.721 498.941 520.394 493.914 523.31 494.221C526.226 494.528 534.629 496.945 534.706 498.212C534.821 499.44 525.344 500.207 524.692 500.898C524.039 501.589 517.632 505.848 515.291 504.505C512.951 503.162 512.721 498.941 512.721 498.941Z" fill="#ED985F"/>
<path d="M459.196 612.719L452.328 611.721C452.328 611.721 429.307 593.417 425.854 559.264C425.508 555.772 425.432 552.242 425.7 548.711C425.739 548.289 425.7 547.906 425.47 547.56C424.741 546.447 422.899 543.608 420.405 539.579C417.95 535.626 413.768 528.105 409.163 519.701C400.876 504.543 391.168 486.393 387.869 480.636C377.317 462.217 382.382 449.861 382.382 449.861C382.382 449.861 411.888 446.944 419.945 439.884L422.861 444.373C422.861 444.373 429.269 472.655 428.962 472.808C429.269 473.768 429.614 474.765 429.921 475.763C434.947 491.343 440.779 510.798 443.925 526.608C445.69 535.511 446.65 543.301 446.151 548.596C445.959 550.4 446.189 553.201 446.688 556.655C449.527 576.801 459.196 612.719 459.196 612.719Z" fill="#0A543B"/>
<path d="M473.585 621.391H445C445 621.391 444.309 617.017 445.806 613.717C447.225 610.532 449.259 610.455 446.074 605.466C447.878 607.347 453.748 608.114 457.853 607.539C458.352 608.344 461.115 613.87 462.803 615.098C464.683 616.441 473.009 615.981 473.585 621.391Z" fill="#0A543B"/>
<path d="M429.921 475.609C427.427 489.386 421.518 512.295 409.163 519.586C400.876 504.428 391.168 486.277 387.869 480.521C377.317 462.102 382.382 449.745 382.382 449.745C382.382 449.745 411.887 446.829 419.945 439.768L422.861 444.258C422.861 444.258 429.268 472.54 428.962 472.693C429.268 473.652 429.614 474.612 429.921 475.609Z" fill="#0A543B"/>
<path d="M482.332 397.672C482.332 397.672 486.361 401.893 488.203 406.92C488.203 406.92 481.757 425.455 466.678 427.757C466.716 427.757 478.649 397.672 482.332 397.672Z" fill="#7BC0B3"/>
<path d="M409.854 451.895L409.969 446.561C399.303 447.904 373.25 433.821 373.25 433.821C373.25 433.821 362.123 441.227 360.589 462.409C359.86 472.732 355.14 516.439 354.603 529.486C354.411 534.206 354.335 537.583 354.335 538.926C354.335 539.348 354.143 539.694 353.874 540.039C351.687 542.84 349.769 545.795 348.119 548.903C331.851 579.142 340.368 620.24 340.368 620.24L344.129 619.281C344.129 619.281 357.864 576.686 366.843 558.267C368.377 555.158 369.759 552.702 370.91 551.321C374.286 547.215 377.855 540.269 381.346 531.865C387.984 516.017 394.43 495.103 399.034 478.91C399.341 478.91 409.854 451.895 409.854 451.895Z" fill="#0A543B"/>
<path d="M472.203 416.207C454.783 412.216 465.91 387.734 466.908 388.156C469.325 387.657 474.62 383.436 479.378 375.147L480.03 375.684L490.735 385.047C490.735 385.047 488.279 388.693 486.169 392.262C484.557 395.063 483.176 397.826 483.368 398.747C484.25 399.476 476.845 417.281 472.203 416.207Z" fill="#FFB27D"/>
<path d="M490.697 385.086C490.697 385.086 488.242 388.731 486.131 392.3C479.494 388.194 479.494 379.982 479.992 375.684L490.697 385.086Z" fill="#ED985F"/>
<path d="M491.004 389.806C491.004 389.806 474.851 380.826 480.606 370.849C486.361 360.872 488.126 353.006 498.677 358.339C509.229 363.673 509.037 368.624 507.924 372.384C506.812 376.145 495.378 391.878 491.004 389.806Z" fill="#FFB27D"/>
<path d="M510.648 366.551C509.919 362.138 507.656 361.716 506.083 361.985C500.135 352.123 490.39 355.96 490.39 355.96C485.172 362.484 477.651 363.597 477.651 363.597C477.651 363.597 479.531 367.089 487.244 369.238C489.584 369.89 492.27 369.506 494.84 368.624C489.469 371.617 483.867 372.768 483.867 372.768C494.035 373.689 503.704 364.403 504.74 363.405C505.2 364.863 506.044 367.856 505.545 370.082C504.893 373.075 502.207 378.524 503.857 379.215C503.895 379.215 511.761 373.19 510.648 366.551Z" fill="#0A543B"/>
<path d="M363.083 621.391H334.498C334.498 621.391 333.807 617.017 335.304 613.717C336.723 610.532 338.987 609.112 338.45 605.274C340.253 607.155 343.208 609.227 347.351 608.69C347.85 609.496 350.613 613.908 352.301 615.136C354.181 616.441 362.507 615.981 363.083 621.391Z" fill="#0A543B"/>
<path d="M474.275 435.586C470.591 436.852 465.45 437.581 460.155 438.157C452.635 438.963 444.884 439.538 440.817 441.15C439.321 441.725 438.362 442.454 438.016 443.414C436.251 448.709 428.501 456.883 428.501 456.883C378.737 454.619 373.25 433.782 373.25 433.782C406.746 394.833 463.455 383.551 463.455 383.551C463.455 383.551 467.522 381.824 477.689 389.959C484.481 395.37 483.598 397.442 483.598 397.442C483.598 397.442 485.095 431.825 474.275 435.586Z" fill="#7BC0B3"/>
<path d="M460.117 438.157C452.597 438.963 444.847 439.538 440.78 441.15C439.13 416.322 450.832 397.634 450.832 397.634C450.832 397.634 458.506 428.755 460.117 438.157Z" fill="#7BC0B3"/>
<path d="M467.867 392.876C467.867 392.876 449.028 394.756 447.532 406.997C446.035 419.239 465.603 469.086 468.404 473.614C473.507 481.826 503.55 509.992 503.55 509.992L509.075 506.654C509.075 506.654 487.78 470.583 484.481 467.206C479.263 461.872 474.236 397.097 467.867 392.876Z" fill="#FFB27D"/>
<path d="M448.069 414.327C448.108 414.595 465.45 420.006 476.616 414.327C476.616 414.327 478.994 388.578 465.68 389.959C452.367 391.341 444.463 395.562 444.156 401.932C443.81 408.34 448.069 414.327 448.069 414.327Z" fill="#7BC0B3"/>
<path d="M501.823 506.385C501.823 506.385 508.576 500.169 511.492 500.015C514.408 499.862 523.079 500.898 523.386 502.087C523.693 503.277 514.485 505.579 513.948 506.347C513.411 507.114 507.77 512.372 505.276 511.451C502.744 510.53 501.823 506.385 501.823 506.385Z" fill="#FFB27D"/>
</g>
<defs>
<clipPath id="clip0_136_1809">
<rect width="985" height="622" fill="white" transform="translate(0 0.079834)"/>
</clipPath>
</defs>
</svg>
