<svg width="75" height="75" viewBox="0 0 75 75" fill="none" xmlns="http://www.w3.org/2000/svg">
<path fill-rule="evenodd" clip-rule="evenodd" d="M31.9005 23.8999C31.9005 26.9892 33.9549 28.7347 36.2563 29.1054C36.2563 32.9979 36.1636 37.0294 36.0555 41.0918L33.6768 38.6204C28.0236 32.5499 30.8811 29.2289 23.0655 23.8999C17.8756 20.3627 14.2458 17.9685 12.3306 19.8839C19.4511 27.0047 27.6992 35.6238 35.6076 43.7795C31.5762 47.5793 27.5602 51.3637 24.4865 54.4529C22.8029 56.1366 25.3515 58.6853 27.0351 57.0016C30.7884 53.2481 34.4028 49.3711 38.048 45.5095L35.8238 49.3556C35.7157 53.4335 35.623 57.5268 35.623 61.5737C35.623 63.7208 38.8512 63.7208 38.8512 61.5737C38.8512 56.6927 38.7276 51.7498 38.5732 46.8379C41.9249 50.2979 45.184 53.6189 48.2269 56.6618C49.6633 58.0983 51.8412 55.9204 50.4048 54.4838C49.7097 53.7887 44.3191 49.0467 39.2682 44.212C42.5891 40.6902 45.8636 37.2147 48.613 34.4035C51.3624 31.6077 50.9145 36.3652 55.9962 32.5808C60.3365 29.3525 64.2288 21.9228 61.8965 19.5749C59.317 16.9954 51.8876 21.0423 48.7675 25.4755C45.2149 30.5419 49.8023 30.1866 47.1457 32.7816C43.7939 36.0717 40.3649 39.2846 36.9359 42.5129L38.3724 40.026C38.2797 36.3188 38.2025 32.6581 38.2025 29.0899C40.5039 28.7192 42.5582 26.9738 42.5582 23.8845V16.9027V11.2339C42.5582 9.95182 40.6275 9.95182 40.6275 11.2339V21.2123C40.6275 21.8456 39.6544 21.8456 39.6544 21.2123V11.2339C39.6544 9.95182 37.7237 9.95182 37.7237 11.2339V21.2123C37.7237 21.8456 36.7506 21.8456 36.7506 21.2123V11.2339C36.7506 9.95182 34.8198 9.95182 34.8198 11.2339V21.2123C34.8198 21.8456 33.8467 21.8456 33.8467 21.2123V11.2339C33.8467 9.95182 31.916 9.95182 31.916 11.2339V16.9027V23.8999H31.9005ZM52.181 0.00433968C88.1546 0.359607 78.2847 60.508 43.9947 72.4944C17.474 82.4728 -3.42429 44.2737 0.468078 24.317C4.12876 5.53414 32.4257 -0.181017 52.181 0.00433968Z" fill="#2D856F"/>
</svg>
