<svg width="599" height="655" viewBox="0 0 599 655" fill="none" xmlns="http://www.w3.org/2000/svg">
<path d="M462.935 625.797C461.494 625.509 459.958 625.221 458.517 624.837C456.981 624.452 455.54 624.068 454.1 623.588C452.563 623.012 451.122 622.436 449.682 621.763C448.241 621.091 446.897 620.419 445.552 619.651C443.151 618.402 440.943 616.962 438.734 615.329C437.677 614.561 436.621 613.792 435.661 613.024C434.604 612.16 433.548 611.296 432.491 610.431C432.395 610.431 432.395 610.335 432.395 610.335C432.203 610.143 432.011 609.951 431.819 609.759C431.723 609.663 431.627 609.567 431.531 609.471C431.243 609.183 430.955 608.895 430.571 608.51C429.994 607.934 429.418 607.358 428.938 606.686C426.825 604.285 425.001 601.5 423.368 598.715C421.735 595.93 420.391 593.049 419.334 590.072C418.278 586.998 417.606 583.829 417.51 580.564C417.51 579.796 417.51 578.931 417.51 578.163C417.51 577.299 417.606 576.338 417.702 575.474C417.894 573.841 418.182 572.305 418.566 570.768C418.95 569.232 419.334 567.791 419.815 566.255C420.295 564.718 420.871 563.181 421.543 561.741C422.696 558.956 424.04 556.171 425.385 553.482C426.729 550.697 428.266 548.008 429.994 545.415C431.723 542.822 433.74 540.325 435.949 538.212C437.005 537.156 438.158 536.099 439.214 535.043C440.174 534.178 441.135 533.218 441.999 532.354C441.999 532.258 441.903 532.162 441.903 532.066C441.327 530.721 440.558 529.473 439.886 528.32C439.118 527.072 438.35 525.727 437.677 524.383C437.005 523.038 436.333 521.694 435.757 520.253C435.469 519.485 435.18 518.813 434.988 518.044C434.892 517.66 434.796 517.276 434.7 516.892C434.604 516.7 434.604 516.412 434.604 516.22C434.604 516.028 434.604 515.835 434.604 515.643C434.604 515.451 434.604 515.259 434.604 515.163C434.604 514.971 434.7 514.875 434.7 514.683C434.7 514.587 434.796 514.395 434.892 514.299C434.988 514.107 435.084 514.011 435.18 513.915C435.373 513.723 435.565 513.531 435.853 513.339C436.237 513.146 436.621 513.05 437.005 512.954C437.389 512.858 437.869 512.762 438.254 512.666C438.926 512.474 439.598 512.186 440.27 511.994C440.27 511.994 440.366 511.994 440.366 511.898C441.711 511.13 443.055 510.457 444.496 509.785C447.185 508.441 449.97 507.192 452.659 505.848C455.444 504.503 458.037 503.159 460.822 501.718C462.071 501.046 463.415 500.47 464.664 499.797C466.008 499.125 467.353 498.453 468.697 497.781C469.657 497.3 470.618 496.82 471.674 496.436C472.731 495.956 473.691 495.476 474.747 495.092C475.324 494.9 475.9 494.611 476.476 494.515C477.148 494.323 478.013 494.323 478.685 494.515C479.453 494.707 480.029 495.188 480.51 495.764C480.894 496.244 481.182 496.82 481.374 497.396C481.566 497.877 481.758 498.261 481.95 498.741C481.95 498.645 481.854 498.549 481.854 498.453C482.814 500.566 483.775 502.678 484.735 504.695C485.6 506.616 486.368 508.537 487.232 510.457C487.616 511.226 487.904 511.994 488.385 512.666C488.481 512.858 488.673 513.05 488.769 513.242C488.865 513.339 488.865 513.339 488.961 513.435H489.057C489.153 513.435 489.249 513.435 489.345 513.435C489.537 513.435 489.825 513.435 490.017 513.435C491.362 513.339 492.706 513.146 493.955 512.858C495.395 512.57 496.932 512.378 498.372 512.186C499.813 511.994 501.349 511.802 502.886 511.61C504.327 511.418 505.863 511.226 507.304 511.13C507.88 511.13 508.456 511.034 509.032 511.034C509.128 511.034 509.224 511.034 509.416 511.034C509.609 511.034 509.801 511.034 510.089 511.034C509.993 511.034 509.897 511.034 509.801 511.034C509.993 511.034 510.089 511.034 510.281 511.034C511.817 510.938 513.258 510.938 514.795 510.938C516.331 510.938 517.964 510.938 519.5 511.034C521.133 511.13 522.669 511.322 524.302 511.514C525.743 511.706 527.279 511.994 528.72 512.282C531.793 512.858 534.866 513.435 537.939 514.299C541.012 515.163 543.99 516.22 546.871 517.564C548.311 518.236 549.752 519.005 551 519.869C551.672 520.253 552.249 520.733 552.921 521.213C553.593 521.694 554.169 522.174 554.842 522.654C557.243 524.575 559.547 526.688 561.372 529.281C562.332 530.625 563.101 532.066 563.869 533.506C564.637 535.139 565.214 536.867 565.598 538.596C566.27 541.573 566.654 544.646 566.846 547.72C567.038 550.889 566.75 554.154 566.078 557.227C565.79 558.764 565.406 560.3 565.022 561.837C564.637 563.277 564.157 564.814 563.581 566.255C562.525 569.232 561.276 572.209 559.643 574.994C558.011 577.683 555.994 580.18 553.785 582.485C552.729 583.541 551.672 584.597 550.616 585.654C549.464 586.806 548.311 587.767 547.063 588.823C544.758 590.744 542.261 592.472 539.764 594.201C538.515 595.065 537.267 596.026 536.019 596.986C534.194 598.523 532.561 600.155 530.929 601.788C530.16 602.652 529.488 603.421 528.72 604.381C528.432 604.861 528.048 605.245 527.759 605.725C527.471 606.11 527.279 606.59 526.991 606.974C526.511 607.838 526.127 608.703 525.839 609.567C525.359 610.911 524.878 612.352 524.59 613.792C524.398 614.753 524.206 615.617 524.11 616.578C524.014 617.538 524.014 618.402 524.014 619.363C524.11 620.035 524.11 620.803 524.206 621.475C524.206 621.86 524.302 622.244 524.302 622.628C524.302 623.492 524.302 624.356 523.822 625.125C523.246 625.989 522.285 626.469 521.229 626.277C520.749 626.181 520.269 625.989 519.884 625.701C519.692 625.605 519.596 625.413 519.404 625.317C518.924 624.837 518.348 624.356 517.868 623.876C517.003 623.012 516.139 622.244 515.179 621.571C514.698 621.187 514.218 620.899 513.738 620.611C513.354 620.419 512.97 620.227 512.586 620.035C512.202 619.939 511.817 619.747 511.433 619.651C510.953 619.555 510.569 619.459 510.089 619.459C509.128 619.363 508.168 619.363 507.112 619.363C506.439 619.363 505.863 619.459 505.191 619.555C503.558 619.843 501.926 620.419 500.293 620.899C498.756 621.379 497.316 621.86 495.779 622.244C494.339 622.628 492.898 623.012 491.458 623.3C489.921 623.684 488.385 623.972 486.944 624.26C485.503 624.549 484.063 624.933 482.526 625.221C479.453 625.797 476.38 626.373 473.307 626.565C472.923 626.565 472.443 626.565 472.058 626.565C468.409 626.661 465.72 626.277 462.935 625.797ZM434.796 606.59C434.604 606.398 434.316 606.11 434.124 605.917C434.316 606.11 434.508 606.302 434.796 606.59Z" fill="#F8D5CF"/>
<path d="M438.254 512.666C437.966 512.666 437.774 512.57 437.582 512.378C437.486 512.282 437.39 512.09 437.293 511.898C437.005 511.514 436.813 511.13 436.525 510.746C436.045 509.977 435.469 509.113 434.989 508.345C433.932 506.712 432.876 504.983 431.819 503.351C429.707 500.085 427.594 496.724 425.481 493.363C424.425 491.634 423.368 489.906 422.312 488.177C421.351 486.544 420.295 484.912 419.335 483.183C418.374 481.454 417.414 479.726 416.358 478.093C415.397 476.461 414.437 474.828 413.476 473.099C412.612 471.659 411.844 470.122 411.076 468.586C410.691 467.817 410.307 467.049 410.019 466.185C409.635 465.32 409.251 464.456 408.963 463.592C408.291 462.055 407.714 460.519 407.138 458.982C406.562 457.541 405.986 456.197 405.505 454.756C405.217 454.084 404.929 453.412 404.737 452.74C404.449 452.067 404.161 451.299 403.873 450.627C403.681 450.051 403.393 449.474 403.297 448.802C403.201 448.418 403.201 448.034 403.297 447.65C403.393 447.073 403.969 446.593 404.641 446.593C404.833 446.593 405.121 446.593 405.313 446.689C405.601 446.785 405.89 446.881 406.082 447.073C406.466 447.362 406.85 447.65 407.138 447.938C407.81 448.61 408.387 449.282 408.867 450.051C409.923 451.683 410.787 453.316 411.748 455.044C412.324 456.197 412.996 457.349 413.573 458.406V458.502V458.406C413.573 458.502 413.669 458.502 413.669 458.598C413.669 458.694 413.765 458.694 413.765 458.79C413.957 459.078 414.053 459.462 414.245 459.75C414.821 460.999 415.397 462.151 415.973 463.4C416.742 465.032 417.606 466.569 418.47 468.201C419.335 469.834 420.199 471.467 421.063 473.099C422.024 474.828 422.888 476.557 423.848 478.189C424.809 479.918 425.769 481.55 426.73 483.279C427.69 484.912 428.554 486.64 429.515 488.273C430.475 489.906 431.339 491.538 432.3 493.075C434.124 496.148 436.045 499.221 437.966 502.294C438.35 502.871 438.638 503.351 439.022 503.831C439.598 504.695 440.271 505.56 440.847 506.424C441.135 506.808 441.423 507.192 441.711 507.576C441.903 507.864 442.191 508.249 442.383 508.537C442.672 508.921 442.575 509.497 442.191 509.881C441.807 510.169 441.231 510.073 440.847 509.689C440.463 509.209 440.079 508.633 439.694 508.056C439.214 507.384 438.638 506.616 438.158 505.944C437.101 504.407 436.141 502.871 435.181 501.334C433.26 498.261 431.339 495.188 429.515 492.018C428.65 490.482 427.69 488.945 426.826 487.409C425.865 485.68 424.905 483.951 423.944 482.223C423.464 481.358 422.984 480.59 422.504 479.726C422.024 478.861 421.544 477.997 421.063 477.133C420.199 475.5 419.239 473.868 418.374 472.235C417.51 470.602 416.646 468.97 415.781 467.241C414.917 465.608 414.149 463.976 413.284 462.343C412.804 461.383 412.42 460.519 411.94 459.558C411.94 459.558 411.94 459.462 411.844 459.462C411.844 459.462 411.844 459.366 411.748 459.366C411.748 459.27 411.652 459.27 411.652 459.174C411.652 459.174 411.652 459.27 411.748 459.27C410.98 457.83 410.211 456.389 409.443 455.044C408.675 453.604 407.906 452.259 407.042 450.915C406.754 450.435 406.37 450.051 406.082 449.666C405.794 449.378 405.601 449.09 405.313 448.898C405.217 448.802 405.217 448.802 405.121 448.706C405.217 448.898 405.217 449.09 405.313 449.282C405.505 449.955 405.794 450.531 406.082 451.107C406.37 451.875 406.658 452.548 406.946 453.316C407.522 454.66 408.002 456.005 408.579 457.349C409.155 458.886 409.827 460.422 410.403 461.959C411.076 463.592 411.748 465.32 412.516 466.953C412.804 467.529 412.996 468.009 413.284 468.586C413.284 468.586 413.284 468.49 413.188 468.49C413.957 470.026 414.821 471.467 415.685 473.003C416.646 474.636 417.51 476.268 418.47 477.901C419.527 479.63 420.487 481.358 421.448 483.087C422.408 484.816 423.464 486.448 424.521 488.177C426.633 491.634 428.746 494.996 430.859 498.357C431.915 499.989 432.972 501.622 434.028 503.255C435.085 504.887 436.045 506.52 437.101 508.153C437.774 509.209 438.35 510.169 439.022 511.226C439.118 511.418 439.214 511.61 439.214 511.802C439.214 512.282 438.83 512.666 438.254 512.666C438.254 512.666 438.35 512.666 438.254 512.666ZM438.926 511.13C438.83 511.034 438.83 511.034 438.83 511.034C438.83 511.034 438.83 511.034 438.734 511.034C438.83 511.034 438.926 511.034 438.926 511.13ZM438.734 510.938C438.734 510.938 438.638 510.938 438.734 510.938C438.638 510.842 438.638 510.842 438.542 510.842H438.446C438.446 510.842 438.446 510.842 438.35 510.842C438.446 510.842 438.638 510.842 438.734 510.938Z" fill="#579D8C"/>
<path d="M446.13 509.497C445.842 509.497 445.554 509.209 445.362 509.017C445.265 508.825 445.073 508.633 444.977 508.44C444.497 507.576 444.017 506.712 443.537 505.848C442.576 504.215 441.712 502.582 440.752 500.95C439.791 499.221 438.831 497.492 437.871 495.764C436.91 494.035 436.046 492.306 435.086 490.578C434.221 488.849 433.261 487.216 432.397 485.488C431.436 483.759 430.572 481.934 429.612 480.11C427.883 476.652 426.25 473.099 424.618 469.642C423.753 467.913 422.889 466.185 422.025 464.456C421.641 463.592 421.16 462.727 420.776 461.863C420.584 461.479 420.392 460.999 420.2 460.614C420.2 460.518 420.104 460.518 420.104 460.422C420.104 460.326 420.008 460.326 420.008 460.23C419.336 458.886 418.567 457.445 417.991 456.005C417.319 454.564 416.839 453.028 416.263 451.491V451.587C415.974 450.819 415.686 449.954 415.494 449.09C415.398 448.706 415.302 448.322 415.206 447.938C415.11 447.457 415.014 446.977 415.11 446.497C415.206 446.017 415.398 445.633 415.782 445.441C416.166 445.153 416.743 445.153 417.127 445.249C417.511 445.345 417.799 445.633 418.087 445.825C418.279 446.017 418.471 446.209 418.663 446.401C419.336 447.073 419.912 447.938 420.392 448.706C421.448 450.339 422.505 452.067 423.465 453.796C424.426 455.524 425.29 457.157 426.25 458.886C427.115 460.422 427.979 462.055 428.747 463.592C429.516 465.128 430.284 466.665 431.052 468.201C431.148 468.393 431.244 468.489 431.244 468.681C431.244 468.681 431.244 468.585 431.148 468.585C432.012 470.218 432.877 471.947 433.741 473.579C434.605 475.212 435.47 476.845 436.334 478.573C437.198 480.302 438.159 482.03 439.023 483.759C439.887 485.392 440.848 487.024 441.712 488.657C442.576 490.194 443.441 491.73 444.401 493.363C445.265 494.803 446.034 496.34 446.802 497.78C447.57 499.125 448.339 500.566 449.107 501.91C449.683 502.966 450.355 503.927 451.028 504.887C451.316 505.271 451.316 505.847 450.836 506.232C450.451 506.52 449.779 506.52 449.491 506.04C449.107 505.559 448.819 505.079 448.531 504.599C448.147 503.927 447.666 503.255 447.282 502.582C446.322 501.046 445.458 499.509 444.593 497.876C443.825 496.436 443.057 494.995 442.192 493.555C441.328 492.018 440.368 490.386 439.503 488.753C438.639 487.12 437.679 485.488 436.814 483.855C435.854 482.127 434.99 480.398 434.125 478.669C433.261 477.133 432.493 475.5 431.628 473.963C430.86 472.427 429.996 470.794 429.227 469.258C428.555 468.009 427.979 466.665 427.307 465.416C426.442 463.688 425.482 461.959 424.618 460.326C423.753 458.694 422.793 456.965 421.833 455.332C420.776 453.412 419.624 451.491 418.471 449.666C418.087 449.09 417.607 448.514 417.127 447.938C417.031 447.746 416.839 447.65 416.743 447.457C416.743 447.65 416.839 447.746 416.839 447.938C417.031 448.994 417.415 450.05 417.799 451.107V451.011C417.799 451.107 417.799 451.107 417.895 451.203C418.375 452.451 418.759 453.7 419.336 454.948C419.816 456.197 420.392 457.445 421.064 458.598C421.16 458.79 421.256 458.982 421.352 459.078C421.448 459.174 421.448 459.27 421.545 459.366C421.545 459.462 421.641 459.558 421.641 459.558C421.641 459.654 421.737 459.75 421.737 459.846C421.929 460.23 422.121 460.71 422.409 461.095C423.273 462.823 424.137 464.456 424.906 466.185C426.634 469.642 428.267 473.099 429.9 476.652C430.38 477.613 430.86 478.573 431.34 479.534C432.205 481.262 433.069 482.991 434.029 484.72C434.894 486.448 435.854 488.177 436.718 489.905C437.679 491.634 438.639 493.459 439.599 495.187C440.56 496.916 441.52 498.549 442.48 500.277C443.249 501.526 443.921 502.87 444.689 504.215C445.073 504.887 445.362 505.463 445.746 506.136C446.034 506.712 446.418 507.384 446.802 507.96C446.994 508.152 447.186 508.344 447.186 508.633C447.186 509.113 446.706 509.593 446.226 509.593C446.13 509.497 446.13 509.497 446.13 509.497Z" fill="#579D8C"/>
<path d="M453.428 504.887C453.236 504.791 453.043 504.599 452.947 504.311V504.215C452.851 504.119 452.851 503.927 452.755 503.831C452.659 503.639 452.563 503.351 452.467 503.159C452.275 502.678 451.987 502.198 451.795 501.718C451.411 500.854 451.027 499.989 450.643 499.125C449.778 497.3 448.914 495.476 448.05 493.651C447.185 491.826 446.225 490.002 445.457 488.177C444.592 486.352 443.824 484.431 442.96 482.607C442.191 480.782 441.423 479.053 440.559 477.229C439.694 475.404 438.926 473.579 438.062 471.851C436.333 468.201 434.701 464.552 433.068 460.807C431.531 457.253 429.899 453.7 428.746 450.05C428.458 449.186 428.17 448.322 427.978 447.458C427.882 446.977 427.69 446.401 427.786 445.921C427.882 445.441 428.074 444.961 428.458 444.768C428.65 444.672 428.938 444.576 429.13 444.576C429.419 444.576 429.707 444.576 429.995 444.768C430.379 444.961 430.763 445.249 431.051 445.537C431.243 445.729 431.435 445.921 431.531 446.113C431.819 446.497 432.108 446.881 432.396 447.265C432.972 448.13 433.452 448.994 433.932 449.858C434.893 451.683 435.853 453.412 436.813 455.236C437.774 457.061 438.734 458.79 439.694 460.614C439.983 461.191 440.271 461.767 440.559 462.343C440.559 462.343 440.559 462.247 440.463 462.247C440.559 462.343 440.559 462.439 440.655 462.535C440.751 462.727 440.847 462.823 440.847 463.015C441.135 463.592 441.423 464.072 441.711 464.648C441.711 464.648 441.711 464.552 441.615 464.552C442.48 466.377 443.44 468.105 444.304 469.834C445.169 471.563 446.033 473.387 446.897 475.212C447.762 477.037 448.53 478.765 449.394 480.59C450.162 482.415 451.027 484.143 451.891 485.968C452.371 486.928 452.755 487.889 453.236 488.753C453.236 488.753 453.236 488.657 453.14 488.657C454.868 492.018 456.693 495.38 458.518 498.741C458.902 499.509 459.286 500.181 459.766 500.95C460.054 501.334 459.862 502.006 459.478 502.198C458.998 502.486 458.518 502.294 458.229 501.91C457.749 501.238 457.365 500.47 456.981 499.797C456.501 498.933 456.117 498.165 455.636 497.3C454.772 495.668 453.812 493.939 452.947 492.306C451.987 490.578 451.123 488.849 450.354 487.024C449.49 485.2 448.626 483.375 447.858 481.55C447.089 479.822 446.225 477.997 445.457 476.268C444.592 474.444 443.728 472.619 442.864 470.794C442.864 470.698 442.768 470.698 442.768 470.602C441.615 468.297 440.463 465.993 439.31 463.784C439.31 463.784 439.31 463.88 439.406 463.88C439.31 463.784 439.31 463.688 439.214 463.592C439.118 463.4 439.022 463.303 439.022 463.111C439.022 463.111 439.022 463.015 438.926 463.015C438.926 463.015 438.926 463.111 439.022 463.111C438.158 461.383 437.198 459.558 436.237 457.829C435.277 456.101 434.316 454.276 433.356 452.547C432.588 451.107 431.819 449.762 430.955 448.322C430.667 447.938 430.379 447.554 430.091 447.169C429.995 447.073 429.803 446.881 429.707 446.785V446.881C429.803 447.458 429.899 447.938 430.091 448.514C430.283 449.09 430.475 449.762 430.667 450.339C431.339 452.163 432.012 453.892 432.684 455.621C433.452 457.445 434.22 459.174 435.085 460.999C436.717 464.648 438.446 468.297 440.079 472.043C440.847 473.771 441.711 475.596 442.48 477.325C443.344 479.149 444.112 481.07 444.976 482.895C445.841 484.72 446.609 486.64 447.473 488.465C448.338 490.29 449.202 492.114 450.066 493.939C450.931 495.668 451.795 497.492 452.659 499.317C453.044 500.181 453.524 501.142 453.908 502.006C454.1 502.39 454.292 502.87 454.484 503.255C454.58 503.447 454.676 503.639 454.772 503.831C454.868 504.023 454.868 504.215 454.868 504.311C454.868 504.599 454.676 504.887 454.388 504.983C454.196 505.079 454.1 505.079 453.908 505.079C453.716 504.983 453.62 504.983 453.428 504.887ZM454.484 503.447C454.484 503.351 454.484 503.351 454.484 503.447C454.484 503.351 454.484 503.351 454.484 503.447C454.388 503.351 454.388 503.351 454.292 503.351C454.388 503.351 454.484 503.351 454.484 503.447Z" fill="#579D8C"/>
<path d="M462.264 500.278C462.264 499.797 462.648 499.317 463.224 499.317C463.704 499.317 464.184 499.701 464.184 500.278C464.184 500.758 463.8 501.238 463.224 501.238C462.648 501.238 462.264 500.758 462.264 500.278Z" fill="#315760"/>
<path d="M462.647 501.334C462.455 501.238 462.359 501.046 462.167 500.854C462.071 500.662 461.975 500.47 461.879 500.277C461.399 499.413 461.015 498.549 460.63 497.588C459.862 495.764 458.998 493.939 458.23 492.114C456.693 488.465 455.156 484.912 453.716 481.166C452.275 477.517 450.835 473.867 449.394 470.122C448.722 468.297 447.954 466.473 447.281 464.552C446.609 462.727 445.937 460.903 445.265 459.078C444.592 457.253 444.016 455.428 443.44 453.604C443.152 452.739 442.864 451.875 442.672 451.011C442.48 450.146 442.191 449.186 442.095 448.226C442.095 447.938 441.999 447.746 442.095 447.457C442.095 447.169 442.191 446.977 442.287 446.689C442.384 446.593 442.384 446.497 442.48 446.401C442.576 446.305 442.768 446.209 442.864 446.113C443.056 446.017 443.344 445.921 443.632 445.921C443.728 445.921 443.92 445.921 444.016 445.921C444.208 445.921 444.304 446.017 444.4 446.017C444.592 446.113 444.784 446.209 444.977 446.305C445.169 446.497 445.361 446.689 445.553 446.881C446.225 447.65 446.705 448.61 447.281 449.57C447.762 450.435 448.146 451.395 448.626 452.355C449.01 453.22 449.394 454.18 449.778 455.044C451.315 458.694 452.755 462.439 454.1 466.185C454.772 468.009 455.54 469.93 456.309 471.755C457.077 473.579 457.845 475.404 458.614 477.229C459.382 478.957 460.15 480.782 460.919 482.511C461.687 484.335 462.455 486.064 463.223 487.889C463.896 489.329 464.568 490.77 465.144 492.114C465.816 493.459 466.393 494.803 467.065 496.148C467.065 496.148 467.065 496.148 467.065 496.052C467.257 496.436 467.449 496.82 467.641 497.108C467.929 497.492 467.737 498.165 467.353 498.357C466.873 498.645 466.393 498.453 466.104 498.069C465.912 497.684 465.72 497.3 465.528 496.916C465.336 496.532 465.144 496.148 464.952 495.764C464.568 494.995 464.184 494.131 463.8 493.363C463.031 491.634 462.263 490.002 461.495 488.273C460.726 486.544 459.958 484.816 459.19 482.991C458.422 481.166 457.653 479.438 456.885 477.613C456.117 475.788 455.348 473.963 454.58 472.139C453.812 470.314 453.044 468.393 452.371 466.569C451.699 464.744 451.027 462.919 450.259 461.095C449.49 459.174 448.722 457.349 447.954 455.525C447.281 454.084 446.705 452.547 445.937 451.107C445.457 450.243 445.073 449.378 444.496 448.61C444.4 448.418 444.208 448.226 444.112 448.034C444.016 447.938 444.016 447.938 443.92 447.842C443.92 448.13 444.016 448.418 444.016 448.706C444.4 450.339 444.784 451.875 445.361 453.508C445.841 455.14 446.417 456.773 446.993 458.406C447.665 460.23 448.242 461.959 448.914 463.784C449.586 465.608 450.258 467.433 451.027 469.354C452.467 473.003 453.908 476.653 455.348 480.398C456.789 484.047 458.23 487.697 459.862 491.346C460.438 492.691 461.015 494.035 461.591 495.38C462.167 496.628 462.743 497.973 463.319 499.221C463.415 499.413 463.512 499.605 463.608 499.797C463.8 499.989 463.896 500.181 463.896 500.47C463.896 500.758 463.8 500.95 463.608 501.142C463.415 501.334 463.223 501.43 462.935 501.43C462.935 501.43 462.743 501.43 462.647 501.334Z" fill="#579D8C"/>
<path d="M469.946 498.165C469.658 497.781 469.562 497.3 469.37 496.82C469.082 495.956 468.794 494.995 468.506 494.131C467.929 492.21 467.353 490.29 466.777 488.465C465.624 484.624 464.376 480.782 463.416 476.941C462.455 473.099 461.495 469.162 460.823 465.224C460.15 461.383 459.67 457.445 459.958 453.508C460.054 452.547 460.054 451.587 460.246 450.627C460.343 450.05 460.535 449.378 460.919 448.898C461.207 448.514 461.591 448.322 461.975 448.322C462.455 448.226 462.935 448.514 463.32 448.802C463.8 449.09 464.088 449.57 464.376 450.05C464.568 450.435 464.76 450.723 464.856 451.107C465.048 451.587 465.24 452.067 465.336 452.547C465.624 453.508 465.913 454.564 466.105 455.525C466.585 457.445 466.969 459.366 467.353 461.287C467.737 463.207 468.121 465.128 468.506 467.049C469.178 470.89 469.85 474.828 470.618 478.669C470.618 478.765 470.714 478.957 470.714 479.053V478.957V479.053V479.149C471.483 482.991 472.443 486.736 473.307 490.482C473.596 491.634 473.884 492.787 474.172 493.939C474.268 494.419 473.98 494.899 473.499 495.091C473.019 495.188 472.443 494.899 472.347 494.419C471.867 492.691 471.483 490.866 471.003 489.041C470.522 487.12 470.138 485.296 469.658 483.375C469.466 482.415 469.178 481.454 468.986 480.398C468.89 480.11 468.89 479.918 468.794 479.63C468.794 479.534 468.794 479.438 468.698 479.342C468.698 479.246 468.698 479.246 468.698 479.149C468.698 478.957 468.602 478.861 468.602 478.669C468.506 478.189 468.41 477.613 468.314 477.133C467.929 475.116 467.545 473.195 467.161 471.178C466.777 469.258 466.489 467.337 466.105 465.416C465.913 464.36 465.721 463.4 465.528 462.343C465.144 460.614 464.856 458.982 464.472 457.253C464.088 455.525 463.704 453.892 463.128 452.163C462.935 451.779 462.839 451.395 462.647 451.011C462.551 450.819 462.455 450.627 462.359 450.435C462.263 450.339 462.263 450.243 462.167 450.147L462.071 450.05C462.071 450.05 462.071 450.05 462.071 450.147C461.975 450.339 461.975 450.531 461.879 450.819C461.687 451.683 461.687 452.451 461.591 453.316C461.495 454.948 461.495 456.581 461.591 458.31C461.687 459.942 461.879 461.575 462.167 463.111C462.455 464.744 462.743 466.377 463.032 468.105C463.8 471.947 464.76 475.692 465.817 479.438C466.873 483.375 468.121 487.217 469.274 491.058C469.562 492.018 469.85 492.883 470.138 493.843C470.426 494.707 470.714 495.668 471.003 496.532C471.099 496.724 471.099 496.82 471.195 497.012C471.483 497.396 471.483 497.877 471.099 498.261C470.906 498.453 470.714 498.549 470.426 498.549C470.426 498.549 470.138 498.357 469.946 498.165Z" fill="#579D8C"/>
<path d="M433.74 517.084C433.452 517.084 433.26 516.892 433.164 516.7C433.068 516.604 432.972 516.412 432.876 516.316C432.396 515.739 431.915 515.259 431.435 514.779C430.859 514.203 430.283 513.53 429.707 512.954C429.034 512.282 428.458 511.61 427.786 510.937C427.114 510.265 426.537 509.593 425.865 508.921C424.521 507.576 423.272 506.136 422.024 504.695C420.775 503.255 419.527 501.718 418.374 500.277C415.973 497.3 413.669 494.227 411.364 491.058C410.211 489.521 409.155 487.985 408.002 486.352C406.85 484.72 405.794 483.087 404.737 481.454C404.257 480.686 403.681 479.822 403.297 478.957C402.816 478.093 402.432 477.133 402.24 476.076C402.24 475.884 402.24 475.596 402.24 475.404C402.24 475.116 402.336 474.828 402.432 474.636C402.528 474.444 402.72 474.252 402.912 474.06C403.105 473.964 403.393 473.771 403.681 473.867C403.969 473.867 404.161 473.867 404.353 473.964C404.449 474.06 404.641 474.06 404.737 474.156C404.929 474.252 405.217 474.444 405.409 474.54C406.178 475.116 406.946 475.692 407.618 476.364C409.059 477.709 410.403 479.246 411.748 480.782C413.092 482.319 414.245 483.855 415.493 485.392C417.99 488.465 420.295 491.73 422.6 494.899C423.848 496.532 425.001 498.165 426.249 499.797C427.402 501.43 428.554 502.966 429.803 504.503C431.339 506.52 432.876 508.345 434.508 510.265C434.893 510.745 435.277 511.13 435.661 511.61C435.853 511.802 436.045 512.09 436.237 512.282C436.429 512.474 436.525 512.666 436.717 512.858C437.005 512.954 437.101 513.242 437.197 513.53C437.293 514.011 436.909 514.491 436.429 514.587C435.853 514.683 435.565 514.299 435.181 513.915C434.893 513.53 434.508 513.146 434.22 512.858C433.548 512.09 432.876 511.322 432.204 510.553C430.955 509.113 429.707 507.576 428.554 506.04C427.306 504.503 426.153 502.87 425.001 501.238C423.848 499.605 422.696 498.069 421.544 496.436C419.143 493.267 416.838 490.002 414.437 486.928C412.996 485.104 411.556 483.279 410.019 481.55L410.115 481.646C408.771 480.11 407.426 478.573 405.89 477.229C405.409 476.845 405.025 476.46 404.545 476.172C404.449 476.076 404.353 476.076 404.257 475.98C404.257 476.076 404.257 476.172 404.257 476.172C404.257 476.364 404.353 476.46 404.353 476.653C404.449 477.037 404.641 477.325 404.833 477.709C405.217 478.573 405.698 479.342 406.274 480.11C406.754 480.878 407.234 481.646 407.714 482.415C408.771 483.951 409.827 485.584 410.884 487.12C412.036 488.657 413.188 490.29 414.341 491.826C415.493 493.363 416.646 494.899 417.798 496.436C418.951 497.973 420.199 499.413 421.351 500.95C422.12 501.91 422.984 502.966 423.848 503.927C425.097 505.271 426.345 506.712 427.594 508.056C428.842 509.401 430.091 510.649 431.339 511.994C432.492 513.242 433.644 514.395 434.701 515.643C434.989 516.027 434.893 516.604 434.508 516.988C434.316 517.084 434.124 517.18 433.932 517.18C433.836 517.084 433.74 517.084 433.74 517.084Z" fill="#579D8C"/>
<path d="M458.422 564.046C458.422 562.989 458.422 561.933 458.422 560.876C458.422 560.396 458.422 559.916 458.422 559.34C458.422 558.86 458.518 558.379 458.614 557.803C458.71 557.323 459.286 557.035 459.766 557.131C460.247 557.227 460.535 557.803 460.439 558.283C460.439 558.379 460.439 558.379 460.439 558.475C460.439 558.668 460.343 558.956 460.343 559.148C460.247 560.684 460.247 562.317 460.247 563.95C460.247 564.43 459.862 564.91 459.286 564.91C458.806 565.006 458.422 564.526 458.422 564.046Z" fill="#579D8C"/>
<path d="M448.722 594.009C447.953 593.241 447.185 592.472 446.417 591.704C446.033 591.32 445.648 590.936 445.264 590.552C445.072 590.36 444.784 590.167 444.592 589.879C444.304 589.495 444.304 589.015 444.688 588.631C444.88 588.439 445.072 588.343 445.36 588.343C445.649 588.343 445.841 588.439 446.033 588.631C446.129 588.631 446.129 588.727 446.129 588.823C446.321 589.111 446.609 589.303 446.897 589.495C447.281 589.879 447.665 590.264 448.049 590.648C448.722 591.32 449.394 592.088 450.162 592.76C450.546 593.145 450.546 593.721 450.162 594.105C449.97 594.297 449.778 594.393 449.49 594.393C449.106 594.297 448.818 594.201 448.722 594.009Z" fill="#579D8C"/>
<path d="M475.611 573.073C475.227 572.497 474.939 571.921 474.555 571.344C474.363 571.056 474.267 570.864 474.075 570.576C473.883 570.288 473.787 570 473.691 569.712C473.595 569.232 473.979 568.751 474.459 568.655C474.939 568.559 475.419 568.944 475.515 569.424V569.52C475.707 569.904 475.995 570.384 476.284 570.768C476.572 571.248 476.86 571.633 477.148 572.113C477.436 572.497 477.244 573.169 476.86 573.361C476.668 573.457 476.572 573.457 476.38 573.457C476.091 573.457 475.803 573.361 475.611 573.073Z" fill="#579D8C"/>
<path d="M484.446 547.143C483.87 546.375 483.294 545.511 482.622 544.742C482.334 544.358 482.046 543.974 481.757 543.59C481.565 543.398 481.469 543.206 481.277 543.014C481.181 542.822 481.085 542.726 481.085 542.534C480.989 542.053 481.373 541.573 481.853 541.477C482.238 541.381 482.718 541.669 482.814 542.053C483.294 542.726 483.774 543.302 484.254 543.974C484.831 544.646 485.311 545.415 485.791 546.087C486.079 546.471 486.079 547.047 485.599 547.431C485.407 547.527 485.215 547.623 485.023 547.623C484.831 547.527 484.638 547.335 484.446 547.143Z" fill="#579D8C"/>
<path d="M438.157 559.82C437.773 559.436 437.773 558.956 438.061 558.572C438.061 558.572 438.061 558.668 437.965 558.668C437.965 558.668 437.965 558.668 437.965 558.764C438.829 556.939 439.693 555.114 440.558 553.29C440.654 553.097 440.846 552.905 441.038 552.809C441.23 552.713 441.518 552.713 441.806 552.809C442.286 553.001 442.575 553.578 442.286 554.058C441.806 555.114 441.326 556.075 440.846 557.131C440.654 557.611 440.366 558.187 440.078 558.668C439.982 558.86 439.886 559.148 439.789 559.34C439.693 559.532 439.597 559.724 439.501 559.916C439.309 560.108 439.117 560.204 438.829 560.204C438.637 560.108 438.349 560.012 438.157 559.82Z" fill="#579D8C"/>
<path d="M481.183 525.151C480.606 524.863 480.126 524.671 479.55 524.478C479.07 524.382 478.782 523.806 478.878 523.326C478.974 523.134 479.07 522.846 479.262 522.75C479.454 522.654 479.742 522.558 479.934 522.654C480.03 522.654 480.126 522.75 480.222 522.75C480.414 522.846 480.51 522.846 480.702 522.942C481.087 523.134 481.567 523.326 481.951 523.518C482.431 523.71 482.527 524.382 482.335 524.767C482.239 524.959 482.047 525.151 481.759 525.247C481.663 525.247 481.567 525.247 481.471 525.247C481.471 525.247 481.375 525.247 481.183 525.151Z" fill="#579D8C"/>
<path d="M521.132 529.473C520.268 529.185 519.308 528.992 518.443 528.704C518.059 528.608 517.579 528.416 517.195 528.224C517.099 528.224 516.907 528.128 516.811 528.128C516.522 528.032 516.234 527.744 516.234 527.36C516.234 527.072 516.234 526.88 516.426 526.688C516.619 526.496 516.811 526.4 517.003 526.303C517.291 526.303 517.483 526.303 517.675 526.496C517.675 526.496 517.579 526.496 517.579 526.4C517.579 526.4 517.483 526.4 517.483 526.303C517.867 526.4 518.155 526.592 518.539 526.688C519.5 526.976 520.556 527.264 521.612 527.552C522.093 527.648 522.381 528.224 522.285 528.704C522.189 529.089 521.804 529.377 521.42 529.377C521.324 529.473 521.228 529.473 521.132 529.473Z" fill="#579D8C"/>
<path d="M509.322 546.183C509.13 545.703 509.034 545.126 508.938 544.646C508.842 544.166 508.746 543.686 508.65 543.206C508.554 542.726 508.458 542.149 508.362 541.669C508.362 541.477 508.266 541.285 508.266 541.093C508.266 540.709 508.362 540.421 508.65 540.229C509.034 539.94 509.61 539.94 509.994 540.421C510.09 540.613 510.186 540.709 510.186 540.901C510.186 541.093 510.282 541.285 510.282 541.477C510.378 541.765 510.378 542.053 510.474 542.341C510.57 542.822 510.667 543.398 510.763 543.878C510.859 544.454 511.051 545.03 511.243 545.607C511.339 546.087 511.051 546.663 510.57 546.759C510.474 546.759 510.378 546.759 510.282 546.759C509.802 546.855 509.418 546.567 509.322 546.183Z" fill="#579D8C"/>
<path d="M546.295 551.657C546.103 549.928 545.815 548.2 545.527 546.471C545.43 545.991 545.815 545.511 546.295 545.414C546.775 545.318 547.255 545.703 547.351 546.183C547.639 547.911 547.927 549.64 548.12 551.369C548.216 551.849 547.831 552.329 547.351 552.425H547.255C546.775 552.425 546.295 552.137 546.295 551.657Z" fill="#579D8C"/>
<path d="M520.46 570.192C520.076 569.52 519.692 568.944 519.307 568.367C519.115 568.079 518.923 567.791 518.731 567.503C518.635 567.311 518.539 567.023 518.539 566.735C518.539 566.543 518.635 566.351 518.827 566.158C519.115 565.774 519.788 565.774 520.172 566.158C520.268 566.255 520.364 566.447 520.46 566.543C520.652 566.927 520.94 567.311 521.228 567.695C521.516 568.175 521.804 568.655 522.092 569.136C522.381 569.616 522.188 570.192 521.804 570.384C521.612 570.48 521.516 570.48 521.324 570.48C520.94 570.576 520.652 570.48 520.46 570.192Z" fill="#579D8C"/>
<path d="M487.519 595.161C486.559 594.585 485.502 594.105 484.542 593.625C484.446 593.529 484.254 593.529 484.158 593.433C483.774 593.337 483.486 593.049 483.486 592.665C483.389 592.184 483.774 591.704 484.254 591.608C484.542 591.608 484.83 591.704 485.022 591.8C485.406 591.992 485.79 592.184 486.175 592.376C486.943 592.761 487.711 593.145 488.479 593.529C488.96 593.817 489.056 594.393 488.864 594.777C488.671 595.065 488.383 595.258 488.095 595.258C487.807 595.258 487.615 595.258 487.519 595.161Z" fill="#579D8C"/>
<path d="M499.332 575.474C499.236 574.898 499.044 574.322 499.044 573.745C499.044 573.457 498.948 573.265 498.948 572.977C498.948 572.689 498.852 572.401 498.852 572.113C498.852 571.825 499.044 571.536 499.332 571.44C499.62 571.248 500.004 571.248 500.292 571.44C500.58 571.633 500.676 571.825 500.772 572.113C500.772 572.209 500.772 572.305 500.772 572.305C500.772 572.305 500.772 572.305 500.772 572.401C500.868 573.073 500.964 573.745 501.06 574.514C501.06 574.706 501.156 574.802 501.156 574.994C501.252 575.474 501.06 575.954 500.484 576.146C500.388 576.146 500.292 576.146 500.196 576.146C499.908 576.146 499.524 575.858 499.332 575.474Z" fill="#579D8C"/>
<path d="M510.857 590.84C510.665 590.648 510.569 590.456 510.473 590.168C510.473 589.976 510.473 589.783 510.569 589.591C510.665 589.399 510.857 589.207 511.145 589.111C511.337 589.015 511.529 589.111 511.721 589.111C511.913 589.111 512.201 589.015 512.393 589.015C513.162 588.823 513.93 588.631 514.698 588.439C515.467 588.247 516.331 587.959 517.099 587.671C517.579 587.479 518.156 587.863 518.252 588.343C518.348 588.823 518.06 589.303 517.579 589.495C516.331 589.879 515.082 590.264 513.93 590.552C513.354 590.744 512.681 590.84 512.009 590.936C511.913 590.936 511.721 590.936 511.625 590.936C511.337 591.032 511.049 591.032 510.857 590.84Z" fill="#579D8C"/>
<path d="M472.442 610.047C471.962 609.759 471.578 609.471 471.098 609.279C470.906 609.183 470.714 608.991 470.425 608.895C470.137 608.702 469.945 608.414 469.945 608.03C469.945 607.55 470.329 607.07 470.906 607.07C471.194 607.07 471.482 607.262 471.674 607.454L471.77 607.55C472.25 607.838 472.826 608.222 473.307 608.51C473.499 608.606 473.691 608.798 473.787 609.087C473.883 609.279 473.787 609.567 473.691 609.759C473.499 610.047 473.211 610.239 472.826 610.239C472.73 610.239 472.538 610.143 472.442 610.047Z" fill="#579D8C"/>
<path d="M458.902 537.155C458.71 536.579 458.518 536.003 458.422 535.427C458.326 535.139 458.23 534.851 458.23 534.562C458.23 534.37 458.134 534.178 458.134 533.986C458.038 533.506 458.422 533.026 458.902 532.93C459.382 532.834 459.863 533.218 459.959 533.698V533.794C460.151 534.755 460.439 535.715 460.727 536.675C460.919 537.155 460.535 537.732 460.055 537.828C459.959 537.828 459.863 537.828 459.767 537.828C459.382 537.828 458.998 537.54 458.902 537.155Z" fill="#579D8C"/>
<path d="M531.505 552.521C531.409 552.041 531.313 551.465 531.217 550.985C531.121 550.697 531.121 550.312 531.217 550.024C531.409 549.64 531.889 549.352 532.369 549.448C532.561 549.544 532.753 549.64 532.945 549.832C533.041 550.024 533.137 550.216 533.041 550.408C533.041 550.6 533.137 550.793 533.137 550.985C533.233 551.273 533.233 551.561 533.329 551.753V551.849C533.425 552.137 533.329 552.329 533.233 552.521C533.137 552.713 532.945 552.905 532.657 553.001C532.561 553.001 532.465 553.001 532.369 553.001C531.985 553.193 531.601 552.905 531.505 552.521Z" fill="#579D8C"/>
<path d="M537.268 572.881C536.788 572.785 536.5 572.497 536.5 572.017C536.5 572.017 536.5 572.017 536.5 572.113C536.5 572.113 536.5 572.113 536.5 572.017C536.5 572.017 536.5 572.017 536.5 571.921C536.5 571.921 536.5 571.921 536.5 572.017C536.5 571.537 536.788 571.152 537.268 571.056C537.46 570.96 537.556 570.96 537.748 570.864C538.709 570.288 539.669 569.712 540.63 569.136C540.822 569.04 540.918 568.944 541.11 568.847C541.494 568.559 542.07 568.559 542.454 569.04C542.742 569.424 542.742 570 542.262 570.384C541.398 571.056 540.534 571.633 539.573 572.113C539.093 572.401 538.613 572.689 538.133 572.881C537.941 572.977 537.652 573.073 537.364 573.073C537.364 572.881 537.364 572.881 537.268 572.881Z" fill="#579D8C"/>
<path d="M539.188 534.37C538.996 534.178 538.9 533.986 538.804 533.794C538.804 533.602 538.708 533.41 538.708 533.314C538.612 532.834 538.516 532.45 538.324 531.969C538.228 531.585 538.132 531.297 538.324 530.913C538.516 530.529 538.996 530.337 539.38 530.433C539.764 530.529 540.052 530.913 540.052 531.393C540.148 531.681 540.245 531.97 540.341 532.258C540.437 532.642 540.533 533.122 540.629 533.506C540.725 533.986 540.341 534.466 539.86 534.562H539.764C539.572 534.562 539.38 534.466 539.188 534.37Z" fill="#579D8C"/>
<path d="M551.806 456.661C547.118 456.134 542.458 454.629 537.792 453.319C535.459 452.665 533.328 451.82 531.202 450.779C529.071 449.934 526.945 448.893 525.015 447.858C522.895 446.621 520.573 445.575 518.654 444.148C516.73 442.917 514.615 441.485 512.697 440.058C510.778 438.631 508.859 437.204 506.94 435.777C505.218 434.356 503.495 432.935 501.772 431.514C499.859 429.891 498.141 428.274 496.429 426.461C494.914 424.654 493.202 422.841 491.887 420.844C490.573 418.847 489.258 416.849 488.341 414.667C487.228 412.48 486.311 410.298 485.394 408.116C483.761 403.562 482.323 399.013 481.675 394.292C481.518 392.915 481.367 391.343 481.211 389.967C481.054 388.591 480.898 387.215 480.741 385.838C480.764 385.055 480.585 384.462 480.607 383.679C480.647 382.308 481.273 380.954 482.471 380.205C483.869 379.265 485.436 379.31 486.807 379.349C487.786 379.377 488.574 379.204 489.553 379.232C490.728 379.266 492.099 379.305 493.274 379.339C493.861 379.356 494.644 379.378 495.232 379.395C496.798 379.44 498.56 379.491 500.127 379.535C502.477 379.603 504.815 380.062 507.153 380.521C509.296 380.974 511.64 381.237 513.783 381.691C516.121 382.15 518.454 382.805 520.781 383.655C523.114 384.31 525.245 385.155 527.377 386C529.704 386.851 532.026 387.897 534.157 388.742C536.283 389.783 538.409 390.824 540.534 391.864C542.269 392.894 544.199 393.929 545.933 394.959C547.667 395.988 549.205 397.012 550.939 398.042C554.212 400.095 557.283 402.339 560.354 404.583C563.235 406.625 565.915 408.858 568.393 411.28C570.871 413.703 573.55 415.935 575.833 418.352C577.55 419.969 579.262 421.782 580.973 423.595C582.685 425.408 584.195 427.411 585.706 429.414C587.026 431.215 588.34 433.213 589.655 435.21C590.969 437.207 592.278 439.401 593.391 441.588C593.95 442.584 594.504 443.776 594.862 444.962C595.405 446.545 595.941 448.324 595.113 449.868C594.694 450.836 593.692 451.591 592.702 451.955C592.109 452.134 591.32 452.307 590.733 452.29C590.145 452.273 589.748 452.458 589.161 452.441C588.567 452.62 588.17 452.804 587.572 453.179C586.581 453.543 585.591 453.906 584.606 454.074C582.632 454.605 580.657 455.137 578.687 455.472C576.522 455.802 574.357 456.132 572.192 456.462C569.831 456.786 567.47 457.11 565.311 457.244C563.151 457.378 560.796 457.506 558.642 457.445C557.859 457.422 556.88 457.394 556.097 457.372C554.737 456.941 553.367 456.901 551.806 456.661Z" fill="#579D8C"/>
<path d="M593.48 452.173C591.735 451.535 590.185 450.902 588.636 450.27C586.896 449.436 585.151 448.798 583.607 447.97C580.127 446.303 576.647 444.635 573.168 442.968C565.823 439.426 558.685 435.497 551.742 431.575C544.604 427.647 537.668 423.529 530.742 419.019C527.274 416.96 524.007 414.71 520.74 412.461C519.011 411.236 517.277 410.206 515.75 408.79C514.217 407.571 512.684 406.351 511.152 405.131C508.086 402.692 505.026 400.056 501.955 397.813C498.694 395.367 495.628 392.928 492.367 390.483C491.405 389.867 490.644 389.062 489.682 388.446C488.725 387.635 487.567 387.014 486.409 386.393C485.816 386.572 485.039 386.353 484.664 385.755C484.474 385.553 484.093 385.15 483.909 384.753C483.54 383.959 483.764 382.985 484.368 382.415C484.972 381.844 485.951 381.872 486.729 382.09C487.697 382.51 488.469 382.924 489.431 383.54C490.197 384.15 491.159 384.765 491.926 385.375C494.991 387.815 498.252 390.26 501.318 392.699C504.193 394.937 507.264 397.181 510.14 399.419C513.015 401.657 515.689 404.085 518.76 406.329C522.027 408.579 525.294 410.828 528.561 413.077C532.024 415.332 535.492 417.391 538.955 419.646C542.037 421.498 545.315 423.356 548.397 425.208C551.48 427.06 554.758 428.918 557.846 430.574C557.846 430.574 557.846 430.574 558.042 430.58C564.99 434.307 571.938 438.033 579.093 441.374C581.604 442.622 584.312 443.875 586.829 444.927C589.151 445.974 591.472 447.02 593.794 448.066C594.376 448.279 594.762 448.486 595.344 448.699C596.311 449.118 596.871 450.114 596.647 451.088C596.429 451.865 595.629 452.43 594.845 452.408C593.866 452.38 593.671 452.374 593.48 452.173Z" fill="#315760"/>
<path d="M322.498 565.161C329.694 552.805 334.583 538.978 336.679 524.976C340.268 501.937 334.551 481.703 331.019 459.652C330.775 457.891 330.41 456.053 330.085 454.419C329.476 451.355 328.948 448.165 328.421 444.975C328.096 443.341 327.893 441.784 327.649 440.023C327.527 439.411 327.486 438.671 327.486 438.136C327.445 437.396 327.526 436.734 327.485 435.995C327.525 435.128 327.565 434.262 327.605 433.396C328.124 420.528 330.545 407.624 328.96 394.841C327.212 380.706 320.042 367.572 307.898 360.363C306.806 359.666 305.51 359.018 304.336 358.448C303.972 358.216 303.648 358.188 303.284 357.955C303.041 357.8 302.596 357.695 302.353 357.54C301.787 357.357 301.301 357.047 300.734 356.864C299.358 356.343 298.022 356.027 296.687 355.71C295.351 355.393 293.935 355.204 292.519 355.014C291.102 354.824 289.605 354.761 288.229 354.775C286.853 354.79 285.477 354.804 284.021 354.945C282.564 355.087 281.31 355.179 279.894 355.524C279.165 355.595 278.558 355.743 277.749 355.94C276.94 356.138 276.212 356.208 275.402 356.406C274.593 356.603 273.986 356.751 273.177 356.948C272.57 357.096 271.882 357.371 271.195 357.646C261.404 360.677 253.557 367.088 246.317 374.422C238.471 382.439 231.719 391.689 225.371 400.839C219.265 409.61 212.755 417.943 205.273 425.657C179.228 452.569 141.165 480.913 138.557 521.701C135.749 566.285 174.416 606.64 215.372 614.743C247.95 621.25 282.34 609.649 306.525 585.654C312.754 579.637 318.051 572.67 322.498 565.161ZM157.111 484.839C157.272 484.586 157.434 484.332 157.596 484.078C157.434 484.332 157.272 484.586 157.111 484.839Z" fill="#FFB93E"/>
<path d="M333.654 325.598C333.978 325.091 334.301 324.584 334.706 323.95C335.231 322.858 335.918 321.513 335.472 320.337C335.27 319.851 334.865 319.414 334.379 319.104C334.258 319.027 334.136 318.95 334.136 318.95C333.893 318.795 333.57 318.767 333.205 318.534C333.084 318.457 333.084 318.457 332.882 318.506C331.869 317.147 330.129 316.394 328.469 316.049C327.377 315.887 326.284 315.726 325.192 316.099C324.302 316.423 323.574 317.029 322.926 317.508C322.198 318.114 321.592 318.798 320.985 319.481C320.379 320.164 319.691 320.975 319.206 321.735C318.114 323.179 317.144 324.701 316.173 326.223C315.203 327.744 314.192 329.061 313.222 330.583C312.332 331.978 311.362 333.499 310.473 334.894C309.583 336.289 308.734 337.888 307.845 339.283C307.198 340.297 306.672 341.389 306.147 342.481C305.823 341.917 305.539 341.558 305.337 341.072C304.527 339.664 303.393 338.227 302.138 336.713C301.125 335.354 300.032 334.122 298.817 332.812C298.25 332.094 297.481 331.425 296.833 330.834C296.186 330.242 295.538 329.651 294.89 329.059C292.461 326.975 289.87 325.144 287.401 323.391L286.551 322.849C285.822 322.385 285.053 321.716 284.324 321.251C282.219 319.73 280.114 318.209 277.928 316.815C277.2 316.351 276.471 315.886 275.742 315.421L275.499 315.266C274.892 314.879 274.164 314.414 273.354 314.077L272.868 313.767C272.383 313.457 271.695 313.197 271.209 312.887C270.278 312.472 269.347 312.056 268.416 311.641C266.918 311.043 265.299 310.367 263.519 309.945C262.062 309.551 260.159 309.051 258.5 308.706L257.61 308.495C257.408 308.545 257.165 308.39 256.962 308.439L256.841 308.362C255.425 308.172 253.887 307.905 251.863 307.863C250.245 307.722 248.667 307.786 247.088 307.85C243.932 307.977 240.614 308.359 237.498 308.69L237.094 308.789C234.707 309.05 232.279 309.107 230.094 309.319C227.787 309.453 225.481 309.588 223.134 309.518C222.486 309.462 221.96 309.483 221.313 309.427C221.191 309.349 220.989 309.399 220.989 309.399C220.665 309.371 220.341 309.343 220.018 309.315C219.613 309.413 219.087 309.434 218.682 309.533C218.399 309.709 217.914 309.935 217.752 310.188C217.388 310.491 217.186 311.076 217.065 311.534C216.944 311.992 216.903 312.323 216.944 313.062C217.066 313.675 217.269 314.161 217.512 314.851C217.876 315.619 218.2 316.182 218.525 316.745C219.213 318.076 220.064 319.154 220.792 320.154C221.521 321.154 222.291 322.358 223.222 323.309C223.789 324.027 224.477 324.823 225.044 325.541L225.166 325.618C225.692 326.132 226.138 326.773 226.785 327.365C227.433 327.956 228.081 328.547 228.85 329.216C228.972 329.294 229.093 329.371 229.214 329.449C229.457 329.604 229.619 329.885 229.862 330.04L230.469 330.427L231.117 331.019C232.008 331.765 233.222 332.54 234.437 333.314C234.801 333.547 235.044 333.701 235.408 333.934C236.865 334.863 238.525 335.743 240.225 336.827C243.342 338.637 246.621 340.192 249.818 341.34C251.761 342.043 253.38 342.719 254.837 343.113C256.537 343.662 258.236 344.211 260.139 344.711C261.717 345.182 263.376 345.527 265.036 345.872C266.816 346.294 268.678 346.589 270.54 346.884C272.401 347.18 274.222 347.271 275.841 347.411C277.014 347.446 278.188 347.481 279.361 347.516C280.009 347.572 280.737 347.502 281.385 347.558C281.708 347.586 282.032 347.614 282.356 347.642C283.408 347.6 284.501 347.761 285.593 347.923C286.241 347.979 286.888 348.036 287.536 348.092C289.154 348.232 290.854 348.246 292.554 348.259C294.132 348.196 295.831 348.209 297.612 348.096C298.138 348.075 298.664 348.054 299.19 348.032C300.242 347.99 301.173 347.87 302.225 347.827C302.751 347.806 303.196 347.912 303.722 347.89C303.56 348.144 303.318 348.524 303.156 348.778C302.307 350.377 301.418 351.772 300.569 353.371C299.801 354.843 298.911 356.238 298.143 357.71C297.456 359.055 296.688 360.528 296.122 361.951C295.758 362.789 295.435 363.831 295.517 364.775C295.477 366.177 296.166 367.508 297.178 368.331C297.542 368.564 297.704 368.845 298.068 369.078C298.19 369.155 298.19 369.155 298.311 369.233C299.04 369.697 299.93 369.908 300.82 369.584C301.427 369.436 301.994 369.084 302.479 368.858C303.127 368.915 303.733 368.766 304.421 368.492C305.594 367.991 306.363 367.054 307.212 365.991C307.98 365.054 308.708 363.913 309.355 362.898L309.517 362.645C309.921 362.011 310.325 361.377 310.73 360.743C311.053 360.235 311.296 359.855 311.619 359.348C312.185 358.46 312.67 357.699 313.358 356.889C313.6 356.509 313.762 356.255 314.005 355.875L314.49 355.114C315.137 354.1 315.905 353.163 316.471 352.275C317.037 351.388 317.805 350.451 318.371 349.563L318.776 348.929C319.504 347.788 320.353 346.724 321.08 345.583L321.242 345.329C323.79 341.603 326.296 337.672 328.722 333.868C329.288 332.981 329.935 331.966 330.501 331.079C330.663 330.825 330.824 330.572 330.986 330.318L330.905 330.445C330.986 330.318 331.067 330.191 331.148 330.064L331.31 329.811C331.552 329.43 331.876 328.923 332.118 328.543C332.603 327.782 333.169 326.895 333.735 326.007L333.654 325.598ZM328.638 327.572L329.123 326.811L328.638 327.572Z" fill="#579D8C"/>
<path d="M330.42 333.346C331.148 332.205 331.957 330.937 332.563 329.718C333.291 328.577 334.018 327.436 334.625 326.217C335.191 325.33 335.716 324.238 336.039 323.196C336.322 322.484 336.443 321.491 336.2 320.801C336.24 320.47 336.078 320.188 335.916 319.906C335.349 319.188 334.702 318.597 333.973 318.132C333.123 317.59 332.394 317.125 331.544 316.583C330.815 316.118 330.006 315.781 329.116 315.57C328.428 315.309 327.78 315.253 327.133 315.197C326.161 315.112 325.271 315.437 324.381 315.761C323.693 316.036 322.965 316.642 322.44 317.198C321.914 317.755 321.388 318.311 320.862 318.868C319.811 319.981 318.881 321.171 317.951 322.362C317.546 322.996 317.102 323.426 316.697 324.06C316.616 324.186 316.616 324.186 316.536 324.313C316.455 324.44 316.293 324.694 316.212 324.82C316.131 324.947 315.97 325.201 315.889 325.328C315.646 325.708 315.484 325.962 315.242 326.342C314.433 327.61 313.422 328.927 312.614 330.195C311.077 332.604 309.541 335.014 308.045 337.627C306.751 339.656 305.66 341.635 304.487 343.741C303.394 343.044 302.302 342.347 301.128 341.777C298.497 340.278 295.825 339.109 293.154 337.941C287.811 335.604 282.064 333.9 276.519 332.148C273.686 331.233 270.894 330.523 268.061 329.608C265.025 328.742 262.111 327.954 259.157 326.962C256.324 326.047 253.693 325.082 250.86 324.168C248.229 323.203 245.517 322.366 242.765 321.324C239.77 320.127 236.775 318.931 233.941 317.481C231.472 316.263 229.205 314.996 226.736 313.778C225.563 313.208 224.267 312.56 223.093 311.99C222.041 311.497 221.11 311.082 220.139 310.462C219.451 310.202 218.56 310.526 218.278 311.237C217.995 311.949 218.238 312.639 218.845 313.026L218.967 313.104C220.383 313.829 221.679 314.476 223.095 315.201C225.564 316.419 227.831 317.686 230.219 319.031C232.81 320.326 235.279 321.544 237.829 322.635C240.581 323.677 243.455 324.796 246.207 325.838C249.04 326.753 251.671 327.717 254.504 328.632C257.459 329.624 260.292 330.539 263.206 331.327C266.039 332.242 268.831 332.953 271.664 333.868C277.209 335.62 282.916 337.119 288.299 339.125C292.306 340.61 296.272 342.426 300.077 344.496C301.049 345.116 302.101 345.608 303.194 346.305C301.86 348.665 300.607 350.898 299.273 353.258C299.111 353.512 299.03 353.638 298.868 353.892C297.453 356.379 296.16 358.943 295.069 361.457C294.867 362.042 294.665 362.627 294.463 363.211C294.342 363.669 294.139 364.254 294.099 364.585C293.979 366.113 294.789 367.522 296.044 368.5C296.165 368.578 296.408 368.733 296.529 368.81C297.015 369.12 297.501 369.43 298.189 369.69C298.877 369.95 299.444 370.133 300.213 370.267C300.86 370.323 301.588 370.253 302.317 370.182C303.126 369.985 303.692 369.632 304.461 369.231C305.675 368.399 306.928 367.237 307.858 366.046C308.91 364.933 309.759 363.869 310.689 362.679C312.549 360.298 314.369 357.713 316.107 355.254C317.765 352.922 319.302 350.513 321.04 348.055C322.779 345.596 324.315 343.187 325.933 340.651C327.55 338.115 329.005 335.833 330.42 333.346ZM300.974 355.948C301.135 355.694 301.297 355.441 301.378 355.314C301.216 355.568 301.054 355.821 300.974 355.948ZM297.74 362.626C297.942 362.041 298.144 361.457 298.548 360.823C298.225 361.33 297.942 362.041 297.74 362.626Z" fill="#315760"/>
<path d="M161.299 524.076C161.985 521.125 162.752 518.047 163.762 515.124C164.166 513.954 164.57 512.785 165.096 511.693C165.379 510.982 165.783 510.348 166.187 509.714C166.268 509.587 166.349 509.46 166.43 509.334L166.511 509.207C166.794 509.031 167.036 508.65 167.077 508.319C167.117 507.988 167.036 507.58 166.874 507.298C166.428 506.657 165.457 506.573 164.931 507.129C164.648 507.305 164.486 507.559 164.325 507.813C163.92 508.447 163.597 508.954 163.193 509.588C162.788 510.222 162.505 510.933 162.142 511.772C161.576 513.194 161.01 514.617 160.647 515.991C160.203 517.491 159.758 518.991 159.395 520.365C159.031 521.738 158.668 523.112 158.426 524.563C158.426 525.098 158.548 525.711 159.034 526.021C159.155 526.098 159.398 526.253 159.6 526.204C160.369 526.337 161.097 525.731 161.259 524.942C161.218 524.738 161.258 524.407 161.299 524.076Z" fill="white"/>
<path d="M170.654 538.069C170.937 537.357 171.098 536.568 171.381 535.857C171.664 535.146 171.866 534.561 172.149 533.85C172.23 533.723 172.311 533.596 172.432 533.673C172.675 533.293 172.715 532.962 172.755 532.631C172.714 531.891 171.945 531.222 171.257 531.497C170.934 531.469 170.65 531.645 170.489 531.899C170.125 532.202 169.801 532.709 169.599 533.294C169.316 534.005 169.033 534.717 168.751 535.428C168.185 536.851 167.741 538.351 167.296 539.852C167.094 540.436 167.337 541.126 167.823 541.436C167.945 541.514 168.066 541.591 168.187 541.668C168.956 541.802 169.725 541.4 169.886 540.612C170.088 539.492 170.371 538.78 170.654 538.069Z" fill="white"/>
<path d="M178.492 517.74C178.694 517.155 178.815 516.697 179.139 516.19C179.543 515.556 179.583 514.69 178.976 514.303C178.733 514.148 178.49 513.993 178.166 513.965C177.843 513.937 177.438 514.035 177.074 514.338C176.71 514.641 176.508 515.226 176.265 515.606C175.821 516.571 175.578 517.487 175.134 518.452C175.093 518.783 174.972 519.241 175.134 519.523C175.296 519.804 175.458 520.086 175.701 520.241C175.823 520.318 175.823 520.318 175.944 520.396C176.632 520.656 177.522 520.332 177.805 519.62C178.088 518.909 178.29 518.324 178.492 517.74Z" fill="white"/>
<path d="M197.027 520.285C197.31 519.039 197.714 517.869 197.996 516.623C198.319 515.58 198.44 514.587 198.763 513.544C198.885 513.087 198.803 512.678 198.641 512.396C198.358 512.037 197.872 511.728 197.346 511.749C196.82 511.77 196.375 512.2 196.254 512.658C196.133 513.115 196.012 513.573 195.891 514.031C195.689 514.616 195.608 515.278 195.406 515.863C195.124 517.109 194.72 518.278 194.437 519.525C193.75 521.941 193.064 524.357 192.256 526.696C192.054 527.28 192.297 527.971 192.783 528.28C192.904 528.358 193.026 528.435 193.147 528.513C193.471 528.541 193.794 528.569 194.28 528.343C194.563 528.167 194.806 527.787 194.967 527.533C195.654 525.117 196.341 522.701 197.027 520.285Z" fill="white"/>
<path d="M183.198 539.827C182.955 539.136 182.146 538.798 181.458 539.073C181.256 539.123 181.256 539.123 181.053 539.172C180.77 539.348 180.609 539.602 180.447 539.855C180.204 540.236 180.002 540.82 179.76 541.201C179.396 542.039 179.032 542.877 178.668 543.715C178.386 544.427 178.629 545.117 179.236 545.504C179.357 545.582 179.357 545.582 179.479 545.659C180.167 545.92 181.057 545.595 181.34 544.884C181.865 543.792 182.269 542.623 182.714 541.658C183.24 541.101 183.522 540.39 183.198 539.827Z" fill="white"/>
<path d="M196.474 544.725C196.878 544.091 196.716 543.274 196.109 542.887C195.745 542.654 195.421 542.626 195.097 542.598C194.692 542.697 194.409 542.873 194.167 543.254C194.086 543.38 194.005 543.507 194.005 543.507C193.762 543.887 193.52 544.268 193.399 544.726C193.075 545.233 192.873 545.818 192.55 546.325C192.146 546.959 192.429 547.853 193.036 548.24C193.036 548.24 193.036 548.24 193.158 548.318C193.765 548.705 194.655 548.381 195.059 547.747C195.464 547.113 195.666 546.528 196.07 545.894C196.11 545.563 196.353 545.183 196.474 544.725Z" fill="white"/>
<path d="M178.929 502.322C178.322 501.935 177.31 502.182 177.027 502.893C176.704 503.4 176.502 503.985 176.178 504.492C176.098 504.619 176.017 504.746 176.017 504.746C175.896 505.204 175.896 505.739 176.179 506.098C176.301 506.175 176.341 506.38 176.463 506.457C176.706 506.612 177.029 506.64 177.353 506.668C177.555 506.619 177.758 506.57 177.839 506.443C178.122 506.267 178.203 506.14 178.364 505.886C178.688 505.379 178.89 504.794 179.294 504.16C179.82 503.604 179.536 502.709 178.929 502.322Z" fill="white"/>
<path d="M212.374 537.741C213.143 537.875 213.871 537.269 214.033 536.48C214.477 533.909 214.799 531.261 214.919 528.662C215.04 528.204 214.837 527.718 214.554 527.359C214.27 527 213.704 526.817 213.218 527.042C212.611 527.191 212.288 527.698 212.086 528.282C212.086 528.818 212.006 529.48 212.006 530.015C211.886 532.079 211.563 534.192 211.241 536.305C211.241 536.84 211.363 537.453 211.848 537.763C211.929 537.636 212.172 537.791 212.374 537.741Z" fill="white"/>
<path d="M197.66 563.495L197.579 563.622C197.579 563.622 197.579 563.622 197.498 563.749C197.7 563.164 197.7 562.629 197.295 562.192C196.769 561.678 195.798 561.594 195.272 562.15C194.827 562.58 194.827 563.115 194.625 563.7C194.423 564.285 194.666 564.975 195.152 565.285C195.274 565.362 195.395 565.439 195.517 565.517C196.285 565.65 197.054 565.249 197.216 564.46C197.458 564.08 197.498 563.748 197.66 563.495Z" fill="white"/>
<path d="M263.516 379.862C263.921 379.763 264.285 379.46 264.447 379.207C264.608 378.953 264.729 378.495 264.648 378.087C264.567 377.678 264.405 377.397 264.041 377.164C263.798 377.009 263.474 376.981 263.15 376.953C262.746 377.052 262.26 377.277 261.896 377.58C261.451 378.01 261.007 378.44 260.562 378.87C259.672 379.729 258.823 380.793 258.054 381.73C257.286 382.667 256.518 383.604 255.749 384.541C254.981 385.477 254.253 386.619 253.606 387.633C253.202 388.267 253.486 389.161 254.093 389.549C254.457 389.781 254.781 389.809 255.186 389.71C255.59 389.612 255.873 389.435 256.116 389.055L256.197 388.928C256.925 387.787 257.774 386.723 258.623 385.66C259.472 384.596 260.321 383.532 261.252 382.342C261.939 381.532 262.748 380.799 263.435 379.989C263.233 380.038 263.314 379.911 263.516 379.862Z" fill="white"/>
<path d="M262.229 390.455C262.958 390.919 263.767 390.722 264.171 390.088C264.737 389.2 265.344 388.517 266.032 387.707C266.557 387.15 266.962 386.516 267.609 386.037C267.69 385.91 267.69 385.91 267.892 385.861C268.418 385.304 268.539 384.311 268.012 383.797C267.729 383.438 267.162 383.255 266.677 383.481C266.272 383.579 266.11 383.833 265.746 384.136C265.301 384.566 265.059 384.946 264.614 385.376C263.765 386.439 262.996 387.376 262.147 388.44C261.541 389.124 261.582 389.863 262.229 390.455Z" fill="white"/>
<path d="M316.779 544.392C317.062 543.68 317.345 542.969 317.506 542.18C317.708 541.595 317.91 541.011 318.031 540.553C318.233 539.968 318.233 539.433 317.707 538.919C317.585 538.842 317.464 538.764 317.342 538.687C316.856 538.377 316.25 538.525 315.764 538.751C315.4 539.053 315.279 539.511 315.117 539.765C315.077 540.096 314.915 540.35 314.875 540.681C314.592 541.392 314.512 542.054 314.229 542.766C313.784 544.266 313.138 545.815 312.572 547.238C312.289 547.95 312.532 548.64 313.139 549.027C313.261 549.105 313.261 549.105 313.382 549.182C314.07 549.442 314.961 549.118 315.243 548.407C315.85 547.188 316.294 545.688 316.779 544.392Z" fill="white"/>
<path d="M311.595 538.59C312.121 538.034 311.959 537.217 311.432 536.703C311.27 536.421 310.825 536.316 310.502 536.287C310.178 536.259 309.692 536.485 309.531 536.738C309.247 536.915 309.126 537.372 308.965 537.626C308.803 537.88 308.763 538.211 308.52 538.591C308.318 539.176 307.914 539.81 307.712 540.394C307.105 541.613 306.62 542.909 306.014 544.128C305.731 544.839 305.974 545.529 306.582 545.916C306.703 545.994 306.703 545.994 306.825 546.071C307.513 546.332 308.403 546.008 308.686 545.296C309.211 544.204 309.736 543.112 310.14 541.943C310.625 540.647 311.07 539.682 311.595 538.59Z" fill="white"/>
<path d="M159.55 369.009C158.179 369.131 156.955 368.993 155.655 368.744C154.356 368.495 152.981 368.136 151.717 367.701C150.563 367.191 149.41 366.682 148.367 366.097C146.131 364.707 144.041 363.055 142.208 361.068C141.312 360.223 140.45 359.192 139.664 358.272C138.878 357.351 138.017 356.32 137.231 355.4C135.584 353.448 134.122 351.532 132.696 349.431C131.195 347.218 129.694 345.006 128.268 342.905C125.416 338.701 122.599 334.313 119.858 330.034C117.041 325.646 114.225 321.257 111.444 316.682C108.813 312.329 106.107 307.865 103.476 303.512C100.695 298.937 98.0248 294.288 95.4295 289.749C92.9093 285.32 90.4996 280.817 88.2006 276.239C85.6764 271.328 83.2273 266.529 80.8137 261.543C78.5146 256.965 76.4368 252.236 74.6553 247.468C73.5966 244.956 72.8343 242.404 71.9613 239.927C71.1633 237.561 70.5866 235.044 69.8993 232.603C69.5556 231.382 69.3226 230.087 68.9789 228.866C68.7459 227.57 68.4022 226.35 68.2442 225.165C67.8136 222.388 67.2725 219.686 67.0276 216.944C66.3917 211.722 66.2732 206.31 66.2298 201.008C66.3207 198.524 66.4116 196.039 66.5025 193.554C66.6289 190.884 66.7909 188.028 67.103 185.393C67.2769 183.983 67.3401 182.647 67.589 181.348C67.7272 180.123 67.9761 178.823 68.225 177.524C68.6872 175.11 69.185 172.511 69.8329 170.133C70.5519 167.383 71.3459 164.744 72.3256 162.141C73.1947 159.613 74.1389 157.195 75.1937 154.703C77.157 149.978 79.306 145.289 81.9765 140.893C83.3671 138.657 84.6825 136.31 86.0731 134.074C87.4636 131.839 88.7436 129.678 90.3198 127.477C93.2509 123.227 96.7036 119.269 99.9705 115.275C101.697 113.296 103.534 111.242 105.41 109.484C107.287 107.726 109.349 106.004 111.375 104.467C115.353 101.283 119.667 98.356 124.02 95.7251C126.308 94.3346 128.559 93.1298 131.072 92.0712C133.473 91.0876 135.765 90.179 138.317 89.4166C143.345 87.7813 148.824 86.8096 153.916 88.3621C154.734 88.6149 155.366 88.8322 156.073 89.1601C156.741 89.1917 157.298 89.2984 157.93 89.5156C158.487 89.6223 159.119 89.8396 159.64 90.1319C160.272 90.3492 160.98 90.6771 161.501 90.9694C162.544 91.554 163.662 92.2493 164.594 92.909C165.451 93.4581 166.384 94.1179 167.205 94.8526C169.034 96.3577 170.753 97.9379 172.36 99.5931C174.118 101.469 175.69 103.31 177.006 105.487C178.357 107.478 179.301 109.584 180.32 111.8C181.339 114.016 182.248 116.307 182.935 118.748C183.583 120.893 184.156 122.928 184.507 125.112C184.859 127.297 185.025 129.446 185.08 131.67C185.1 134.08 185.009 136.564 184.732 139.013C184.456 141.463 183.918 143.766 183.567 146.104C183.14 148.332 182.417 150.6 181.694 152.867C180.971 155.135 180.063 157.367 179.154 159.599C178.356 161.755 177.373 163.877 176.499 165.923C175.516 168.044 174.643 170.091 173.584 172.101C172.6 174.223 171.581 176.529 170.598 178.651C169.432 181.219 168.192 183.676 166.951 186.133C165.968 188.254 165.095 190.3 164.222 192.346C163.313 194.578 162.294 196.885 161.571 199.153C161.535 199.339 161.5 199.524 161.389 199.599C159.943 204.134 158.869 208.74 157.869 213.457C157.162 217.652 156.641 221.883 156.119 226.114C155.914 228.192 155.633 230.159 155.538 232.162C155.333 234.24 155.127 236.317 154.922 238.395C154.499 245.628 154.744 252.893 155.099 260.083C155.344 262.824 155.589 265.566 155.945 268.232C156.375 271.009 156.916 273.711 157.458 276.413C158.425 281.41 159.579 286.443 160.768 291.29C161.269 293.696 161.957 296.137 162.458 298.543C163.11 301.17 163.651 303.872 164.193 306.574C164.769 309.09 165.05 311.646 165.441 314.127C165.907 316.718 166.262 319.385 166.728 321.976C167.696 326.973 168.589 331.86 169.26 336.897C170.007 342.044 170.457 347.231 170.019 352.536C169.991 353.686 169.742 354.985 169.529 356.099C169.28 357.399 168.92 358.774 168.561 360.148C168.126 361.412 167.727 362.491 167.107 363.719C166.487 364.948 165.606 366.03 164.464 366.966C164.243 367.117 164.133 367.192 163.911 367.342C162.659 368.353 161.107 368.922 159.55 369.009ZM104.237 120.134C104.383 119.873 104.715 119.648 104.861 119.387C104.715 119.648 104.494 119.798 104.237 120.134Z" fill="#EA9F82"/>
<path d="M255.446 94.9084C255.335 94.9834 255.114 95.1335 254.928 95.098C254.19 95.4377 253.526 95.888 252.898 96.1527C251.385 97.0178 249.797 97.7723 248.394 98.5623C247.434 99.0522 246.364 99.617 245.479 100.217C243.745 101.233 241.825 102.212 239.905 103.192C238.945 103.682 237.985 104.172 237.1 104.772C232.376 107.332 227.541 109.967 222.666 112.305C219.49 113.814 216.349 115.137 213.726 116.271C212.359 116.876 210.993 117.48 209.551 117.974C208.073 118.653 206.521 119.222 205.043 119.901C202.013 121.15 198.948 122.584 195.993 123.943C193.37 125.076 190.822 126.321 188.199 127.454C186.943 127.984 185.465 128.663 183.877 129.417C183.798 128.825 183.609 128.307 183.53 127.715C183.072 126.087 182.724 124.385 182.155 122.832C181.851 121.908 181.511 121.169 181.207 120.245C180.867 119.506 180.453 118.657 180.224 117.843C179.884 117.104 179.469 116.255 179.129 115.516C178.715 114.667 178.375 113.928 177.849 113.154C177.51 112.415 176.984 111.641 176.534 110.977C176.009 110.203 175.483 109.429 175.033 108.765L175.108 108.876C174.132 107.438 173.121 106.186 172.035 104.823C171.023 103.57 169.937 102.208 168.815 101.03C168.254 100.442 167.618 99.7425 167.057 99.1539C166.496 98.5653 165.86 97.8661 165.299 97.2775C164.739 96.6889 164.103 95.9896 163.431 95.4761C163.095 95.2193 162.684 94.8519 162.349 94.5952C162.013 94.3384 161.752 94.1922 161.416 93.9355C160.559 93.3863 159.812 92.7622 158.955 92.2131C158.62 91.9563 158.394 91.6245 158.059 91.3677C157.908 91.1465 157.648 91.0003 157.498 90.7791C157.237 90.6329 157.087 90.4117 156.826 90.2655C156.565 90.1194 156.305 89.9732 156.119 89.9377C156.119 89.9377 156.044 89.8271 155.933 89.9021C155.969 89.7164 155.969 89.7164 156.004 89.5308C156.076 89.1594 156.222 88.8987 156.293 88.5274C156.475 88.081 156.731 87.7452 156.913 87.2989C157.205 86.7774 157.608 86.1809 158.011 85.5844L158.268 85.2487C159.109 83.87 159.915 82.677 160.646 81.3734C160.903 81.0376 161.085 80.5913 161.341 80.2555C161.926 79.2126 162.511 78.1697 163.06 77.3125C164.012 75.8588 164.743 74.5552 165.659 73.2872C166.319 72.3549 166.868 71.4977 167.528 70.5654L168.48 69.1117C169.029 68.2545 169.578 67.3973 170.127 66.5401C170.419 66.0187 170.676 65.6829 170.969 65.1614C172.726 62.5147 174.631 59.6073 176.61 56.8105C177.672 55.2818 178.478 54.0888 179.47 52.9313C180.497 51.5883 181.635 50.1701 182.516 49.0877C182.626 49.0127 182.662 48.827 182.772 48.7519C183.724 47.2982 184.787 45.7695 185.85 44.2407C187.829 41.4439 189.697 38.7222 191.641 36.111C193.695 33.4248 195.528 30.8887 197.361 28.3527C200.624 23.877 204.33 19.1011 209.323 13.1283C209.836 12.4567 210.314 11.9708 210.828 11.2993C211.085 10.9635 211.341 10.6277 211.563 10.4776C211.709 10.2169 211.93 10.0668 212.151 9.9167C212.594 9.61649 213.111 9.42687 213.593 9.42293C214.075 9.41898 214.521 9.60071 214.857 9.85748C215.193 10.1143 215.493 10.5567 215.608 10.9636C215.647 11.2599 215.722 11.3705 215.762 11.6667C215.801 11.963 215.766 12.1487 215.73 12.3343C215.77 12.6306 215.734 12.8163 215.663 13.1876L215.703 13.4839C215.635 14.3372 215.604 15.0048 215.387 15.6368C214.747 18.9788 213.55 22.2141 212.609 25.1136C211.993 26.8241 211.487 28.4595 210.871 30.17C210.472 31.2484 210.073 32.3268 209.674 33.4053C209.386 34.4086 209.022 35.3014 208.623 36.3799C206.885 41.4362 205.111 46.6783 203.298 51.6241C202.101 54.8594 201.086 57.6483 199.774 60.4767L199.593 60.9231C198.467 63.7871 197.12 66.8011 195.808 69.6295C195.334 70.5974 194.86 71.5652 194.386 72.533L194.24 72.7937C193.876 73.6865 193.438 74.4687 192.964 75.4365C192.782 75.8829 192.49 76.4043 192.308 76.8507C192.419 76.7756 192.64 76.6255 192.75 76.5505C193.339 75.9895 194.003 75.5392 194.556 75.1639C197.171 73.0663 199.826 71.265 202.626 69.203C203.954 68.3023 205.281 67.4017 206.83 66.3509C208.599 65.15 210.48 63.8741 212.139 62.7483C213.245 61.9977 214.351 61.2472 215.457 60.4966C218.112 58.6953 220.691 56.7834 223.567 54.832C224.231 54.3817 224.894 53.9313 225.558 53.481C227.549 52.13 229.465 50.6684 231.456 49.3174C233.668 47.8163 235.77 46.3903 238.499 44.6996C239.606 43.949 240.601 43.2735 241.707 42.523C242.15 42.2228 242.592 41.9226 243.145 41.5473C243.366 41.3972 243.477 41.3221 243.698 41.172L243.809 41.097C244.03 40.9469 244.141 40.8718 244.251 40.7967C244.583 40.5716 245.065 40.5676 245.361 40.5281C246.139 40.4847 246.997 41.0338 247.226 41.8476C247.415 42.3651 247.419 42.847 247.348 43.2183C247.277 43.5897 247.02 43.9254 246.839 44.3718C246.582 44.7076 246.325 45.0434 246.068 45.3791C245.958 45.4542 245.847 45.5292 245.812 45.7149C245.298 46.3865 244.709 46.9474 244.196 47.619C243.718 48.1048 243.35 48.5157 242.948 49.1121C242.323 49.8587 241.589 50.6804 240.964 51.427C238.76 53.892 236.556 56.357 234.276 58.7113C231.74 61.4015 229.682 63.6057 227.66 65.6243C225.38 67.9787 223.026 70.2224 220.857 72.5017C218.834 74.5203 216.444 76.9497 213.869 79.3436C213.023 80.2403 212.103 81.0264 211.258 81.9231C210.08 83.045 208.903 84.1669 207.726 85.2888C208.465 84.949 209.279 84.7199 210.017 84.3802C212.308 83.4717 214.675 82.6737 216.559 81.8797C218.333 81.1608 220.071 80.6275 221.845 79.9086C223.101 79.3793 224.321 79.0356 225.578 78.5063C227.537 77.8229 229.311 77.104 231.159 76.4956C232.416 75.9663 233.636 75.6226 234.892 75.0933C236.149 74.564 237.369 74.2203 238.626 73.691C240.585 73.0076 242.359 72.2887 244.318 71.6053C246.167 70.997 247.94 70.278 249.789 69.6697C251.045 69.1404 252.377 68.7217 253.522 68.2674C255.075 67.6986 256.627 67.1297 258.18 66.5609C258.808 66.2962 259.436 66.0316 260.139 65.8775L261.174 65.4983C262.098 65.1941 262.837 64.8544 263.762 64.5503L264.279 64.3606C264.686 64.2461 265.018 64.0209 265.314 63.9814L265.61 63.9419C266.017 63.8274 266.535 63.6378 266.867 63.4126C267.198 63.1874 267.495 63.1479 267.791 63.1084C268.79 62.9149 269.869 63.3139 270.284 64.1632C270.734 64.8269 270.742 65.7907 270.228 66.4623C269.971 66.7981 269.715 67.1338 269.272 67.4341C269.162 67.5091 269.162 67.5091 269.051 67.5842C268.94 67.6592 268.83 67.7343 268.719 67.8093L268.609 67.8844C268.277 68.1095 267.945 68.3347 267.613 68.5599C267.06 68.9352 266.507 69.3104 265.879 69.5751L265.547 69.8002L263.813 70.8155C263.039 71.3408 262.189 71.7556 261.304 72.3561C258.685 73.9717 256.066 75.5873 253.633 77.2386L252.969 77.6889C247.585 81.1809 242.05 84.4517 236.702 87.7581L236.37 87.9832C233.308 89.8991 230.503 91.4792 227.774 93.1699C224.858 94.825 221.943 96.4802 219.249 97.9852C218.917 98.2104 218.51 98.325 218.178 98.5501L217.736 98.8503C218.143 98.7358 218.439 98.6963 218.846 98.5817C220.252 98.2736 221.769 97.8905 223.176 97.5823L223.286 97.5073C226.209 96.816 229.54 96.0102 232.834 95.39L233.241 95.2755C236.239 94.6948 239.348 94.0391 242.457 93.3834L243.974 93.0002C245.38 92.6921 246.972 92.4196 248.489 92.0364C249.007 91.8468 249.489 91.8428 250.006 91.6532C251.302 91.4202 252.708 91.1121 254.04 90.6934C254.15 90.6183 254.15 90.6183 254.261 90.5432C254.778 90.3536 255.296 90.164 255.778 90.1601C256.742 90.1522 257.488 90.7764 257.828 91.5151C258.243 92.3644 257.954 93.3678 257.366 93.9287C257.255 94.0038 257.034 94.1539 256.813 94.304C256.406 94.4185 255.963 94.7188 255.446 94.9084ZM247.399 76.6222C246.182 77.4478 244.966 78.2734 243.674 78.9884C244.891 78.1628 246.107 77.3372 247.399 76.6222ZM255.841 70.7324L256.284 70.4322L255.841 70.7324Z" fill="#579D8C"/>
<path d="M162.249 96.1166C161.803 95.9349 161.428 95.3819 161.534 94.8249C161.605 94.4536 161.752 94.1928 162.008 93.8571C162.155 93.5963 162.411 93.2606 162.558 92.9998C162.85 92.4784 163.328 91.9925 163.62 91.4711C164.391 90.4638 165.196 89.2708 165.967 88.2635C167.543 86.0632 169.119 83.8628 170.77 81.7731C172.019 80.2799 173.081 78.7512 174.33 77.258L174.44 77.1829C174.551 77.1079 174.551 77.1079 174.586 76.9222C174.733 76.6615 174.954 76.5114 175.1 76.2506C175.503 75.6542 176.467 75.6463 176.953 76.1242C177.213 76.2704 177.328 76.6773 177.367 76.9736C177.407 77.2699 177.336 77.6412 177.004 77.8664C176.893 77.9414 176.893 77.9414 176.858 78.1271L176.747 78.2021L176.858 78.1271C176.712 78.3878 176.491 78.5379 176.344 78.7986C176.234 78.8737 176.198 79.0593 176.198 79.0593C175.831 79.4702 175.538 79.9916 175.171 80.4024C173.887 82.0813 172.493 83.8352 171.209 85.5141C171.209 85.5141 171.209 85.5141 171.319 85.439C171.319 85.439 171.319 85.439 171.209 85.5141C170.036 87.1179 168.752 88.7968 167.578 90.4006C167.029 91.2578 166.295 92.0795 165.745 92.9367C165.378 93.3475 165.086 93.869 164.829 94.2047C164.758 94.5761 164.687 94.9474 164.355 95.1725C164.244 95.2476 164.023 95.3977 163.988 95.5834C163.877 95.6584 163.766 95.7335 163.656 95.8085C163.178 96.2944 162.696 96.2984 162.249 96.1166Z" fill="#315760"/>
<path d="M172.326 104.302C171.994 104.527 171.662 104.752 171.255 104.867C170.663 104.946 170.03 104.729 169.841 104.211C169.541 103.769 169.647 103.212 169.904 102.876C170.015 102.801 170.161 102.54 170.271 102.465C170.493 102.315 170.714 102.165 171.01 102.125C171.563 101.75 172.116 101.375 172.559 101.075C174.585 99.5379 176.537 97.8906 178.378 96.3184C180.44 94.5961 182.577 92.9844 184.603 91.4478C186.077 90.2864 187.625 89.2356 189.174 88.1849C190.647 87.0235 192.085 86.0478 193.559 84.8864C194.112 84.5111 195.04 84.6889 195.415 85.2419C195.791 85.795 195.724 86.6483 195.06 87.0986C194.064 87.7741 193.033 88.6352 192.038 89.3107C190.932 90.0613 189.901 90.9224 188.905 91.5979C186.768 93.2096 184.667 94.6357 182.604 96.358C182.494 96.433 182.383 96.5081 182.162 96.6582C181.131 97.5194 180.211 98.3055 179.18 99.1666C178.148 100.028 177.228 100.814 176.197 101.675C175.166 102.536 174.135 103.397 173.029 104.148C172.808 104.298 172.697 104.373 172.476 104.523C172.436 104.227 172.436 104.227 172.326 104.302Z" fill="#315760"/>
<path d="M204.319 99.5539C201.993 100.648 199.777 101.667 197.45 102.762C195.123 103.856 192.871 105.061 190.509 106.34C189.328 106.98 188.147 107.62 186.966 108.26C185.784 108.9 184.528 109.43 183.347 110.069C182.277 110.634 181.02 111.164 179.875 111.618C179.247 111.883 178.804 112.183 178.176 112.447C177.955 112.598 177.659 112.637 177.437 112.787C177.03 112.902 176.734 112.941 176.288 112.76C175.766 112.467 175.502 111.839 175.608 111.282C175.679 110.911 175.936 110.575 176.157 110.425C176.379 110.275 176.489 110.2 176.786 110.16C177.303 109.971 177.856 109.595 178.374 109.406C179.002 109.141 179.555 108.766 180.072 108.576C181.328 108.047 182.51 107.407 183.766 106.878C186.203 105.708 188.565 104.428 190.928 103.149C192.958 102.094 194.989 101.039 197.094 100.095C199.014 99.1154 201.195 98.2819 203.115 97.3022C203.743 97.0376 204.56 97.2904 204.825 97.9185C205.09 98.5466 204.872 99.1787 204.43 99.4789C204.43 99.4789 204.319 99.5539 204.319 99.5539Z" fill="#315760"/>
<path d="M203.83 112.163C202.167 112.807 200.394 113.526 198.731 114.17C196.957 114.889 195.294 115.533 193.52 116.252C191.857 116.896 190.269 117.65 188.606 118.294C186.832 119.013 184.983 119.621 183.174 120.526C183.174 120.526 183.174 120.526 183.285 120.451C182.767 120.641 182.25 120.83 181.697 121.205C181.515 121.652 180.962 122.027 180.405 121.92C180.219 121.885 180.219 121.885 180.034 121.849C179.662 121.778 179.326 121.521 179.176 121.3C178.876 120.858 178.908 120.19 179.165 119.854C179.311 119.594 179.532 119.444 179.864 119.218C180.306 118.918 180.824 118.729 181.341 118.539C181.969 118.274 182.487 118.085 183.115 117.82C185.11 116.951 187.069 116.268 189.064 115.399C190.099 115.019 191.17 114.454 192.205 114.075C193.35 113.621 194.606 113.092 195.752 112.637C197.008 112.108 198.154 111.654 199.485 111.235C200.631 110.781 201.887 110.251 203.032 109.797C203.661 109.532 204.443 109.971 204.707 110.599C204.897 111.117 204.68 111.749 204.127 112.124C204.052 112.013 203.941 112.088 203.83 112.163Z" fill="#315760"/>
<path d="M146.991 202.423C144.356 202.111 141.646 201.689 139.011 201.377C136.301 200.954 133.667 200.642 130.846 200.294C128.136 199.871 125.316 199.524 122.641 198.915C120.042 198.418 117.478 197.734 114.914 197.051C112.276 196.257 109.637 195.463 107.109 194.593C104.505 193.614 101.977 192.745 99.2989 191.654C96.8063 190.6 94.203 189.62 91.7459 188.379C89.2888 187.139 86.8318 185.899 84.2996 184.548C82.0282 183.343 79.6817 182.027 77.5209 180.747C76.403 180.052 75.3601 179.467 74.2422 178.772C73.6457 178.369 73.0492 177.966 72.5278 177.674C72.267 177.528 72.0063 177.381 71.7811 177.05C71.5204 176.903 71.3703 176.682 71.2202 176.461C70.92 176.019 70.916 175.537 71.0978 175.09C71.2795 174.644 71.9076 174.379 72.3895 174.375C72.5752 174.411 72.8359 174.557 73.0216 174.593L73.0966 174.703C73.7682 175.217 74.3647 175.62 75.0362 176.133C77.3471 177.634 79.6936 178.95 82.0401 180.265C84.3866 181.581 86.9187 182.932 89.3758 184.172C90.6043 184.793 91.8329 185.413 93.0614 186.033C98.0111 188.328 103.107 190.363 108.163 192.101C109.503 192.646 110.877 193.005 112.327 193.476L112.141 193.44C114.223 194.127 116.341 194.629 118.347 195.206C120.465 195.708 122.582 196.209 124.624 196.6C129.934 197.521 135.389 198.181 140.734 198.915C142.887 199.232 145.04 199.548 147.192 199.864C147.86 199.895 148.385 200.67 148.354 201.337C148.283 201.708 148.026 202.044 147.805 202.194C147.584 202.344 147.287 202.384 146.991 202.423Z" fill="#F8D5CF"/>
<path d="M152.361 174.388C151.879 174.392 151.468 174.025 151.021 173.843C150.389 173.626 149.757 173.408 149.161 173.005C147.897 172.571 146.558 172.026 145.293 171.591C142.765 170.722 140.273 169.667 137.744 168.798C135.663 168.111 133.581 167.423 131.61 166.661C130.606 166.373 129.528 165.974 128.56 165.5C127.482 165.101 126.514 164.627 125.435 164.228C125.25 164.192 124.914 163.935 124.689 163.603C124.539 163.382 124.535 162.9 124.681 162.64C124.898 162.007 125.747 161.593 126.269 161.885C127.422 162.395 128.651 163.015 129.915 163.449C131.068 163.959 132.257 164.283 133.411 164.793C135.939 165.662 138.467 166.531 140.996 167.4C143.077 168.087 145.124 168.96 147.095 169.723C147.988 170.086 149.066 170.485 149.959 170.849C150.405 171.03 151.037 171.248 151.484 171.429C151.93 171.611 152.191 171.757 152.637 171.939C153.269 172.156 153.644 172.709 153.613 173.377C153.542 173.748 153.285 174.084 152.953 174.309C152.953 174.309 152.732 174.459 152.361 174.388Z" fill="#F8D5CF"/>
<path d="M112.466 156.066C112.023 156.366 111.466 156.259 110.984 156.263C110.242 156.121 109.902 155.382 110.044 154.64C110.187 153.897 110.925 153.557 111.668 153.7C111.854 153.735 111.964 153.66 112.15 153.696C112.521 153.767 112.857 154.024 112.896 154.32C113.272 154.873 113.205 155.726 112.466 156.066C112.466 156.066 112.652 156.101 112.466 156.066Z" fill="#F8D5CF"/>
<path d="M169.684 148.257C164.592 146.705 159.278 145.302 154.187 143.75C151.548 142.956 149.02 142.086 146.416 141.107C143.813 140.127 141.245 138.962 138.713 137.611C137.485 136.99 136.292 136.184 135.174 135.489C134.056 134.794 132.938 134.099 131.931 133.328C130.738 132.522 129.58 131.531 128.387 130.725C127.305 129.844 126.222 128.963 125.14 128.082C121.032 124.408 117.255 120.509 113.625 116.35C112.428 115.062 111.342 113.699 110.255 112.336C109.619 111.637 109.169 110.973 108.644 110.199C108.419 109.867 108.118 109.425 108.189 109.053C108.146 108.275 108.845 107.639 109.588 107.781C110.07 107.777 110.481 108.145 110.595 108.552C110.595 108.552 110.595 108.552 110.67 108.662C111.571 109.99 112.618 111.056 113.629 112.308C114.64 113.561 115.837 114.849 116.848 116.101C116.848 116.101 116.848 116.101 116.773 115.99C116.773 115.99 116.773 115.99 116.848 116.101C116.848 116.101 116.848 116.101 116.923 116.211C116.923 116.211 116.923 116.211 116.848 116.101C118.606 117.977 120.364 119.854 122.197 121.841C124.066 123.642 125.934 125.443 127.913 127.17C129.146 128.272 130.414 129.188 131.757 130.215C133.025 131.132 134.293 132.048 135.561 132.965C136.754 133.771 138.057 134.502 139.361 135.232C140.665 135.963 142.079 136.619 143.382 137.35C145.057 138.152 146.657 138.843 148.368 139.459C149.968 140.151 151.603 140.656 153.238 141.162C158.33 142.715 163.644 144.117 168.736 145.67C169.293 145.776 169.739 145.958 170.371 146.175C170.742 146.246 171.003 146.393 171.118 146.799C171.268 147.021 171.382 147.428 171.311 147.799C171.24 148.17 171.019 148.32 170.687 148.545C170.351 148.289 169.944 148.403 169.684 148.257Z" fill="#F8D5CF"/>
<path d="M130.929 233.031C128.298 233.2 125.556 233.445 122.85 233.505C120.144 233.564 117.438 233.623 114.733 233.682C112.027 233.741 109.246 233.69 106.54 233.749C103.759 233.698 101.053 233.757 98.3071 233.52C96.7862 233.421 95.1547 233.398 93.5588 233.188C92.8162 233.046 91.9629 232.979 91.2202 232.837C90.8489 232.765 90.4025 232.584 89.9917 232.216C89.6915 231.774 89.6125 231.181 90.0154 230.585C90.4183 229.988 91.1966 229.945 91.718 230.237C91.7931 230.348 91.9037 230.273 91.9037 230.273C94.0566 230.589 96.2451 230.719 98.4335 230.85C103.885 231.027 109.372 231.02 114.859 231.012C117.565 230.953 120.16 230.968 122.791 230.799C125.497 230.739 128.128 230.569 130.759 230.4C131.537 230.356 132.098 230.945 132.067 231.612C132.106 231.909 131.924 232.355 131.703 232.505C131.593 232.58 131.593 232.58 131.482 232.655C131.521 232.952 131.225 232.991 130.929 233.031Z" fill="#F8D5CF"/>
<path d="M142.404 230.897C142.254 230.676 142.139 230.269 142.21 229.898C142.282 229.527 142.503 229.376 142.835 229.151C143.388 228.776 144.205 229.029 144.581 229.582C144.731 229.803 144.845 230.21 144.774 230.581C144.703 230.953 144.482 231.103 144.15 231.328C143.597 231.703 142.779 231.45 142.404 230.897Z" fill="#F8D5CF"/>
<path d="M151.098 269.421C149.727 269.543 148.282 269.555 146.836 269.567C145.576 269.614 144.24 269.551 142.98 269.599C140.274 269.658 137.643 269.828 134.937 269.887C133.974 269.895 133.085 270.013 132.01 270.096C132.01 270.096 132.121 270.021 132.196 270.132C129.454 270.377 126.602 270.697 123.861 270.941C121.194 271.297 118.528 271.652 115.826 272.194C113.013 272.81 110.236 273.24 107.423 273.857C104.721 274.398 102.019 274.939 99.2423 275.369C97.5397 275.717 95.9477 275.99 94.17 276.227C93.3918 276.27 92.5781 276.499 91.7999 276.543C91.3179 276.547 90.7254 276.626 90.279 276.444C89.8326 276.262 89.718 275.855 89.6035 275.448C89.4494 274.745 89.963 274.074 90.6661 273.92C90.9624 273.88 91.1481 273.916 91.3337 273.951C92.7045 273.829 94.0002 273.596 95.2959 273.363C96.5916 273.13 97.998 272.822 99.2937 272.588C102.106 271.972 104.883 271.542 107.696 270.925C110.398 270.384 113.1 269.843 115.802 269.302C118.504 268.761 121.356 268.441 124.133 268.01C129.652 267.335 135.024 266.92 140.547 266.727C142.289 266.675 143.921 266.699 145.663 266.648C146.516 266.715 147.294 266.671 148.258 266.664C149.222 266.656 150.111 266.537 151.075 266.529C151.853 266.486 152.414 267.074 152.382 267.742C152.422 268.038 152.24 268.485 152.019 268.635C151.908 268.71 151.908 268.71 151.797 268.785C151.505 269.306 151.394 269.381 151.098 269.421Z" fill="#F8D5CF"/>
<path d="M148.8 305.55C147.133 305.712 145.502 305.688 143.835 305.85C141.686 306.016 139.612 306.293 137.538 306.569C135.353 306.921 133.244 307.383 131.059 307.734L131.17 307.659C129.171 308.046 127.247 308.544 125.213 309.117C124.289 309.421 123.289 309.615 122.365 309.919C121.44 310.223 120.516 310.527 119.592 310.831L119.481 310.906C119.37 310.981 119.26 311.057 119.074 311.021C118.185 311.139 117.549 310.44 117.616 309.587C117.723 309.03 117.98 308.694 118.497 308.505C118.719 308.354 119.125 308.24 119.422 308.2C120.05 307.936 120.642 307.857 121.27 307.592C122.602 307.173 123.933 306.755 125.339 306.447C127.966 305.795 130.593 305.143 133.295 304.602C135.887 304.136 138.368 303.745 140.923 303.464C143.479 303.184 146.11 303.014 148.741 302.844C149.519 302.801 150.08 303.389 150.049 304.057C150.053 304.539 149.796 304.875 149.464 305.1C149.318 305.361 149.097 305.511 148.8 305.55Z" fill="#F8D5CF"/>
<path d="M159.604 334.566C158.343 334.613 157.048 334.846 155.788 334.894C154.417 335.016 153.121 335.249 151.825 335.482C149.159 335.838 146.643 336.415 143.941 336.956C143.237 337.11 142.424 337.339 141.645 337.382C139.018 338.034 136.391 338.686 133.84 339.448C132.619 339.792 131.288 340.211 130.067 340.554C129.55 340.744 128.846 340.898 128.329 341.088C127.922 341.202 127.365 341.095 127.029 340.839C126.618 340.471 126.464 339.768 126.757 339.247C126.903 338.986 127.235 338.761 127.642 338.646C128.159 338.457 128.752 338.378 129.269 338.188C129.897 337.923 130.49 337.844 131.193 337.69C132.524 337.272 133.82 337.039 135.151 336.62C136.482 336.201 137.889 335.893 139.295 335.585C140.626 335.166 141.922 334.933 143.218 334.7C145.92 334.159 148.622 333.618 151.288 333.262C153.769 332.871 156.325 332.591 158.881 332.31C159.066 332.346 159.177 332.271 159.363 332.306C160.141 332.263 160.737 332.666 160.781 333.444C160.785 333.926 160.678 334.483 160.236 334.783C159.9 334.526 159.789 334.601 159.604 334.566Z" fill="#F8D5CF"/>
<path d="M145.38 290.749C145.269 290.824 144.973 290.863 144.862 290.938C144.566 290.978 144.381 290.942 144.195 290.907C144.084 290.982 143.899 290.946 143.788 291.021C141.157 291.191 138.566 291.657 136.01 291.938C135.307 292.092 134.635 291.578 134.481 290.875C134.327 290.172 134.841 289.5 135.619 289.457C137.1 289.259 138.581 289.062 140.173 288.789C140.952 288.746 141.84 288.627 142.619 288.584C143.101 288.58 143.508 288.465 143.879 288.537C144.361 288.533 144.843 288.529 145.214 288.6C145.66 288.782 146.111 289.445 146.004 290.002C145.933 290.373 145.676 290.709 145.344 290.934C145.566 290.784 145.455 290.859 145.38 290.749Z" fill="#F8D5CF"/>
<path d="M120.264 293.253C120.264 293.253 120.375 293.178 120.264 293.253C120.45 293.288 120.45 293.288 120.264 293.253C120.45 293.288 120.45 293.288 120.525 293.399C119.968 293.292 119.557 292.925 119.368 292.407C119.218 292.186 119.178 291.89 119.324 291.629C119.466 290.887 120.205 290.547 120.948 290.689C121.319 290.76 121.655 291.017 121.805 291.238C122.105 291.681 122.184 292.273 122.002 292.719C121.967 292.905 121.746 293.055 121.635 293.13C121.118 293.32 120.711 293.434 120.264 293.253Z" fill="#F8D5CF"/>
<path d="M105.423 219.484C104.087 219.421 102.788 219.172 101.453 219.109C100.117 219.046 98.8176 218.797 97.4824 218.734C96.0722 218.56 94.8476 218.421 93.4373 218.248C92.7697 218.216 92.1377 217.999 91.5807 217.892C91.2093 217.821 90.838 217.75 90.5773 217.604C89.9452 217.386 89.3843 216.798 89.5265 216.055C89.7359 214.459 91.5926 214.815 92.7421 214.842C92.7421 214.842 92.7421 214.842 92.8527 214.767C93.149 214.728 93.4097 214.874 93.6704 215.02C93.9312 215.166 94.0062 215.277 94.0457 215.573C95.8273 215.818 97.6089 216.063 99.5011 216.233C101.579 216.438 103.732 216.754 105.92 216.885C106.588 216.916 107.113 217.691 107.082 218.358C107.011 218.73 106.754 219.065 106.533 219.216C106.015 219.405 105.719 219.445 105.423 219.484Z" fill="#F8D5CF"/>
<path d="M127.564 179.744C127.343 179.894 126.972 179.823 126.786 179.788L126.6 179.752C126.154 179.57 125.522 179.353 125.075 179.171C124.443 178.954 123.811 178.737 123.29 178.444C122.026 178.01 120.687 177.465 119.533 176.955C116.93 175.975 114.327 174.996 111.723 174.016C109.381 173.182 106.963 172.238 104.656 171.219C102.349 170.2 99.9673 169.07 97.771 167.976C97.0639 167.648 96.9454 166.759 97.2377 166.238C97.6406 165.641 98.3438 165.487 98.9758 165.704C100.129 166.214 101.247 166.909 102.401 167.419C102.401 167.419 102.326 167.308 102.215 167.383C104.597 168.513 107.09 169.568 109.582 170.623C112.075 171.677 114.603 172.546 117.206 173.526C118.992 174.253 120.888 174.905 122.599 175.521C123.491 175.885 124.384 176.248 125.277 176.611C125.723 176.793 126.17 176.975 126.727 177.082C127.098 177.153 127.544 177.334 127.805 177.481C128.252 177.662 128.627 178.215 128.631 178.697C128.635 179.179 128.378 179.515 128.046 179.74C127.675 179.669 127.564 179.744 127.564 179.744Z" fill="#F8D5CF"/>
<path d="M149.431 124.361C148.313 123.666 147.195 122.971 146.077 122.276C144.959 121.58 143.766 120.774 142.648 120.079C140.338 118.578 138.137 117.002 136.048 115.351C134.369 114.067 132.69 112.783 131.046 111.313C130.3 110.689 129.478 109.954 128.767 109.145C128.392 108.591 128.127 107.963 128.455 107.256C128.783 106.549 129.782 106.356 130.454 106.869C130.715 107.015 130.94 107.347 130.979 107.643L131.054 107.754C131.765 108.564 132.587 109.299 133.519 109.958C137.588 113.336 141.989 116.488 146.461 119.269C147.914 120.221 149.368 121.174 150.932 122.05C151.529 122.453 151.758 123.267 151.466 123.789C151.43 123.974 151.209 124.124 151.098 124.199C150.359 124.539 149.877 124.543 149.431 124.361Z" fill="#F8D5CF"/>
<path d="M163.631 129.102C163.52 129.177 163.334 129.141 163.149 129.106C162.631 129.295 162.074 129.189 161.588 128.711C161.213 128.158 161.28 127.305 161.833 126.929C162.165 126.704 162.572 126.59 162.979 126.475C163.275 126.435 163.572 126.396 163.943 126.467C164.575 126.684 164.99 127.534 164.697 128.055C164.697 128.055 164.662 128.241 164.551 128.316C164.516 128.502 164.294 128.652 164.184 128.727C164.038 128.987 163.852 128.952 163.631 129.102Z" fill="#F8D5CF"/>
<path d="M155.192 112.376C153.292 111.242 151.502 110.033 149.602 108.899C148.559 108.315 147.702 107.766 146.659 107.181C146.399 107.035 146.138 106.889 145.913 106.557C145.687 106.225 145.684 105.743 145.755 105.372C145.901 105.111 146.158 104.775 146.379 104.625C146.896 104.435 147.268 104.507 147.603 104.763C147.678 104.874 147.864 104.91 147.939 105.02C148.536 105.423 149.318 105.862 149.914 106.265C150.696 106.703 151.293 107.106 152.075 107.544C153.454 108.386 154.832 109.227 156.211 110.069C156.472 110.215 156.697 110.547 156.847 110.768C156.887 111.064 156.815 111.436 156.744 111.807C156.709 111.993 156.488 112.143 156.377 112.218C156.12 112.553 155.713 112.668 155.192 112.376Z" fill="#F8D5CF"/>
<path d="M151.369 352.429C151.108 352.283 150.883 351.951 150.844 351.655C150.689 350.952 150.982 350.43 151.349 350.019C151.681 349.794 151.902 349.644 152.234 349.419C152.787 349.044 153.605 349.296 153.98 349.85C154.355 350.403 154.103 351.22 153.55 351.596C153.439 351.671 153.439 351.671 153.328 351.746C153.293 351.931 153.182 352.006 153.072 352.081C152.961 352.156 152.925 352.342 152.815 352.417C152.447 352.828 151.78 352.796 151.369 352.429Z" fill="#F8D5CF"/>
<path d="M225.509 234.84C225.312 234.781 225.312 234.781 225.509 234.84C225.232 234.33 225.349 233.936 225.407 233.74C225.269 233.485 225.327 233.288 225.444 232.895C225.502 232.699 225.561 232.502 225.422 232.247C225.226 232.189 224.891 231.875 224.694 231.817C223.493 230.819 222.999 229.603 223.014 228.11C222.97 226.814 223.379 225.438 223.729 224.258C224.625 221.957 225.66 219.911 226.891 217.924C228.298 215.346 229.843 213.024 231.584 210.76C231.642 210.563 231.759 210.17 231.817 209.974C233.61 205.372 235.796 200.887 238.514 196.774C241.094 192.405 244.066 188.154 247.316 184.412C248.94 182.541 250.761 180.728 252.524 179.112C254.542 177.358 256.363 175.546 258.323 173.988C260.282 172.43 262.242 170.873 264.398 169.373C266.495 168.071 268.593 166.768 270.887 165.524C275.614 163.29 280.283 161.252 285.228 159.725C289.78 158.081 294.412 156.888 299.044 155.696C303.872 154.562 308.78 153.879 313.827 153.451C318.619 153.162 323.469 152.676 328.399 152.641C333.132 152.548 337.691 153.045 342.446 153.6C344.725 153.849 347.142 154.352 349.363 154.797C351.584 155.242 353.747 155.884 355.851 156.722C356.441 156.897 356.972 157.268 357.562 157.443C358.821 158.245 359.768 159.381 360.204 160.794C360.859 162.914 359.824 164.959 358.847 166.809C358.301 167.93 357.558 168.993 356.814 170.056C356.13 170.922 355.386 171.985 354.702 172.851C351.649 176.651 348.538 180.648 345.289 184.39C342.04 188.132 338.456 191.56 335.068 195.047C331.484 198.476 327.958 201.708 324.236 204.881C316.595 211.17 308.56 217.342 299.42 221.475C294.948 223.571 290.454 225.018 285.764 226.407C283.39 227.2 280.877 227.738 278.561 228.334C276.245 228.931 273.929 229.527 271.417 230.065C268.904 230.603 266.392 231.141 263.879 231.679C261.622 232.078 259.306 232.675 257.048 233.074C252.533 233.874 248.055 233.828 243.576 233.783C242.28 233.826 240.845 233.615 239.549 233.658C238.056 233.643 236.622 233.431 235.326 233.474C234.088 233.321 232.792 233.364 231.554 233.211C230.906 233.232 230.119 232.999 229.471 233.02C229.078 232.904 228.626 232.984 228.233 232.867C228.037 232.809 227.84 232.75 227.447 232.634C226.799 232.655 226.405 232.539 225.816 232.364C225.641 232.954 225.466 233.543 225.349 233.936L225.291 234.133C225.371 234.585 225.371 234.585 225.509 234.84C225.451 235.036 225.509 234.84 225.509 234.84C225.451 235.036 225.451 235.036 225.509 234.84C225.647 235.094 225.647 235.094 225.509 234.84C225.647 235.094 225.647 235.094 225.509 234.84C225.705 234.898 225.647 235.094 225.647 235.094C225.647 235.094 225.647 235.094 225.509 234.84C225.451 235.036 225.451 235.036 225.509 234.84Z" fill="#579D8C"/>
<path d="M225.92 227.689C225.367 226.669 225.717 225.49 226.737 224.937C228.521 223.969 230.247 223.197 232.032 222.23C233.816 221.262 235.601 220.294 237.385 219.326C240.954 217.39 244.523 215.455 248.092 213.519C251.661 211.583 255.23 209.647 258.799 207.712C262.623 205.638 266.192 203.702 270.154 201.883C273.919 200.006 277.43 198.267 281.196 196.389C284.961 194.512 288.472 192.773 292.237 190.895C296.003 189.018 299.572 187.082 303.337 185.205C307.103 183.327 310.672 181.392 314.299 179.259C321.437 175.388 328.771 171.575 336.441 168.075C340.148 166.394 344.052 164.772 347.759 163.091C349.682 162.378 351.408 161.607 353.33 160.894C354.292 160.537 355.45 160.239 356.411 159.883C357.569 159.585 359.179 159.207 360.183 160.146C360.853 160.773 360.816 161.618 360.583 162.404C360.095 163.329 359.075 163.882 358.092 163.59C357.386 163.808 356.679 164.026 356.228 164.106C352.44 165.336 348.733 167.016 345.084 168.501C341.377 170.181 337.67 171.862 333.963 173.543C330.256 175.224 326.687 177.159 322.921 179.037C319.352 180.973 315.783 182.908 312.214 184.844C308.645 186.78 304.88 188.657 301.114 190.534C297.545 192.47 293.838 194.151 290.073 196.028C286.307 197.906 282.541 199.783 278.776 201.66C275.01 203.538 271.303 205.219 267.734 207.154C263.969 209.032 260.4 210.967 256.773 213.1C253.204 215.035 249.693 216.775 246.321 218.769C243.516 220.29 240.457 221.949 237.653 223.47C236.379 224.161 234.849 224.991 233.574 225.682C231.477 226.985 230.005 227.618 228.673 228.506C228.163 228.782 227.515 228.804 227.121 228.687C226.532 228.512 226.197 228.199 225.92 227.689Z" fill="#315760"/>
<path d="M498.511 294.641C498.223 292.048 497.743 289.455 497.263 286.862C496.974 285.517 496.782 284.173 496.398 282.828C496.11 281.676 495.822 280.524 495.534 279.371C490.828 261.893 475.846 241.821 460.193 232.697C443.674 223.094 423.507 219.444 405.548 227.512C376.257 240.572 372.031 274.089 384.324 300.787C389.798 312.696 397.289 325.469 406.604 334.592C419.185 346.981 438.008 353.511 455.679 351.686C480.648 349.19 497.839 327.197 498.799 302.708C498.895 300.115 498.895 297.33 498.511 294.641ZM397.769 235.579C398.057 235.386 398.249 235.29 398.441 235.194C398.249 235.387 397.961 235.483 397.769 235.579ZM472.773 247.391C472.965 247.583 473.253 247.679 473.446 247.871C473.253 247.679 472.965 247.583 472.773 247.391Z" fill="#EA424E"/>
<path d="M498.751 255.466C498.559 255.082 498.27 254.794 497.982 254.506C497.694 254.314 497.502 254.026 497.214 253.834C496.926 253.642 496.638 253.45 496.35 253.258C495.87 252.97 495.293 252.681 494.717 252.489C492.508 251.625 490.203 250.953 487.995 250.184C486.17 249.512 484.441 248.84 482.617 248.168C480.408 247.303 478.295 246.535 476.086 245.671C475.03 245.191 473.973 244.806 473.013 244.326C472.917 244.326 472.821 244.23 472.725 244.23C473.301 243.942 473.781 243.654 474.357 243.27C475.318 242.79 476.278 242.213 477.238 241.733C479.351 240.581 481.464 239.428 483.577 238.18C485.594 237.028 487.514 235.779 489.531 234.531C490.011 234.242 490.491 233.954 490.972 233.57C491.164 233.378 491.452 233.282 491.644 233.09C491.932 232.898 492.316 232.706 492.508 232.418C492.796 232.13 492.988 231.842 493.084 231.457C493.181 231.073 493.181 230.785 493.084 230.497C492.988 230.113 492.7 229.825 492.412 229.537C492.124 229.345 491.836 229.249 491.452 229.153C490.684 228.96 489.915 229.153 489.243 229.249C486.842 229.633 484.537 230.113 482.232 230.593C480.504 230.977 478.871 231.265 477.142 231.649C475.51 231.938 473.877 232.322 472.245 232.61C470.708 232.898 469.171 233.186 467.539 233.282C467.443 233.282 467.347 233.282 467.251 233.282C467.251 233.186 467.251 232.994 467.251 232.898C467.251 232.514 467.155 232.034 467.155 231.649C467.059 229.249 466.867 226.848 466.674 224.543C466.482 222.238 466.29 219.933 465.906 217.628C465.714 216.476 465.522 215.227 465.234 214.075C465.138 213.499 464.946 213.018 464.85 212.538C464.754 212.25 464.658 211.962 464.562 211.674C464.562 211.578 464.562 211.578 464.466 211.482C464.178 210.81 463.697 210.233 463.025 210.041C462.545 209.945 461.969 209.945 461.489 210.233C461.2 210.425 460.912 210.714 460.72 211.002C460.336 211.578 460.24 212.154 460.048 212.826C459.952 213.403 459.76 214.075 459.664 214.651C459.568 214.939 459.568 215.131 459.472 215.419C459.376 216.092 459.184 216.764 459.088 217.34C458.607 219.645 457.935 221.95 457.359 224.255C456.783 226.367 456.11 228.48 455.438 230.497C455.246 231.073 455.054 231.649 454.862 232.226C454.766 232.13 454.67 232.034 454.67 231.938C453.325 230.113 451.885 228.384 450.444 226.56C449.004 224.639 447.563 222.814 446.027 220.989C445.258 220.125 444.49 219.357 443.626 218.493C443.242 218.108 442.761 217.724 442.377 217.244C441.993 216.86 441.609 216.476 441.225 216.092C440.841 215.707 440.361 215.419 439.784 215.323C439.016 215.227 438.344 215.707 438.152 216.38C437.96 217.148 438.248 218.012 438.536 218.685C438.92 219.837 439.304 220.893 439.784 222.046C440.649 224.255 441.609 226.367 442.761 228.384C443.914 230.401 445.258 232.322 446.411 234.339C446.987 235.299 447.563 236.355 448.236 237.316C448.524 237.796 448.812 238.18 449.1 238.66C449.196 238.852 449.388 239.14 449.58 239.332C448.908 239.621 448.236 239.909 447.467 240.197C444.202 241.349 440.841 242.117 437.479 242.982C435.175 243.558 432.87 244.23 430.565 244.806C428.356 245.383 426.147 246.055 423.842 246.535C423.266 246.631 422.786 246.727 422.21 246.823C421.922 246.919 421.633 246.919 421.345 247.111C421.057 247.303 420.769 247.495 420.673 247.784C420.481 248.168 420.385 248.552 420.481 249.032C420.577 249.416 420.769 249.704 421.057 249.896C421.537 250.281 422.21 250.281 422.882 250.184C423.266 250.184 423.554 250.185 423.842 250.088C424.419 250.088 424.995 249.992 425.571 249.896C426.723 249.8 427.78 249.704 428.932 249.608C431.333 249.32 433.638 249.128 436.039 248.936C438.44 248.744 440.841 248.552 443.242 248.36C445.45 248.168 447.659 247.88 449.868 247.688C450.156 247.688 450.348 247.688 450.636 247.592C450.54 248.36 450.444 249.128 450.348 249.992C450.156 251.049 450.06 252.105 449.868 253.162C449.58 255.178 449.196 257.099 448.812 259.02C448.716 259.404 448.62 259.788 448.62 260.076C448.14 262.477 447.563 264.878 447.083 267.279C447.083 267.471 446.987 267.663 446.987 267.855C446.891 268.527 446.699 269.2 446.603 269.776C446.507 270.448 446.411 271.024 446.699 271.601C446.891 271.985 447.179 272.369 447.467 272.561C447.659 272.657 447.851 272.753 448.043 272.753C448.236 272.849 448.428 272.849 448.716 272.753C449.58 272.657 450.252 272.081 450.732 271.409C451.117 270.928 451.501 270.352 451.789 269.872C452.173 269.296 452.461 268.72 452.749 268.143C453.325 267.087 453.806 266.127 454.382 265.07C454.958 264.014 455.534 262.957 456.111 261.997C457.263 260.076 458.511 258.156 459.76 256.235C460.048 255.851 460.336 255.37 460.624 254.986C460.72 255.082 460.72 255.178 460.816 255.274C461.489 256.235 462.161 257.195 462.833 258.156C463.601 259.116 464.274 260.076 465.042 261.133C466.386 262.957 467.635 264.878 468.979 266.703C469.171 266.991 469.364 267.279 469.556 267.471C470.708 269.2 471.86 271.024 473.109 272.849C473.781 273.809 474.453 274.674 475.126 275.538C475.894 276.402 476.662 277.363 477.431 278.131C477.623 278.323 477.815 278.515 478.007 278.707C478.391 279.091 478.775 279.476 479.255 279.572C479.447 279.572 479.639 279.668 479.831 279.668C479.928 279.668 479.927 279.668 480.024 279.668C480.216 279.668 480.408 279.572 480.504 279.476C480.888 279.38 481.08 278.995 481.368 278.707C481.56 278.419 481.56 278.035 481.656 277.747C481.656 277.459 481.656 277.075 481.656 276.787C481.464 275.634 481.176 274.386 480.888 273.233C480.312 271.024 479.447 268.816 478.583 266.607C477.719 264.398 476.662 262.189 475.606 260.076C475.606 260.172 475.702 260.172 475.702 260.268C475.318 259.596 475.03 258.924 474.742 258.156C475.702 258.156 476.662 258.156 477.527 258.156C478.775 258.156 480.024 258.059 481.272 257.963C483.673 257.771 486.17 257.675 488.571 257.579C490.876 257.483 493.084 257.483 495.389 257.483C495.677 257.483 495.966 257.483 496.254 257.483C496.734 257.483 497.118 257.483 497.598 257.195C498.751 257.003 499.039 256.139 498.751 255.466ZM486.65 232.994C486.266 233.282 485.882 233.474 485.498 233.762C485.882 233.474 486.266 233.186 486.65 232.994ZM477.238 234.627C477.335 234.627 477.335 234.627 477.238 234.627C477.719 234.531 478.199 234.435 478.583 234.339C478.199 234.435 477.719 234.531 477.238 234.627ZM445.066 223.198C445.066 223.294 445.066 223.294 445.066 223.198C445.354 223.486 445.547 223.775 445.835 224.063C445.547 223.775 445.258 223.486 445.066 223.198ZM432.39 246.919C432.678 246.823 432.966 246.727 433.254 246.631C433.062 246.727 432.774 246.823 432.39 246.919Z" fill="#7BC0B3"/>
</svg>
